<?xml version="1.0" encoding="UTF-8" standalone="no"?>
<svg
   xmlns:dc="http://purl.org/dc/elements/1.1/"
   xmlns:cc="http://creativecommons.org/ns#"
   xmlns:rdf="http://www.w3.org/1999/02/22-rdf-syntax-ns#"
   xmlns:svg="http://www.w3.org/2000/svg"
   xmlns="http://www.w3.org/2000/svg"
   xmlns:sodipodi="http://sodipodi.sourceforge.net/DTD/sodipodi-0.dtd"
   xmlns:inkscape="http://www.inkscape.org/namespaces/inkscape"
   inkscape:version="1.0 (4035a4fb49, 2020-05-01)"
   sodipodi:docname="display-brightness-off-symbolic.svg"
   id="svg6"
   version="1.1"
   height="16"
   width="16">
  <metadata
     id="metadata12">
    <rdf:RDF>
      <cc:Work
         rdf:about="">
        <dc:format>image/svg+xml</dc:format>
        <dc:type
           rdf:resource="http://purl.org/dc/dcmitype/StillImage" />
      </cc:Work>
    </rdf:RDF>
  </metadata>
  <defs
     id="defs10" />
  <sodipodi:namedview
     inkscape:current-layer="svg6"
     inkscape:window-maximized="0"
     inkscape:window-y="36"
     inkscape:window-x="8"
     inkscape:cy="8"
     inkscape:cx="8"
     inkscape:zoom="53.8125"
     showgrid="false"
     id="namedview8"
     inkscape:window-height="1000"
     inkscape:window-width="1904"
     inkscape:pageshadow="2"
     inkscape:pageopacity="0"
     guidetolerance="10"
     gridtolerance="10"
     objecttolerance="10"
     borderopacity="1"
     bordercolor="#666666"
     pagecolor="#ffffff" />
  <g
     transform="translate(0.5,-0.5)"
     id="g839">
    <g
       transform="translate(-613,191)"
       opacity="0.35"
       id="g4">
      <path
         d="m 620.25,-190 a 0.25,0.25 0 0 0 -0.25,0.25 v 1.5 c 0,0.139 0.112,0.25 0.25,0.25 h 0.5 a 0.25,0.25 0 0 0 0.25,-0.25 v -1.5 a 0.25,0.25 0 0 0 -0.25,-0.25 z m -4.699,1.947 a 0.25,0.25 0 0 0 -0.178,0.073 l -0.353,0.353 a 0.25,0.25 0 0 0 0,0.354 l 1.06,1.06 a 0.25,0.25 0 0 0 0.354,0 l 0.353,-0.353 a 0.25,0.25 0 0 0 0,-0.354 l -1.06,-1.06 a 0.246,0.246 0 0 0 -0.176,-0.073 z m 9.898,0 a 0.246,0.246 0 0 0 -0.175,0.073 l -1.06,1.06 a 0.25,0.25 0 0 0 0,0.354 l 0.353,0.353 a 0.25,0.25 0 0 0 0.353,0 l 1.06,-1.06 a 0.25,0.25 0 0 0 0,-0.354 l -0.353,-0.353 a 0.25,0.25 0 0 0 -0.178,-0.073 z M 620.5,-186 a 3.5,3.5 0 0 0 -3.5,3.5 3.5,3.5 0 0 0 3.5,3.5 3.5,3.5 0 0 0 3.5,-3.5 3.5,3.5 0 0 0 -3.5,-3.5 z m 0,1 a 2.5,2.5 0 0 1 2.5,2.5 2.5,2.5 0 0 1 -2.5,2.5 2.5,2.5 0 0 1 -2.5,-2.5 2.5,2.5 0 0 1 2.5,-2.5 z m -7.25,2 a 0.25,0.25 0 0 0 -0.25,0.25 v 0.5 c 0,0.139 0.112,0.25 0.25,0.25 h 1.5 a 0.25,0.25 0 0 0 0.25,-0.25 v -0.5 a 0.25,0.25 0 0 0 -0.25,-0.25 z m 13,0 a 0.25,0.25 0 0 0 -0.25,0.25 v 0.5 c 0,0.139 0.112,0.25 0.25,0.25 h 1.5 a 0.25,0.25 0 0 0 0.25,-0.25 v -0.5 a 0.25,0.25 0 0 0 -0.25,-0.25 z m -9.992,4.139 a 0.252,0.252 0 0 0 -0.178,0.074 l -1.06,1.06 a 0.25,0.25 0 0 0 0,0.354 l 0.353,0.353 a 0.25,0.25 0 0 0 0.354,0 l 1.06,-1.06 a 0.25,0.25 0 0 0 0,-0.354 l -0.353,-0.353 a 0.248,0.248 0 0 0 -0.176,-0.074 z m 8.484,0 a 0.248,0.248 0 0 0 -0.175,0.074 l -0.354,0.353 a 0.25,0.25 0 0 0 0,0.354 l 1.06,1.06 a 0.25,0.25 0 0 0 0.354,0 l 0.354,-0.353 a 0.25,0.25 0 0 0 0,-0.354 l -1.06,-1.06 a 0.252,0.252 0 0 0 -0.179,-0.074 z M 620.25,-177 a 0.25,0.25 0 0 0 -0.25,0.25 v 1.5 c 0,0.139 0.112,0.25 0.25,0.25 h 0.5 a 0.25,0.25 0 0 0 0.25,-0.25 v -1.5 a 0.25,0.25 0 0 0 -0.25,-0.25 z"
         fill="#dfdfdf"
         overflow="visible"
         style="isolation:auto;mix-blend-mode:normal"
         id="path2" />
    </g>
  </g>
</svg>
