<?xml version="1.0" encoding="UTF-8" standalone="no"?>
<svg
   xmlns:dc="http://purl.org/dc/elements/1.1/"
   xmlns:cc="http://creativecommons.org/ns#"
   xmlns:rdf="http://www.w3.org/1999/02/22-rdf-syntax-ns#"
   xmlns:svg="http://www.w3.org/2000/svg"
   xmlns="http://www.w3.org/2000/svg"
   xmlns:sodipodi="http://sodipodi.sourceforge.net/DTD/sodipodi-0.dtd"
   xmlns:inkscape="http://www.inkscape.org/namespaces/inkscape"
   style="clip-rule:evenodd;fill-rule:evenodd;stroke-linejoin:round;stroke-miterlimit:2"
   version="1.1"
   viewBox="0 0 16 16"
   id="svg6"
   sodipodi:docname="network-cellular-2g-symbolic.svg"
   inkscape:version="0.92.5 (2060ec1f9f, 2020-04-08)">
  <metadata
     id="metadata12">
    <rdf:RDF>
      <cc:Work
         rdf:about="">
        <dc:format>image/svg+xml</dc:format>
        <dc:type
           rdf:resource="http://purl.org/dc/dcmitype/StillImage" />
        <dc:title></dc:title>
      </cc:Work>
    </rdf:RDF>
  </metadata>
  <defs
     id="defs10" />
  <sodipodi:namedview
     pagecolor="#ffffff"
     bordercolor="#666666"
     borderopacity="1"
     objecttolerance="10"
     gridtolerance="10"
     guidetolerance="10"
     inkscape:pageopacity="0"
     inkscape:pageshadow="2"
     inkscape:window-width="950"
     inkscape:window-height="1017"
     id="namedview8"
     showgrid="false"
     inkscape:zoom="14.75"
     inkscape:cx="12.135593"
     inkscape:cy="8"
     inkscape:window-x="966"
     inkscape:window-y="1098"
     inkscape:window-maximized="0"
     inkscape:current-layer="svg6" />
  <path
     inkscape:connector-curvature="0"
     style="color:#bebebe;overflow:visible;fill:#dfdfdf;fill-opacity:1"
     d="m 4.0000006,3.0000003 h 1 c 0,0 0.459,-0.014 0.947,0.23 0.489,0.245 1.053,0.937 1.053,1.77 v 2 c 0,0.21637 -0.07018,0.426904 -0.2,0.6 L 4.2500006,11 h 2.75 v 2 h -5 v -2 c 0,-0.21637 0.07018,-0.426904 0.2,-0.6 l 2.8,-3.7339997 v -1.666 h -1 v 2 h -2 v -2 c 0,-0.833 0.564,-1.525 1.053,-1.77 0.487,-0.244 0.947,-0.23 0.947,-0.23 z m 5.9999994,0 h 2 c 0.833,0 1.525,0.564 1.77,1.053 0.244,0.488 0.23,0.947 0.23,0.947 v 1 h -2 v -1 H 10 V 11 h 2 V 9 H 11 V 7.0000003 h 3 V 11 c 0,0 0.014,0.459 -0.23,0.947 C 13.525,12.436 12.833,13 12,13 h -2 c 0,0 -0.4589997,0.014 -0.9469997,-0.23 -0.489,-0.245 -1.053,-0.937 -1.053,-1.77 V 5.0000003 c 0,0 -0.014,-0.459 0.23,-0.947 0.245,-0.489 0.937,-1.053 1.7699997,-1.053 z"
     overflow="visible"
     id="path2-3"
     sodipodi:nodetypes="cccsssccccsccccccsccssccccccccccccccsccsccs" />
</svg>
