<?xml version="1.0" encoding="UTF-8" standalone="no"?>
<svg
   xmlns:dc="http://purl.org/dc/elements/1.1/"
   xmlns:cc="http://creativecommons.org/ns#"
   xmlns:rdf="http://www.w3.org/1999/02/22-rdf-syntax-ns#"
   xmlns:svg="http://www.w3.org/2000/svg"
   xmlns="http://www.w3.org/2000/svg"
   xmlns:sodipodi="http://sodipodi.sourceforge.net/DTD/sodipodi-0.dtd"
   xmlns:inkscape="http://www.inkscape.org/namespaces/inkscape"
   style="clip-rule:evenodd;fill-rule:evenodd;stroke-linejoin:round;stroke-miterlimit:2"
   version="1.1"
   viewBox="0 0 36 36"
   id="svg4"
   sodipodi:docname="system-software-install-symbolic.svg"
   inkscape:version="0.92.5 (2060ec1f9f, 2020-04-08)">
  <metadata
     id="metadata10">
    <rdf:RDF>
      <cc:Work
         rdf:about="">
        <dc:format>image/svg+xml</dc:format>
        <dc:type
           rdf:resource="http://purl.org/dc/dcmitype/StillImage" />
      </cc:Work>
    </rdf:RDF>
  </metadata>
  <defs
     id="defs8" />
  <sodipodi:namedview
     pagecolor="#ffffff"
     bordercolor="#666666"
     borderopacity="1"
     objecttolerance="10"
     gridtolerance="10"
     guidetolerance="10"
     inkscape:pageopacity="0"
     inkscape:pageshadow="2"
     inkscape:window-width="948"
     inkscape:window-height="477"
     id="namedview6"
     showgrid="false"
     inkscape:zoom="6.5555556"
     inkscape:cx="24.025424"
     inkscape:cy="18"
     inkscape:window-x="964"
     inkscape:window-y="36"
     inkscape:window-maximized="0"
     inkscape:current-layer="svg4" />
  <path
     d="m 17.999491,22.027898 5.351065,-6.751177 c 0.52167,-0.656032 1.480016,-0.767491 2.136557,-0.24633 0.658068,0.521671 0.768509,1.478999 0.247348,2.136558 l -6.535383,8.243408 c -0.300787,0.380692 -0.748661,0.577655 -1.199587,0.57511 -0.450927,0.0025 -0.897782,-0.194418 -1.199078,-0.57511 l -6.534874,-8.242899 c -0.5211617,-0.65705 -0.4107203,-1.615396 0.247348,-2.136048 0.656541,-0.521671 1.614887,-0.410212 2.136557,0.24633 z m 0,-7.587376 2.712176,-3.421648 c 0.387309,-0.488588 1.099325,-0.571547 1.588422,-0.18322 0.489099,0.387308 0.571548,1.099833 0.18373,1.587913 l -3.591636,4.53166 c -0.223936,0.282974 -0.557296,0.429042 -0.892692,0.428024 -0.335396,10e-4 -0.668247,-0.14505 -0.891674,-0.428024 l -3.592146,-4.53166 c -0.388326,-0.48808 -0.305876,-1.200605 0.183221,-1.587913 0.489098,-0.388327 1.201115,-0.305368 1.589441,0.18322 z"
     style="fill:#dfdfdf;fill-opacity:1;stroke-width:0.5089466"
     id="path2"
     inkscape:connector-curvature="0" />
  <path
     inkscape:connector-curvature="0"
     style="clip-rule:evenodd;fill:#dfdfdf;fill-opacity:1;fill-rule:evenodd;stroke-width:0.1535088;stroke-linejoin:round;stroke-miterlimit:2"
     d="m 18.152543,34.117457 c -8.8030549,0 -15.9649157,-7.161861 -15.9649157,-15.964916 0,-8.803052 7.1618608,-15.964913 15.9649157,-15.964913 8.803056,0 15.964917,7.161862 15.964917,15.964913 0,8.803055 -7.161861,15.964916 -15.964917,15.964916 z m 0,-30.333339 c 7.921793,0 14.368424,6.445036 14.368424,14.368423 0,7.923387 -6.446631,14.368423 -14.368424,14.368423 -7.921792,0 -14.3684234,-6.445036 -14.3684234,-14.368423 0,-7.923387 6.4466314,-14.368423 14.3684234,-14.368423 z"
     id="path42"
     sodipodi:nodetypes="ssssssssss" />
</svg>
