<?xml version="1.0" encoding="UTF-8" standalone="no"?>
<svg
   xmlns:dc="http://purl.org/dc/elements/1.1/"
   xmlns:cc="http://creativecommons.org/ns#"
   xmlns:rdf="http://www.w3.org/1999/02/22-rdf-syntax-ns#"
   xmlns:svg="http://www.w3.org/2000/svg"
   xmlns="http://www.w3.org/2000/svg"
   xmlns:sodipodi="http://sodipodi.sourceforge.net/DTD/sodipodi-0.dtd"
   xmlns:inkscape="http://www.inkscape.org/namespaces/inkscape"
   style="clip-rule:evenodd;fill-rule:evenodd;stroke-linejoin:round;stroke-miterlimit:2"
   version="1.1"
   viewBox="0 0 36 36"
   id="svg4"
   sodipodi:docname="system-software-install-symbolic.svg"
   inkscape:version="0.92.5 (2060ec1f9f, 2020-04-08)">
  <metadata
     id="metadata10">
    <rdf:RDF>
      <cc:Work
         rdf:about="">
        <dc:format>image/svg+xml</dc:format>
        <dc:type
           rdf:resource="http://purl.org/dc/dcmitype/StillImage" />
      </cc:Work>
    </rdf:RDF>
  </metadata>
  <defs
     id="defs8" />
  <sodipodi:namedview
     pagecolor="#ffffff"
     bordercolor="#666666"
     borderopacity="1"
     objecttolerance="10"
     gridtolerance="10"
     guidetolerance="10"
     inkscape:pageopacity="0"
     inkscape:pageshadow="2"
     inkscape:window-width="1908"
     inkscape:window-height="1017"
     id="namedview6"
     showgrid="false"
     inkscape:zoom="6.5555556"
     inkscape:cx="-9.3050847"
     inkscape:cy="18"
     inkscape:window-x="8"
     inkscape:window-y="36"
     inkscape:window-maximized="0"
     inkscape:current-layer="svg4" />
  <path
     d="m17.999 25.348 10.514-13.265c1.025-1.289 2.908-1.508 4.198-0.484 1.293 1.025 1.51 2.906 0.486 4.198l-12.841 16.197c-0.591 0.748-1.471 1.135-2.357 1.13-0.886 5e-3 -1.764-0.382-2.356-1.13l-12.84-16.196c-1.024-1.291-0.807-3.174 0.486-4.197 1.29-1.025 3.173-0.806 4.198 0.484l10.512 13.263zm0-14.908 5.329-6.723c0.761-0.96 2.16-1.123 3.121-0.36 0.961 0.761 1.123 2.161 0.361 3.12l-7.057 8.904c-0.44 0.556-1.095 0.843-1.754 0.841-0.659 2e-3 -1.313-0.285-1.752-0.841l-7.058-8.904c-0.763-0.959-0.601-2.359 0.36-3.12 0.961-0.763 2.36-0.6 3.123 0.36l5.327 6.723z"
     style="fill-opacity:1;fill:#dfdfdf"
     id="path2" />
</svg>
