<?xml version="1.0" encoding="UTF-8" standalone="no"?>
<svg
   xmlns:dc="http://purl.org/dc/elements/1.1/"
   xmlns:cc="http://creativecommons.org/ns#"
   xmlns:rdf="http://www.w3.org/1999/02/22-rdf-syntax-ns#"
   xmlns:svg="http://www.w3.org/2000/svg"
   xmlns="http://www.w3.org/2000/svg"
   xmlns:xlink="http://www.w3.org/1999/xlink"
   xmlns:sodipodi="http://sodipodi.sourceforge.net/DTD/sodipodi-0.dtd"
   xmlns:inkscape="http://www.inkscape.org/namespaces/inkscape"
   style="clip-rule:evenodd;fill-rule:evenodd;stroke-linejoin:round;stroke-miterlimit:2"
   version="1.1"
   viewBox="0 0 48 48"
   id="svg13"
   sodipodi:docname="todoist-symbolic.svg"
   inkscape:version="0.92.5 (2060ec1f9f, 2020-04-08)">
  <metadata
     id="metadata17">
    <rdf:RDF>
      <cc:Work
         rdf:about="">
        <dc:format>image/svg+xml</dc:format>
        <dc:type
           rdf:resource="http://purl.org/dc/dcmitype/StillImage" />
        <dc:title />
      </cc:Work>
    </rdf:RDF>
  </metadata>
  <sodipodi:namedview
     pagecolor="#ffffff"
     bordercolor="#666666"
     borderopacity="1"
     objecttolerance="10"
     gridtolerance="10"
     guidetolerance="10"
     inkscape:pageopacity="0"
     inkscape:pageshadow="2"
     inkscape:window-width="948"
     inkscape:window-height="999"
     id="namedview15"
     showgrid="false"
     inkscape:zoom="13.530584"
     inkscape:cx="-4.6719617"
     inkscape:cy="-1.3742628"
     inkscape:window-x="964"
     inkscape:window-y="36"
     inkscape:window-maximized="0"
     inkscape:current-layer="svg13" />
  <path
     inkscape:connector-curvature="0"
     d="m 46.259253,8.1386901 c 0,-3.5318138 -2.866129,-6.3979436 -6.397943,-6.3979436 H 8.1386901 c -3.5318138,0 -6.3979434,2.8661298 -6.3979434,6.3979436 V 39.86131 c 0,3.531814 2.8661296,6.397943 6.3979434,6.397943 H 39.86131 c 3.531814,0 6.397943,-2.866129 6.397943,-6.397943 z"
     style="clip-rule:evenodd;fill:#dfdfdf;fill-opacity:0.39215686;fill-rule:evenodd;stroke-width:1.02728677;stroke-linejoin:round;stroke-miterlimit:2"
     id="path2-3" />
  <path
     d="M 30.340415,6.7107616 C 29.995246,6.6963877 29.652133,6.7652084 29.33881,6.9090284 L 10.52405,17.4644 1.7407468,13.410727 v 4.82722 l 7.8474458,3.621186 c 0.5732264,0.264016 1.2317164,0.269149 1.8080234,0.01332 L 31.119099,10.915412 C 33.269211,9.9959918 32.677493,6.7980467 30.340415,6.7097004 Z m 0,8.7648104 c -0.344142,-0.01332 -0.687254,0.05546 -1.001605,0.199294 L 10.52405,26.230242 1.7407468,22.175538 v 4.828249 l 7.8474458,3.621186 c 0.5732264,0.264014 1.2317164,0.268123 1.8080234,0.01241 L 31.119099,19.680335 c 2.150112,-0.919422 1.558394,-4.116338 -0.778684,-4.204685 z m 0,8.765841 c -0.344142,-0.01332 -0.687254,0.05446 -1.001605,0.199293 L 10.52405,34.995051 1.7407468,30.941377 v 4.828249 l 7.8474458,3.620159 c 0.5732264,0.265041 1.2317164,0.269149 1.8080234,0.01332 L 31.119099,28.4461 c 2.150112,-0.919424 1.558394,-4.117368 -0.778684,-4.205716 z"
     style="fill:#dfdfdf;fill-opacity:1;stroke-width:1.02728677"
     id="path4"
     inkscape:connector-curvature="0" />
  <defs
     id="defs11">
    <linearGradient
       id="_Linear1"
       x2="1"
       gradientTransform="matrix(0,-43.3373,43.3373,0,302.963,45.6687)"
       gradientUnits="userSpaceOnUse"
       x1="0"
       y1="0"
       y2="0"
       spreadMethod="pad">
      <stop
         style="stop-color:#880a00"
         offset="0"
         id="stop6" />
      <stop
         style="stop-color:#c2352a"
         offset="1"
         id="stop8" />
    </linearGradient>
    <linearGradient
       id="_Linear1-3"
       x2="1"
       gradientTransform="matrix(-0.652062,-42.6054,42.6054,-0.652062,-22.556071,47.640047)"
       gradientUnits="userSpaceOnUse">
      <stop
         style="stop-color:#c52828"
         offset="0"
         id="stop6-6" />
      <stop
         style="stop-color:#ff5454"
         offset="1"
         id="stop8-7" />
    </linearGradient>
    <linearGradient
       inkscape:collect="always"
       xlink:href="#_Linear1-3"
       id="linearGradient842"
       x1="23.687933"
       y1="45.762711"
       x2="23.701897"
       y2="2.4406779"
       gradientUnits="userSpaceOnUse" />
    <linearGradient
       id="_Linear1-36"
       x2="1"
       gradientTransform="matrix(0,-43.3373,43.3373,0,201.9,45.6687)"
       gradientUnits="userSpaceOnUse"
       xlink:href="#_Linear1-3">
      <stop
         style="stop-color:#c62929;stop-opacity:1"
         offset="0"
         id="stop8-75" />
      <stop
         style="stop-color:#ff5454;stop-opacity:1"
         offset="1"
         id="stop10" />
    </linearGradient>
  </defs>
</svg>
