<?xml version="1.0" encoding="UTF-8" standalone="no"?>
<svg
   xmlns:dc="http://purl.org/dc/elements/1.1/"
   xmlns:cc="http://creativecommons.org/ns#"
   xmlns:rdf="http://www.w3.org/1999/02/22-rdf-syntax-ns#"
   xmlns:svg="http://www.w3.org/2000/svg"
   xmlns="http://www.w3.org/2000/svg"
   xmlns:sodipodi="http://sodipodi.sourceforge.net/DTD/sodipodi-0.dtd"
   xmlns:inkscape="http://www.inkscape.org/namespaces/inkscape"
   width="16"
   height="16"
   version="1.1"
   viewBox="0 0 16 16"
   id="svg9"
   sodipodi:docname="user-trash-symbolic.svg"
   inkscape:version="0.92.5 (2060ec1f9f, 2020-04-08)">
  <metadata
     id="metadata13">
    <rdf:RDF>
      <cc:Work
         rdf:about="">
        <dc:format>image/svg+xml</dc:format>
        <dc:type
           rdf:resource="http://purl.org/dc/dcmitype/StillImage" />
      </cc:Work>
    </rdf:RDF>
  </metadata>
  <sodipodi:namedview
     pagecolor="#ffffff"
     bordercolor="#666666"
     borderopacity="1"
     objecttolerance="10"
     gridtolerance="10"
     guidetolerance="10"
     inkscape:pageopacity="0"
     inkscape:pageshadow="2"
     inkscape:window-width="950"
     inkscape:window-height="486"
     id="namedview11"
     showgrid="false"
     inkscape:zoom="14.75"
     inkscape:cx="-4.1355932"
     inkscape:cy="8"
     inkscape:window-x="8"
     inkscape:window-y="1098"
     inkscape:window-maximized="0"
     inkscape:current-layer="svg9" />
  <defs
     id="defs3">
    <style
       id="current-color-scheme"
       type="text/css">.ColorScheme-Text { color:#363636; } .ColorScheme-Highlight { color:#5294e2; }</style>
  </defs>
  <path
     class="ColorScheme-Text"
     d="m1.1211 1 1.6855 14c0.068024 0.47546 0.5339 1 1.1934 1h8c0.64209 0 1.0827-0.49259 1.1484-1l1.7285-14h-13.756z"
     fill="currentColor"
     opacity=".25"
     id="path5"
     style="fill:#dfdfdf;fill-opacity:1" />
  <path
     class="ColorScheme-Text"
     d="m0.9999 1 1.8066 14c0.068024 0.47546 0.5339 1 1.1934 1h8c0.64209 0 1.0827-0.49259 1.1484-1l1.8516-14h-1.123l-1.7285 13c-0.13296 1-0.5064 0.99213-1.1484 1h-6c-0.65946 0-1.0502 0-1.1934-1l-1.6855-13h-1.1211z"
     fill="currentColor"
     opacity=".75"
     id="path7"
     style="fill:#dfdfdf;fill-opacity:1" />
</svg>
