<?xml version="1.0" encoding="UTF-8" standalone="no"?>
<svg
   xmlns:dc="http://purl.org/dc/elements/1.1/"
   xmlns:cc="http://creativecommons.org/ns#"
   xmlns:rdf="http://www.w3.org/1999/02/22-rdf-syntax-ns#"
   xmlns:svg="http://www.w3.org/2000/svg"
   xmlns="http://www.w3.org/2000/svg"
   xmlns:sodipodi="http://sodipodi.sourceforge.net/DTD/sodipodi-0.dtd"
   xmlns:inkscape="http://www.inkscape.org/namespaces/inkscape"
   version="1.1"
   id="Capa_1"
   x="0px"
   y="0px"
   viewBox="0 0 335.223 335.223"
   style="enable-background:new 0 0 335.223 335.223;"
   xml:space="preserve"
   sodipodi:docname="weather-showers-scattered-symbolic.svg"
   inkscape:version="1.0 (4035a4fb49, 2020-05-01)"><metadata
   id="metadata109"><rdf:RDF><cc:Work
       rdf:about=""><dc:format>image/svg+xml</dc:format><dc:type
         rdf:resource="http://purl.org/dc/dcmitype/StillImage" /><dc:title></dc:title></cc:Work></rdf:RDF></metadata><defs
   id="defs107" /><sodipodi:namedview
   inkscape:document-rotation="0"
   pagecolor="#ffffff"
   bordercolor="#666666"
   borderopacity="1"
   objecttolerance="10"
   gridtolerance="10"
   guidetolerance="10"
   inkscape:pageopacity="0"
   inkscape:pageshadow="2"
   inkscape:window-width="1904"
   inkscape:window-height="999"
   id="namedview105"
   showgrid="false"
   inkscape:zoom="3.0069537"
   inkscape:cx="167.6115"
   inkscape:cy="153.8933"
   inkscape:window-x="26"
   inkscape:window-y="23"
   inkscape:window-maximized="0"
   inkscape:current-layer="Capa_1" />


<g
   id="g18">
	<g
   id="g16">
		<path
   d="M50.812,208.8c-5.6,0.4-10.4,4.8-10.4,10.4v102.4c0,5.6,4.4,10.4,10.4,10.4c5.6,0,10.4-4.4,10.4-10.4V219.2    C61.212,213.6,56.812,208.8,50.812,208.8z"
   style="fill:#dfdfdf;fill-opacity:1"
   id="path14" />
	</g>
</g>




<g
   id="g48">
	<g
   id="g46">
		<path
   d="M209.612,208.8c-5.6,0-10.4,4.4-10.4,10.4v102.4c0.4,5.6,4.8,10.4,10.4,10.4c5.6,0,10.4-4.4,10.4-10.4V219.2    C220.012,213.6,215.612,208.8,209.612,208.8z"
   style="fill:#dfdfdf;fill-opacity:1"
   id="path44" />
	</g>
</g>
<g
   id="g54">
	<g
   id="g52">
		<path
   d="M132.012,284c-6,0.4-10.4,4.8-10.4,10.4v27.2c0,5.6,4.4,10.4,10.4,10.4c5.6,0,10.4-4.4,10.4-10.4v-27.2    C142.412,288.8,138.012,284,132.012,284z"
   style="fill:#dfdfdf;fill-opacity:1"
   id="path50" />
	</g>
</g>
<g
   id="g60">
	<g
   id="g58">
		<path
   d="M283.612,209.2c-5.6,0-10.4,4.4-10.4,10.4V322c0,5.6,4.4,10.4,10.4,10.4c5.6,0,10.4-4.4,10.4-10.4V219.6    C294.012,213.6,289.212,209.2,283.612,209.2z"
   style="fill:#dfdfdf;fill-opacity:1"
   id="path56" />
	</g>
</g>
<g
   id="g66">
	<g
   id="g64">
		<path
   d="m 314.412,84 c -12,-12 -29.2,-19.6 -47.6,-19.6 -9.6,0 -19.2,2 -27.6,6 -8.8,4 -16.4,9.6 -22.8,16.8 -3.6,4.4 -10.4,4.8 -14.4,0.8 -4.4,-3.6 -4.8,-10.4 -0.8,-14.4 8.4,-9.6 18.4,-16.8 29.6,-22 2.4,-1.2 4.8,-2 7.2,-2.8 -6.8,-13.2 -16.8,-24.4 -28.8,-32.4 -14.8,-10.4 -32.8,-16.4 -52,-16.4 -22.4,0 -43.2,8 -59.2,22 -16,13.6 -27.2,33.2 -30.4,55.2 -0.4,3.2 -2.4,5.6 -4.8,7.2 -1.6,0.8 -3.2,1.6 -5.2,1.6 -15.6,0 -30,6.4 -40,16.4 -10.4,10.4 -16.4,24.4 -16.4,40 0,15.6 6.4,30 16.4,40 9.6,10.8 24,17.2 39.6,17.2 h 56.4 c 94.41849,0 0,0 93.2,-0.8 h 60 c 18.8,0 35.6,-7.6 47.6,-19.6 12,-12 19.6,-29.2 19.6,-47.6 0,-18.8 -7.6,-35.6 -19.6,-47.6 z"
   style="fill:#dfdfdf;fill-opacity:1"
   id="path62"
   sodipodi:nodetypes="sscccccccscccssscsccssss" />
	</g>
</g>

<g
   id="g74">
</g>
<g
   id="g76">
</g>
<g
   id="g78">
</g>
<g
   id="g80">
</g>
<g
   id="g82">
</g>
<g
   id="g84">
</g>
<g
   id="g86">
</g>
<g
   id="g88">
</g>
<g
   id="g90">
</g>
<g
   id="g92">
</g>
<g
   id="g94">
</g>
<g
   id="g96">
</g>
<g
   id="g98">
</g>
<g
   id="g100">
</g>
<g
   id="g102">
</g>
<path
   style="fill:#dfdfdf;fill-opacity:1"
   id="path2-3"
   d="m 132.10916,225.67298 c -5.6,0 -10.4,4.8 -10.4,10.4 v 30 c 0,5.6 4.8,10.4 10.4,10.4 5.6,0 10.4,-4.8 10.4,-10.4 v -30 c 0,-5.6 -4.8,-10.4 -10.4,-10.4 z" /></svg>
