<?xml version="1.0" encoding="UTF-8" standalone="no"?>
<svg
   xmlns:dc="http://purl.org/dc/elements/1.1/"
   xmlns:cc="http://creativecommons.org/ns#"
   xmlns:rdf="http://www.w3.org/1999/02/22-rdf-syntax-ns#"
   xmlns:svg="http://www.w3.org/2000/svg"
   xmlns="http://www.w3.org/2000/svg"
   xmlns:sodipodi="http://sodipodi.sourceforge.net/DTD/sodipodi-0.dtd"
   xmlns:inkscape="http://www.inkscape.org/namespaces/inkscape"
   version="1.1"
   id="Capa_1"
   x="0px"
   y="0px"
   viewBox="0 0 428.4 428.4"
   style="enable-background:new 0 0 428.4 428.4;"
   xml:space="preserve"
   sodipodi:docname="weather-clouds.svg"
   inkscape:version="1.0 (4035a4fb49, 2020-05-01)"><metadata
   id="metadata57"><rdf:RDF><cc:Work
       rdf:about=""><dc:format>image/svg+xml</dc:format><dc:type
         rdf:resource="http://purl.org/dc/dcmitype/StillImage" /><dc:title /></cc:Work></rdf:RDF></metadata><defs
   id="defs55" /><sodipodi:namedview
   pagecolor="#ffffff"
   bordercolor="#666666"
   borderopacity="1"
   objecttolerance="10"
   gridtolerance="10"
   guidetolerance="10"
   inkscape:pageopacity="0"
   inkscape:pageshadow="2"
   inkscape:window-width="1908"
   inkscape:window-height="2079"
   id="namedview53"
   showgrid="false"
   inkscape:document-rotation="0"
   inkscape:zoom="2.3529412"
   inkscape:cx="214.2"
   inkscape:cy="214.2"
   inkscape:window-x="26"
   inkscape:window-y="23"
   inkscape:window-maximized="0"
   inkscape:current-layer="Capa_1" />
<g
   transform="matrix(0.637852,0,0,0.637852,77.572102,77.572087)"
   id="g20"
   style="fill:#dfdfdf;fill-opacity:1">
	<g
   id="g18"
   style="fill:#dfdfdf;fill-opacity:1">
		<g
   id="g16"
   style="fill:#dfdfdf;fill-opacity:1">
			<path
   d="m 277.2,119.335 c 5.6,-0.4 10.4,-4.8 10.4,-10.4 v -30.8 c 0,-5.6 -4.8,-10.4 -10.4,-10.4 -5.6,0 -10.4,4.8 -10.4,10.4 v 30.8 c 0,5.6 4.8,10.4 10.4,10.4 z"
   id="path2"
   style="fill:#dfdfdf;fill-opacity:1" />
			<path
   d="m 362,148.135 22,-22 c 4,-4 4,-10.4 0,-14.4 -4,-4 -10.4,-4 -14.4,0 l -22,22 c -4,4 -4,10.4 0,14.4 4,4 10.4,4 14.4,0 z"
   id="path4"
   style="fill:#dfdfdf;fill-opacity:1" />
			<path
   d="m 418,208.535 h -30.8 c -5.6,0 -10.4,4.8 -10.4,10.4 0,5.6 4.8,10.4 10.4,10.4 H 418 c 5.6,0 10.4,-4.8 10.4,-10.4 0,-6 -4.8,-10.4 -10.4,-10.4 z"
   id="path6"
   style="fill:#dfdfdf;fill-opacity:1" />
			<path
   d="m 362,289.335 c -4,-4 -10.4,-4 -14.4,0 -4,4 -4,10.4 0,14.4 l 22,22 c 4,4 10.4,4 14.4,0 4,-4 4,-10.4 0,-14.4 z"
   id="path8"
   style="fill:#dfdfdf;fill-opacity:1" />
			<path
   d="m 192.4,148.135 c 4,4 10.4,4 14.4,0 4,-4 4,-10.4 0,-14.4 l -22,-22 c -4,-4 -10.4,-4 -14.4,0 -4,4 -4,10.4 0,14.4 z"
   id="path10"
   style="fill:#dfdfdf;fill-opacity:1" />
			<path
   d="m 254.4,232.535 c -9.2,0 -18.4,2 -26.4,5.6 -8.4,3.6 -15.6,9.2 -21.6,16 -3.6,4.4 -10.4,4.8 -14.4,0.8 -4.4,-3.6 -4.8,-10.4 -0.8,-14.4 8,-9.2 18,-16.4 28.8,-21.2 2,-0.8 4.4,-2 6.4,-2.8 -6.4,-12.4 -16,-22.8 -27.2,-30.8 -14.4,-10 -31.2,-15.6 -49.6,-15.6 -21.6,0 -41.2,8 -56.4,20.8 -15.2,13.2 -26,31.6 -29.2,52.8 -0.4,3.2 -2,5.6 -4.8,7.2 -1.6,1.2 -3.6,1.6 -5.6,1.6 -14.8,0 -28.4,6 -38,16 -9.6,9.6 -15.6,23.2 -15.6,38 0,14.8 6,28.4 16,38 9.6,9.6 23.2,16 38,16 h 201.2 c 17.2,1.2 33.2,-6 44.8,-18 11.6,-11.6 18.8,-27.6 18.8,-45.6 0,-18 -7.2,-34 -18.8,-45.6 -11.6,-11.6 -27.6,-18.8 -45.6,-18.8 z"
   id="path12"
   style="fill:#dfdfdf;fill-opacity:1" />
			<path
   d="m 352.8,218.935 c 0,-20.8 -8.4,-40 -22.4,-53.6 -13.6,-13.6 -32.8,-22.4 -53.6,-22.4 -14,0 -27.6,4 -39.2,10.8 -8.4,5.2 -16,12 -22,20 5.6,4.4 10.4,9.2 14.8,14.4 6.4,7.2 11.6,15.6 16,24.8 2.4,-0.4 5.2,-0.4 7.6,-0.4 23.6,0 44.8,9.6 60,24.8 3.2,3.2 6.4,7.2 9.2,10.8 4.4,6 8,12.8 10.4,20 6,-5.6 10.4,-12.4 13.2,-19.6 4,-9.2 6,-19.6 6,-29.6 z"
   id="path14"
   style="fill:#dfdfdf;fill-opacity:1" />
		</g>
	</g>
</g>
<g
   transform="matrix(0.637852,0,0,0.637852,77.572102,77.572087)"
   id="g22"
   style="fill:#dfdfdf;fill-opacity:1">
</g>
<g
   transform="matrix(0.637852,0,0,0.637852,77.572102,77.572087)"
   id="g24"
   style="fill:#dfdfdf;fill-opacity:1">
</g>
<g
   transform="matrix(0.637852,0,0,0.637852,77.572102,77.572087)"
   id="g26"
   style="fill:#dfdfdf;fill-opacity:1">
</g>
<g
   transform="matrix(0.637852,0,0,0.637852,77.572102,77.572087)"
   id="g28"
   style="fill:#dfdfdf;fill-opacity:1">
</g>
<g
   transform="matrix(0.637852,0,0,0.637852,77.572102,77.572087)"
   id="g30"
   style="fill:#dfdfdf;fill-opacity:1">
</g>
<g
   transform="matrix(0.637852,0,0,0.637852,77.572102,77.572087)"
   id="g32"
   style="fill:#dfdfdf;fill-opacity:1">
</g>
<g
   transform="matrix(0.637852,0,0,0.637852,77.572102,77.572087)"
   id="g34"
   style="fill:#dfdfdf;fill-opacity:1">
</g>
<g
   transform="matrix(0.637852,0,0,0.637852,77.572102,77.572087)"
   id="g36"
   style="fill:#dfdfdf;fill-opacity:1">
</g>
<g
   transform="matrix(0.637852,0,0,0.637852,77.572102,77.572087)"
   id="g38"
   style="fill:#dfdfdf;fill-opacity:1">
</g>
<g
   transform="matrix(0.637852,0,0,0.637852,77.572102,77.572087)"
   id="g40"
   style="fill:#dfdfdf;fill-opacity:1">
</g>
<g
   transform="matrix(0.637852,0,0,0.637852,77.572102,77.572087)"
   id="g42"
   style="fill:#dfdfdf;fill-opacity:1">
</g>
<g
   transform="matrix(0.637852,0,0,0.637852,77.572102,77.572087)"
   id="g44"
   style="fill:#dfdfdf;fill-opacity:1">
</g>
<g
   transform="matrix(0.637852,0,0,0.637852,77.572102,77.572087)"
   id="g46"
   style="fill:#dfdfdf;fill-opacity:1">
</g>
<g
   transform="matrix(0.637852,0,0,0.637852,77.572102,77.572087)"
   id="g48"
   style="fill:#dfdfdf;fill-opacity:1">
</g>
<g
   transform="matrix(0.637852,0,0,0.637852,77.572102,77.572087)"
   id="g50"
   style="fill:#dfdfdf;fill-opacity:1">
</g>
</svg>
