<?xml version="1.0" encoding="UTF-8" standalone="no"?>
<svg
   xmlns:dc="http://purl.org/dc/elements/1.1/"
   xmlns:cc="http://creativecommons.org/ns#"
   xmlns:rdf="http://www.w3.org/1999/02/22-rdf-syntax-ns#"
   xmlns:svg="http://www.w3.org/2000/svg"
   xmlns="http://www.w3.org/2000/svg"
   xmlns:sodipodi="http://sodipodi.sourceforge.net/DTD/sodipodi-0.dtd"
   xmlns:inkscape="http://www.inkscape.org/namespaces/inkscape"
   inkscape:version="1.0 (4035a4fb49, 2020-05-01)"
   sodipodi:docname="weather-fog.svg"
   xml:space="preserve"
   style="enable-background:new 0 0 332 332;"
   viewBox="0 0 332 332"
   y="0px"
   x="0px"
   id="Capa_1"
   version="1.1"><metadata
   id="metadata43"><rdf:RDF><cc:Work
       rdf:about=""><dc:format>image/svg+xml</dc:format><dc:type
         rdf:resource="http://purl.org/dc/dcmitype/StillImage" /></cc:Work></rdf:RDF></metadata><defs
   id="defs41" /><sodipodi:namedview
   inkscape:current-layer="Capa_1"
   inkscape:window-maximized="0"
   inkscape:window-y="23"
   inkscape:window-x="26"
   inkscape:cy="166"
   inkscape:cx="166"
   inkscape:zoom="3.0361446"
   showgrid="false"
   id="namedview39"
   inkscape:window-height="1017"
   inkscape:window-width="1908"
   inkscape:pageshadow="2"
   inkscape:pageopacity="0"
   guidetolerance="10"
   gridtolerance="10"
   objecttolerance="10"
   borderopacity="1"
   bordercolor="#666666"
   pagecolor="#ffffff" />
<g
   id="g6">
	<g
   id="g4">
		<path
   style="fill:#dfdfdf;fill-opacity:1"
   id="path2"
   d="M312.4,150.6c-12-12-29.2-19.6-47.6-19.6c-9.6,0-19.2,2-27.6,6c-8.8,4-16.4,9.6-22.8,16.8c-3.6,4.4-10.4,4.8-14.4,0.8    c-4.4-3.6-4.8-10.4-0.8-14.4c8.4-9.6,18.4-16.8,29.6-22c2.4-1.2,4.8-2,7.2-2.8c-6.8-13.2-16.8-24.4-28.8-32.4    c-14.8-10.4-32.8-16.4-52-16.4c-22.4,0-43.2,8-59.2,22c-16,13.6-27.2,33.2-30.4,55.2c-0.4,2.8-2,5.6-4.4,7.2h-0.4    c-1.2,0.8-2.8,1.2-4.4,1.2c-15.6,0-30,6.4-40,16.4C6,179,0,193,0,208.6c0,15.6,6.4,30,16.4,40c8.8,10.4,23.2,16.8,38.8,16.8h209.6    c18.8,0,35.6-7.6,47.6-19.6s19.6-29.2,19.6-47.6C332,179.4,324.4,162.6,312.4,150.6z" />
	</g>
</g>
<g
   id="g8">
</g>
<g
   id="g10">
</g>
<g
   id="g12">
</g>
<g
   id="g14">
</g>
<g
   id="g16">
</g>
<g
   id="g18">
</g>
<g
   id="g20">
</g>
<g
   id="g22">
</g>
<g
   id="g24">
</g>
<g
   id="g26">
</g>
<g
   id="g28">
</g>
<g
   id="g30">
</g>
<g
   id="g32">
</g>
<g
   id="g34">
</g>
<g
   id="g36">
</g>
</svg>
