<?xml version="1.0" encoding="UTF-8" standalone="no"?>
<svg
   xmlns:dc="http://purl.org/dc/elements/1.1/"
   xmlns:cc="http://creativecommons.org/ns#"
   xmlns:rdf="http://www.w3.org/1999/02/22-rdf-syntax-ns#"
   xmlns:svg="http://www.w3.org/2000/svg"
   xmlns="http://www.w3.org/2000/svg"
   xmlns:sodipodi="http://sodipodi.sourceforge.net/DTD/sodipodi-0.dtd"
   xmlns:inkscape="http://www.inkscape.org/namespaces/inkscape"
   version="1.1"
   id="Capa_1"
   x="0px"
   y="0px"
   viewBox="0 0 326 326"
   style="enable-background:new 0 0 326 326;"
   xml:space="preserve"
   sodipodi:docname="weather-snow.svg"
   inkscape:version="1.0 (4035a4fb49, 2020-05-01)"><metadata
   id="metadata51"><rdf:RDF><cc:Work
       rdf:about=""><dc:format>image/svg+xml</dc:format><dc:type
         rdf:resource="http://purl.org/dc/dcmitype/StillImage" /></cc:Work></rdf:RDF></metadata><defs
   id="defs49" /><sodipodi:namedview
   inkscape:document-rotation="0"
   pagecolor="#ffffff"
   bordercolor="#666666"
   borderopacity="1"
   objecttolerance="10"
   gridtolerance="10"
   guidetolerance="10"
   inkscape:pageopacity="0"
   inkscape:pageshadow="2"
   inkscape:window-width="1908"
   inkscape:window-height="2079"
   id="namedview47"
   showgrid="false"
   inkscape:zoom="3.0920246"
   inkscape:cx="186.15173"
   inkscape:cy="148.6477"
   inkscape:window-x="26"
   inkscape:window-y="23"
   inkscape:window-maximized="0"
   inkscape:current-layer="Capa_1" />
<g
   id="g14"
   transform="matrix(0.59703622,0,0,0.59703622,65.683096,75.653459)">
	<g
   id="g12">
		<g
   id="g10">
			
			
			<path
   style="fill:#dfdfdf;fill-opacity:1"
   d="m 127.6,246.2 c 0,9.6 4,18.4 10.4,24.8 6.4,6.4 15.2,10.4 24.8,10.4 10,0 18.8,-4 25.2,-10.4 6.4,-6.4 10.4,-15.2 10.4,-24.8 z"
   id="path6"
   sodipodi:nodetypes="cssscc" />
			<path
   style="fill:#dfdfdf;fill-opacity:1"
   d="m 306.8,87 c -11.6,-11.6 -28,-18.8 -46,-18.8 -9.2,0 -18.4,2 -26.8,5.6 -8.4,3.6 -16,9.2 -22,16 -4.4,4.8 -11.6,5.2 -16.4,1.2 -4.8,-4.4 -5.2,-11.6 -1.2,-16.4 8.4,-9.6 18.4,-16.8 29.6,-22 2,-0.8 3.6,-1.6 5.6,-2.4 -6.8,-12 -16,-22.4 -26.8,-30 -14.4,-10 -31.6,-15.6 -50,-15.6 -21.6,0 -42,8 -57.2,21.2 C 80,39 69.2,57.8 66,79.4 c -0.4,3.2 -2.4,6.4 -5.2,8 -2,1.2 -4,2 -6.4,2 -14.8,0 -28.4,6 -38.4,16 -10,10 -16,23.2 -16,38.4 0,14.8 6,28.4 16,38.4 10.4,9.6 23.6,15.6 38.8,15.6 h 206.4 c 18,0 34,-7.2 46,-18.8 11.6,-11.6 18.8,-28 18.8,-46 0,-18 -7.2,-34 -19.2,-46 z"
   id="path8" />
		</g>
	</g>
</g>
<g
   id="g16"
   transform="matrix(0.59703622,0,0,0.59703622,65.683096,75.653459)">
</g>
<g
   id="g18"
   transform="matrix(0.59703622,0,0,0.59703622,65.683096,75.653459)">
</g>
<g
   id="g20"
   transform="matrix(0.59703622,0,0,0.59703622,65.683096,75.653459)">
</g>
<g
   id="g22"
   transform="matrix(0.59703622,0,0,0.59703622,65.683096,75.653459)">
</g>
<g
   id="g24"
   transform="matrix(0.59703622,0,0,0.59703622,65.683096,75.653459)">
</g>
<g
   id="g26"
   transform="matrix(0.59703622,0,0,0.59703622,65.683096,75.653459)">
</g>
<g
   id="g28"
   transform="matrix(0.59703622,0,0,0.59703622,65.683096,75.653459)">
</g>
<g
   id="g30"
   transform="matrix(0.59703622,0,0,0.59703622,65.683096,75.653459)">
</g>
<g
   id="g32"
   transform="matrix(0.59703622,0,0,0.59703622,65.683096,75.653459)">
</g>
<g
   id="g34"
   transform="matrix(0.59703622,0,0,0.59703622,65.683096,75.653459)">
</g>
<g
   id="g36"
   transform="matrix(0.59703622,0,0,0.59703622,65.683096,75.653459)">
</g>
<g
   id="g38"
   transform="matrix(0.59703622,0,0,0.59703622,65.683096,75.653459)">
</g>
<g
   id="g40"
   transform="matrix(0.59703622,0,0,0.59703622,65.683096,75.653459)">
</g>
<g
   id="g42"
   transform="matrix(0.59703622,0,0,0.59703622,65.683096,75.653459)">
</g>
<g
   id="g44"
   transform="matrix(0.59703622,0,0,0.59703622,65.683096,75.653459)">
</g>
<path
   style="fill:#dfdfdf;fill-opacity:1;stroke-width:0.597036"
   sodipodi:nodetypes="cssscc"
   id="path6-3"
   d="m 184.13508,222.64378 c 0,-5.73155 -2.38814,-10.98547 -6.20918,-14.8065 -3.82102,-3.82103 -9.07495,-6.20918 -14.80649,-6.20918 -5.97036,0 -11.22429,2.38815 -15.04531,6.20918 -3.82104,3.82103 -6.20918,9.07495 -6.20918,14.8065 z" /><path
   style="fill:#dfdfdf;fill-opacity:1;stroke-width:0.597036"
   sodipodi:nodetypes="cssscc"
   id="path6-6"
   d="m 84.584586,234.5845 c 0,5.73155 2.388144,10.98546 6.209177,14.8065 3.821031,3.82103 9.07495,6.20918 14.806497,6.20918 5.97036,0 11.22428,-2.38815 15.04531,-6.20918 3.82103,-3.82104 6.20918,-9.07495 6.20918,-14.8065 z" /><path
   style="fill:#dfdfdf;fill-opacity:1;stroke-width:0.597036"
   d="m 126.85475,234.5845 c 0,-5.73154 -2.38815,-10.98547 -6.20918,-14.8065 -3.82103,-3.82103 -9.07495,-6.20917 -14.8065,-6.20917 -5.970357,0 -11.224276,2.38814 -15.045307,6.20917 -3.821033,3.82103 -6.209177,9.07496 -6.209177,14.8065 z"
   id="path6-3-7"
   sodipodi:nodetypes="cssscc" /><path
   style="fill:#dfdfdf;fill-opacity:1;stroke-width:0.597036"
   sodipodi:nodetypes="cssscc"
   id="path6-5"
   d="m 199.27951,234.5845 c 0,5.73155 2.38815,10.98546 6.20917,14.8065 3.82104,3.82103 9.07496,6.20918 14.80651,6.20918 5.97036,0 11.22428,-2.38815 15.0453,-6.20918 3.82104,-3.82104 6.20918,-9.07495 6.20918,-14.8065 z" /><path
   style="fill:#dfdfdf;fill-opacity:1;stroke-width:0.597036"
   d="m 241.54967,234.5845 c 0,-5.73154 -2.38814,-10.98547 -6.20918,-14.8065 -3.82102,-3.82103 -9.07494,-6.20917 -14.80649,-6.20917 -5.97036,0 -11.22428,2.38814 -15.04532,6.20917 -3.82102,3.82103 -6.20917,9.07496 -6.20917,14.8065 z"
   id="path6-3-3"
   sodipodi:nodetypes="cssscc" /></svg>
