<?xml version="1.0" encoding="UTF-8" standalone="no"?>
<svg
   xmlns:dc="http://purl.org/dc/elements/1.1/"
   xmlns:cc="http://creativecommons.org/ns#"
   xmlns:rdf="http://www.w3.org/1999/02/22-rdf-syntax-ns#"
   xmlns:svg="http://www.w3.org/2000/svg"
   xmlns="http://www.w3.org/2000/svg"
   xmlns:sodipodi="http://sodipodi.sourceforge.net/DTD/sodipodi-0.dtd"
   xmlns:inkscape="http://www.inkscape.org/namespaces/inkscape"
   version="1.1"
   id="Capa_1"
   x="0px"
   y="0px"
   viewBox="0 0 332 332"
   style="enable-background:new 0 0 332 332;"
   xml:space="preserve"
   sodipodi:docname="weather-fog.svg"
   inkscape:version="1.0 (4035a4fb49, 2020-05-01)"><metadata
   id="metadata43"><rdf:RDF><cc:Work
       rdf:about=""><dc:format>image/svg+xml</dc:format><dc:type
         rdf:resource="http://purl.org/dc/dcmitype/StillImage" /></cc:Work></rdf:RDF></metadata><defs
   id="defs41" /><sodipodi:namedview
   inkscape:document-rotation="0"
   pagecolor="#ffffff"
   bordercolor="#666666"
   borderopacity="1"
   objecttolerance="10"
   gridtolerance="10"
   guidetolerance="10"
   inkscape:pageopacity="0"
   inkscape:pageshadow="2"
   inkscape:window-width="1908"
   inkscape:window-height="2079"
   id="namedview39"
   showgrid="false"
   inkscape:zoom="3.0361446"
   inkscape:cx="166"
   inkscape:cy="166"
   inkscape:window-x="26"
   inkscape:window-y="23"
   inkscape:window-maximized="0"
   inkscape:current-layer="Capa_1" />
<g
   transform="matrix(0.6298968,0,0,0.6298968,61.437128,61.437128)"
   id="g6">
	<g
   id="g4">
		<path
   d="m 312.4,150.6 c -12,-12 -29.2,-19.6 -47.6,-19.6 -9.6,0 -19.2,2 -27.6,6 -8.8,4 -16.4,9.6 -22.8,16.8 -3.6,4.4 -10.4,4.8 -14.4,0.8 -4.4,-3.6 -4.8,-10.4 -0.8,-14.4 8.4,-9.6 18.4,-16.8 29.6,-22 2.4,-1.2 4.8,-2 7.2,-2.8 C 229.2,102.2 219.2,91 207.2,83 192.4,72.6 174.4,66.6 155.2,66.6 c -22.4,0 -43.2,8 -59.2,22 -16,13.6 -27.2,33.2 -30.4,55.2 -0.4,2.8 -2,5.6 -4.4,7.2 h -0.4 c -1.2,0.8 -2.8,1.2 -4.4,1.2 -15.6,0 -30,6.4 -40,16.4 C 6,179 0,193 0,208.6 c 0,15.6 6.4,30 16.4,40 8.8,10.4 23.2,16.8 38.8,16.8 h 209.6 c 18.8,0 35.6,-7.6 47.6,-19.6 12,-12 19.6,-29.2 19.6,-47.6 0,-18.8 -7.6,-35.6 -19.6,-47.6 z"
   id="path2"
   style="fill:#dfdfdf;fill-opacity:1" />
	</g>
</g>
<g
   id="g8">
</g>
<g
   id="g10">
</g>
<g
   id="g12">
</g>
<g
   id="g14">
</g>
<g
   id="g16">
</g>
<g
   id="g18">
</g>
<g
   id="g20">
</g>
<g
   id="g22">
</g>
<g
   id="g24">
</g>
<g
   id="g26">
</g>
<g
   id="g28">
</g>
<g
   id="g30">
</g>
<g
   id="g32">
</g>
<g
   id="g34">
</g>
<g
   id="g36">
</g>
</svg>
