<?xml version="1.0" encoding="UTF-8" standalone="no"?>
<svg
   xmlns:dc="http://purl.org/dc/elements/1.1/"
   xmlns:cc="http://creativecommons.org/ns#"
   xmlns:rdf="http://www.w3.org/1999/02/22-rdf-syntax-ns#"
   xmlns:svg="http://www.w3.org/2000/svg"
   xmlns="http://www.w3.org/2000/svg"
   xmlns:xlink="http://www.w3.org/1999/xlink"
   xmlns:sodipodi="http://sodipodi.sourceforge.net/DTD/sodipodi-0.dtd"
   xmlns:inkscape="http://www.inkscape.org/namespaces/inkscape"
   width="512"
   height="512"
   viewBox="0 0 512 512"
   version="1.1"
   id="svg46"
   sodipodi:docname="application-x-sqlite.svg"
   inkscape:version="0.92.5 (2060ec1f9f, 2020-04-08)">
  <metadata
     id="metadata50">
    <rdf:RDF>
      <cc:Work
         rdf:about="">
        <dc:format>image/svg+xml</dc:format>
        <dc:type
           rdf:resource="http://purl.org/dc/dcmitype/StillImage" />
        <dc:title></dc:title>
      </cc:Work>
    </rdf:RDF>
  </metadata>
  <sodipodi:namedview
     pagecolor="#ffffff"
     bordercolor="#666666"
     borderopacity="1"
     objecttolerance="10"
     gridtolerance="10"
     guidetolerance="10"
     inkscape:pageopacity="0"
     inkscape:pageshadow="2"
     inkscape:window-width="1908"
     inkscape:window-height="1031"
     id="namedview48"
     showgrid="false"
     inkscape:zoom="0.4609375"
     inkscape:cx="-132.33898"
     inkscape:cy="256"
     inkscape:window-x="1924"
     inkscape:window-y="8"
     inkscape:window-maximized="0"
     inkscape:current-layer="svg46" />
  <defs
     id="defs30">
    <linearGradient
       id="text-x-c++src-c"
       x1="50%"
       x2="50%"
       y1="0%"
       y2="100%">
      <stop
         offset="0%"
         stop-color="#00BB7D"
         id="stop2" />
      <stop
         offset="100%"
         stop-color="#00A361"
         id="stop4" />
    </linearGradient>
    <path
       id="text-x-c++src-b"
       d="M232,0 L336,104 L336,380 C336,399.882251 319.882251,416 300,416 L36,416 C16.117749,416 2.4348735e-15,399.882251 0,380 L0,36 C-2.4348735e-15,16.117749 16.117749,3.65231026e-15 36,0 L232,0 Z" />
    <filter
       id="text-x-c++src-a"
       width="127.4%"
       height="122.1%"
       x="-13.7%"
       y="-9.1%"
       filterUnits="objectBoundingBox">
      <feOffset
         dy="8"
         in="SourceAlpha"
         result="shadowOffsetOuter1"
         id="feOffset8" />
      <feGaussianBlur
         in="shadowOffsetOuter1"
         result="shadowBlurOuter1"
         stdDeviation="14"
         id="feGaussianBlur10" />
      <feColorMatrix
         in="shadowBlurOuter1"
         values="0 0 0 0 0.262745098   0 0 0 0 0.71372549   0 0 0 0 0.607843137  0 0 0 0.5 0"
         id="feColorMatrix12" />
    </filter>
    <linearGradient
       id="text-x-c++src-f"
       x1="50%"
       x2="7.994%"
       y1="50%"
       y2="88.893%">
      <stop
         offset="0%"
         stop-color="#FFF"
         stop-opacity=".1"
         id="stop15" />
      <stop
         offset="100%"
         stop-color="#FFF"
         stop-opacity=".3"
         id="stop17" />
    </linearGradient>
    <path
       id="text-x-c++src-e"
       d="M232,0 L336,104 L268,104 C248.117749,104 232,87.882251 232,68 L232,0 Z" />
    <filter
       id="text-x-c++src-d"
       width="126.9%"
       height="126.9%"
       x="-13.5%"
       y="-9.6%"
       filterUnits="objectBoundingBox">
      <feOffset
         dy="4"
         in="SourceAlpha"
         result="shadowOffsetOuter1"
         id="feOffset21" />
      <feGaussianBlur
         in="shadowOffsetOuter1"
         result="shadowBlurOuter1"
         stdDeviation="4"
         id="feGaussianBlur23" />
      <feComposite
         in="shadowBlurOuter1"
         in2="SourceAlpha"
         operator="out"
         result="shadowBlurOuter1"
         id="feComposite25" />
      <feColorMatrix
         in="shadowBlurOuter1"
         values="0 0 0 0 0   0 0 0 0 0   0 0 0 0 0  0 0 0 0.05 0"
         id="feColorMatrix27" />
    </filter>
  </defs>
  <g
     fill="none"
     fill-rule="evenodd"
     id="g44">
    <g
       transform="translate(88 56)"
       id="g40">
      <use
         fill="#000"
         filter="url(#text-x-c++src-a)"
         xlink:href="#text-x-c++src-b"
         id="use32" />
      <use
         fill="url(#text-x-c++src-c)"
         xlink:href="#text-x-c++src-b"
         id="use34" />
      <use
         fill="#000"
         filter="url(#text-x-c++src-d)"
         xlink:href="#text-x-c++src-e"
         id="use36" />
      <use
         fill="url(#text-x-c++src-f)"
         xlink:href="#text-x-c++src-e"
         id="use38" />
    </g>
  </g>
  <path
     inkscape:connector-curvature="0"
     d="m 159.97125,269.27612 c 2.60432,2.75044 6.42917,2.75044 7.68406,2.75044 2.33787,0 5.22584,-0.38677 9.36011,-1.25489 3.24037,-0.67901 6.04238,-1.35803 8.50919,-1.95969 4.84766,-1.17754 8.35448,-2.02845 11.65501,-2.02845 1.85656,0 5.25164,0.80794 8.84441,1.65885 5.59544,1.33226 12.5575,2.98252 19.29609,2.98252 6.79875,0 13.95851,-0.5243 18.47096,-0.93686 1.49555,5.62121 5.06254,14.87818 13.15056,21.50503 10.99319,9.01632 19.14999,13.03025 19.49379,13.20215 2.08861,1.01422 4.59841,0.48133 6.08537,-1.29786 1.49555,-1.7792 1.5815,-4.34916 0.22347,-6.22289 -0.0516,-0.0688 -5.54387,-7.83878 -5.33759,-16.57143 0.086,-3.47244 0.21489,-6.1971 0.3438,-8.26853 6.85033,2.01985 18.51395,6.53231 24.53055,15.03291 9.11084,12.86692 12.84974,32.67872 11.85269,39.18525 -1.04861,6.77297 -1.16894,6.77297 -4.38351,6.77297 -7.00505,0 -12.88413,0.28363 -19.51098,3.8936 -5.86188,3.1888 -9.08506,6.67842 -9.43746,7.06521 -1.31507,1.46117 -1.66747,3.54979 -0.89391,5.35477 0.76498,1.81357 2.50978,3.0083 4.46949,3.08565 1.89952,0.0687 7.62389,0.54149 11.31119,1.88234 1.9511,0.71339 3.63576,1.53853 5.26884,2.34647 2.60432,1.28068 5.07113,2.50119 7.9419,2.83641 0.93688,0.11175 1.89093,0.1633 2.80203,0.14613 1.05719,2.4582 2.86218,5.39774 5.88766,7.71843 2.32069,1.7792 4.68436,2.87938 6.76438,3.85062 2.56136,1.18613 4.58121,2.1316 6.12833,4.05691 4.06551,5.03676 5.43214,10.50327 5.44073,10.55484 0.5329,2.18317 2.44961,3.77327 4.69295,3.86781 0.0774,0.009 0.15471,0.009 0.23207,0.009 2.14879,0 4.08269,-1.35803 4.78749,-3.41227 0.30943,-0.91968 2.98252,-9.36871 -0.56727,-21.73712 -1.27209,-4.42649 -3.23178,-8.25132 -5.1313,-11.95584 -3.09425,-6.0166 -5.76735,-11.21666 -4.64139,-17.59425 5.26023,-29.94547 4.89923,-54.30412 -1.08298,-72.37969 -9.29995,-28.11472 -31.81922,-43.77507 -36.23713,-46.62866 -2.19175,-1.4182 -4.16864,-2.6645 -5.83609,-3.69591 1.54712,-1.22911 3.50682,-2.52698 5.83609,-3.51541 5.30321,-2.25193 7.53795,-2.87078 8.1568,-3.01689 h 0.11176 c 2.20036,0 3.8936,-1.45259 4.53823,-3.60137 0.67042,-2.22615 -0.56726,-4.62418 -2.57853,-5.80172 -0.37818,-0.23207 -9.48904,-5.52668 -21.50505,-5.52668 -2.4754,0 -4.93361,0.22347 -7.31447,0.67042 -7.40901,1.40101 -12.64346,3.48963 -17.70599,5.50949 -4.94221,1.97688 -9.60937,3.83344 -16.58003,5.30319 -3.38649,0.7134 -6.50652,1.2635 -9.52342,1.7964 -10.37433,1.83076 -19.33047,3.41227 -32.7303,10.254 -17.48252,8.93035 -27.31536,18.70303 -27.68496,27.51305 -0.0774,1.85656 -0.0344,3.51542 0.12887,4.96799 -1.64166,0.81654 -3.62715,1.85655 -5.6384,2.99971 -8.17399,4.64998 -11.60345,8.131 -11.83552,12.01601 -0.15472,2.70746 0.56728,4.93361 2.15738,6.61826 z"
     style="clip-rule:evenodd;fill:#ffffff;fill-opacity:1;fill-rule:nonzero;stroke-width:8.59514236;stroke-linejoin:round;stroke-miterlimit:2"
     id="path10" />
</svg>
