<?xml version="1.0" encoding="UTF-8" standalone="no"?>
<svg
   xmlns:dc="http://purl.org/dc/elements/1.1/"
   xmlns:cc="http://creativecommons.org/ns#"
   xmlns:rdf="http://www.w3.org/1999/02/22-rdf-syntax-ns#"
   xmlns:svg="http://www.w3.org/2000/svg"
   xmlns="http://www.w3.org/2000/svg"
   xmlns:xlink="http://www.w3.org/1999/xlink"
   xmlns:sodipodi="http://sodipodi.sourceforge.net/DTD/sodipodi-0.dtd"
   xmlns:inkscape="http://www.inkscape.org/namespaces/inkscape"
   width="512"
   height="512"
   viewBox="0 0 512 512"
   version="1.1"
   id="svg46"
   sodipodi:docname="application-json.svg"
   inkscape:version="0.92.5 (2060ec1f9f, 2020-04-08)">
  <metadata
     id="metadata50">
    <rdf:RDF>
      <cc:Work
         rdf:about="">
        <dc:format>image/svg+xml</dc:format>
        <dc:type
           rdf:resource="http://purl.org/dc/dcmitype/StillImage" />
        <dc:title></dc:title>
      </cc:Work>
    </rdf:RDF>
  </metadata>
  <sodipodi:namedview
     pagecolor="#ffffff"
     bordercolor="#666666"
     borderopacity="1"
     objecttolerance="10"
     gridtolerance="10"
     guidetolerance="10"
     inkscape:pageopacity="0"
     inkscape:pageshadow="2"
     inkscape:window-width="1908"
     inkscape:window-height="1031"
     id="namedview48"
     showgrid="false"
     inkscape:zoom="0.4609375"
     inkscape:cx="-132.33898"
     inkscape:cy="256"
     inkscape:window-x="1924"
     inkscape:window-y="8"
     inkscape:window-maximized="0"
     inkscape:current-layer="svg46" />
  <defs
     id="defs30">
    <linearGradient
       id="application-vnd.oasis.opendocument.formula-c"
       x1="50%"
       x2="50%"
       y1="0%"
       y2="100%">
      <stop
         offset="0%"
         stop-color="#9BAAC1"
         id="stop2" />
      <stop
         offset="100%"
         stop-color="#779DB2"
         id="stop4" />
    </linearGradient>
    <path
       id="application-vnd.oasis.opendocument.formula-b"
       d="M232,0 L336,104 L336,380 C336,399.882251 319.882251,416 300,416 L36,416 C16.117749,416 2.4348735e-15,399.882251 0,380 L0,36 C-2.4348735e-15,16.117749 16.117749,3.65231026e-15 36,0 L232,0 Z" />
    <filter
       id="application-vnd.oasis.opendocument.formula-a"
       width="127.4%"
       height="122.1%"
       x="-13.7%"
       y="-9.1%"
       filterUnits="objectBoundingBox">
      <feOffset
         dy="8"
         in="SourceAlpha"
         result="shadowOffsetOuter1"
         id="feOffset8" />
      <feGaussianBlur
         in="shadowOffsetOuter1"
         result="shadowBlurOuter1"
         stdDeviation="14"
         id="feGaussianBlur10" />
      <feColorMatrix
         in="shadowBlurOuter1"
         values="0 0 0 0 0.474509804   0 0 0 0 0.619607843   0 0 0 0 0.701960784  0 0 0 0.5 0"
         id="feColorMatrix12" />
    </filter>
    <linearGradient
       id="application-vnd.oasis.opendocument.formula-f"
       x1="50%"
       x2="7.994%"
       y1="50%"
       y2="88.893%">
      <stop
         offset="0%"
         stop-color="#FFF"
         stop-opacity=".1"
         id="stop15" />
      <stop
         offset="100%"
         stop-color="#FFF"
         stop-opacity=".3"
         id="stop17" />
    </linearGradient>
    <path
       id="application-vnd.oasis.opendocument.formula-e"
       d="M232,0 L336,104 L268,104 C248.117749,104 232,87.882251 232,68 L232,0 Z" />
    <filter
       id="application-vnd.oasis.opendocument.formula-d"
       width="126.9%"
       height="126.9%"
       x="-13.5%"
       y="-9.6%"
       filterUnits="objectBoundingBox">
      <feOffset
         dy="4"
         in="SourceAlpha"
         result="shadowOffsetOuter1"
         id="feOffset21" />
      <feGaussianBlur
         in="shadowOffsetOuter1"
         result="shadowBlurOuter1"
         stdDeviation="4"
         id="feGaussianBlur23" />
      <feComposite
         in="shadowBlurOuter1"
         in2="SourceAlpha"
         operator="out"
         result="shadowBlurOuter1"
         id="feComposite25" />
      <feColorMatrix
         in="shadowBlurOuter1"
         values="0 0 0 0 0   0 0 0 0 0   0 0 0 0 0  0 0 0 0.05 0"
         id="feColorMatrix27" />
    </filter>
  </defs>
  <g
     id="g44"
     fill-rule="evenodd"
     fill="none">
    <g
       transform="translate(88 56)"
       id="g40">
      <use
         xlink:href="#application-vnd.oasis.opendocument.formula-b"
         id="use32"
         filter="url(#application-vnd.oasis.opendocument.formula-a)"
         fill="#000" />
      <use
         xlink:href="#application-vnd.oasis.opendocument.formula-b"
         id="use34"
         fill="url(#application-vnd.oasis.opendocument.formula-c)" />
      <use
         xlink:href="#application-vnd.oasis.opendocument.formula-e"
         id="use36"
         filter="url(#application-vnd.oasis.opendocument.formula-d)"
         fill="#000" />
      <use
         xlink:href="#application-vnd.oasis.opendocument.formula-e"
         id="use38"
         fill="url(#application-vnd.oasis.opendocument.formula-f)" />
    </g>
  </g>
  <path
     inkscape:connector-curvature="0"
     d="m 202.81179,371.62628 h -4.10275 c -9.58087,0 -17.17253,-2.79732 -22.77497,-8.39977 -5.47033,-5.59466 -8.20551,-13.06199 -8.20551,-22.39421 v -31.91292 c 0,-5.09737 -1.30543,-8.95924 -3.92404,-11.57008 -2.61085,-2.73517 -5.90548,-4.10276 -9.89168,-4.10276 v -14.1887 c 3.9862,0 7.28083,-1.30542 9.89168,-3.91626 2.61861,-2.73518 3.92404,-6.65921 3.92404,-11.75657 v -31.91293 c 0,-9.33221 2.73518,-16.79955 8.20551,-22.39421 5.60244,-5.60244 13.1941,-8.39977 22.77497,-8.39977 h 4.10275 v 14.18093 h -4.10275 c -4.35918,0 -8.0268,1.56184 -11.01062,4.66999 -2.86727,3.10815 -4.29701,7.28084 -4.29701,12.50253 v 31.91292 c 0,11.32143 -4.28925,18.60227 -12.87551,21.83474 v 0.74596 c 8.58626,2.98382 12.87551,10.26467 12.87551,21.83475 v 31.91292 c 0,5.22946 1.42974,9.39438 4.29701,12.50252 2.98382,3.11593 6.65144,4.67 11.01062,4.67 h 4.10275 z m 110.47915,0 h -4.10275 v -14.18092 h 4.10275 c 4.35918,0 7.96464,-1.55407 10.82414,-4.67 2.99159,-3.10814 4.4835,-7.27306 4.4835,-12.50252 v -31.91292 c 0,-11.57008 4.28924,-18.85093 12.8755,-21.83475 v -0.74596 c -8.58626,-3.23247 -12.8755,-10.51331 -12.8755,-21.83474 v -31.91292 c 0,-5.22169 -1.49191,-9.39438 -4.4835,-12.50253 -2.8595,-3.10815 -6.46496,-4.66999 -10.82414,-4.66999 h -4.10275 V 200.6781 h 4.10275 c 9.58087,0 17.11036,2.79733 22.58071,8.39977 5.60243,5.59466 8.39977,13.062 8.39977,22.39421 v 31.91293 c 0,5.09736 1.30543,9.02139 3.92404,11.75657 2.61085,2.61084 5.90548,3.91626 9.89168,3.91626 v 14.1887 c -3.9862,0 -7.28083,1.36759 -9.89168,4.10276 -2.61861,2.61084 -3.92404,6.47271 -3.92404,11.57008 v 31.91292 c 0,9.33222 -2.79734,16.79955 -8.39977,22.39421 -5.47035,5.60245 -12.99984,8.39977 -22.58071,8.39977 z M 255.8135,276.27605 c 5.36156,0 9.71297,4.35141 9.71297,9.71297 0,5.36156 -4.35141,9.71296 -9.71297,9.71296 -5.36156,0 -9.71297,-4.3514 -9.71297,-9.71296 0,-5.36156 4.35141,-9.71297 9.71297,-9.71297 z m 46.62223,0 c 5.36156,0 9.71297,4.35141 9.71297,9.71297 0,5.36156 -4.35141,9.71296 -9.71297,9.71296 -5.36155,0 -9.71296,-4.3514 -9.71296,-9.71296 0,-5.36156 4.35141,-9.71297 9.71296,-9.71297 z m -93.24446,0 c 5.36155,0 9.71296,4.35141 9.71296,9.71297 0,5.36156 -4.35141,9.71296 -9.71296,9.71296 -5.36156,0 -9.71297,-4.3514 -9.71297,-9.71296 0,-5.36156 4.35141,-9.71297 9.71297,-9.71297 z"
     style="clip-rule:evenodd;fill:#ffffff;fill-opacity:1;fill-rule:nonzero;stroke-width:7.77037287;stroke-linejoin:round;stroke-miterlimit:2"
     id="path12" />
</svg>
