<?xml version="1.0" encoding="UTF-8" standalone="no"?>
<svg
   xmlns:dc="http://purl.org/dc/elements/1.1/"
   xmlns:cc="http://creativecommons.org/ns#"
   xmlns:rdf="http://www.w3.org/1999/02/22-rdf-syntax-ns#"
   xmlns:svg="http://www.w3.org/2000/svg"
   xmlns="http://www.w3.org/2000/svg"
   xmlns:xlink="http://www.w3.org/1999/xlink"
   xmlns:sodipodi="http://sodipodi.sourceforge.net/DTD/sodipodi-0.dtd"
   xmlns:inkscape="http://www.inkscape.org/namespaces/inkscape"
   width="512"
   height="512"
   viewBox="0 0 512 512"
   version="1.1"
   id="svg52"
   sodipodi:docname="application-x-trash.svg"
   inkscape:version="0.92.5 (2060ec1f9f, 2020-04-08)">
  <metadata
     id="metadata56">
    <rdf:RDF>
      <cc:Work
         rdf:about="">
        <dc:format>image/svg+xml</dc:format>
        <dc:type
           rdf:resource="http://purl.org/dc/dcmitype/StillImage" />
        <dc:title></dc:title>
      </cc:Work>
    </rdf:RDF>
  </metadata>
  <sodipodi:namedview
     pagecolor="#ffffff"
     bordercolor="#666666"
     borderopacity="1"
     objecttolerance="10"
     gridtolerance="10"
     guidetolerance="10"
     inkscape:pageopacity="0"
     inkscape:pageshadow="2"
     inkscape:window-width="1908"
     inkscape:window-height="1031"
     id="namedview54"
     showgrid="false"
     inkscape:zoom="0.4609375"
     inkscape:cx="-132.33898"
     inkscape:cy="256"
     inkscape:window-x="1924"
     inkscape:window-y="1084"
     inkscape:window-maximized="0"
     inkscape:current-layer="svg52" />
  <defs
     id="defs30">
    <linearGradient
       id="application-x-xz-c"
       x1="50%"
       x2="50%"
       y1="0%"
       y2="97.687%">
      <stop
         offset="0%"
         stop-color="#666E7B"
         id="stop2" />
      <stop
         offset="100%"
         stop-color="#475055"
         id="stop4" />
    </linearGradient>
    <path
       id="application-x-xz-b"
       d="M232,0 L336,104 L336,380 C336,399.882251 319.882251,416 300,416 L36,416 C16.117749,416 2.4348735e-15,399.882251 0,380 L0,36 C-2.4348735e-15,16.117749 16.117749,3.65231026e-15 36,0 L232,0 Z" />
    <filter
       id="application-x-xz-a"
       width="127.4%"
       height="122.1%"
       x="-13.7%"
       y="-9.1%"
       filterUnits="objectBoundingBox">
      <feOffset
         dy="8"
         in="SourceAlpha"
         result="shadowOffsetOuter1"
         id="feOffset8" />
      <feGaussianBlur
         in="shadowOffsetOuter1"
         result="shadowBlurOuter1"
         stdDeviation="14"
         id="feGaussianBlur10" />
      <feColorMatrix
         in="shadowBlurOuter1"
         values="0 0 0 0 0.361595344   0 0 0 0 0.418797512   0 0 0 0 0.450973732  0 0 0 0.5 0"
         id="feColorMatrix12" />
    </filter>
    <linearGradient
       id="application-x-xz-f"
       x1="50%"
       x2="7.994%"
       y1="50%"
       y2="88.893%">
      <stop
         offset="0%"
         stop-color="#FFF"
         stop-opacity=".1"
         id="stop15" />
      <stop
         offset="100%"
         stop-color="#FFF"
         stop-opacity=".3"
         id="stop17" />
    </linearGradient>
    <path
       id="application-x-xz-e"
       d="M232,0 L336,104 L268,104 C248.117749,104 232,87.882251 232,68 L232,0 Z" />
    <filter
       id="application-x-xz-d"
       width="126.9%"
       height="126.9%"
       x="-13.5%"
       y="-9.6%"
       filterUnits="objectBoundingBox">
      <feOffset
         dy="4"
         in="SourceAlpha"
         result="shadowOffsetOuter1"
         id="feOffset21" />
      <feGaussianBlur
         in="shadowOffsetOuter1"
         result="shadowBlurOuter1"
         stdDeviation="4"
         id="feGaussianBlur23" />
      <feComposite
         in="shadowBlurOuter1"
         in2="SourceAlpha"
         operator="out"
         result="shadowBlurOuter1"
         id="feComposite25" />
      <feColorMatrix
         in="shadowBlurOuter1"
         values="0 0 0 0 0   0 0 0 0 0   0 0 0 0 0  0 0 0 0.05 0"
         id="feColorMatrix27" />
    </filter>
  </defs>
  <g
     fill="none"
     fill-rule="evenodd"
     id="g50">
    <g
       transform="translate(88 56)"
       id="g46">
      <use
         fill="#000"
         filter="url(#application-x-xz-a)"
         xlink:href="#application-x-xz-b"
         id="use32" />
      <use
         fill="url(#application-x-xz-c)"
         xlink:href="#application-x-xz-b"
         id="use34" />
      <use
         fill="#000"
         filter="url(#application-x-xz-d)"
         xlink:href="#application-x-xz-e"
         id="use36" />
      <use
         fill="url(#application-x-xz-f)"
         xlink:href="#application-x-xz-e"
         id="use38" />
      <g
         transform="translate(0 158)"
         id="g44" />
    </g>
  </g>
  <path
     inkscape:connector-curvature="0"
     d="m 161.63797,259.95034 11.8013,9.46808 -11.1081,21.84422 c -5.55404,10.06828 3.99011,19.88296 10.0683,23.29824 5.98518,3.36456 15.27573,3.76186 23.95762,3.64353 l 15.6308,-26.21476 11.80128,6.55156 -20.48319,-38.95439 z m 1.73301,53.46929 25.35248,48.05896 c 5.08908,6.67839 14.69243,8.25076 24.65081,8.01407 h 26.73888 v -45.51442 l -50.69649,-0.36352 c -7.87034,0.49033 -18.17535,-1.20887 -26.04568,-10.19509 z m 159.478,-88.56037 -13.79636,6.01053 -13.22995,-20.56769 c -5.89219,-9.86542 -18.877,-6.06128 -24.73536,-2.25715 -5.77384,3.74498 -10.61778,11.89429 -14.71779,19.73927 l 14.76006,26.73042 -11.30253,7.42229 43.1305,0.49878 z m -46.41897,-24.36341 -53.24105,-0.54948 c -8.15777,1.33568 -14.15985,9.1891 -18.78399,18.24297 l -12.95943,23.99989 38.78531,22.06402 24.88753,-45.32845 c 3.39835,-7.2955 9.84003,-15.72378 21.31163,-18.42895 z m 2.31629,185.43069 1.56393,-15.29263 23.94074,-1.90208 c 11.26868,-0.50722 14.32045,-14.00769 13.92313,-21.10876 -0.39732,-6.99116 -4.98765,-15.29263 -9.68787,-22.78256 l -29.94282,0.28743 -0.84537,-13.74563 -21.33698,38.47252 z m 43.26575,-29.84982 26.28239,-47.51793 c 2.81505,-7.97179 -0.97218,-17.16934 -6.44168,-25.70753 l -14.16831,-23.26444 -37.61026,24.11825 26.56133,44.30556 c 4.57344,6.59383 8.63117,16.45925 5.37653,28.06609 z"
     style="clip-rule:evenodd;fill:#ffffff;fill-opacity:1;fill-rule:nonzero;stroke-width:8.4536438;stroke-linejoin:round;stroke-miterlimit:2"
     id="path14" />
</svg>
