<?xml version="1.0" encoding="UTF-8" standalone="no"?>
<svg
   xmlns:dc="http://purl.org/dc/elements/1.1/"
   xmlns:cc="http://creativecommons.org/ns#"
   xmlns:rdf="http://www.w3.org/1999/02/22-rdf-syntax-ns#"
   xmlns:svg="http://www.w3.org/2000/svg"
   xmlns="http://www.w3.org/2000/svg"
   xmlns:xlink="http://www.w3.org/1999/xlink"
   xmlns:sodipodi="http://sodipodi.sourceforge.net/DTD/sodipodi-0.dtd"
   xmlns:inkscape="http://www.inkscape.org/namespaces/inkscape"
   width="512"
   height="512"
   viewBox="0 0 512 512"
   version="1.1"
   id="svg46"
   sodipodi:docname="application-x-desktop-budgie.svg"
   inkscape:version="0.92.5 (2060ec1f9f, 2020-04-08)">
  <metadata
     id="metadata50">
    <rdf:RDF>
      <cc:Work
         rdf:about="">
        <dc:format>image/svg+xml</dc:format>
        <dc:type
           rdf:resource="http://purl.org/dc/dcmitype/StillImage" />
        <dc:title></dc:title>
      </cc:Work>
    </rdf:RDF>
  </metadata>
  <sodipodi:namedview
     pagecolor="#ffffff"
     bordercolor="#666666"
     borderopacity="1"
     objecttolerance="10"
     gridtolerance="10"
     guidetolerance="10"
     inkscape:pageopacity="0"
     inkscape:pageshadow="2"
     inkscape:window-width="1908"
     inkscape:window-height="1031"
     id="namedview48"
     showgrid="false"
     inkscape:zoom="0.4609375"
     inkscape:cx="-132.33898"
     inkscape:cy="256"
     inkscape:window-x="1924"
     inkscape:window-y="8"
     inkscape:window-maximized="0"
     inkscape:current-layer="svg46" />
  <defs
     id="defs30">
    <linearGradient
       id="text-x-vcard-c"
       x1="50%"
       x2="50%"
       y1="0%"
       y2="99.203%">
      <stop
         offset="0%"
         stop-color="#A2A7B0"
         id="stop2" />
      <stop
         offset="98.472%"
         stop-color="#7B8991"
         id="stop4" />
    </linearGradient>
    <path
       id="text-x-vcard-b"
       d="M232,0 L336,104 L336,380 C336,399.882251 319.882251,416 300,416 L36,416 C16.117749,416 2.4348735e-15,399.882251 0,380 L0,36 C-2.4348735e-15,16.117749 16.117749,3.65231026e-15 36,0 L232,0 Z" />
    <filter
       id="text-x-vcard-a"
       width="127.4%"
       height="122.1%"
       x="-13.7%"
       y="-9.1%"
       filterUnits="objectBoundingBox">
      <feOffset
         dy="8"
         in="SourceAlpha"
         result="shadowOffsetOuter1"
         id="feOffset8" />
      <feGaussianBlur
         in="shadowOffsetOuter1"
         result="shadowBlurOuter1"
         stdDeviation="14"
         id="feGaussianBlur10" />
      <feColorMatrix
         in="shadowBlurOuter1"
         values="0 0 0 0 0.361595344   0 0 0 0 0.418797512   0 0 0 0 0.450973732  0 0 0 0.5 0"
         id="feColorMatrix12" />
    </filter>
    <linearGradient
       id="text-x-vcard-f"
       x1="50%"
       x2="7.994%"
       y1="50%"
       y2="88.893%">
      <stop
         offset="0%"
         stop-color="#FFF"
         stop-opacity=".1"
         id="stop15" />
      <stop
         offset="100%"
         stop-color="#FFF"
         stop-opacity=".3"
         id="stop17" />
    </linearGradient>
    <path
       id="text-x-vcard-e"
       d="M232,0 L336,104 L268,104 C248.117749,104 232,87.882251 232,68 L232,0 Z" />
    <filter
       id="text-x-vcard-d"
       width="126.9%"
       height="126.9%"
       x="-13.5%"
       y="-9.6%"
       filterUnits="objectBoundingBox">
      <feOffset
         dy="4"
         in="SourceAlpha"
         result="shadowOffsetOuter1"
         id="feOffset21" />
      <feGaussianBlur
         in="shadowOffsetOuter1"
         result="shadowBlurOuter1"
         stdDeviation="4"
         id="feGaussianBlur23" />
      <feComposite
         in="shadowBlurOuter1"
         in2="SourceAlpha"
         operator="out"
         result="shadowBlurOuter1"
         id="feComposite25" />
      <feColorMatrix
         in="shadowBlurOuter1"
         values="0 0 0 0 0   0 0 0 0 0   0 0 0 0 0  0 0 0 0.05 0"
         id="feColorMatrix27" />
    </filter>
  </defs>
  <g
     fill="none"
     fill-rule="evenodd"
     id="g44">
    <g
       transform="translate(88 56)"
       id="g40">
      <use
         fill="#000"
         filter="url(#text-x-vcard-a)"
         xlink:href="#text-x-vcard-b"
         id="use32" />
      <use
         fill="url(#text-x-vcard-c)"
         xlink:href="#text-x-vcard-b"
         id="use34" />
      <use
         fill="#000"
         filter="url(#text-x-vcard-d)"
         xlink:href="#text-x-vcard-e"
         id="use36" />
      <use
         fill="url(#text-x-vcard-f)"
         xlink:href="#text-x-vcard-e"
         id="use38" />
    </g>
  </g>
  <path
     inkscape:connector-curvature="0"
     d="m 279.47118,214.58394 c -8.64095,-0.30296 -18.53165,1.11089 -24.36384,3.83131 -23.89676,9.96645 -35.9335,51.95935 -61.19993,49.50403 -8.78613,-1.04146 -15.60926,-5.64282 -20.82919,-14.04391 -8.20543,2.63835 -7.06929,22.76692 -1.97561,33.23201 20.47572,42.08758 58.47952,60.27208 101.41289,49.99006 33.18783,-9.92228 55.3362,-35.08141 58.2081,-66.7607 0.22092,-1.75471 0.34085,-3.04232 0.46077,-4.39939 0.53019,-1.76733 1.62216,-2.47425 3.95124,-3.92599 4.19739,-2.58785 4.23526,-3.58514 -0.66276,-5.26411 -2.9224,-1.00357 -4.27944,-1.8683 -6.33711,-8.9881 -11.28564,-22.69119 -30.5116,-32.44304 -48.66456,-33.17521 z m 12.50383,22.98154 c 4.07115,0 7.36596,3.3011 7.36596,7.37859 0,4.06484 -3.29481,7.36595 -7.36596,7.36595 -4.06486,0 -7.37227,-3.30111 -7.37227,-7.36595 0,-4.07749 3.30741,-7.37859 7.37227,-7.37859 z m -50.67174,30.78301 c 0.77636,0.0379 1.57797,0.14517 2.40484,0.30297 5.13785,0.9594 10.57869,6.82944 11.20357,12.09986 0.60594,5.15049 -2.9224,11.81583 -7.66892,14.48575 -3.38949,1.90619 -11.38663,2.96028 -17.77425,2.35433 -5.56706,-0.53019 -18.36755,-3.18118 -22.00319,-4.56347 l -3.16225,-1.20558 8.76088,-4.27313 c 7.32808,-3.56621 9.57512,-5.32092 13.70938,-10.6797 4.76547,-6.20457 9.10174,-8.79874 14.52994,-8.52103 z"
     style="clip-rule:evenodd;fill:#ffffff;fill-opacity:1;fill-rule:nonzero;stroke-width:6.31187439;stroke-linejoin:round;stroke-miterlimit:2"
     id="path6" />
</svg>
