<?xml version="1.0" encoding="UTF-8" standalone="no"?>
<svg
   xmlns:dc="http://purl.org/dc/elements/1.1/"
   xmlns:cc="http://creativecommons.org/ns#"
   xmlns:rdf="http://www.w3.org/1999/02/22-rdf-syntax-ns#"
   xmlns:svg="http://www.w3.org/2000/svg"
   xmlns="http://www.w3.org/2000/svg"
   xmlns:xlink="http://www.w3.org/1999/xlink"
   xmlns:sodipodi="http://sodipodi.sourceforge.net/DTD/sodipodi-0.dtd"
   xmlns:inkscape="http://www.inkscape.org/namespaces/inkscape"
   width="512"
   height="512"
   viewBox="0 0 512 512"
   version="1.1"
   id="svg53"
   sodipodi:docname="text-x-go.svg"
   inkscape:version="0.92.5 (2060ec1f9f, 2020-04-08)">
  <metadata
     id="metadata57">
    <rdf:RDF>
      <cc:Work
         rdf:about="">
        <dc:format>image/svg+xml</dc:format>
        <dc:type
           rdf:resource="http://purl.org/dc/dcmitype/StillImage" />
        <dc:title></dc:title>
      </cc:Work>
    </rdf:RDF>
  </metadata>
  <sodipodi:namedview
     pagecolor="#ffffff"
     bordercolor="#666666"
     borderopacity="1"
     objecttolerance="10"
     gridtolerance="10"
     guidetolerance="10"
     inkscape:pageopacity="0"
     inkscape:pageshadow="2"
     inkscape:window-width="1908"
     inkscape:window-height="1031"
     id="namedview55"
     showgrid="false"
     inkscape:zoom="0.4609375"
     inkscape:cx="-132.33898"
     inkscape:cy="256"
     inkscape:window-x="1924"
     inkscape:window-y="8"
     inkscape:window-maximized="0"
     inkscape:current-layer="svg53" />
  <defs
     id="defs35">
    <linearGradient
       id="application-vnd.scribus-c"
       x1="50%"
       x2="50%"
       y1="0%"
       y2="99.203%">
      <stop
         offset="0%"
         stop-color="#619FFF"
         id="stop2" />
      <stop
         offset="100%"
         stop-color="#0093E4"
         id="stop4" />
    </linearGradient>
    <path
       id="application-vnd.scribus-b"
       d="M232,0 L336,104 L336,380 C336,399.882251 319.882251,416 300,416 L36,416 C16.117749,416 2.4348735e-15,399.882251 0,380 L0,36 C-2.4348735e-15,16.117749 16.117749,3.65231026e-15 36,0 L232,0 Z" />
    <filter
       id="application-vnd.scribus-a"
       width="127.4%"
       height="122.1%"
       x="-13.7%"
       y="-9.1%"
       filterUnits="objectBoundingBox">
      <feOffset
         dy="8"
         in="SourceAlpha"
         result="shadowOffsetOuter1"
         id="feOffset8" />
      <feGaussianBlur
         in="shadowOffsetOuter1"
         result="shadowBlurOuter1"
         stdDeviation="14"
         id="feGaussianBlur10" />
      <feColorMatrix
         in="shadowBlurOuter1"
         values="0 0 0 0 0.0156862745   0 0 0 0 0.580392157   0 0 0 0 0.898039216  0 0 0 0.5 0"
         id="feColorMatrix12" />
    </filter>
    <linearGradient
       id="application-vnd.scribus-f"
       x1="50%"
       x2="7.994%"
       y1="50%"
       y2="88.893%">
      <stop
         offset="0%"
         stop-color="#FFF"
         stop-opacity=".1"
         id="stop15" />
      <stop
         offset="100%"
         stop-color="#FFF"
         stop-opacity=".3"
         id="stop17" />
    </linearGradient>
    <path
       id="application-vnd.scribus-e"
       d="M232,0 L336,104 L268,104 C248.117749,104 232,87.882251 232,68 L232,0 Z" />
    <filter
       id="application-vnd.scribus-d"
       width="126.9%"
       height="126.9%"
       x="-13.5%"
       y="-9.6%"
       filterUnits="objectBoundingBox">
      <feOffset
         dy="4"
         in="SourceAlpha"
         result="shadowOffsetOuter1"
         id="feOffset21" />
      <feGaussianBlur
         in="shadowOffsetOuter1"
         result="shadowBlurOuter1"
         stdDeviation="4"
         id="feGaussianBlur23" />
      <feComposite
         in="shadowBlurOuter1"
         in2="SourceAlpha"
         operator="out"
         result="shadowBlurOuter1"
         id="feComposite25" />
      <feColorMatrix
         in="shadowBlurOuter1"
         values="0 0 0 0 0   0 0 0 0 0   0 0 0 0 0  0 0 0 0.05 0"
         id="feColorMatrix27" />
    </filter>
    <linearGradient
       id="application-vnd.scribus-g"
       x1="59.307%"
       x2="34.041%"
       y1="27.238%"
       y2="100%">
      <stop
         offset="0%"
         stop-color="#FFF"
         stop-opacity="0"
         id="stop30" />
      <stop
         offset="100%"
         stop-color="#FFF"
         id="stop32" />
    </linearGradient>
  </defs>
  <g
     fill="none"
     fill-rule="evenodd"
     id="g51">
    <g
       transform="translate(88 56)"
       id="g45">
      <use
         fill="#000"
         filter="url(#application-vnd.scribus-a)"
         xlink:href="#application-vnd.scribus-b"
         id="use37" />
      <use
         fill="url(#application-vnd.scribus-c)"
         xlink:href="#application-vnd.scribus-b"
         id="use39" />
      <use
         fill="#000"
         filter="url(#application-vnd.scribus-d)"
         xlink:href="#application-vnd.scribus-e"
         id="use41" />
      <use
         fill="url(#application-vnd.scribus-f)"
         xlink:href="#application-vnd.scribus-e"
         id="use43" />
    </g>
  </g>
  <path
     inkscape:connector-curvature="0"
     d="m 143.47775,262.27028 c -0.47393,0 -0.59623,-0.23695 -0.35927,-0.59623 l 2.4996,-3.21049 c 0.24461,-0.35927 0.8332,-0.59623 1.31477,-0.59623 h 42.51609 c 0.47393,0 0.59623,0.35927 0.35927,0.71089 l -2.02567,3.09583 c -0.23697,0.35928 -0.8332,0.71854 -1.19247,0.71854 z"
     style="clip-rule:evenodd;fill:#ffffff;fill-rule:nonzero;stroke-width:7.64402819;stroke-linejoin:round;stroke-miterlimit:2"
     id="path14" />
  <path
     inkscape:connector-curvature="0"
     d="m 125.49136,273.23183 c -0.47394,0 -0.59624,-0.24461 -0.35163,-0.59624 l 2.49959,-3.21814 c 0.23697,-0.35927 0.83321,-0.59623 1.30713,-0.59623 h 54.31083 c 0.47392,0 0.71089,0.35927 0.59623,0.71854 l -0.9555,2.85886 c -0.12231,0.47394 -0.59624,0.7109 -1.07017,0.7109 z"
     style="clip-rule:evenodd;fill:#ffffff;fill-rule:nonzero;stroke-width:7.64402819;stroke-linejoin:round;stroke-miterlimit:2"
     id="path16" />
  <path
     inkscape:connector-curvature="0"
     d="m 154.31699,284.18572 c -0.48158,0 -0.59624,-0.35927 -0.35928,-0.7109 l 1.6664,-2.98117 c 0.23697,-0.35927 0.71854,-0.71089 1.19247,-0.71089 h 23.81879 c 0.47393,0 0.7109,0.35162 0.7109,0.83319 l -0.23697,2.85887 c 0,0.47393 -0.47393,0.8332 -0.83319,0.8332 z"
     style="clip-rule:evenodd;fill:#ffffff;fill-rule:nonzero;stroke-width:7.64402819;stroke-linejoin:round;stroke-miterlimit:2"
     id="path18" />
  <path
     inkscape:connector-curvature="0"
     d="m 277.93621,260.12996 c -7.49879,1.90337 -12.62029,3.3328 -20.00442,5.23616 -1.78871,0.48157 -1.91101,0.59623 -3.45511,-1.18483 -1.78869,-2.02566 -3.09583,-3.34044 -5.60307,-4.53291 -7.49878,-3.68442 -14.76062,-2.61425 -21.55616,1.78871 -8.09502,5.2438 -12.26102,12.97956 -12.14636,22.62632 0.12231,9.53211 6.67324,17.39017 16.08304,18.70494 8.09503,1.07017 14.88292,-1.78871 20.24138,-7.86571 1.07017,-1.30712 2.02567,-2.73656 3.21814,-4.40296 h -22.98559 c -2.4996,0 -3.09583,-1.55173 -2.26263,-3.5774 1.54409,-3.69207 4.40295,-9.88373 6.077,-12.97956 0.35162,-0.71089 1.18482,-1.90337 2.97352,-1.90337 h 43.34929 c -0.23696,3.21814 -0.23696,6.42863 -0.71089,9.64677 -1.31477,8.5766 -4.52527,16.43466 -9.76907,23.34486 -8.5766,11.31316 -19.76746,18.33803 -33.93949,20.24139 -11.67243,1.55173 -22.51166,-0.71089 -32.03612,-7.85806 -8.81357,-6.67324 -13.8204,-15.4868 -15.12754,-26.44069 -1.55173,-12.97956 2.26264,-24.652 10.1207,-34.895 8.46194,-11.07619 19.6528,-18.10105 33.35089,-20.60065 11.19086,-2.02567 21.91544,-0.71854 31.5622,5.83239 6.30632,4.166 10.83159,9.88373 13.81276,16.79393 0.7109,1.07016 0.23696,1.6664 -1.19247,2.02567 z"
     style="clip-rule:evenodd;fill:#ffffff;fill-rule:nonzero;stroke-width:7.64402819;stroke-linejoin:round;stroke-miterlimit:2"
     id="path20" />
  <path
     inkscape:connector-curvature="0"
     d="m 317.35646,325.99091 c -10.83923,-0.23697 -20.72296,-3.34044 -29.05495,-10.47997 -7.0325,-6.077 -11.43546,-13.8204 -12.8649,-22.98559 -2.14797,-13.46113 1.54409,-25.37053 9.64676,-35.9728 8.69127,-11.42782 19.17123,-17.38251 33.34326,-19.88976 12.154,-2.14032 23.58182,-0.94786 33.94713,6.07701 9.4098,6.42863 15.24219,15.12753 16.79393,26.55535 2.01802,16.08303 -2.6219,29.1849 -13.6981,40.37576 -7.85806,7.98036 -17.50482,12.97956 -28.58103,15.24219 -3.21813,0.59623 -6.43627,0.71854 -9.5321,1.07781 z m 28.34406,-48.11916 c -0.11466,-1.54409 -0.11466,-2.73657 -0.35162,-3.92903 -2.14798,-11.78709 -12.98721,-18.46033 -24.30037,-15.83843 -11.0762,2.4996 -18.22337,9.52446 -20.83762,20.72296 -2.14798,9.28749 2.37729,18.6973 10.95389,22.51166 6.55093,2.85887 13.10186,2.49961 19.41583,-0.71853 9.40216,-4.88453 14.52366,-12.50564 15.11989,-22.74863 z"
     style="clip-rule:evenodd;fill:#ffffff;fill-rule:nonzero;stroke-width:7.64402819;stroke-linejoin:round;stroke-miterlimit:2"
     id="path22" />
</svg>
