<?xml version="1.0" encoding="UTF-8" standalone="no"?>
<svg
   xmlns:dc="http://purl.org/dc/elements/1.1/"
   xmlns:cc="http://creativecommons.org/ns#"
   xmlns:rdf="http://www.w3.org/1999/02/22-rdf-syntax-ns#"
   xmlns:svg="http://www.w3.org/2000/svg"
   xmlns="http://www.w3.org/2000/svg"
   xmlns:xlink="http://www.w3.org/1999/xlink"
   xmlns:sodipodi="http://sodipodi.sourceforge.net/DTD/sodipodi-0.dtd"
   xmlns:inkscape="http://www.inkscape.org/namespaces/inkscape"
   width="512"
   height="512"
   viewBox="0 0 512 512"
   version="1.1"
   id="svg46"
   sodipodi:docname="text-x-scala.svg"
   inkscape:version="0.92.5 (2060ec1f9f, 2020-04-08)">
  <metadata
     id="metadata50">
    <rdf:RDF>
      <cc:Work
         rdf:about="">
        <dc:format>image/svg+xml</dc:format>
        <dc:type
           rdf:resource="http://purl.org/dc/dcmitype/StillImage" />
        <dc:title></dc:title>
      </cc:Work>
    </rdf:RDF>
  </metadata>
  <sodipodi:namedview
     pagecolor="#ffffff"
     bordercolor="#666666"
     borderopacity="1"
     objecttolerance="10"
     gridtolerance="10"
     guidetolerance="10"
     inkscape:pageopacity="0"
     inkscape:pageshadow="2"
     inkscape:window-width="1908"
     inkscape:window-height="1031"
     id="namedview48"
     showgrid="false"
     inkscape:zoom="0.4609375"
     inkscape:cx="-132.33898"
     inkscape:cy="256"
     inkscape:window-x="1924"
     inkscape:window-y="8"
     inkscape:window-maximized="0"
     inkscape:current-layer="svg46" />
  <defs
     id="defs30">
    <linearGradient
       id="text-x-cmake-c"
       x1="50%"
       x2="50%"
       y1="0%"
       y2="100%">
      <stop
         offset="0%"
         stop-color="#F33C3C"
         id="stop2" />
      <stop
         offset="99.628%"
         stop-color="#DC2121"
         id="stop4" />
    </linearGradient>
    <path
       id="text-x-cmake-b"
       d="M232,0 L336,104 L336,380 C336,399.882251 319.882251,416 300,416 L36,416 C16.117749,416 2.4348735e-15,399.882251 0,380 L0,36 C-2.4348735e-15,16.117749 16.117749,3.65231026e-15 36,0 L232,0 Z" />
    <filter
       id="text-x-cmake-a"
       width="127.4%"
       height="122.1%"
       x="-13.7%"
       y="-9.1%"
       filterUnits="objectBoundingBox">
      <feOffset
         dy="8"
         in="SourceAlpha"
         result="shadowOffsetOuter1"
         id="feOffset8" />
      <feGaussianBlur
         in="shadowOffsetOuter1"
         result="shadowBlurOuter1"
         stdDeviation="14"
         id="feGaussianBlur10" />
      <feColorMatrix
         in="shadowBlurOuter1"
         values="0 0 0 0 0.6622226   0 0 0 0 0   0 0 0 0 0  0 0 0 0.5 0"
         id="feColorMatrix12" />
    </filter>
    <linearGradient
       id="text-x-cmake-f"
       x1="50%"
       x2="7.994%"
       y1="50%"
       y2="88.893%">
      <stop
         offset="0%"
         stop-color="#FFF"
         stop-opacity=".1"
         id="stop15" />
      <stop
         offset="100%"
         stop-color="#FFF"
         stop-opacity=".3"
         id="stop17" />
    </linearGradient>
    <path
       id="text-x-cmake-e"
       d="M232,0 L336,104 L268,104 C248.117749,104 232,87.882251 232,68 L232,0 Z" />
    <filter
       id="text-x-cmake-d"
       width="126.9%"
       height="126.9%"
       x="-13.5%"
       y="-9.6%"
       filterUnits="objectBoundingBox">
      <feOffset
         dy="4"
         in="SourceAlpha"
         result="shadowOffsetOuter1"
         id="feOffset21" />
      <feGaussianBlur
         in="shadowOffsetOuter1"
         result="shadowBlurOuter1"
         stdDeviation="4"
         id="feGaussianBlur23" />
      <feComposite
         in="shadowBlurOuter1"
         in2="SourceAlpha"
         operator="out"
         result="shadowBlurOuter1"
         id="feComposite25" />
      <feColorMatrix
         in="shadowBlurOuter1"
         values="0 0 0 0 0   0 0 0 0 0   0 0 0 0 0  0 0 0 0.05 0"
         id="feColorMatrix27" />
    </filter>
  </defs>
  <g
     fill="none"
     fill-rule="evenodd"
     id="g44">
    <g
       transform="translate(88 56)"
       id="g40">
      <use
         fill="#000"
         filter="url(#text-x-cmake-a)"
         xlink:href="#text-x-cmake-b"
         id="use32" />
      <use
         fill="url(#text-x-cmake-c)"
         xlink:href="#text-x-cmake-b"
         id="use34" />
      <use
         fill="#000"
         filter="url(#text-x-cmake-d)"
         xlink:href="#text-x-cmake-e"
         id="use36" />
      <use
         fill="url(#text-x-cmake-f)"
         xlink:href="#text-x-cmake-e"
         id="use38" />
    </g>
  </g>
  <path
     inkscape:connector-curvature="0"
     d="m 198.34452,214.23295 v 45.69506 c 0,0 114.22529,11.43408 114.22529,30.47439 v -45.69507 c 0,0 0,-19.04856 -114.22529,-30.47438 z m 0,60.924 v 45.69507 c 0,0 114.22529,11.43409 114.22529,30.47438 v -45.70331 c 0,0 0,-19.04029 -114.22529,-30.46614 z"
     style="clip-rule:evenodd;fill:#ffffff;fill-opacity:0.73500001;fill-rule:nonzero;stroke-width:8.24969578;stroke-linejoin:round;stroke-miterlimit:2"
     id="path4" />
  <path
     inkscape:connector-curvature="0"
     d="m 312.56981,183.7833 c 0,19.04031 -114.22529,30.44965 -114.22529,30.44965 v 45.70331 c 114.22529,-11.42581 114.22529,-30.45787 114.22529,-30.45787 z m 0,60.92403 c 0,19.03204 -114.22529,30.44962 -114.22529,30.44962 v 45.69507 C 312.56981,309.43443 312.56981,290.4024 312.56981,290.4024 Z m 0,60.91576 c 0,19.0403 -114.22529,30.45787 -114.22529,30.45787 v 45.69509 C 312.56981,370.35021 312.56981,351.3264 312.56981,351.3264 Z"
     style="clip-rule:evenodd;fill:#ffffff;fill-opacity:1;fill-rule:nonzero;stroke-width:8.24969578;stroke-linejoin:round;stroke-miterlimit:2"
     id="path6" />
</svg>
