<?xml version="1.0" encoding="UTF-8" standalone="no"?>
<svg
   xmlns:dc="http://purl.org/dc/elements/1.1/"
   xmlns:cc="http://creativecommons.org/ns#"
   xmlns:rdf="http://www.w3.org/1999/02/22-rdf-syntax-ns#"
   xmlns:svg="http://www.w3.org/2000/svg"
   xmlns="http://www.w3.org/2000/svg"
   xmlns:xlink="http://www.w3.org/1999/xlink"
   xmlns:sodipodi="http://sodipodi.sourceforge.net/DTD/sodipodi-0.dtd"
   xmlns:inkscape="http://www.inkscape.org/namespaces/inkscape"
   width="512"
   height="512"
   viewBox="0 0 512 512"
   version="1.1"
   id="svg46"
   sodipodi:docname="text-x-matlab.svg"
   inkscape:version="0.92.5 (2060ec1f9f, 2020-04-08)">
  <metadata
     id="metadata50">
    <rdf:RDF>
      <cc:Work
         rdf:about="">
        <dc:format>image/svg+xml</dc:format>
        <dc:type
           rdf:resource="http://purl.org/dc/dcmitype/StillImage" />
        <dc:title></dc:title>
      </cc:Work>
    </rdf:RDF>
  </metadata>
  <sodipodi:namedview
     pagecolor="#ffffff"
     bordercolor="#666666"
     borderopacity="1"
     objecttolerance="10"
     gridtolerance="10"
     guidetolerance="10"
     inkscape:pageopacity="0"
     inkscape:pageshadow="2"
     inkscape:window-width="1908"
     inkscape:window-height="1031"
     id="namedview48"
     showgrid="false"
     inkscape:zoom="0.4609375"
     inkscape:cx="-132.33898"
     inkscape:cy="256"
     inkscape:window-x="1924"
     inkscape:window-y="8"
     inkscape:window-maximized="0"
     inkscape:current-layer="svg46" />
  <defs
     id="defs30">
    <linearGradient
       id="text-x-source-c"
       x1="50%"
       x2="50%"
       y1="0%"
       y2="99.203%">
      <stop
         offset="0%"
         stop-color="#619FFF"
         id="stop2" />
      <stop
         offset="100%"
         stop-color="#0093E4"
         id="stop4" />
    </linearGradient>
    <path
       id="text-x-source-b"
       d="M232,0 L336,104 L336,380 C336,399.882251 319.882251,416 300,416 L36,416 C16.117749,416 2.4348735e-15,399.882251 0,380 L0,36 C-2.4348735e-15,16.117749 16.117749,3.65231026e-15 36,0 L232,0 Z" />
    <filter
       id="text-x-source-a"
       width="127.4%"
       height="122.1%"
       x="-13.7%"
       y="-9.1%"
       filterUnits="objectBoundingBox">
      <feOffset
         dy="8"
         in="SourceAlpha"
         result="shadowOffsetOuter1"
         id="feOffset8" />
      <feGaussianBlur
         in="shadowOffsetOuter1"
         result="shadowBlurOuter1"
         stdDeviation="14"
         id="feGaussianBlur10" />
      <feColorMatrix
         in="shadowBlurOuter1"
         values="0 0 0 0 0.0156862745   0 0 0 0 0.580392157   0 0 0 0 0.898039216  0 0 0 0.5 0"
         id="feColorMatrix12" />
    </filter>
    <linearGradient
       id="text-x-source-f"
       x1="50%"
       x2="7.994%"
       y1="50%"
       y2="88.893%">
      <stop
         offset="0%"
         stop-color="#FFF"
         stop-opacity=".1"
         id="stop15" />
      <stop
         offset="100%"
         stop-color="#FFF"
         stop-opacity=".3"
         id="stop17" />
    </linearGradient>
    <path
       id="text-x-source-e"
       d="M232,0 L336,104 L268,104 C248.117749,104 232,87.882251 232,68 L232,0 Z" />
    <filter
       id="text-x-source-d"
       width="126.9%"
       height="126.9%"
       x="-13.5%"
       y="-9.6%"
       filterUnits="objectBoundingBox">
      <feOffset
         dy="4"
         in="SourceAlpha"
         result="shadowOffsetOuter1"
         id="feOffset21" />
      <feGaussianBlur
         in="shadowOffsetOuter1"
         result="shadowBlurOuter1"
         stdDeviation="4"
         id="feGaussianBlur23" />
      <feComposite
         in="shadowBlurOuter1"
         in2="SourceAlpha"
         operator="out"
         result="shadowBlurOuter1"
         id="feComposite25" />
      <feColorMatrix
         in="shadowBlurOuter1"
         values="0 0 0 0 0   0 0 0 0 0   0 0 0 0 0  0 0 0 0.05 0"
         id="feColorMatrix27" />
    </filter>
    <linearGradient
       id="_Linear2"
       x2="1"
       gradientTransform="matrix(-140.12404,128.28523,-128.28523,-140.12404,-5889.1343,-6561.3816)"
       gradientUnits="userSpaceOnUse">
      <stop
         style="stop-color:#fff"
         offset="0"
         id="stop15-3" />
      <stop
         style="stop-color:#ccc;stop-opacity:.67"
         offset="1"
         id="stop17-6" />
    </linearGradient>
    <linearGradient
       id="_Linear3"
       x2="1"
       gradientTransform="matrix(70.543058,-156.07432,156.07432,70.543058,7712.1334,3731.0206)"
       gradientUnits="userSpaceOnUse">
      <stop
         style="stop-color:#fff;stop-opacity:.78"
         offset="0"
         id="stop20" />
      <stop
         style="stop-color:#fff"
         offset="1"
         id="stop22" />
    </linearGradient>
  </defs>
  <g
     fill="none"
     fill-rule="evenodd"
     id="g44">
    <g
       transform="translate(88 56)"
       id="g40">
      <use
         fill="#000"
         filter="url(#text-x-source-a)"
         xlink:href="#text-x-source-b"
         id="use32" />
      <use
         fill="url(#text-x-source-c)"
         xlink:href="#text-x-source-b"
         id="use34" />
      <use
         fill="#000"
         filter="url(#text-x-source-d)"
         xlink:href="#text-x-source-e"
         id="use36" />
      <use
         fill="url(#text-x-source-f)"
         xlink:href="#text-x-source-e"
         id="use38" />
    </g>
  </g>
  <path
     inkscape:connector-curvature="0"
     d="m 290.87702,188.96152 c -14.65548,1.54917 -24.02971,14.61148 -29.27576,28.09629 -24.58425,61.15695 -46.6511,49.04526 -105.66033,74.8442 -0.845,0.80099 0.044,2.27974 1.98927,3.38001 1.93646,1.12666 12.97428,8.67886 24.68988,16.81199 11.67157,8.13314 21.82038,14.74351 22.54216,14.78752 0.009,0 0.0528,-0.0264 0.0528,-0.0264 l 9.59429,-9.47106 c 9.84074,-9.64709 31.08899,-39.88228 39.79426,-56.50063 2.9311,-5.61574 8.74048,-17.81544 12.84226,-27.14566 9.92876,-22.44534 19.81351,-41.25541 23.43997,-44.57381 -0.0176,-0.0352 0.0264,-0.20244 -0.009,-0.20244 z"
     style="clip-rule:evenodd;fill:url(#_Linear2);fill-rule:nonzero;stroke-width:8.80209351;stroke-linejoin:round;stroke-miterlimit:2"
     id="path6" />
  <path
     inkscape:connector-curvature="0"
     d="m 293.51761,188.51264 c -0.845,-0.14083 -1.54037,-0.0528 -2.38537,0.37849 -3.43281,2.74625 -13.55522,21.95242 -23.67763,44.84667 -4.10178,9.33022 -9.92876,21.52992 -12.85106,27.14566 -8.70527,16.61835 -29.96233,46.86235 -39.80307,56.50944 l -9.58548,9.46225 7.25293,7.08568 c 4.1986,4.6035 9.74392,14.16257 14.34742,24.84831 8.73167,20.36805 10.25443,23.30795 11.91802,23.30795 0.7922,0 5.27246,-2.5262 10.26325,-5.70376 11.13465,-7.22652 21.53872,-16.93523 35.69249,-33.46556 22.10205,-25.75493 38.69401,-31.21222 59.12366,-19.39101 5.52772,3.21276 10.0608,5.23725 10.0608,4.48027 0,-0.7922 -2.82547,-8.54684 -6.19668,-17.27851 -3.38001,-8.73168 -12.56939,-33.39514 -20.38565,-54.80184 -5.22844,-8.8109 -21.57393,-65.78685 -33.79123,-67.42404 z"
     style="clip-rule:evenodd;fill:url(#_Linear3);fill-rule:nonzero;stroke-width:8.80209351;stroke-linejoin:round;stroke-miterlimit:2"
     id="path8" />
</svg>
