<?xml version="1.0" encoding="UTF-8" standalone="no"?>
<svg
   xmlns:dc="http://purl.org/dc/elements/1.1/"
   xmlns:cc="http://creativecommons.org/ns#"
   xmlns:rdf="http://www.w3.org/1999/02/22-rdf-syntax-ns#"
   xmlns:svg="http://www.w3.org/2000/svg"
   xmlns="http://www.w3.org/2000/svg"
   xmlns:sodipodi="http://sodipodi.sourceforge.net/DTD/sodipodi-0.dtd"
   xmlns:inkscape="http://www.inkscape.org/namespaces/inkscape"
   style="clip-rule:evenodd;fill-rule:evenodd;stroke-linejoin:round;stroke-miterlimit:2"
   version="1.1"
   viewBox="0 0 16 16"
   id="svg6"
   sodipodi:docname="application-x-addon-symbolic.svg"
   inkscape:version="0.92.5 (2060ec1f9f, 2020-04-08)">
  <metadata
     id="metadata12">
    <rdf:RDF>
      <cc:Work
         rdf:about="">
        <dc:format>image/svg+xml</dc:format>
        <dc:type
           rdf:resource="http://purl.org/dc/dcmitype/StillImage" />
      </cc:Work>
    </rdf:RDF>
  </metadata>
  <defs
     id="defs10" />
  <sodipodi:namedview
     pagecolor="#ffffff"
     bordercolor="#666666"
     borderopacity="1"
     objecttolerance="10"
     gridtolerance="10"
     guidetolerance="10"
     inkscape:pageopacity="0"
     inkscape:pageshadow="2"
     inkscape:window-width="950"
     inkscape:window-height="1017"
     id="namedview8"
     showgrid="false"
     inkscape:zoom="14.75"
     inkscape:cx="6.7118644"
     inkscape:cy="8"
     inkscape:window-x="966"
     inkscape:window-y="1098"
     inkscape:window-maximized="0"
     inkscape:current-layer="svg6" />
  <g
     transform="matrix(.0398137 7.36018e-10 -7.36018e-10 .0398137 -5.13836 -1.35644)"
     id="g4" />
  <path
     inkscape:connector-curvature="0"
     d="M 13.959986,7.5791411 H 12.843357 V 4.6028852 c 0,-0.8182926 -0.669125,-1.4881278 -1.488127,-1.4881278 H 8.3789746 V 1.9981286 c 0,-1.04133453 -0.8190031,-1.8603375 -1.8603374,-1.8603375 -1.0420447,0 -1.8603375,0.81900297 -1.8603375,1.8603375 V 3.1147574 H 1.6813335 c -0.81829278,0 -1.48812792,0.6698352 -1.48812792,1.4881278 V 7.4306835 H 1.309124 c 1.1166287,0 2.0095054,0.8928767 2.0095054,2.0087947 0,1.1166308 -0.8928767,2.0095068 -2.0095054,2.0095068 H 0.19320558 v 2.827798 c 0,0.818293 0.66983514,1.488128 1.48812792,1.488128 h 2.8277982 v -1.115919 c 0,-1.116628 0.8928768,-2.009505 2.0095055,-2.009505 1.1159183,0 2.008795,0.892877 2.008795,2.009505 v 1.115919 H 11.35523 c 0.819002,0 1.488127,-0.669835 1.488127,-1.488128 v -2.976255 h 1.116629 c 1.042044,0 1.860337,-0.819004 1.860337,-1.8610498 0,-1.041334 -0.818293,-1.8603371 -1.860337,-1.8603371 z"
     style="clip-rule:evenodd;fill:#dfdfdf;fill-opacity:1;fill-rule:nonzero;stroke-width:0.71032357;stroke-linejoin:round;stroke-miterlimit:2"
     id="path4" />
</svg>
