<?xml version="1.0" encoding="UTF-8" standalone="no"?>
<svg
   xmlns:dc="http://purl.org/dc/elements/1.1/"
   xmlns:cc="http://creativecommons.org/ns#"
   xmlns:rdf="http://www.w3.org/1999/02/22-rdf-syntax-ns#"
   xmlns:svg="http://www.w3.org/2000/svg"
   xmlns="http://www.w3.org/2000/svg"
   xmlns:sodipodi="http://sodipodi.sourceforge.net/DTD/sodipodi-0.dtd"
   xmlns:inkscape="http://www.inkscape.org/namespaces/inkscape"
   width="16.017"
   height="16.017"
   version="1.1"
   id="svg14"
   sodipodi:docname="application-x-appliance-symbolic.svg"
   inkscape:version="0.92.5 (2060ec1f9f, 2020-04-08)">
  <metadata
     id="metadata20">
    <rdf:RDF>
      <cc:Work
         rdf:about="">
        <dc:format>image/svg+xml</dc:format>
        <dc:type
           rdf:resource="http://purl.org/dc/dcmitype/StillImage" />
      </cc:Work>
    </rdf:RDF>
  </metadata>
  <defs
     id="defs18" />
  <sodipodi:namedview
     pagecolor="#ffffff"
     bordercolor="#666666"
     borderopacity="1"
     objecttolerance="10"
     gridtolerance="10"
     guidetolerance="10"
     inkscape:pageopacity="0"
     inkscape:pageshadow="2"
     inkscape:window-width="771"
     inkscape:window-height="1017"
     id="namedview16"
     showgrid="false"
     inkscape:zoom="14.734345"
     inkscape:cx="7.7030912"
     inkscape:cy="8.0085001"
     inkscape:window-x="758"
     inkscape:window-y="1098"
     inkscape:window-maximized="0"
     inkscape:current-layer="svg14" />
  <g
     fill="#2e3436"
     id="g12"
     style="fill:#dfdfdf;fill-opacity:1">
    <path
       d="M4 2a2 2 0 01-2 2 2 2 0 01-2-2 2 2 0 012-2 2 2 0 012 2zm0 12a2 2 0 01-2 2 2 2 0 01-2-2 2 2 0 012-2 2 2 0 012 2zm12 0a2 2 0 01-2 2 2 2 0 01-2-2 2 2 0 012-2 2 2 0 012 2zm0-12a2 2 0 01-2 2 2 2 0 01-2-2 2 2 0 012-2 2 2 0 012 2z"
       overflow="visible"
       id="path2"
       style="fill:#dfdfdf;fill-opacity:1" />
    <path
       d="M1 1v14h14V1zm2 2h10v10H3z"
       font-family="sans-serif"
       font-weight="400"
       overflow="visible"
       style="font-feature-settings:normal;font-variant-alternates:normal;font-variant-caps:normal;font-variant-ligatures:normal;font-variant-numeric:normal;font-variant-position:normal;isolation:auto;mix-blend-mode:normal;shape-padding:0;text-decoration-color:#000;text-decoration-line:none;text-decoration-style:solid;text-indent:0;text-orientation:mixed;text-transform:none;fill:#dfdfdf;fill-opacity:1"
       id="path4" />
    <path
       d="M5 5v6h6V5zm1 1h4v4H6z"
       font-family="sans-serif"
       font-weight="400"
       overflow="visible"
       style="font-feature-settings:normal;font-variant-alternates:normal;font-variant-caps:normal;font-variant-ligatures:normal;font-variant-numeric:normal;font-variant-position:normal;isolation:auto;mix-blend-mode:normal;shape-padding:0;text-decoration-color:#000;text-decoration-line:none;text-decoration-style:solid;text-indent:0;text-orientation:mixed;text-transform:none;fill:#dfdfdf;fill-opacity:1"
       id="path6" />
    <path
       d="M12 10.5a1.5 1.5 0 01-1.5 1.5A1.5 1.5 0 019 10.5 1.5 1.5 0 0110.5 9a1.5 1.5 0 011.5 1.5zm-5 0A1.5 1.5 0 015.5 12 1.5 1.5 0 014 10.5 1.5 1.5 0 015.5 9 1.5 1.5 0 017 10.5zm0-4.984A1.5 1.516 0 015.5 7.03 1.5 1.516 0 014 5.516 1.5 1.516 0 015.5 4 1.5 1.516 0 017 5.516zm5-.016A1.5 1.5 0 0110.5 7 1.5 1.5 0 019 5.5 1.5 1.5 0 0110.5 4 1.5 1.5 0 0112 5.5z"
       overflow="visible"
       id="path8"
       style="fill:#dfdfdf;fill-opacity:1" />
    <path
       d="M10.854 10.146l-.708.708 3.5 3.5.708-.708zm-5.708 0l-3.5 3.5.708.708 3.5-3.5zm8.52-8.453l-3.5 3.47.703.71 3.5-3.469zm-11.264.002l-.707.707L5.12 5.826l.707-.707z"
       font-family="sans-serif"
       font-weight="400"
       overflow="visible"
       style="font-feature-settings:normal;font-variant-alternates:normal;font-variant-caps:normal;font-variant-ligatures:normal;font-variant-numeric:normal;font-variant-position:normal;isolation:auto;mix-blend-mode:normal;shape-padding:0;text-decoration-color:#000;text-decoration-line:none;text-decoration-style:solid;text-indent:0;text-orientation:mixed;text-transform:none;fill:#dfdfdf;fill-opacity:1"
       id="path10" />
  </g>
</svg>
