<?xml version="1.0" encoding="UTF-8" standalone="no"?>
<svg
   xmlns:dc="http://purl.org/dc/elements/1.1/"
   xmlns:cc="http://creativecommons.org/ns#"
   xmlns:rdf="http://www.w3.org/1999/02/22-rdf-syntax-ns#"
   xmlns:svg="http://www.w3.org/2000/svg"
   xmlns="http://www.w3.org/2000/svg"
   xmlns:sodipodi="http://sodipodi.sourceforge.net/DTD/sodipodi-0.dtd"
   xmlns:inkscape="http://www.inkscape.org/namespaces/inkscape"
   style="clip-rule:evenodd;fill-rule:evenodd;stroke-linejoin:round;stroke-miterlimit:2"
   version="1.1"
   viewBox="0 0 16 16"
   id="svg8"
   sodipodi:docname="folder-music-symbolic.svg"
   inkscape:version="0.92.5 (2060ec1f9f, 2020-04-08)">
  <metadata
     id="metadata14">
    <rdf:RDF>
      <cc:Work
         rdf:about="">
        <dc:format>image/svg+xml</dc:format>
        <dc:type
           rdf:resource="http://purl.org/dc/dcmitype/StillImage" />
        <dc:title></dc:title>
      </cc:Work>
    </rdf:RDF>
  </metadata>
  <defs
     id="defs12" />
  <sodipodi:namedview
     pagecolor="#ffffff"
     bordercolor="#666666"
     borderopacity="1"
     objecttolerance="10"
     gridtolerance="10"
     guidetolerance="10"
     inkscape:pageopacity="0"
     inkscape:pageshadow="2"
     inkscape:window-width="1908"
     inkscape:window-height="1017"
     id="namedview10"
     showgrid="false"
     inkscape:zoom="15.803143"
     inkscape:cx="15.652604"
     inkscape:cy="13.82189"
     inkscape:window-x="8"
     inkscape:window-y="36"
     inkscape:window-maximized="0"
     inkscape:current-layer="svg8" />
  <path
     inkscape:connector-curvature="0"
     style="fill:#dfdfdf;fill-opacity:1;stroke-width:0.06697033"
     d="m 7.9816065,14.983411 c -3.8404543,0 -6.964915,-3.124461 -6.964915,-6.964915 0,-3.840453 3.1244607,-6.964914 6.964915,-6.964914 3.8404535,0 6.9649145,3.124461 6.9649145,6.964914 0,3.840454 -3.124461,6.964915 -6.9649145,6.964915 z m 0,-13.233338 c 3.4559905,0 6.2684225,2.811736 6.2684225,6.268423 0,3.456687 -2.812432,6.268423 -6.2684225,6.268423 -3.455991,0 -6.2684232,-2.811736 -6.2684232,-6.268423 0,-3.456687 2.8124322,-6.268423 6.2684232,-6.268423 z M 9.8765893,5.152715 C 8.9357897,4.566233 8.7657743,4.121907 8.7657743,3.930461 V 3.799735 C 8.7657743,3.544712 8.5800432,3.338979 8.384311,3.339693 8.1892933,3.34041 8.0164213,3.54757 8.0157068,3.802592 l -0.012857,5.46978 C 7.5085192,9.01592 6.8706049,8.998061 6.140538,9.249512 5.0654417,9.62026 4.4689585,10.636066 4.7761294,11.424708 c 0.3071709,0.787929 1.414414,1.092956 2.4737953,0.680776 0.8679358,-0.337888 1.4329867,-1.052238 1.4408442,-1.732299 0.00713,-0.03572 0.017143,-4.64542 0.017143,-4.64542 1.9951801,0.531477 2.3180671,1.702297 2.3180671,1.702297 0.350031,0.85222 -0.07072,1.903744 -0.07072,1.903744 0,0 -0.03501,0.130726 0.06786,0.172158 0.130011,0.05215 0.189303,-0.07215 0.189303,-0.07215 0.624342,-1.349408 0.24145,-2.41879 0.24145,-2.41879 -0.348604,-1.19868 -1.5772858,-1.86231 -1.5772858,-1.86231 z"
     id="path42" />
</svg>
