<?xml version="1.0" encoding="UTF-8" standalone="no"?>
<svg
   xmlns:dc="http://purl.org/dc/elements/1.1/"
   xmlns:cc="http://creativecommons.org/ns#"
   xmlns:rdf="http://www.w3.org/1999/02/22-rdf-syntax-ns#"
   xmlns:svg="http://www.w3.org/2000/svg"
   xmlns="http://www.w3.org/2000/svg"
   xmlns:sodipodi="http://sodipodi.sourceforge.net/DTD/sodipodi-0.dtd"
   xmlns:inkscape="http://www.inkscape.org/namespaces/inkscape"
   style="clip-rule:evenodd;fill-rule:evenodd;stroke-linejoin:round;stroke-miterlimit:2"
   version="1.1"
   viewBox="0 0 16 16"
   id="svg6"
   sodipodi:docname="media-optical-symbolic.svg"
   inkscape:version="0.92.5 (2060ec1f9f, 2020-04-08)">
  <metadata
     id="metadata12">
    <rdf:RDF>
      <cc:Work
         rdf:about="">
        <dc:format>image/svg+xml</dc:format>
        <dc:type
           rdf:resource="http://purl.org/dc/dcmitype/StillImage" />
      </cc:Work>
    </rdf:RDF>
  </metadata>
  <defs
     id="defs10" />
  <sodipodi:namedview
     pagecolor="#ffffff"
     bordercolor="#666666"
     borderopacity="1"
     objecttolerance="10"
     gridtolerance="10"
     guidetolerance="10"
     inkscape:pageopacity="0"
     inkscape:pageshadow="2"
     inkscape:window-width="1908"
     inkscape:window-height="1017"
     id="namedview8"
     showgrid="false"
     inkscape:zoom="13.388128"
     inkscape:cx="2.0435042"
     inkscape:cy="5.2979738"
     inkscape:window-x="8"
     inkscape:window-y="36"
     inkscape:window-maximized="0"
     inkscape:current-layer="svg6" />
  <path
     inkscape:connector-curvature="0"
     style="fill:#dfdfdf;fill-opacity:1;stroke-width:0.07421166"
     d="m 8.0900719,15.213002 c 3.9346531,0 7.1243191,-3.189665 7.1243191,-7.1243189 0,-3.9346521 -3.189666,-7.1243181 -7.1243191,-7.1243181 -3.9346533,0 -7.12431921,3.189666 -7.12431921,7.1243181 0,3.9346539 3.18966591,7.1243189 7.12431921,7.1243189 z m 0,-12.665456 c 3.0602851,0 5.5411371,2.480852 5.5411371,5.5411371 0,0.2185919 -0.177204,0.3957951 -0.395796,0.3957951 -0.218591,0 -0.395795,-0.1772032 -0.395795,-0.3957951 0,-2.6231011 -2.126445,-4.7495451 -4.7495461,-4.7495451 -0.2185919,0 -0.3957951,-0.177204 -0.3957951,-0.395795 0,-0.218592 0.1772032,-0.395797 0.3957951,-0.395797 z m 0,8.707501 c -1.7487347,0 -3.1663646,-1.4176294 -3.1663646,-3.1663639 0,-1.7487341 1.4176299,-3.1663641 3.1663646,-3.1663641 1.7487344,0 3.1663641,1.41763 3.1663641,3.1663641 0,1.7487345 -1.4176297,3.1663639 -3.1663641,3.1663639 z m 0,-0.791591 c 1.3115506,0 2.3747731,-1.0632222 2.3747731,-2.3747729 0,-1.3115503 -1.0632225,-2.3747721 -2.3747731,-2.3747721 -1.3115509,0 -2.3747735,1.0632218 -2.3747735,2.3747721 0,1.3115507 1.0632226,2.3747729 2.3747735,2.3747729 z m 0,-0.7915912 c -0.8743678,0 -1.5831819,-0.7088141 -1.5831819,-1.5831817 0,-0.8743672 0.7088141,-1.5831813 1.5831819,-1.5831813 0.8743676,0 1.5831817,0.7088141 1.5831817,1.5831813 0,0.8743676 -0.7088141,1.5831817 -1.5831817,1.5831817 z"
     id="path42" />
</svg>
