<?xml version="1.0" encoding="UTF-8" standalone="no"?>
<svg
   xmlns:dc="http://purl.org/dc/elements/1.1/"
   xmlns:cc="http://creativecommons.org/ns#"
   xmlns:rdf="http://www.w3.org/1999/02/22-rdf-syntax-ns#"
   xmlns:svg="http://www.w3.org/2000/svg"
   xmlns="http://www.w3.org/2000/svg"
   xmlns:sodipodi="http://sodipodi.sourceforge.net/DTD/sodipodi-0.dtd"
   xmlns:inkscape="http://www.inkscape.org/namespaces/inkscape"
   style="clip-rule:evenodd;fill-rule:evenodd;stroke-linejoin:round;stroke-miterlimit:2"
   version="1.1"
   viewBox="0 0 16 16"
   id="svg4"
   sodipodi:docname="text-html-symbolic.svg"
   inkscape:version="0.92.5 (2060ec1f9f, 2020-04-08)">
  <metadata
     id="metadata10">
    <rdf:RDF>
      <cc:Work
         rdf:about="">
        <dc:format>image/svg+xml</dc:format>
        <dc:type
           rdf:resource="http://purl.org/dc/dcmitype/StillImage" />
      </cc:Work>
    </rdf:RDF>
  </metadata>
  <defs
     id="defs8" />
  <sodipodi:namedview
     pagecolor="#ffffff"
     bordercolor="#666666"
     borderopacity="1"
     objecttolerance="10"
     gridtolerance="10"
     guidetolerance="10"
     inkscape:pageopacity="0"
     inkscape:pageshadow="2"
     inkscape:window-width="1908"
     inkscape:window-height="1017"
     id="namedview6"
     showgrid="false"
     inkscape:zoom="15.751902"
     inkscape:cx="-0.066746126"
     inkscape:cy="-4.205006"
     inkscape:window-x="8"
     inkscape:window-y="36"
     inkscape:window-maximized="0"
     inkscape:current-layer="svg4" />
  <path
     inkscape:connector-curvature="0"
     style="fill:#dfdfdf;fill-opacity:1;stroke-width:0.07338861"
     d="m 2.205212,5.3683442 c -0.386634,0.8239031 -0.602693,1.743755 -0.602693,2.7140709 0,0.9947979 0.2271,1.9365529 0.632284,2.7762509 C 2.476293,9.9587597 2.849512,9.0167897 3.383252,8.0827665 3.240261,7.8910008 3.155618,7.6531702 3.155618,7.3955697 c 0,-0.2201087 0.0618,-0.4257834 0.16899,-0.6006199 C 2.893538,6.3312993 2.521314,5.8506452 2.205212,5.3683442 Z M 2.565211,4.7060772 C 2.900322,5.2609128 3.31526,5.8198448 3.814073,6.355151 3.963319,6.284409 4.1302133,6.2448358 4.3063511,6.2448358 c 0.1129869,0 0.2221708,0.016286 0.3253325,0.046631 0.6472469,-0.7698815 1.395924,-1.4610288 2.2518281,-2.0617917 -0.00322,-0.034991 -0.00484,-0.070435 -0.00484,-0.1062608 0,-0.257823 0.08479,-0.4958421 0.2280065,-0.6876939 C 6.5228727,2.9670365 5.9233274,2.5785854 5.3341966,2.2658692 4.1891979,2.7912612 3.226067,3.6447986 2.565209,4.7060772 Z M 6.1348505,1.9619736 c 0.5101409,0.30339 1.0219258,0.6599691 1.5210742,1.0726714 0.1171104,-0.040162 0.242749,-0.061963 0.373479,-0.061963 0.2439249,0 0.4701222,0.075895 0.6562682,0.2053582 C 9.3540749,2.8573007 10.072319,2.5805442 10.842147,2.3512767 9.9856486,1.9255296 9.020183,1.6861307 7.9988026,1.6861307 c -0.6483722,0 -1.2742133,0.096471 -1.8639507,0.2758429 z m 5.4946735,0.8537693 c -0.914407,0.2336884 -1.7554556,0.5329878 -2.5266451,0.8922793 0.049895,0.1288506 0.077258,0.2689267 0.077258,0.4153935 0,0.1218148 -0.018927,0.2392094 -0.054003,0.3494017 0.16248,0.1877824 0.3215494,0.3829843 0.4765716,0.5857365 0.9435385,1.2340454 1.6388965,2.6335879 2.0389185,4.2051961 0.322125,0.032515 0.605026,0.1978907 0.793071,0.4404843 0.580529,-0.028171 1.180834,-0.093521 1.801319,-0.1978837 0.104104,-0.4579146 0.159074,-0.9345057 0.159074,-1.4239355 0,-2.1841964 -1.094791,-4.1126906 -2.765564,-5.2666722 z m 2.405274,7.3883541 c -0.464018,0.06938 -0.917626,0.117567 -1.360904,0.145278 9.8e-4,0.01962 0.0015,0.03937 0.0015,0.05924 0,0.467735 -0.279062,0.870292 -0.679773,1.050257 0.03841,0.515667 0.04858,1.046959 0.02925,1.594051 0.910141,-0.738119 1.613564,-1.721173 2.009926,-2.848823 z m -2.693534,3.332859 c 0.04746,-0.690328 0.04705,-1.35409 0.0014,-1.991922 -0.350252,-0.05565 -0.647859,-0.269338 -0.817453,-0.56569 -0.7498754,0.472105 -1.4981152,1.003735 -2.1967041,1.583992 -0.685005,0.568973 -1.2848918,1.154604 -1.7774527,1.750827 0.4651988,0.107642 0.9498315,0.164537 1.4477526,0.164537 1.2251171,0 2.3697882,-0.344432 3.3424612,-0.941744 z m -5.4737141,0.57808 c 0.5529185,-0.707785 1.2433397,-1.395145 2.0408046,-2.05753 0.7465175,-0.620066 1.5449124,-1.184369 2.3432615,-1.682739 0.0391,-0.02441 0.07782,-0.04842 0.116136,-0.07202 C 8.5618863,10.106603 6.9574638,9.5308821 5.5475754,8.6377736 5.3697468,8.5251257 5.1973345,8.409111 5.0302689,8.2901187 4.8325467,8.4503243 4.5806572,8.546303 4.3063511,8.546303 4.1690212,8.546303 4.0373099,8.522248 3.915202,8.478118 3.301205,9.5704994 2.918143,10.672055 2.715646,11.689151 3.47542,12.799927 4.5763742,13.658875 5.8675499,14.115036 Z M 15.05265,8.0824151 c 0,3.8957319 -3.158115,7.0538469 -7.0538474,7.0538469 -3.8957313,0 -7.0538456,-3.158115 -7.0538456,-7.0538469 0,-3.8957318 3.1581143,-7.0538463 7.0538456,-7.0538463 3.8957324,0 7.0538474,3.1581145 7.0538474,7.0538463 z m -4.058202,1.304624 C 10.614896,7.9178264 9.9624349,6.6116405 9.0803366,5.4579515 8.9682459,5.3113492 8.8538836,5.1688921 8.7375296,5.0305341 8.5422675,5.1831782 8.2964588,5.274149 8.0294037,5.274149 7.6712495,5.274149 7.3513119,5.1105276 7.1402616,4.8539567 6.4038365,5.3853372 5.754259,5.9881461 5.1863209,6.6540181 c 0.1689448,0.2002743 0.2707635,0.4590223 0.2707635,0.7415516 0,0.1228047 -0.019235,0.2411175 -0.054862,0.3520874 0.1604846,0.1146134 0.3262092,0.2262912 0.4972333,0.3346278 1.3775915,0.8726503 2.9536677,1.4242029 4.7431053,1.5873063 0.09713,-0.1158126 0.216646,-0.2122164 0.351887,-0.2825521 z m -0.615824,0.9168819 c 2.2e-4,-0.0028 5.13e-4,-0.0056 7.93e-4,-0.0084 -0.0039,0.0024 -0.0078,0.0048 -0.01166,0.0072 0.0036,3.67e-4 0.0072,7.94e-4 0.01087,0.0012 z"
     id="path42" />
</svg>
