<?xml version="1.0" encoding="UTF-8" standalone="no"?>
<svg
   xmlns:dc="http://purl.org/dc/elements/1.1/"
   xmlns:cc="http://creativecommons.org/ns#"
   xmlns:rdf="http://www.w3.org/1999/02/22-rdf-syntax-ns#"
   xmlns:svg="http://www.w3.org/2000/svg"
   xmlns="http://www.w3.org/2000/svg"
   xmlns:sodipodi="http://sodipodi.sourceforge.net/DTD/sodipodi-0.dtd"
   xmlns:inkscape="http://www.inkscape.org/namespaces/inkscape"
   width="16"
   height="16"
   version="1.1"
   id="svg13"
   sodipodi:docname="user-trash-full-symbolic.svg"
   inkscape:version="0.92.5 (2060ec1f9f, 2020-04-08)">
  <metadata
     id="metadata17">
    <rdf:RDF>
      <cc:Work
         rdf:about="">
        <dc:format>image/svg+xml</dc:format>
        <dc:type
           rdf:resource="http://purl.org/dc/dcmitype/StillImage" />
      </cc:Work>
    </rdf:RDF>
  </metadata>
  <sodipodi:namedview
     pagecolor="#ffffff"
     bordercolor="#666666"
     borderopacity="1"
     objecttolerance="10"
     gridtolerance="10"
     guidetolerance="10"
     inkscape:pageopacity="0"
     inkscape:pageshadow="2"
     inkscape:window-width="950"
     inkscape:window-height="1017"
     id="namedview15"
     showgrid="false"
     inkscape:zoom="14.75"
     inkscape:cx="6.7118644"
     inkscape:cy="8"
     inkscape:window-x="966"
     inkscape:window-y="1098"
     inkscape:window-maximized="0"
     inkscape:current-layer="svg13" />
  <defs
     id="defs3">
    <style
       id="current-color-scheme"
       type="text/css">.ColorScheme-Text { color:#363636; }</style>
  </defs>
  <path
     style="fill:#dfdfdf;fill-opacity:1"
     class="ColorScheme-Text"
     d="m1.1211 1 1.6855 14c0.068024 0.47546 0.5339 1 1.1934 1h8c0.64209 0 1.0827-0.49259 1.1484-1l1.7285-14h-13.756z"
     opacity=".25"
     id="path5" />
  <path
     style="fill:#dfdfdf;fill-opacity:1"
     class="ColorScheme-Text"
     d="m0.9999 1 1.8066 14c0.068024 0.47546 0.5339 1 1.1934 1h8c0.64209 0 1.0827-0.49259 1.1484-1l1.8516-14h-1.123l-1.7285 13c-0.13296 1-0.5064 0.99213-1.1484 1h-6c-0.65946 0-1.0502 0-1.1934-1l-1.6855-13h-1.1211z"
     opacity=".75"
     id="path7" />
  <path
     style="fill:#ffffff;fill-opacity:1"
     class="ColorScheme-Text"
     d="m8.1805 3.3831-0.55469 3.3379-4.4219 0.63867 0.92969 6.4297 2.7207-0.39453-0.017578 0.91211 5.1543 0.10156 0.07422-3.7949 0.13477 0.02344 1.0664-6.4082-5.0859-0.8457z"
     opacity=".25"
     id="path9" />
  <path
     style="fill:#dfdfdf;fill-opacity:1"
     class="ColorScheme-Text"
     d="m7.3046 2.0977-4.8379 1.7773 1.3711 3.7383-0.60938 1.4141 1.3418 0.58008 0.13477 0.36523 0.38672-0.14258 1.7012 0.73437-0.25586 1.5312 5.084 0.84766 1.0664-6.4082-2.584-0.42969 0.43164-1-2.5254-1.0879-0.70508-1.9199z"
     opacity=".25"
     id="path11" />
</svg>
