<?xml version="1.0" encoding="UTF-8" standalone="no"?>
<svg
   xmlns:dc="http://purl.org/dc/elements/1.1/"
   xmlns:cc="http://creativecommons.org/ns#"
   xmlns:rdf="http://www.w3.org/1999/02/22-rdf-syntax-ns#"
   xmlns:svg="http://www.w3.org/2000/svg"
   xmlns="http://www.w3.org/2000/svg"
   xmlns:sodipodi="http://sodipodi.sourceforge.net/DTD/sodipodi-0.dtd"
   xmlns:inkscape="http://www.inkscape.org/namespaces/inkscape"
   style="clip-rule:evenodd;fill-rule:evenodd;stroke-linejoin:round;stroke-miterlimit:2"
   version="1.1"
   viewBox="0 0 16 16"
   id="svg8"
   sodipodi:docname="video-x-generic-symbolic.svg"
   inkscape:version="0.92.5 (2060ec1f9f, 2020-04-08)">
  <metadata
     id="metadata14">
    <rdf:RDF>
      <cc:Work
         rdf:about="">
        <dc:format>image/svg+xml</dc:format>
        <dc:type
           rdf:resource="http://purl.org/dc/dcmitype/StillImage" />
        <dc:title></dc:title>
      </cc:Work>
    </rdf:RDF>
  </metadata>
  <defs
     id="defs12" />
  <sodipodi:namedview
     pagecolor="#ffffff"
     bordercolor="#666666"
     borderopacity="1"
     objecttolerance="10"
     gridtolerance="10"
     guidetolerance="10"
     inkscape:pageopacity="0"
     inkscape:pageshadow="2"
     inkscape:window-width="950"
     inkscape:window-height="1017"
     id="namedview10"
     showgrid="false"
     inkscape:zoom="15.803143"
     inkscape:cx="4.3257433"
     inkscape:cy="13.82189"
     inkscape:window-x="966"
     inkscape:window-y="1098"
     inkscape:window-maximized="0"
     inkscape:current-layer="svg8" />
  <path
     inkscape:connector-curvature="0"
     style="clip-rule:evenodd;fill:#dfdfdf;fill-opacity:1;fill-rule:evenodd;stroke-width:0.06664754;stroke-linejoin:round;stroke-miterlimit:2"
     d="m 7.9816065,14.919625 c -3.8219427,0 -6.9313437,-3.1094 -6.9313437,-6.9313433 0,-3.8219425 3.109401,-6.9313427 6.9313437,-6.9313427 3.8219425,0 6.9313435,3.1094002 6.9313435,6.9313427 0,3.8219433 -3.109401,6.9313433 -6.9313435,6.9313433 z m 0,-13.169552 c 3.4400255,0 6.2382095,2.7981834 6.2382095,6.2382087 0,3.4400253 -2.798877,6.2382093 -6.2382095,6.2382093 -3.4393323,0 -6.2382095,-2.798184 -6.2382095,-6.2382093 0,-3.4400253 2.7988772,-6.2382087 6.2382095,-6.2382087 z M 12.135436,7.7984093 9.17593,6.0450649 6.1417789,4.2843163 C 5.9995981,4.2021283 5.8488856,4.3087513 5.8488856,4.4783096 v 3.5096492 3.5103902 c 0,0.168818 0.1507125,0.27618 0.2928933,0.193993 l 3.022066,-1.7607478 2.9715911,-1.746679 c 0.144315,-0.08441 0.144315,-0.301357 0,-0.3865059 z"
     id="path42-3" />
</svg>
