<?xml version="1.0" encoding="UTF-8" standalone="no"?>
<svg
   xmlns:dc="http://purl.org/dc/elements/1.1/"
   xmlns:cc="http://creativecommons.org/ns#"
   xmlns:rdf="http://www.w3.org/1999/02/22-rdf-syntax-ns#"
   xmlns:svg="http://www.w3.org/2000/svg"
   xmlns="http://www.w3.org/2000/svg"
   xmlns:sodipodi="http://sodipodi.sourceforge.net/DTD/sodipodi-0.dtd"
   xmlns:inkscape="http://www.inkscape.org/namespaces/inkscape"
   style="clip-rule:evenodd;fill-rule:evenodd;stroke-linejoin:round;stroke-miterlimit:2"
   version="1.1"
   viewBox="0 0 16 16"
   id="svg6"
   sodipodi:docname="x-office-address-book-symbolic.svg"
   inkscape:version="0.92.5 (2060ec1f9f, 2020-04-08)">
  <metadata
     id="metadata12">
    <rdf:RDF>
      <cc:Work
         rdf:about="">
        <dc:format>image/svg+xml</dc:format>
        <dc:type
           rdf:resource="http://purl.org/dc/dcmitype/StillImage" />
      </cc:Work>
    </rdf:RDF>
  </metadata>
  <defs
     id="defs10" />
  <sodipodi:namedview
     pagecolor="#ffffff"
     bordercolor="#666666"
     borderopacity="1"
     objecttolerance="10"
     gridtolerance="10"
     guidetolerance="10"
     inkscape:pageopacity="0"
     inkscape:pageshadow="2"
     inkscape:window-width="1908"
     inkscape:window-height="1017"
     id="namedview8"
     showgrid="false"
     inkscape:zoom="13.708296"
     inkscape:cx="11.581645"
     inkscape:cy="4.613826"
     inkscape:window-x="8"
     inkscape:window-y="36"
     inkscape:window-maximized="0"
     inkscape:current-layer="svg6" />
  <path
     inkscape:connector-curvature="0"
     style="fill:#dfdfdf;fill-opacity:1;stroke-width:0.08197705"
     d="M 10.842497,14.256725 10.24789,13.015046 c -0.664561,0.454699 -1.801309,0.786979 -2.903081,0.786979 -3.25285,0 -5.019183,-1.67889 -5.019183,-4.9142518 0,-3.5151766 2.675732,-6.5231876 6.260863,-6.5231876 3.147919,0 5.001693,1.5739594 5.001693,4.3895983 0,1.8537746 -0.839445,3.6550831 -2.290986,3.6550831 -0.524653,0 -0.734515,-0.262326 -0.734515,-0.7694904 0,-0.2623266 0.05246,-0.7520034 0.12242,-1.154237 L 11.227243,4.9703631 C 10.667612,4.6205945 9.740725,4.410733 8.901281,4.410733 c -2.133591,0 -4.284669,1.4515405 -4.284669,4.5994597 0,1.5214943 0.752003,2.7456853 2.570801,2.7456853 0.821957,0 1.556472,-0.314792 2.046147,-0.926888 h 0.06995 c 0.244839,0.542142 0.804469,0.926888 1.783821,0.926888 2.448382,0 4.03983,-2.2210315 4.03983,-5.1940668 0,-3.3927578 -2.500847,-5.59630097 -6.313327,-5.59630097 -4.616948,0 -8.044682,3.58513047 -8.044682,8.09714817 0,3.7425256 2.203544,6.1209536 6.313327,6.1209536 1.469029,0 2.868104,-0.367257 3.760014,-0.926887 z M 7.502205,10.426757 c -0.909399,0 -1.34661,-0.5246539 -1.34661,-1.6963797 0,-1.7488439 1.101772,-2.9730339 2.553312,-2.9730339 0.332281,0 0.647072,0.069953 0.856934,0.139907 L 9.163607,8.6429354 C 9.128627,8.8353081 9.076167,9.324985 9.076167,9.5348465 8.81384,10.007034 8.219234,10.426757 7.502207,10.426757 Z"
     id="path42" />
</svg>
