<?xml version="1.0" encoding="UTF-8" standalone="no"?>
<svg
   xmlns:dc="http://purl.org/dc/elements/1.1/"
   xmlns:cc="http://creativecommons.org/ns#"
   xmlns:rdf="http://www.w3.org/1999/02/22-rdf-syntax-ns#"
   xmlns:svg="http://www.w3.org/2000/svg"
   xmlns="http://www.w3.org/2000/svg"
   xmlns:sodipodi="http://sodipodi.sourceforge.net/DTD/sodipodi-0.dtd"
   xmlns:inkscape="http://www.inkscape.org/namespaces/inkscape"
   style="clip-rule:evenodd;fill-rule:evenodd;stroke-linejoin:round;stroke-miterlimit:2"
   version="1.1"
   viewBox="0 0 16 16"
   id="svg6"
   sodipodi:docname="x-office-calendar-symbolic.svg"
   inkscape:version="0.92.5 (2060ec1f9f, 2020-04-08)">
  <metadata
     id="metadata12">
    <rdf:RDF>
      <cc:Work
         rdf:about="">
        <dc:format>image/svg+xml</dc:format>
        <dc:type
           rdf:resource="http://purl.org/dc/dcmitype/StillImage" />
      </cc:Work>
    </rdf:RDF>
  </metadata>
  <defs
     id="defs10" />
  <sodipodi:namedview
     pagecolor="#ffffff"
     bordercolor="#666666"
     borderopacity="1"
     objecttolerance="10"
     gridtolerance="10"
     guidetolerance="10"
     inkscape:pageopacity="0"
     inkscape:pageshadow="2"
     inkscape:window-width="3824"
     inkscape:window-height="2079"
     id="namedview8"
     showgrid="false"
     inkscape:zoom="35.788984"
     inkscape:cx="30.585364"
     inkscape:cy="4.1941086"
     inkscape:window-x="8"
     inkscape:window-y="36"
     inkscape:window-maximized="0"
     inkscape:current-layer="svg6" />
  <path
     style="fill:#dfdfdf;fill-opacity:1;fill-rule:evenodd;stroke-width:0.0923765"
     inkscape:connector-curvature="0"
     d="M 3.1985321,6.8893719 H 5.4155682 V 9.106408 H 3.1985321 Z m 3.6950598,0 H 9.110628 V 9.106408 H 6.8935919 Z m 3.6950601,0 h 2.217036 V 9.106408 H 10.588652 Z M 6.8935919,10.584432 H 9.110628 v 2.217036 H 6.8935919 Z m -3.6950598,0 h 2.2170361 v 2.217036 H 3.1985321 Z m 7.3901199,0 h 2.217036 v 2.217036 H 10.588652 Z M 3.9375433,1.3458627 c 0,-0.2035646 0.1658496,-0.36858693 0.3695068,-0.36858693 0.2040724,0 0.3695056,0.16482643 0.3695056,0.36858693 v 1.4798622 c 0,0.2035646 -0.1658484,0.3685869 -0.3695056,0.3685869 -0.2040724,0 -0.3695068,-0.1648265 -0.3695068,-0.3685869 z m 8.1291337,0 c 0,-0.2035646 0.165848,-0.36858693 0.369505,-0.36858693 0.204073,0 0.369506,0.16482643 0.369506,0.36858693 v 1.4798622 c 0,0.2035646 -0.165848,0.3685869 -0.369506,0.3685869 -0.204072,0 -0.369505,-0.1648265 -0.369505,-0.3685869 z m -0.739013,1.1094371 v 0.3688908 c 0,0.6076803 0.4963,1.1091333 1.108518,1.1091333 0.616486,0 1.108518,-0.4965765 1.108518,-1.1091333 V 2.4552998 h 0.743892 c 0.40545,0 0.734132,0.3285879 0.734132,0.7396559 V 14.278848 c 0,0.408502 -0.32882,0.739656 -0.734132,0.739656 H 1.7156284 c -0.4054504,0 -0.7341324,-0.328587 -0.7341324,-0.739656 V 3.1949557 c 0,-0.408501 0.3288204,-0.7396559 0.7341324,-0.7396559 h 1.4829037 v 0.3688908 c 0,0.6076803 0.4962998,1.1091333 1.108518,1.1091333 0.6164853,0 1.1085181,-0.4965765 1.1085181,-1.1091333 V 2.4552998 Z m 2.956048,2.956048 H 1.7205084 V 14.279492 H 14.283712 Z"
     id="path42-6" />
</svg>
