<?xml version="1.0" encoding="UTF-8" standalone="no"?>
<svg
   xmlns:dc="http://purl.org/dc/elements/1.1/"
   xmlns:cc="http://creativecommons.org/ns#"
   xmlns:rdf="http://www.w3.org/1999/02/22-rdf-syntax-ns#"
   xmlns:svg="http://www.w3.org/2000/svg"
   xmlns="http://www.w3.org/2000/svg"
   xmlns:sodipodi="http://sodipodi.sourceforge.net/DTD/sodipodi-0.dtd"
   xmlns:inkscape="http://www.inkscape.org/namespaces/inkscape"
   style="clip-rule:evenodd;fill-rule:evenodd;stroke-linejoin:round;stroke-miterlimit:2"
   version="1.1"
   viewBox="0 0 16 16"
   id="svg10"
   sodipodi:docname="x-office-spreadsheet-symbolic.svg"
   inkscape:version="0.92.5 (2060ec1f9f, 2020-04-08)">
  <metadata
     id="metadata16">
    <rdf:RDF>
      <cc:Work
         rdf:about="">
        <dc:format>image/svg+xml</dc:format>
        <dc:type
           rdf:resource="http://purl.org/dc/dcmitype/StillImage" />
      </cc:Work>
    </rdf:RDF>
  </metadata>
  <defs
     id="defs14" />
  <sodipodi:namedview
     pagecolor="#ffffff"
     bordercolor="#666666"
     borderopacity="1"
     objecttolerance="10"
     gridtolerance="10"
     guidetolerance="10"
     inkscape:pageopacity="0"
     inkscape:pageshadow="2"
     inkscape:window-width="1908"
     inkscape:window-height="1017"
     id="namedview12"
     showgrid="false"
     inkscape:zoom="28.926938"
     inkscape:cx="10.069965"
     inkscape:cy="4.2691438"
     inkscape:window-x="8"
     inkscape:window-y="1098"
     inkscape:window-maximized="0"
     inkscape:current-layer="svg10" />
  <path
     inkscape:connector-curvature="0"
     style="fill:#dfdfdf;fill-opacity:1;stroke-width:0.07619321"
     d="m 4.954933,14.104291 h 9.44781 V 1.9133761 H 4.954635 l -0.304772,6.8e-6 3.05e-4,12.1909151 z M 0.992737,1.3038303 H 1.29751 14.707516 15.012289 V 1.6086032 14.409064 14.713837 H 14.707516 1.29751 0.992737 V 14.409064 1.6086032 Z m 3.962196,12.8004607 0.304773,-7e-6 -3.05e-4,-12.1909148 -0.304773,6.9e-6 H 1.602283 V 14.104291 Z"
     id="path42" />
  <path
     inkscape:connector-curvature="0"
     style="fill:#dfdfdf;fill-opacity:1;stroke-width:0.07619321"
     d="m 7.088214,4.350877 -2.133429,-4.944e-4 2.28e-4,-0.6095457 2.133213,4.574e-4 -5e-5,-2.1327082 0.609545,-1.99e-5 5e-5,2.1329255 1.828637,3.8e-4 -5e-5,-2.1333011 0.609546,-1.98e-5 5e-5,2.133519 1.828637,3.8e-4 -5e-5,-2.1338939 0.609546,-1.97e-5 5e-5,2.1341117 2.133607,-0.00187 -2.28e-4,0.6095457 -2.13339,0.00187 3.9e-5,1.8286366 2.133548,-0.00186 -2.29e-4,0.609546 -2.13333,0.00186 4e-5,1.8286377 2.133488,-0.00186 -2.29e-4,0.6095459 -2.133271,0.00186 7.6e-5,5.1804372 -0.609546,2e-5 -7.6e-5,-5.1806544 -1.828637,-3.687e-4 7.7e-5,5.1810301 -0.609546,2e-5 -7.7e-5,-5.1812481 -1.828637,-3.694e-4 7.6e-5,5.1816225 -0.609545,2e-5 -7.6e-5,-5.1818404 -2.133549,-4.423e-4 2.28e-4,-0.609546 2.133332,4.424e-4 -3.9e-5,-1.828637 -2.13349,-4.43e-4 2.29e-4,-0.6095452 2.133272,4.423e-4 z m 0.609546,2.285e-4 1.828637,3.8e-4 4e-5,1.8286373 -1.828638,-3.694e-4 z m 7.6e-5,4.2668207 1.828637,3.687e-4 -4e-5,-1.8286362 -1.828637,-3.694e-4 z m 2.438084,-4.2662271 1.828637,3.8e-4 3.9e-5,1.8286368 -1.828637,-3.687e-4 z m 7.6e-5,4.2668195 1.828637,3.694e-4 -4e-5,-1.8286377 -1.828637,-3.687e-4 z"
     id="path44" />
</svg>
