<?xml version="1.0" encoding="UTF-8" standalone="no"?>
<svg
   xmlns:dc="http://purl.org/dc/elements/1.1/"
   xmlns:cc="http://creativecommons.org/ns#"
   xmlns:rdf="http://www.w3.org/1999/02/22-rdf-syntax-ns#"
   xmlns:svg="http://www.w3.org/2000/svg"
   xmlns="http://www.w3.org/2000/svg"
   xmlns:sodipodi="http://sodipodi.sourceforge.net/DTD/sodipodi-0.dtd"
   xmlns:inkscape="http://www.inkscape.org/namespaces/inkscape"
   style="clip-rule:evenodd;fill-rule:evenodd;stroke-linejoin:round;stroke-miterlimit:2"
   version="1.1"
   viewBox="0 0 16 16"
   id="svg8"
   sodipodi:docname="x-office-drawing-symbolic.svg"
   inkscape:version="0.92.5 (2060ec1f9f, 2020-04-08)">
  <metadata
     id="metadata14">
    <rdf:RDF>
      <cc:Work
         rdf:about="">
        <dc:format>image/svg+xml</dc:format>
        <dc:type
           rdf:resource="http://purl.org/dc/dcmitype/StillImage" />
      </cc:Work>
    </rdf:RDF>
  </metadata>
  <defs
     id="defs12" />
  <sodipodi:namedview
     pagecolor="#ffffff"
     bordercolor="#666666"
     borderopacity="1"
     objecttolerance="10"
     gridtolerance="10"
     guidetolerance="10"
     inkscape:pageopacity="0"
     inkscape:pageshadow="2"
     inkscape:window-width="1908"
     inkscape:window-height="1017"
     id="namedview10"
     showgrid="false"
     inkscape:zoom="20.118351"
     inkscape:cx="8.9272944"
     inkscape:cy="7.715733"
     inkscape:window-x="8"
     inkscape:window-y="36"
     inkscape:window-maximized="0"
     inkscape:current-layer="svg8" />
  <path
     inkscape:connector-curvature="0"
     style="fill:#dfdfdf;fill-opacity:1;stroke-width:0.07579895"
     d="M 11.89704,12.889757 H 3.832027 c 0,0 0.422807,-0.491589 0.789892,-1.022897 C 5.673347,10.345056 6.06564,8.7261195 5.902011,7.0630377 5.773098,5.7527907 5.308736,4.4838578 4.616284,3.2933291 4.328833,2.7991124 4.020933,2.3518485 3.712646,1.9588286 c 0,0.015878 9.670048,0.015878 9.670048,0.015878 0.167451,0 0.303196,-0.1357453 0.303196,-0.3031958 0,-0.1674505 -0.135745,-0.3031958 -0.303196,-0.3031958 H 3.074037 c -0.266387,0 -0.403291,0.3188915 -0.219817,0.512022 0.01706,0.017962 0.05164,0.055893 0.10122,0.1128062 0.08417,0.096612 0.178363,0.210258 0.280086,0.3399402 C 3.527315,2.705072 3.819491,3.1294961 4.092109,3.5982065 4.743959,4.7189312 5.179032,5.9078264 5.298534,7.1224129 5.448423,8.6458468 5.0909,10.121291 4.123023,11.522168 3.89975,11.845325 3.644544,12.163353 3.35641,12.475916 3.3122,12.363187 3.202441,12.283365 3.074037,12.283365 H 1.254862 c -0.167451,0 -0.303196,0.135746 -0.303196,0.303196 v 1.819175 c 0,0.167451 0.135745,0.303196 0.303196,0.303196 h 1.819175 c 0.16745,0 0.303195,-0.135745 0.303195,-0.303196 v -0.909588 0 h 8.519808 c 0.140461,0.691966 0.752237,1.212784 1.485654,1.212784 0.837253,0 1.51598,-0.678727 1.51598,-1.51598 0,-0.837252 -0.678727,-1.515978 -1.51598,-1.515978 -0.733417,0 -1.345193,0.520817 -1.485654,1.212783 z m 1.485654,1.212783 c -0.502351,0 -0.909588,-0.407236 -0.909588,-0.909588 0,-0.502351 0.407237,-0.909587 0.909588,-0.909587 0.502351,0 0.909588,0.407236 0.909588,0.909587 0,0.502352 -0.407237,0.909588 -0.909588,0.909588 z m -10.611853,0 H 1.558058 v -1.212783 h 1.212783 z"
     id="path42" />
</svg>
