<?xml version="1.0" encoding="UTF-8" standalone="no"?>
<svg
   xmlns:dc="http://purl.org/dc/elements/1.1/"
   xmlns:cc="http://creativecommons.org/ns#"
   xmlns:rdf="http://www.w3.org/1999/02/22-rdf-syntax-ns#"
   xmlns:svg="http://www.w3.org/2000/svg"
   xmlns="http://www.w3.org/2000/svg"
   xmlns:sodipodi="http://sodipodi.sourceforge.net/DTD/sodipodi-0.dtd"
   xmlns:inkscape="http://www.inkscape.org/namespaces/inkscape"
   style="clip-rule:evenodd;fill-rule:evenodd;stroke-linejoin:round;stroke-miterlimit:2"
   version="1.1"
   viewBox="0 0 48 48"
   id="svg24"
   sodipodi:docname="typora.svg"
   inkscape:version="0.92.5 (2060ec1f9f, 2020-04-08)">
  <metadata
     id="metadata28">
    <rdf:RDF>
      <cc:Work
         rdf:about="">
        <dc:format>image/svg+xml</dc:format>
        <dc:type
           rdf:resource="http://purl.org/dc/dcmitype/StillImage" />
        <dc:title />
      </cc:Work>
    </rdf:RDF>
  </metadata>
  <sodipodi:namedview
     pagecolor="#ffffff"
     bordercolor="#666666"
     borderopacity="1"
     objecttolerance="10"
     gridtolerance="10"
     guidetolerance="10"
     inkscape:pageopacity="0"
     inkscape:pageshadow="2"
     inkscape:window-width="3824"
     inkscape:window-height="2107"
     id="namedview26"
     showgrid="false"
     inkscape:zoom="13.31549"
     inkscape:cx="20.148813"
     inkscape:cy="16.626996"
     inkscape:window-x="8"
     inkscape:window-y="8"
     inkscape:window-maximized="0"
     inkscape:current-layer="svg24" />
  <path
     d="m39.411 5.813c0-2.783-2.256-5.04-5.039-5.04h-25.84c-2.783 0-5.039 2.257-5.039 5.04v33.035c0 2.783 2.256 5.04 5.039 5.04h25.84c2.783 0 5.039-2.257 5.039-5.04v-33.035z"
     style="fill:url(#_Linear1)"
     id="path2" />
  <path
     d="m44 8.924c0-2.783-2.256-5.04-5.039-5.04h-25.841c-2.783 0-5.039 2.257-5.039 5.04v33.036c0 2.783 2.256 5.04 5.039 5.04h25.841c2.783 0 5.039-2.257 5.039-5.04v-33.036z"
     style="fill:url(#_Linear2)"
     id="path4" />
  <path
     d="m40.518 42.227h-28.429v-0.796h28.429v0.796zm0-2.268h-28.429v-0.824h28.429v0.824zm0-2.412h-28.429v-0.796h28.429v0.796zm0-2.461h-28.429v-0.796h28.429v0.796zm-16.058-3.861h-12.217v-0.796h12.217v0.796zm6.169-2.461h-18.386v-0.796h18.386v0.796zm-6.221-1.834h-12.072v-0.796h12.072v0.796zm6.176-1.785h-18.441v-0.824h18.441v0.824zm7.383-2.413h-25.824v-0.796h25.824v0.796zm2.605-2.46h-28.429v-0.796h28.429v0.796zm0.1-3.758h-28.429v-0.796h28.429v0.796zm0-2.268h-28.429v-0.825h28.429v0.825zm0-2.413h-28.429v-0.796h28.429v0.796zm0-2.46h-28.429v-0.797h28.429v0.797z"
     style="fill:#b0b0b0"
     id="path6" />
  <circle
     cx="36"
     cy="36"
     r="11"
     style="fill:#ff590c;fill-opacity:1"
     id="circle8" />
  <defs
     id="defs22">
    <linearGradient
       id="_Linear1"
       x2="1"
       gradientTransform="matrix(-.476427 -44.666 44.666 -.476427 94.464 44.6444)"
       gradientUnits="userSpaceOnUse">
      <stop
         style="stop-color:#ff4a01;stop-opacity:1"
         offset="0"
         id="stop12" />
      <stop
         style="stop-color:#ffa23f;stop-opacity:1"
         offset="1"
         id="stop14" />
    </linearGradient>
    <linearGradient
       id="_Linear2"
       x2="1"
       gradientTransform="matrix(-.476427 -44.666 44.666 -.476427 99.0526 47.7561)"
       gradientUnits="userSpaceOnUse">
      <stop
         style="stop-color:#cfdaf0"
         offset="0"
         id="stop17" />
      <stop
         style="stop-color:#fdfdfe"
         offset="1"
         id="stop19" />
    </linearGradient>
  </defs>
  <path
     inkscape:connector-curvature="0"
     style="fill:#ffffff;fill-rule:nonzero;stroke-width:1.00241292"
     d="m 29.94464,39.330396 v 2.679451 h 2.67945 l 6.767289,-6.767291 -2.67945,-2.679449 z m 11.816443,-6.449524 c 0.283683,-0.282681 0.283683,-0.729756 0,-1.01344 l -1.674029,-1.674029 c -0.283684,-0.283682 -0.73076,-0.283682 -1.01344,0 l -1.400371,1.408391 2.67945,2.67945 z"
     id="path20" />
</svg>
