<?xml version="1.0" encoding="UTF-8" standalone="no"?>
<svg
   xmlns:dc="http://purl.org/dc/elements/1.1/"
   xmlns:cc="http://creativecommons.org/ns#"
   xmlns:rdf="http://www.w3.org/1999/02/22-rdf-syntax-ns#"
   xmlns:svg="http://www.w3.org/2000/svg"
   xmlns="http://www.w3.org/2000/svg"
   xmlns:sodipodi="http://sodipodi.sourceforge.net/DTD/sodipodi-0.dtd"
   xmlns:inkscape="http://www.inkscape.org/namespaces/inkscape"
   height="24"
   viewBox="0 0 24 24"
   width="24"
   version="1.1"
   id="svg6"
   sodipodi:docname="filter.svg"
   inkscape:version="1.0.1 (3bc2e813f5, 2020-09-07)">
  <metadata
     id="metadata12">
    <rdf:RDF>
      <cc:Work
         rdf:about="">
        <dc:format>image/svg+xml</dc:format>
        <dc:type
           rdf:resource="http://purl.org/dc/dcmitype/StillImage" />
      </cc:Work>
    </rdf:RDF>
  </metadata>
  <defs
     id="defs10" />
  <sodipodi:namedview
     pagecolor="#ffffff"
     bordercolor="#666666"
     borderopacity="1"
     objecttolerance="10"
     gridtolerance="10"
     guidetolerance="10"
     inkscape:pageopacity="0"
     inkscape:pageshadow="2"
     inkscape:window-width="948"
     inkscape:window-height="492"
     id="namedview8"
     showgrid="false"
     inkscape:zoom="36.833333"
     inkscape:cx="16.103702"
     inkscape:cy="12"
     inkscape:window-x="8"
     inkscape:window-y="544"
     inkscape:window-maximized="0"
     inkscape:current-layer="svg6" />
  <path
     d="M0 0h24v24H0V0z"
     fill="none"
     id="path2" />
  <path
     d="M 2,5 C 1.45,5 1,5.45 1,6 v 15 c 0,1.1 0.9,2 2,2 h 15 c 0.55,0 1,-0.45 1,-1 0,-0.55 -0.45,-1 -1,-1 H 4 C 3.45,21 3,20.55 3,20 V 6 C 3,5.45 2.55,5 2,5 Z M 21,1 H 7 C 5.9,1 5,1.9 5,3 v 14 c 0,1.1 0.9,2 2,2 h 14 c 1.1,0 2,-0.9 2,-2 V 3 C 23,1.9 22.1,1 21,1 Z M 20,17 H 8 C 7.45,17 7,16.55 7,16 V 4 C 7,3.45 7.45,3 8,3 h 12 c 0.55,0 1,0.45 1,1 v 12 c 0,0.55 -0.45,1 -1,1 z"
     id="path4"
     sodipodi:nodetypes="sssssssssssssssssssssssssssss" />
</svg>
