<?xml version="1.0" encoding="UTF-8" standalone="no"?>
<svg
   xmlns:dc="http://purl.org/dc/elements/1.1/"
   xmlns:cc="http://creativecommons.org/ns#"
   xmlns:rdf="http://www.w3.org/1999/02/22-rdf-syntax-ns#"
   xmlns:svg="http://www.w3.org/2000/svg"
   xmlns="http://www.w3.org/2000/svg"
   xmlns:sodipodi="http://sodipodi.sourceforge.net/DTD/sodipodi-0.dtd"
   xmlns:inkscape="http://www.inkscape.org/namespaces/inkscape"
   height="24"
   viewBox="0 0 24 24"
   width="24"
   version="1.1"
   id="svg6"
   sodipodi:docname="selection-start-symbolic.svg"
   inkscape:version="1.0.1 (3bc2e813f5, 2020-09-07)">
  <metadata
     id="metadata12">
    <rdf:RDF>
      <cc:Work
         rdf:about="">
        <dc:format>image/svg+xml</dc:format>
        <dc:type
           rdf:resource="http://purl.org/dc/dcmitype/StillImage" />
      </cc:Work>
    </rdf:RDF>
  </metadata>
  <defs
     id="defs10" />
  <sodipodi:namedview
     pagecolor="#ffffff"
     bordercolor="#666666"
     borderopacity="1"
     objecttolerance="10"
     gridtolerance="10"
     guidetolerance="10"
     inkscape:pageopacity="0"
     inkscape:pageshadow="2"
     inkscape:window-width="948"
     inkscape:window-height="492"
     id="namedview8"
     showgrid="false"
     inkscape:zoom="9.2083333"
     inkscape:cx="10.933672"
     inkscape:cy="9.5669086"
     inkscape:window-x="8"
     inkscape:window-y="8"
     inkscape:window-maximized="0"
     inkscape:current-layer="svg6"
     inkscape:document-rotation="0" />
  <path
     d="M 9,21 H 7 V 19 H 9 Z M 5,21 H 3 v -2 h 2 z m 12,0 h -2 v -2 h 2 z m -4,0 h -2 v -2 h 2 z M 5,17 H 3 V 15 H 5 Z M 5,13 H 3 V 11 H 5 Z M 21,5 v 15 c 0,0.55 -0.45,1 -1,1 -0.55,0 -1,-0.45 -1,-1 V 6 C 19,5.45 18.55,5 18,5 H 4 C 3.45,5 3,4.55 3,4 3,3.45 3.45,3 4,3 h 15 c 1.1,0 2,0.9 2,2 z M 5,9 H 3 V 7 h 2 z"
     id="path4" />
</svg>
