<?xml version="1.0" encoding="UTF-8" standalone="no"?>
<svg
   xmlns:dc="http://purl.org/dc/elements/1.1/"
   xmlns:cc="http://creativecommons.org/ns#"
   xmlns:rdf="http://www.w3.org/1999/02/22-rdf-syntax-ns#"
   xmlns:svg="http://www.w3.org/2000/svg"
   xmlns="http://www.w3.org/2000/svg"
   xmlns:sodipodi="http://sodipodi.sourceforge.net/DTD/sodipodi-0.dtd"
   xmlns:inkscape="http://www.inkscape.org/namespaces/inkscape"
   height="24"
   viewBox="0 0 24 24"
   width="24"
   version="1.1"
   id="svg6"
   sodipodi:docname="selection-end-symbolic.svg"
   inkscape:version="1.0.1 (3bc2e813f5, 2020-09-07)">
  <metadata
     id="metadata12">
    <rdf:RDF>
      <cc:Work
         rdf:about="">
        <dc:format>image/svg+xml</dc:format>
        <dc:type
           rdf:resource="http://purl.org/dc/dcmitype/StillImage" />
      </cc:Work>
    </rdf:RDF>
  </metadata>
  <defs
     id="defs10" />
  <sodipodi:namedview
     pagecolor="#ffffff"
     bordercolor="#666666"
     borderopacity="1"
     objecttolerance="10"
     gridtolerance="10"
     guidetolerance="10"
     inkscape:pageopacity="0"
     inkscape:pageshadow="2"
     inkscape:window-width="948"
     inkscape:window-height="492"
     id="namedview8"
     showgrid="false"
     inkscape:zoom="6.5112749"
     inkscape:cx="-6.9404511"
     inkscape:cy="2.2225709"
     inkscape:window-x="8"
     inkscape:window-y="8"
     inkscape:window-maximized="0"
     inkscape:current-layer="svg6"
     inkscape:document-rotation="0" />
  <path
     d="m 15,3 h 2 v 2 h -2 z m 4,0 h 2 V 5 H 19 Z M 7,3 H 9 V 5 H 7 Z m 4,0 h 2 v 2 h -2 z m 8,4 h 2 v 2 h -2 z m 0,4 h 2 v 2 H 19 Z M 3,19 V 4 C 3,3.45 3.45,3 4,3 4.55,3 5,3.45 5,4 v 14 c 0,0.55 0.45,1 1,1 h 14 c 0.55,0 1,0.45 1,1 0,0.55 -0.45,1 -1,1 H 5 C 3.9,21 3,20.1 3,19 Z m 16,-4 h 2 v 2 h -2 z"
     id="path4" />
</svg>
