<?xml version="1.0" encoding="UTF-8" standalone="no"?>
<svg
   xmlns:dc="http://purl.org/dc/elements/1.1/"
   xmlns:cc="http://creativecommons.org/ns#"
   xmlns:rdf="http://www.w3.org/1999/02/22-rdf-syntax-ns#"
   xmlns:svg="http://www.w3.org/2000/svg"
   xmlns="http://www.w3.org/2000/svg"
   xmlns:xlink="http://www.w3.org/1999/xlink"
   xmlns:sodipodi="http://sodipodi.sourceforge.net/DTD/sodipodi-0.dtd"
   xmlns:inkscape="http://www.inkscape.org/namespaces/inkscape"
   width="512"
   height="512"
   viewBox="0 0 512 512"
   version="1.1"
   id="svg46"
   sodipodi:docname="application-x-krita.svg"
   inkscape:version="0.92.5 (2060ec1f9f, 2020-04-08)">
  <metadata
     id="metadata50">
    <rdf:RDF>
      <cc:Work
         rdf:about="">
        <dc:format>image/svg+xml</dc:format>
        <dc:type
           rdf:resource="http://purl.org/dc/dcmitype/StillImage" />
        <dc:title></dc:title>
      </cc:Work>
    </rdf:RDF>
  </metadata>
  <sodipodi:namedview
     pagecolor="#ffffff"
     bordercolor="#666666"
     borderopacity="1"
     objecttolerance="10"
     gridtolerance="10"
     guidetolerance="10"
     inkscape:pageopacity="0"
     inkscape:pageshadow="2"
     inkscape:window-width="1908"
     inkscape:window-height="1031"
     id="namedview48"
     showgrid="false"
     inkscape:zoom="0.4609375"
     inkscape:cx="-132.33898"
     inkscape:cy="256"
     inkscape:window-x="1924"
     inkscape:window-y="8"
     inkscape:window-maximized="0"
     inkscape:current-layer="svg46" />
  <defs
     id="defs30">
    <linearGradient
       id="application-x-executable-c"
       x1="50%"
       x2="50%"
       y1="0%"
       y2="100%">
      <stop
         offset="0%"
         stop-color="#AC92FF"
         id="stop2" />
      <stop
         offset="100%"
         stop-color="#804EE2"
         id="stop4" />
    </linearGradient>
    <path
       id="application-x-executable-b"
       d="M232,0 L336,104 L336,380 C336,399.882251 319.882251,416 300,416 L36,416 C16.117749,416 2.4348735e-15,399.882251 0,380 L0,36 C-2.4348735e-15,16.117749 16.117749,3.65231026e-15 36,0 L232,0 Z" />
    <filter
       id="application-x-executable-a"
       width="127.4%"
       height="122.1%"
       x="-13.7%"
       y="-9.1%"
       filterUnits="objectBoundingBox">
      <feOffset
         dy="8"
         in="SourceAlpha"
         result="shadowOffsetOuter1"
         id="feOffset8" />
      <feGaussianBlur
         in="shadowOffsetOuter1"
         result="shadowBlurOuter1"
         stdDeviation="14"
         id="feGaussianBlur10" />
      <feColorMatrix
         in="shadowBlurOuter1"
         values="0 0 0 0 0.538881273   0 0 0 0 0.186318598   0 0 0 0 1  0 0 0 0.5 0"
         id="feColorMatrix12" />
    </filter>
    <linearGradient
       id="application-x-executable-f"
       x1="50%"
       x2="7.994%"
       y1="50%"
       y2="88.893%">
      <stop
         offset="0%"
         stop-color="#FFF"
         stop-opacity=".1"
         id="stop15" />
      <stop
         offset="100%"
         stop-color="#FFF"
         stop-opacity=".3"
         id="stop17" />
    </linearGradient>
    <path
       id="application-x-executable-e"
       d="M232,0 L336,104 L268,104 C248.117749,104 232,87.882251 232,68 L232,0 Z" />
    <filter
       id="application-x-executable-d"
       width="126.9%"
       height="126.9%"
       x="-13.5%"
       y="-9.6%"
       filterUnits="objectBoundingBox">
      <feOffset
         dy="4"
         in="SourceAlpha"
         result="shadowOffsetOuter1"
         id="feOffset21" />
      <feGaussianBlur
         in="shadowOffsetOuter1"
         result="shadowBlurOuter1"
         stdDeviation="4"
         id="feGaussianBlur23" />
      <feComposite
         in="shadowBlurOuter1"
         in2="SourceAlpha"
         operator="out"
         result="shadowBlurOuter1"
         id="feComposite25" />
      <feColorMatrix
         in="shadowBlurOuter1"
         values="0 0 0 0 0   0 0 0 0 0   0 0 0 0 0  0 0 0 0.05 0"
         id="feColorMatrix27" />
    </filter>
  </defs>
  <g
     fill="none"
     fill-rule="evenodd"
     id="g44">
    <g
       transform="translate(88 56)"
       id="g40">
      <use
         fill="#000"
         filter="url(#application-x-executable-a)"
         xlink:href="#application-x-executable-b"
         id="use32" />
      <use
         fill="url(#application-x-executable-c)"
         xlink:href="#application-x-executable-b"
         id="use34" />
      <use
         fill="#000"
         filter="url(#application-x-executable-d)"
         xlink:href="#application-x-executable-e"
         id="use36" />
      <use
         fill="url(#application-x-executable-f)"
         xlink:href="#application-x-executable-e"
         id="use38" />
    </g>
  </g>
  <g
     transform="matrix(8.5093999,0,0,8.5093999,-16.512947,63.307077)"
     style="clip-rule:evenodd;opacity:1;fill:#ffffff;fill-opacity:1;fill-rule:evenodd;stroke-linejoin:round;stroke-miterlimit:2"
     id="g20">
    <path
       inkscape:connector-curvature="0"
       d="m 35.86,30.676 -2.788,-1.635 c -0.153,0.019 -0.305,0.049 -0.456,0.092 -0.728,0.209 -1.782,0.808 -2.664,2.477 -0.701,1.325 -0.442,2.459 -0.214,3.46 0.218,0.957 0.39,1.713 -0.251,2.468 -0.063,0.075 -0.08,0.178 -0.044,0.268 0.022,0.057 0.063,0.104 0.114,0.134 0.03,0.017 0.064,0.029 0.1,0.033 1.62,0.204 4.046,-0.752 5.542,-3.331 0.68,-1.172 0.972,-2.299 0.844,-3.258 -0.033,-0.251 -0.095,-0.487 -0.183,-0.708 z"
       style="fill:#ffffff;fill-opacity:1;fill-rule:nonzero"
       id="path14" />
    <path
       inkscape:connector-curvature="0"
       d="m 42.386,16.166 c -0.56,-0.324 -1.275,-0.161 -1.638,0.375 -0.228,0.336 -5.595,8.252 -6.286,9.443 -0.345,0.596 -0.734,1.563 -1.058,2.447 l 2.789,1.635 c 0.607,-0.72 1.256,-1.542 1.607,-2.146 0.699,-1.206 4.896,-9.782 5.074,-10.147 0.285,-0.581 0.071,-1.282 -0.488,-1.607 z"
       style="fill:#ffffff;fill-opacity:1;fill-rule:nonzero"
       id="path16" />
    <path
       inkscape:connector-curvature="0"
       d="m 28.991,33.678 c -0.238,-0.079 -0.471,-0.126 -0.707,-0.141 -0.04,-0.002 -0.082,-0.003 -0.126,-0.003 -0.356,0 -0.802,0.077 -1.233,0.153 -0.385,0.067 -0.748,0.13 -1.002,0.13 -0.178,0 -0.24,-0.033 -0.259,-0.05 -0.216,-0.27 0.095,-1.004 0.229,-1.319 0.034,-0.08 0.061,-0.143 0.076,-0.188 0.216,-0.636 0.375,-1.313 0.076,-1.956 -0.249,-0.534 -0.831,-0.959 -1.477,-1.082 -0.188,-0.045 -0.405,-0.066 -0.68,-0.066 -0.227,0 -0.47,0.015 -0.705,0.029 -0.241,0.014 -0.49,0.029 -0.729,0.029 -0.821,0 -1.293,-0.187 -1.579,-0.625 -0.531,-0.842 0.106,-2.35 0.761,-2.978 0.04,-0.039 0.043,-0.102 0.007,-0.145 -0.035,-0.043 -0.098,-0.051 -0.143,-0.018 -0.838,0.607 -1.393,1.709 -1.349,2.681 0.023,0.519 0.223,1.238 1.041,1.726 0.441,0.262 1.153,0.317 1.842,0.37 0.678,0.053 1.378,0.107 1.594,0.371 0.057,0.069 0.078,0.152 0.066,0.258 -0.047,0.482 -0.281,0.956 -0.507,1.415 -0.427,0.867 -0.869,1.763 -0.106,2.757 0.671,0.873 1.561,0.873 2.475,0.867 0.075,-10e-4 0.15,-10e-4 0.225,-10e-4 0.399,0 0.86,0.012 1.277,0.158 0.298,0.115 0.447,0.353 0.517,0.826 0.054,0.29 0.183,0.518 0.354,0.69 0.025,-0.133 0.083,-0.26 0.174,-0.368 0.449,-0.53 0.361,-1.025 0.137,-2.007 -0.104,-0.456 -0.22,-0.962 -0.249,-1.513 z"
       style="fill:#ffffff;fill-opacity:1;fill-rule:nonzero"
       id="path18" />
  </g>
</svg>
