<?xml version="1.0" encoding="UTF-8" standalone="no"?>
<svg
   xmlns:dc="http://purl.org/dc/elements/1.1/"
   xmlns:cc="http://creativecommons.org/ns#"
   xmlns:rdf="http://www.w3.org/1999/02/22-rdf-syntax-ns#"
   xmlns:svg="http://www.w3.org/2000/svg"
   xmlns="http://www.w3.org/2000/svg"
   xmlns:xlink="http://www.w3.org/1999/xlink"
   xmlns:sodipodi="http://sodipodi.sourceforge.net/DTD/sodipodi-0.dtd"
   xmlns:inkscape="http://www.inkscape.org/namespaces/inkscape"
   width="512"
   height="512"
   viewBox="0 0 512 512"
   version="1.1"
   id="svg46"
   sodipodi:docname="application-vnd.wolfram.mathematica.package.svg"
   inkscape:version="0.92.5 (2060ec1f9f, 2020-04-08)">
  <metadata
     id="metadata50">
    <rdf:RDF>
      <cc:Work
         rdf:about="">
        <dc:format>image/svg+xml</dc:format>
        <dc:type
           rdf:resource="http://purl.org/dc/dcmitype/StillImage" />
        <dc:title></dc:title>
      </cc:Work>
    </rdf:RDF>
  </metadata>
  <sodipodi:namedview
     pagecolor="#ffffff"
     bordercolor="#666666"
     borderopacity="1"
     objecttolerance="10"
     gridtolerance="10"
     guidetolerance="10"
     inkscape:pageopacity="0"
     inkscape:pageshadow="2"
     inkscape:window-width="1908"
     inkscape:window-height="1031"
     id="namedview48"
     showgrid="false"
     inkscape:zoom="0.4609375"
     inkscape:cx="-132.33898"
     inkscape:cy="256"
     inkscape:window-x="1924"
     inkscape:window-y="8"
     inkscape:window-maximized="0"
     inkscape:current-layer="svg46" />
  <defs
     id="defs30">
    <linearGradient
       id="text-x-cmake-c"
       x1="50%"
       x2="50%"
       y1="0%"
       y2="100%">
      <stop
         offset="0%"
         stop-color="#F33C3C"
         id="stop2" />
      <stop
         offset="99.628%"
         stop-color="#DC2121"
         id="stop4" />
    </linearGradient>
    <path
       id="text-x-cmake-b"
       d="M232,0 L336,104 L336,380 C336,399.882251 319.882251,416 300,416 L36,416 C16.117749,416 2.4348735e-15,399.882251 0,380 L0,36 C-2.4348735e-15,16.117749 16.117749,3.65231026e-15 36,0 L232,0 Z" />
    <filter
       id="text-x-cmake-a"
       width="127.4%"
       height="122.1%"
       x="-13.7%"
       y="-9.1%"
       filterUnits="objectBoundingBox">
      <feOffset
         dy="8"
         in="SourceAlpha"
         result="shadowOffsetOuter1"
         id="feOffset8" />
      <feGaussianBlur
         in="shadowOffsetOuter1"
         result="shadowBlurOuter1"
         stdDeviation="14"
         id="feGaussianBlur10" />
      <feColorMatrix
         in="shadowBlurOuter1"
         values="0 0 0 0 0.6622226   0 0 0 0 0   0 0 0 0 0  0 0 0 0.5 0"
         id="feColorMatrix12" />
    </filter>
    <linearGradient
       id="text-x-cmake-f"
       x1="50%"
       x2="7.994%"
       y1="50%"
       y2="88.893%">
      <stop
         offset="0%"
         stop-color="#FFF"
         stop-opacity=".1"
         id="stop15" />
      <stop
         offset="100%"
         stop-color="#FFF"
         stop-opacity=".3"
         id="stop17" />
    </linearGradient>
    <path
       id="text-x-cmake-e"
       d="M232,0 L336,104 L268,104 C248.117749,104 232,87.882251 232,68 L232,0 Z" />
    <filter
       id="text-x-cmake-d"
       width="126.9%"
       height="126.9%"
       x="-13.5%"
       y="-9.6%"
       filterUnits="objectBoundingBox">
      <feOffset
         dy="4"
         in="SourceAlpha"
         result="shadowOffsetOuter1"
         id="feOffset21" />
      <feGaussianBlur
         in="shadowOffsetOuter1"
         result="shadowBlurOuter1"
         stdDeviation="4"
         id="feGaussianBlur23" />
      <feComposite
         in="shadowBlurOuter1"
         in2="SourceAlpha"
         operator="out"
         result="shadowBlurOuter1"
         id="feComposite25" />
      <feColorMatrix
         in="shadowBlurOuter1"
         values="0 0 0 0 0   0 0 0 0 0   0 0 0 0 0  0 0 0 0.05 0"
         id="feColorMatrix27" />
    </filter>
  </defs>
  <g
     fill="none"
     fill-rule="evenodd"
     id="g44">
    <g
       transform="translate(88 56)"
       id="g40">
      <use
         fill="#000"
         filter="url(#text-x-cmake-a)"
         xlink:href="#text-x-cmake-b"
         id="use32" />
      <use
         fill="url(#text-x-cmake-c)"
         xlink:href="#text-x-cmake-b"
         id="use34" />
      <use
         fill="#000"
         filter="url(#text-x-cmake-d)"
         xlink:href="#text-x-cmake-e"
         id="use36" />
      <use
         fill="url(#text-x-cmake-f)"
         xlink:href="#text-x-cmake-e"
         id="use38" />
    </g>
  </g>
  <path
     inkscape:connector-curvature="0"
     d="m 257.56734,189.89026 c -3.20116,0.007 -6.40231,0.17708 -9.58984,0.50401 -3.03087,0.30649 -6.02089,0.76283 -8.95641,1.34176 -0.13623,0.0204 -0.26563,0.0409 -0.39504,0.0546 -2.76525,0.56531 -5.4624,1.29407 -8.1391,2.09096 -0.37461,0.0953 -0.75601,0.19752 -1.13743,0.29287 -3.01045,0.93992 -5.96641,2.00243 -8.84063,3.2284 -2.84699,1.19873 -5.63267,2.54731 -8.34343,4.01847 -5.38748,2.92871 -10.47527,6.37506 -15.20207,10.28455 -2.3566,1.94113 -4.61784,3.99804 -6.77691,6.16392 -2.05691,2.06372 -4.02528,4.216 -5.88468,6.45679 -0.10898,0.13623 -0.22475,0.25883 -0.33373,0.39504 -1.50522,1.8594 -2.94233,3.78009 -4.30453,5.75527 -0.48357,0.68109 -0.98759,1.34857 -1.45073,2.0501 -1.03527,1.58014 -2.02286,3.19434 -2.96278,4.8426 -0.66066,1.13061 -1.34175,2.24761 -1.95475,3.40548 -0.76282,1.47797 -1.49159,2.96957 -2.17949,4.48842 -0.64023,1.369 -1.26684,2.74481 -1.84578,4.15469 -0.56531,1.43711 -1.10337,2.88785 -1.60057,4.3522 -0.53807,1.54609 -1.08295,3.08537 -1.5461,4.6587 -0.38822,1.38263 -0.7492,2.77206 -1.07613,4.17511 -0.40866,1.65507 -0.81731,3.31695 -1.13742,5.00606 -0.28606,1.60058 -0.52445,3.20797 -0.72878,4.82217 -0.20433,1.49841 -0.40866,2.99001 -0.53806,4.50886 -0.26563,2.75844 -0.40866,5.5305 -0.4291,8.30937 0.007,3.20116 0.17708,6.4023 0.50401,9.58984 1.64144,16.29182 7.41034,31.38491 16.23734,44.23039 0.0818,0.11581 0.16347,0.23839 0.2452,0.35417 0.68109,0.98078 1.38262,1.94794 2.10458,2.90148 0,-0.0272 0.0137,-0.0613 0.0205,-0.0886 17.40882,23.22538 45.06814,38.36616 76.24192,38.36616 17.90602,0 34.62693,-5.06055 48.96401,-13.69005 l 0.0137,0.0204 c 0.19752,-0.12941 0.38822,-0.26562 0.57893,-0.39503 2.27486,-1.38944 4.48842,-2.86061 6.63387,-4.43394 0.4904,-0.36099 0.98078,-0.72878 1.47118,-1.09656 1.87983,-1.43712 3.70516,-2.93553 5.47601,-4.50887 0.71515,-0.64023 1.4235,-1.29408 2.11821,-1.95474 1.47798,-1.38944 2.90147,-2.81973 4.2841,-4.29772 0.82412,-0.87861 1.63462,-1.76404 2.4247,-2.66308 1.3009,-1.49841 2.53368,-3.0445 3.73922,-4.62464 0.66066,-0.85138 1.30771,-1.70956 1.94113,-2.58817 1.26684,-1.77766 2.44513,-3.60982 3.58937,-5.47602 0.47677,-0.75601 0.94672,-1.51885 1.39625,-2.28848 1.13743,-1.96837 2.1727,-3.99803 3.16709,-6.05495 0.39504,-0.78326 0.76964,-1.56652 1.13744,-2.3634 0.89223,-1.97518 1.6823,-4.00485 2.43832,-6.05495 0.37461,-0.96716 0.72878,-1.94113 1.0625,-2.9219 0.66067,-1.97518 1.22599,-3.98442 1.75043,-6.01408 0.27925,-1.02165 0.53806,-2.0433 0.78325,-3.07174 0.4291,-1.9207 0.76965,-3.86864 1.08295,-5.8302 0.21795,-1.28726 0.40866,-2.58134 0.57212,-3.87543 0.19753,-1.6755 0.30649,-3.37823 0.41547,-5.08098 0.17027,-2.02966 0.27244,-4.05933 0.31331,-6.089 0,-3.22159 -0.17028,-6.38868 -0.48359,-9.52173 l -0.0204,-0.0749 c -0.30649,-3.03088 -0.75602,-6.01407 -1.34176,-8.95642 -0.0272,-0.12941 -0.0272,-0.26562 -0.0545,-0.38822 -0.5585,-2.76525 -1.29409,-5.4692 -2.08416,-8.1391 -0.10897,-0.36099 -0.17027,-0.74239 -0.27925,-1.10338 l -0.0409,-0.12941 c -0.92629,-2.9832 -1.99561,-5.89829 -3.20114,-8.75209 -1.20555,-2.84697 -2.54731,-5.62585 -4.02528,-8.34342 -2.92872,-5.38067 -6.36826,-10.47526 -10.27776,-15.19526 -1.94792,-2.3566 -4.00484,-4.61783 -6.16391,-6.77691 -2.06372,-2.06372 -4.2228,-4.02527 -6.46361,-5.89149 -0.10898,-0.0885 -0.21113,-0.18389 -0.32011,-0.27925 -0.0204,-0.0137 -0.0477,-0.034 -0.0681,-0.0544 -1.86621,-1.50522 -3.7869,-2.94233 -5.75526,-4.29771 -0.68791,-0.48358 -1.35539,-0.98759 -2.05011,-1.45754 -1.58694,-1.03527 -3.20114,-2.02287 -4.84259,-2.95597 -1.13061,-0.66746 -2.24762,-1.34175 -3.40548,-1.96155 -1.47799,-0.76283 -2.9764,-1.49161 -4.48843,-2.17951 -1.37581,-0.63342 -2.75162,-1.26684 -4.15468,-1.83895 -1.43712,-0.57213 -2.89466,-1.10339 -4.35901,-1.60058 -1.53929,-0.54489 -3.07857,-1.08295 -4.6519,-1.54609 -1.38262,-0.39504 -2.77887,-0.75602 -4.17512,-1.08295 -1.66187,-0.40866 -3.31694,-0.81731 -5.01287,-1.13743 -1.60057,-0.27924 -3.20796,-0.52445 -4.82216,-0.72196 -1.49841,-0.20433 -2.99001,-0.40866 -4.50204,-0.54488 -2.76525,-0.25881 -5.53731,-0.40185 -8.30937,-0.42909 z m -14.48692,13.76496 12.87953,30.24749 22.04028,-18.71653 v 52.29457 l 51.08222,41.60137 -15.69927,10.4412 -43.63784,-0.44271 24.43774,33.13533 c -10.86349,5.93235 -23.32755,9.3106 -36.61574,9.3106 -31.78677,0 -58.90802,-19.27504 -70.39812,-46.81857 6.01409,-23.2322 14.99774,-45.66751 27.86366,-58.17925 5.48963,-20.1945 16.19647,-36.91541 28.04754,-52.8735 z m 15.16801,72.05318 0.007,8.12548 18.38279,1.40986 c -2.36341,-5.7144 -7.50568,-8.34343 -18.3896,-9.53534 z"
     style="clip-rule:evenodd;fill:#ffffff;fill-opacity:1;fill-rule:nonzero;stroke-width:6.81096315;stroke-linejoin:round;stroke-miterlimit:2"
     id="path4-3" />
</svg>
