<?xml version="1.0" encoding="UTF-8" standalone="no"?>
<svg
   xmlns:dc="http://purl.org/dc/elements/1.1/"
   xmlns:cc="http://creativecommons.org/ns#"
   xmlns:rdf="http://www.w3.org/1999/02/22-rdf-syntax-ns#"
   xmlns:svg="http://www.w3.org/2000/svg"
   xmlns="http://www.w3.org/2000/svg"
   xmlns:xlink="http://www.w3.org/1999/xlink"
   xmlns:sodipodi="http://sodipodi.sourceforge.net/DTD/sodipodi-0.dtd"
   xmlns:inkscape="http://www.inkscape.org/namespaces/inkscape"
   width="512"
   height="512"
   viewBox="0 0 512 512"
   version="1.1"
   id="svg46"
   sodipodi:docname="application-vnd.wolfram.cdf.svg"
   inkscape:version="0.92.5 (2060ec1f9f, 2020-04-08)">
  <metadata
     id="metadata50">
    <rdf:RDF>
      <cc:Work
         rdf:about="">
        <dc:format>image/svg+xml</dc:format>
        <dc:type
           rdf:resource="http://purl.org/dc/dcmitype/StillImage" />
        <dc:title></dc:title>
      </cc:Work>
    </rdf:RDF>
  </metadata>
  <sodipodi:namedview
     pagecolor="#ffffff"
     bordercolor="#666666"
     borderopacity="1"
     objecttolerance="10"
     gridtolerance="10"
     guidetolerance="10"
     inkscape:pageopacity="0"
     inkscape:pageshadow="2"
     inkscape:window-width="1908"
     inkscape:window-height="1031"
     id="namedview48"
     showgrid="false"
     inkscape:zoom="0.4609375"
     inkscape:cx="-132.33898"
     inkscape:cy="256"
     inkscape:window-x="1924"
     inkscape:window-y="8"
     inkscape:window-maximized="0"
     inkscape:current-layer="svg46" />
  <defs
     id="defs30">
    <linearGradient
       id="text-x-cmake-c"
       x1="50%"
       x2="50%"
       y1="0%"
       y2="100%">
      <stop
         offset="0%"
         stop-color="#F33C3C"
         id="stop2" />
      <stop
         offset="99.628%"
         stop-color="#DC2121"
         id="stop4" />
    </linearGradient>
    <path
       id="text-x-cmake-b"
       d="M232,0 L336,104 L336,380 C336,399.882251 319.882251,416 300,416 L36,416 C16.117749,416 2.4348735e-15,399.882251 0,380 L0,36 C-2.4348735e-15,16.117749 16.117749,3.65231026e-15 36,0 L232,0 Z" />
    <filter
       id="text-x-cmake-a"
       width="127.4%"
       height="122.1%"
       x="-13.7%"
       y="-9.1%"
       filterUnits="objectBoundingBox">
      <feOffset
         dy="8"
         in="SourceAlpha"
         result="shadowOffsetOuter1"
         id="feOffset8" />
      <feGaussianBlur
         in="shadowOffsetOuter1"
         result="shadowBlurOuter1"
         stdDeviation="14"
         id="feGaussianBlur10" />
      <feColorMatrix
         in="shadowBlurOuter1"
         values="0 0 0 0 0.6622226   0 0 0 0 0   0 0 0 0 0  0 0 0 0.5 0"
         id="feColorMatrix12" />
    </filter>
    <linearGradient
       id="text-x-cmake-f"
       x1="50%"
       x2="7.994%"
       y1="50%"
       y2="88.893%">
      <stop
         offset="0%"
         stop-color="#FFF"
         stop-opacity=".1"
         id="stop15" />
      <stop
         offset="100%"
         stop-color="#FFF"
         stop-opacity=".3"
         id="stop17" />
    </linearGradient>
    <path
       id="text-x-cmake-e"
       d="M232,0 L336,104 L268,104 C248.117749,104 232,87.882251 232,68 L232,0 Z" />
    <filter
       id="text-x-cmake-d"
       width="126.9%"
       height="126.9%"
       x="-13.5%"
       y="-9.6%"
       filterUnits="objectBoundingBox">
      <feOffset
         dy="4"
         in="SourceAlpha"
         result="shadowOffsetOuter1"
         id="feOffset21" />
      <feGaussianBlur
         in="shadowOffsetOuter1"
         result="shadowBlurOuter1"
         stdDeviation="4"
         id="feGaussianBlur23" />
      <feComposite
         in="shadowBlurOuter1"
         in2="SourceAlpha"
         operator="out"
         result="shadowBlurOuter1"
         id="feComposite25" />
      <feColorMatrix
         in="shadowBlurOuter1"
         values="0 0 0 0 0   0 0 0 0 0   0 0 0 0 0  0 0 0 0.05 0"
         id="feColorMatrix27" />
    </filter>
  </defs>
  <g
     fill="none"
     fill-rule="evenodd"
     id="g44">
    <g
       transform="translate(88 56)"
       id="g40">
      <use
         fill="#000"
         filter="url(#text-x-cmake-a)"
         xlink:href="#text-x-cmake-b"
         id="use32" />
      <use
         fill="url(#text-x-cmake-c)"
         xlink:href="#text-x-cmake-b"
         id="use34" />
      <use
         fill="#000"
         filter="url(#text-x-cmake-d)"
         xlink:href="#text-x-cmake-e"
         id="use36" />
      <use
         fill="url(#text-x-cmake-f)"
         xlink:href="#text-x-cmake-e"
         id="use38" />
    </g>
  </g>
  <path
     inkscape:connector-curvature="0"
     d="m 243.32203,182.66667 c -44.60566,0 -79.30779,37.55535 -79.30779,81.71748 0,44.1555 31.33916,77.16291 75.95145,77.16291 56.23704,-3.64101 67.41162,-84.54422 18.3573,-75.05775 -0.58918,1.9198 13.7564,7.46738 14.7825,17.54966 2.00587,19.80709 -13.65047,31.73637 -33.20601,27.97619 -14.28598,-2.74731 -31.55099,-14.82883 -34.90072,-26.87064 -3.09154,-11.12824 -1.55571,-24.48745 1.73445,-33.35826 15.53056,-41.8716 70.35752,-52.96675 89.68135,-52.43715 -15.12011,-11.38643 -31.74298,-16.66258 -53.09253,-16.68244 z m 30.10122,39.72009 c -56.23704,3.64101 -67.41162,84.54423 -18.3573,75.05775 0.58918,-1.9198 -13.7564,-7.46737 -14.7825,-17.54966 -2.00587,-19.80709 13.65047,-31.73636 33.20599,-27.97619 14.286,2.74731 31.551,14.82883 34.90073,26.87064 3.09155,11.12825 1.5557,24.48744 -1.73444,33.35826 -15.53056,41.87161 -70.35753,52.96676 -89.68136,52.43715 15.12012,11.38643 31.74297,16.66259 53.09253,16.68244 44.60567,0 79.3078,-37.55534 79.3078,-81.71748 0,-44.1555 -31.33916,-77.16291 -75.95145,-77.16291 z"
     style="clip-rule:evenodd;fill:#ffffff;fill-opacity:1;fill-rule:nonzero;stroke-width:6.62001562;stroke-linejoin:round;stroke-miterlimit:2"
     id="path4" />
</svg>
