<?xml version="1.0" encoding="UTF-8" standalone="no"?>
<svg
   xmlns:dc="http://purl.org/dc/elements/1.1/"
   xmlns:cc="http://creativecommons.org/ns#"
   xmlns:rdf="http://www.w3.org/1999/02/22-rdf-syntax-ns#"
   xmlns:svg="http://www.w3.org/2000/svg"
   xmlns="http://www.w3.org/2000/svg"
   xmlns:xlink="http://www.w3.org/1999/xlink"
   xmlns:sodipodi="http://sodipodi.sourceforge.net/DTD/sodipodi-0.dtd"
   xmlns:inkscape="http://www.inkscape.org/namespaces/inkscape"
   width="512"
   height="512"
   viewBox="0 0 512 512"
   version="1.1"
   id="svg48"
   sodipodi:docname="application-x-virtualbox-ovf.svg"
   inkscape:version="0.92.5 (2060ec1f9f, 2020-04-08)">
  <metadata
     id="metadata52">
    <rdf:RDF>
      <cc:Work
         rdf:about="">
        <dc:format>image/svg+xml</dc:format>
        <dc:type
           rdf:resource="http://purl.org/dc/dcmitype/StillImage" />
        <dc:title></dc:title>
      </cc:Work>
    </rdf:RDF>
  </metadata>
  <sodipodi:namedview
     pagecolor="#ffffff"
     bordercolor="#666666"
     borderopacity="1"
     objecttolerance="10"
     gridtolerance="10"
     guidetolerance="10"
     inkscape:pageopacity="0"
     inkscape:pageshadow="2"
     inkscape:window-width="1908"
     inkscape:window-height="1031"
     id="namedview50"
     showgrid="false"
     inkscape:zoom="0.4609375"
     inkscape:cx="301.55932"
     inkscape:cy="256"
     inkscape:window-x="1924"
     inkscape:window-y="1084"
     inkscape:window-maximized="0"
     inkscape:current-layer="svg48" />
  <defs
     id="defs30">
    <linearGradient
       id="application-x-sketch-c"
       x1="50%"
       x2="50%"
       y1="0%"
       y2="99.372%">
      <stop
         offset="0%"
         stop-color="#FFBC2A"
         id="stop2" />
      <stop
         offset="100%"
         stop-color="#E77B00"
         id="stop4" />
    </linearGradient>
    <path
       id="application-x-sketch-b"
       d="M232,0 L336,104 L336,380 C336,399.882251 319.882251,416 300,416 L36,416 C16.117749,416 2.4348735e-15,399.882251 0,380 L0,36 C-2.4348735e-15,16.117749 16.117749,3.65231026e-15 36,0 L232,0 Z" />
    <filter
       id="application-x-sketch-a"
       width="127.4%"
       height="122.1%"
       x="-13.7%"
       y="-9.1%"
       filterUnits="objectBoundingBox">
      <feOffset
         dy="8"
         in="SourceAlpha"
         result="shadowOffsetOuter1"
         id="feOffset8" />
      <feGaussianBlur
         in="shadowOffsetOuter1"
         result="shadowBlurOuter1"
         stdDeviation="14"
         id="feGaussianBlur10" />
      <feColorMatrix
         in="shadowBlurOuter1"
         values="0 0 0 0 0.874509804   0 0 0 0 0.498039216   0 0 0 0 0.0588235294  0 0 0 0.5 0"
         id="feColorMatrix12" />
    </filter>
    <linearGradient
       id="application-x-sketch-f"
       x1="50%"
       x2="7.994%"
       y1="50%"
       y2="88.893%">
      <stop
         offset="0%"
         stop-color="#FFF"
         stop-opacity=".1"
         id="stop15" />
      <stop
         offset="100%"
         stop-color="#FFF"
         stop-opacity=".3"
         id="stop17" />
    </linearGradient>
    <path
       id="application-x-sketch-e"
       d="M232,0 L336,104 L268,104 C248.117749,104 232,87.882251 232,68 L232,0 Z" />
    <filter
       id="application-x-sketch-d"
       width="126.9%"
       height="126.9%"
       x="-13.5%"
       y="-9.6%"
       filterUnits="objectBoundingBox">
      <feOffset
         dy="4"
         in="SourceAlpha"
         result="shadowOffsetOuter1"
         id="feOffset21" />
      <feGaussianBlur
         in="shadowOffsetOuter1"
         result="shadowBlurOuter1"
         stdDeviation="4"
         id="feGaussianBlur23" />
      <feComposite
         in="shadowBlurOuter1"
         in2="SourceAlpha"
         operator="out"
         result="shadowBlurOuter1"
         id="feComposite25" />
      <feColorMatrix
         in="shadowBlurOuter1"
         values="0 0 0 0 0   0 0 0 0 0   0 0 0 0 0  0 0 0 0.05 0"
         id="feColorMatrix27" />
    </filter>
    <filter
       id="application-x-uml-a"
       width="1.274"
       height="1.221"
       x="-0.13699999"
       y="-0.091000006"
       filterUnits="objectBoundingBox">
      <feOffset
         dy="8"
         in="SourceAlpha"
         result="shadowOffsetOuter1"
         id="feOffset8-3" />
      <feGaussianBlur
         in="shadowOffsetOuter1"
         result="shadowBlurOuter1"
         stdDeviation="14"
         id="feGaussianBlur10-6" />
      <feColorMatrix
         in="shadowBlurOuter1"
         values="0 0 0 0 0   0 0 0 0 0.0797976367   0 0 0 0 0.501585145  0 0 0 0.5 0"
         id="feColorMatrix12-7" />
    </filter>
    <linearGradient
       gradientUnits="userSpaceOnUse"
       id="application-x-uml-c"
       x1="0.5"
       x2="0.5"
       y1="0"
       y2="1">
      <stop
         offset="0%"
         stop-color="#425FAE"
         id="stop2-5" />
      <stop
         offset="100%"
         stop-color="#26378E"
         id="stop4-3" />
    </linearGradient>
    <filter
       id="application-x-uml-d"
       width="1.2690001"
       height="1.2690001"
       x="-0.13500001"
       y="-0.096000001"
       filterUnits="objectBoundingBox">
      <feOffset
         dy="4"
         in="SourceAlpha"
         result="shadowOffsetOuter1"
         id="feOffset21-5" />
      <feGaussianBlur
         in="shadowOffsetOuter1"
         result="shadowBlurOuter1"
         stdDeviation="4"
         id="feGaussianBlur23-6" />
      <feComposite
         in="shadowBlurOuter1"
         in2="SourceAlpha"
         operator="out"
         result="shadowBlurOuter1"
         id="feComposite25-2" />
      <feColorMatrix
         in="shadowBlurOuter1"
         values="0 0 0 0 0   0 0 0 0 0   0 0 0 0 0  0 0 0 0.05 0"
         id="feColorMatrix27-9" />
    </filter>
  </defs>
  <g
     fill="none"
     fill-rule="evenodd"
     id="g46">
    <g
       transform="translate(88 56)"
       id="g42">
      <g
         opacity=".9"
         id="g36">
        <use
           fill="#000"
           filter="url(#application-x-sketch-a)"
           xlink:href="#application-x-sketch-b"
           id="use32" />
        <use
           fill="url(#application-x-sketch-c)"
           xlink:href="#application-x-sketch-b"
           id="use34" />
      </g>
      <use
         fill="#000"
         filter="url(#application-x-sketch-d)"
         xlink:href="#application-x-sketch-e"
         id="use38" />
      <use
         fill="url(#application-x-sketch-f)"
         xlink:href="#application-x-sketch-e"
         id="use40" />
    </g>
  </g>
  <path
     inkscape:connector-curvature="0"
     d="m 259.79279,377.81356 79.36445,-44.85564 -0.53933,-84.37606 -78.82512,43.18786 z m -8.71225,-0.38168 -79.65485,-45.01329 0.53933,-84.69137 79.11552,43.35382 z m 5.47627,-182.16069 -80.86627,45.02988 80.42651,44.16696 80.58417,-44.15036 z m 24.10389,55.50117 c 0.46466,-0.0331 0.9376,0.0747 1.32759,0.307 l 4.72121,2.85431 c 0.77165,0.46465 0.89612,1.30268 0.26551,1.84201 -0.6306,0.54764 -1.77564,0.61401 -2.54729,0.14106 l -4.72951,-2.85429 c -0.76336,-0.46467 -0.88782,-1.3027 -0.25722,-1.84203 0.3153,-0.27381 0.75506,-0.42316 1.21971,-0.44806 z m -9.27646,-5.60903 c 0.45635,-0.0331 0.9376,0.0664 1.31928,0.30701 l 4.4474,2.68835 c 0.77165,0.46465 0.88781,1.29439 0.25721,1.84202 -0.6306,0.53933 -1.77564,0.59741 -2.54729,0.13276 l -4.4391,-2.68005 c -0.77166,-0.47296 -0.88783,-1.3027 -0.25722,-1.84203 0.3153,-0.27381 0.75506,-0.42316 1.21972,-0.44806 z m -45.66049,-28.34384 c 0.46465,-0.0249 0.9376,0.0747 1.32758,0.307 l 11.66612,7.06107 c 0.64719,0.38168 0.85462,1.03717 0.49784,1.56821 l -3.52639,5.3601 11.28444,-3.25258 c 0.68039,-0.20742 1.48523,-0.083 1.99137,0.31531 0.51444,0.38168 0.66379,0.9542 0.38168,1.44375 l -6.75407,11.10189 29.64654,-20.52773 c 0.6389,-0.44805 1.65948,-0.47294 2.38135,-0.0498 0.73017,0.52273 0.89612,1.16164 0.42317,1.71756 l -14.09725,16.4869 7.37637,4.46398 c 0.77166,0.47296 0.88782,1.29439 0.25722,1.83373 -0.63061,0.54763 -1.76735,0.61401 -2.5473,0.14105 l -8.60438,-5.19416 c -0.69698,-0.42317 -0.87123,-1.14503 -0.38997,-1.69266 l 7.35147,-8.61268 -25.90442,17.94723 c -0.61401,0.41487 -1.5765,0.46465 -2.29008,0.0912 -0.0415,-0.0166 -0.083,-0.0331 -0.12446,-0.0581 -0.6223,-0.38168 -0.83803,-1.00399 -0.50614,-1.53502 l 8.65417,-14.2466 -11.45869,3.31895 c -0.69698,0.19914 -1.51842,0.083 -2.01626,-0.3236 -0.52273,-0.40657 -0.65549,-0.98739 -0.34019,-1.46863 l 4.93694,-7.51743 -10.57086,-6.38899 c -0.77995,-0.47295 -0.89612,-1.29439 -0.26551,-1.83372 0.3153,-0.27381 0.76336,-0.43146 1.21971,-0.45635 z"
     style="clip-rule:evenodd;fill:#ffffff;fill-opacity:1;fill-rule:evenodd;stroke-width:8.29738045;stroke-linejoin:round;stroke-miterlimit:2"
     id="path12" />
</svg>
