<?xml version="1.0" encoding="UTF-8" standalone="no"?>
<svg
   xmlns:dc="http://purl.org/dc/elements/1.1/"
   xmlns:cc="http://creativecommons.org/ns#"
   xmlns:rdf="http://www.w3.org/1999/02/22-rdf-syntax-ns#"
   xmlns:svg="http://www.w3.org/2000/svg"
   xmlns="http://www.w3.org/2000/svg"
   xmlns:xlink="http://www.w3.org/1999/xlink"
   xmlns:sodipodi="http://sodipodi.sourceforge.net/DTD/sodipodi-0.dtd"
   xmlns:inkscape="http://www.inkscape.org/namespaces/inkscape"
   width="512"
   height="512"
   viewBox="0 0 512 512"
   version="1.1"
   id="svg46"
   sodipodi:docname="application-x-rpm-fedora.svg"
   inkscape:version="0.92.5 (2060ec1f9f, 2020-04-08)">
  <metadata
     id="metadata50">
    <rdf:RDF>
      <cc:Work
         rdf:about="">
        <dc:format>image/svg+xml</dc:format>
        <dc:type
           rdf:resource="http://purl.org/dc/dcmitype/StillImage" />
        <dc:title></dc:title>
      </cc:Work>
    </rdf:RDF>
  </metadata>
  <sodipodi:namedview
     pagecolor="#ffffff"
     bordercolor="#666666"
     borderopacity="1"
     objecttolerance="10"
     gridtolerance="10"
     guidetolerance="10"
     inkscape:pageopacity="0"
     inkscape:pageshadow="2"
     inkscape:window-width="1908"
     inkscape:window-height="1031"
     id="namedview48"
     showgrid="false"
     inkscape:zoom="0.4609375"
     inkscape:cx="-132.33898"
     inkscape:cy="256"
     inkscape:window-x="1924"
     inkscape:window-y="8"
     inkscape:window-maximized="0"
     inkscape:current-layer="svg46" />
  <defs
     id="defs30">
    <linearGradient
       id="application-x-php-c"
       x1="50%"
       x2="50%"
       y1="0%"
       y2="100%">
      <stop
         offset="0%"
         stop-color="#647FC8"
         id="stop2" />
      <stop
         offset="100%"
         stop-color="#4554A1"
         id="stop4" />
    </linearGradient>
    <path
       id="application-x-php-b"
       d="M232,0 L336,104 L336,380 C336,399.882251 319.882251,416 300,416 L36,416 C16.117749,416 2.4348735e-15,399.882251 0,380 L0,36 C-2.4348735e-15,16.117749 16.117749,3.65231026e-15 36,0 L232,0 Z" />
    <filter
       id="application-x-php-a"
       width="127.4%"
       height="122.1%"
       x="-13.7%"
       y="-9.1%"
       filterUnits="objectBoundingBox">
      <feOffset
         dy="8"
         in="SourceAlpha"
         result="shadowOffsetOuter1"
         id="feOffset8" />
      <feGaussianBlur
         in="shadowOffsetOuter1"
         result="shadowBlurOuter1"
         stdDeviation="14"
         id="feGaussianBlur10" />
      <feColorMatrix
         in="shadowBlurOuter1"
         values="0 0 0 0 0.149534536   0 0 0 0 0.271816956   0 0 0 0 0.918166893  0 0 0 0.5 0"
         id="feColorMatrix12" />
    </filter>
    <linearGradient
       id="application-x-php-f"
       x1="50%"
       x2="7.994%"
       y1="50%"
       y2="88.893%">
      <stop
         offset="0%"
         stop-color="#FFF"
         stop-opacity=".1"
         id="stop15" />
      <stop
         offset="100%"
         stop-color="#FFF"
         stop-opacity=".3"
         id="stop17" />
    </linearGradient>
    <path
       id="application-x-php-e"
       d="M232,0 L336,104 L268,104 C248.117749,104 232,87.882251 232,68 L232,0 Z" />
    <filter
       id="application-x-php-d"
       width="126.9%"
       height="126.9%"
       x="-13.5%"
       y="-9.6%"
       filterUnits="objectBoundingBox">
      <feOffset
         dy="4"
         in="SourceAlpha"
         result="shadowOffsetOuter1"
         id="feOffset21" />
      <feGaussianBlur
         in="shadowOffsetOuter1"
         result="shadowBlurOuter1"
         stdDeviation="4"
         id="feGaussianBlur23" />
      <feComposite
         in="shadowBlurOuter1"
         in2="SourceAlpha"
         operator="out"
         result="shadowBlurOuter1"
         id="feComposite25" />
      <feColorMatrix
         in="shadowBlurOuter1"
         values="0 0 0 0 0   0 0 0 0 0   0 0 0 0 0  0 0 0 0.05 0"
         id="feColorMatrix27" />
    </filter>
  </defs>
  <g
     fill="none"
     fill-rule="evenodd"
     id="g44">
    <g
       transform="translate(88 56)"
       id="g40">
      <use
         fill="#000"
         filter="url(#application-x-php-a)"
         xlink:href="#application-x-php-b"
         id="use32" />
      <use
         fill="url(#application-x-php-c)"
         xlink:href="#application-x-php-b"
         id="use34" />
      <use
         fill="#000"
         filter="url(#application-x-php-d)"
         xlink:href="#application-x-php-e"
         id="use36" />
      <use
         fill="url(#application-x-php-f)"
         xlink:href="#application-x-php-e"
         id="use38" />
    </g>
  </g>
  <path
     inkscape:connector-curvature="0"
     d="m 292.49136,204.94733 c -29.85336,0 -54.05107,24.20405 -54.05107,54.05739 v 28.66402 h -28.53117 c -29.85335,0 -54.05107,24.08385 -54.05107,53.93088 0,29.85966 24.19772,54.05738 54.05107,54.05738 29.84702,0 54.05106,-24.19772 54.05106,-54.05738 v -28.7779 h 28.53118 c 29.84702,0 54.05106,-23.96998 54.05106,-53.817 0,-29.85334 -24.20404,-54.05739 -54.05106,-54.05739 z m -54.05107,136.69023 c -0.019,15.72695 -12.79159,28.48057 -28.53117,28.48057 -15.75225,0 -28.64504,-12.7726 -28.64504,-28.52485 0,-15.76489 12.89279,-28.77156 28.64504,-28.77156 h 24.50138 c 2.22682,0 4.02979,1.79664 4.02979,4.02346 z m 54.04474,-53.98779 h -24.50138 c -2.22682,0 -4.02347,-1.79665 -4.02347,-4.02347 v -24.66586 c 0.0253,-15.73959 12.78526,-28.48689 28.52485,-28.48689 15.75857,0 28.65136,12.77261 28.65136,28.53117 0,15.75857 -12.89279,28.64505 -28.65136,28.64505 z"
     style="clip-rule:evenodd;fill:#ffffff;fill-opacity:0.3014354;fill-rule:nonzero;stroke-width:6.32620192;stroke-linejoin:round;stroke-miterlimit:2"
     id="path10" />
  <path
     inkscape:connector-curvature="0"
     d="m 237.83573,287.06776 v -28.66402 c 0,-29.85336 24.19772,-54.0574 54.05107,-54.0574 4.52956,0 7.7496,0.51242 11.94387,1.60686 6.11112,1.60685 11.10249,6.61087 11.10881,12.44364 0,7.04738 -5.1179,12.17161 -12.75995,12.17161 -3.64389,0 -4.95975,-0.69589 -10.29273,-0.69589 -15.73959,0 -28.49954,12.7473 -28.53117,28.48689 v 24.65954 c 0,2.22681 1.80297,4.02978 4.0298,4.02978 h 18.74453 c 6.98412,0 12.62076,5.58605 12.6271,12.58915 0,7.0031 -5.64298,12.57648 -12.6271,12.57648 h -22.77433 v 28.78422 c 0,29.85335 -24.19772,54.05107 -54.04475,54.05107 -4.52955,0 -7.74959,-0.51242 -11.94386,-1.60685 -6.11111,-1.60054 -11.10248,-6.61088 -11.1088,-12.44364 0,-7.04106 5.11156,-12.16529 12.75993,-12.16529 3.63757,0 4.95975,0.69588 10.29273,0.69588 15.73327,0 28.49954,-12.7473 28.52485,-28.48055 v -24.79239 c 0,-2.22683 -1.80297,-4.02346 -4.02979,-4.02346 h -18.73821 c -6.98413,0 -12.62709,-5.57339 -12.62709,-12.5765 -0.006,-7.04738 5.6999,-12.59546 12.75995,-12.59546 h 22.63514 z"
     style="clip-rule:evenodd;fill:#ffffff;fill-opacity:1;fill-rule:nonzero;stroke-width:6.32620192;stroke-linejoin:round;stroke-miterlimit:2"
     id="path12" />
</svg>
