<?xml version="1.0" encoding="UTF-8" standalone="no"?>
<svg
   xmlns:dc="http://purl.org/dc/elements/1.1/"
   xmlns:cc="http://creativecommons.org/ns#"
   xmlns:rdf="http://www.w3.org/1999/02/22-rdf-syntax-ns#"
   xmlns:svg="http://www.w3.org/2000/svg"
   xmlns="http://www.w3.org/2000/svg"
   xmlns:xlink="http://www.w3.org/1999/xlink"
   xmlns:sodipodi="http://sodipodi.sourceforge.net/DTD/sodipodi-0.dtd"
   xmlns:inkscape="http://www.inkscape.org/namespaces/inkscape"
   width="512"
   height="512"
   viewBox="0 0 512 512"
   version="1.1"
   id="svg46"
   sodipodi:docname="application-x-desktop-unity.svg"
   inkscape:version="0.92.5 (2060ec1f9f, 2020-04-08)">
  <metadata
     id="metadata50">
    <rdf:RDF>
      <cc:Work
         rdf:about="">
        <dc:format>image/svg+xml</dc:format>
        <dc:type
           rdf:resource="http://purl.org/dc/dcmitype/StillImage" />
        <dc:title></dc:title>
      </cc:Work>
    </rdf:RDF>
  </metadata>
  <sodipodi:namedview
     pagecolor="#ffffff"
     bordercolor="#666666"
     borderopacity="1"
     objecttolerance="10"
     gridtolerance="10"
     guidetolerance="10"
     inkscape:pageopacity="0"
     inkscape:pageshadow="2"
     inkscape:window-width="1908"
     inkscape:window-height="1031"
     id="namedview48"
     showgrid="false"
     inkscape:zoom="0.4609375"
     inkscape:cx="-132.33898"
     inkscape:cy="256"
     inkscape:window-x="1924"
     inkscape:window-y="8"
     inkscape:window-maximized="0"
     inkscape:current-layer="svg46" />
  <defs
     id="defs30">
    <linearGradient
       id="text-x-vcard-c"
       x1="50%"
       x2="50%"
       y1="0%"
       y2="99.203%">
      <stop
         offset="0%"
         stop-color="#A2A7B0"
         id="stop2" />
      <stop
         offset="98.472%"
         stop-color="#7B8991"
         id="stop4" />
    </linearGradient>
    <path
       id="text-x-vcard-b"
       d="M232,0 L336,104 L336,380 C336,399.882251 319.882251,416 300,416 L36,416 C16.117749,416 2.4348735e-15,399.882251 0,380 L0,36 C-2.4348735e-15,16.117749 16.117749,3.65231026e-15 36,0 L232,0 Z" />
    <filter
       id="text-x-vcard-a"
       width="127.4%"
       height="122.1%"
       x="-13.7%"
       y="-9.1%"
       filterUnits="objectBoundingBox">
      <feOffset
         dy="8"
         in="SourceAlpha"
         result="shadowOffsetOuter1"
         id="feOffset8" />
      <feGaussianBlur
         in="shadowOffsetOuter1"
         result="shadowBlurOuter1"
         stdDeviation="14"
         id="feGaussianBlur10" />
      <feColorMatrix
         in="shadowBlurOuter1"
         values="0 0 0 0 0.361595344   0 0 0 0 0.418797512   0 0 0 0 0.450973732  0 0 0 0.5 0"
         id="feColorMatrix12" />
    </filter>
    <linearGradient
       id="text-x-vcard-f"
       x1="50%"
       x2="7.994%"
       y1="50%"
       y2="88.893%">
      <stop
         offset="0%"
         stop-color="#FFF"
         stop-opacity=".1"
         id="stop15" />
      <stop
         offset="100%"
         stop-color="#FFF"
         stop-opacity=".3"
         id="stop17" />
    </linearGradient>
    <path
       id="text-x-vcard-e"
       d="M232,0 L336,104 L268,104 C248.117749,104 232,87.882251 232,68 L232,0 Z" />
    <filter
       id="text-x-vcard-d"
       width="126.9%"
       height="126.9%"
       x="-13.5%"
       y="-9.6%"
       filterUnits="objectBoundingBox">
      <feOffset
         dy="4"
         in="SourceAlpha"
         result="shadowOffsetOuter1"
         id="feOffset21" />
      <feGaussianBlur
         in="shadowOffsetOuter1"
         result="shadowBlurOuter1"
         stdDeviation="4"
         id="feGaussianBlur23" />
      <feComposite
         in="shadowBlurOuter1"
         in2="SourceAlpha"
         operator="out"
         result="shadowBlurOuter1"
         id="feComposite25" />
      <feColorMatrix
         in="shadowBlurOuter1"
         values="0 0 0 0 0   0 0 0 0 0   0 0 0 0 0  0 0 0 0.05 0"
         id="feColorMatrix27" />
    </filter>
    <filter
       id="application-x-archive-a"
       width="1.274"
       height="1.221"
       x="-0.13699999"
       y="-0.091000006"
       filterUnits="objectBoundingBox">
      <feOffset
         dy="8"
         in="SourceAlpha"
         result="shadowOffsetOuter1"
         id="feOffset8-6" />
      <feGaussianBlur
         in="shadowOffsetOuter1"
         result="shadowBlurOuter1"
         stdDeviation="14"
         id="feGaussianBlur10-7" />
      <feColorMatrix
         in="shadowBlurOuter1"
         values="0 0 0 0 0.00784313725   0 0 0 0 0.42745098   0 0 0 0 0.168627451  0 0 0 0.5 0"
         id="feColorMatrix12-5" />
    </filter>
    <linearGradient
       gradientUnits="userSpaceOnUse"
       id="application-x-archive-c"
       x1="0.5"
       x2="0.5"
       y1="0"
       y2="1">
      <stop
         offset="0%"
         stop-color="#19BD72"
         id="stop2-3" />
      <stop
         offset="100%"
         stop-color="#00914F"
         id="stop4-5" />
    </linearGradient>
    <filter
       id="application-x-archive-d"
       width="1.2690001"
       height="1.2690001"
       x="-0.13500001"
       y="-0.096000001"
       filterUnits="objectBoundingBox">
      <feOffset
         dy="4"
         in="SourceAlpha"
         result="shadowOffsetOuter1"
         id="feOffset21-6" />
      <feGaussianBlur
         in="shadowOffsetOuter1"
         result="shadowBlurOuter1"
         stdDeviation="4"
         id="feGaussianBlur23-2" />
      <feComposite
         in="shadowBlurOuter1"
         in2="SourceAlpha"
         operator="out"
         result="shadowBlurOuter1"
         id="feComposite25-9" />
      <feColorMatrix
         in="shadowBlurOuter1"
         values="0 0 0 0 0   0 0 0 0 0   0 0 0 0 0  0 0 0 0.05 0"
         id="feColorMatrix27-1" />
    </filter>
    <filter
       id="application-x-archive-a-6"
       width="1.274"
       height="1.221"
       x="-0.13699999"
       y="-0.091000006"
       filterUnits="objectBoundingBox">
      <feOffset
         dy="8"
         in="SourceAlpha"
         result="shadowOffsetOuter1"
         id="feOffset8-2" />
      <feGaussianBlur
         in="shadowOffsetOuter1"
         result="shadowBlurOuter1"
         stdDeviation="14"
         id="feGaussianBlur10-6" />
      <feColorMatrix
         in="shadowBlurOuter1"
         values="0 0 0 0 0.00784313725   0 0 0 0 0.42745098   0 0 0 0 0.168627451  0 0 0 0.5 0"
         id="feColorMatrix12-1" />
    </filter>
    <linearGradient
       gradientUnits="userSpaceOnUse"
       id="application-x-archive-c-8"
       x1="0.5"
       x2="0.5"
       y1="0"
       y2="1">
      <stop
         offset="0%"
         stop-color="#19BD72"
         id="stop2-7" />
      <stop
         offset="100%"
         stop-color="#00914F"
         id="stop4-9" />
    </linearGradient>
    <filter
       id="application-x-archive-d-2"
       width="1.2690001"
       height="1.2690001"
       x="-0.13500001"
       y="-0.096000001"
       filterUnits="objectBoundingBox">
      <feOffset
         dy="4"
         in="SourceAlpha"
         result="shadowOffsetOuter1"
         id="feOffset21-0" />
      <feGaussianBlur
         in="shadowOffsetOuter1"
         result="shadowBlurOuter1"
         stdDeviation="4"
         id="feGaussianBlur23-23" />
      <feComposite
         in="shadowBlurOuter1"
         in2="SourceAlpha"
         operator="out"
         result="shadowBlurOuter1"
         id="feComposite25-7" />
      <feColorMatrix
         in="shadowBlurOuter1"
         values="0 0 0 0 0   0 0 0 0 0   0 0 0 0 0  0 0 0 0.05 0"
         id="feColorMatrix27-5" />
    </filter>
    <filter
       id="application-x-troff-man-a"
       width="1.274"
       height="1.221"
       x="-0.13699999"
       y="-0.091000006"
       filterUnits="objectBoundingBox">
      <feOffset
         dy="8"
         in="SourceAlpha"
         result="shadowOffsetOuter1"
         id="feOffset8-61" />
      <feGaussianBlur
         in="shadowOffsetOuter1"
         result="shadowBlurOuter1"
         stdDeviation="14"
         id="feGaussianBlur10-2" />
      <feColorMatrix
         in="shadowBlurOuter1"
         values="0 0 0 0 0.941176471   0 0 0 0 0.309803922   0 0 0 0 0.0705882353  0 0 0 0.5 0"
         id="feColorMatrix12-9" />
    </filter>
    <linearGradient
       gradientUnits="userSpaceOnUse"
       id="application-x-troff-man-c"
       x1="0.5"
       x2="0.5"
       y1="0"
       y2="1">
      <stop
         offset="0%"
         stop-color="#FC7440"
         id="stop2-31" />
      <stop
         offset="100%"
         stop-color="#F04E11"
         id="stop4-94" />
    </linearGradient>
    <filter
       id="application-x-troff-man-d"
       width="1.2690001"
       height="1.2690001"
       x="-0.13500001"
       y="-0.096000001"
       filterUnits="objectBoundingBox">
      <feOffset
         dy="4"
         in="SourceAlpha"
         result="shadowOffsetOuter1"
         id="feOffset21-7" />
      <feGaussianBlur
         in="shadowOffsetOuter1"
         result="shadowBlurOuter1"
         stdDeviation="4"
         id="feGaussianBlur23-8" />
      <feComposite
         in="shadowBlurOuter1"
         in2="SourceAlpha"
         operator="out"
         result="shadowBlurOuter1"
         id="feComposite25-4" />
      <feColorMatrix
         in="shadowBlurOuter1"
         values="0 0 0 0 0   0 0 0 0 0   0 0 0 0 0  0 0 0 0.05 0"
         id="feColorMatrix27-50" />
    </filter>
  </defs>
  <g
     fill="none"
     fill-rule="evenodd"
     id="g44">
    <g
       transform="translate(88 56)"
       id="g40">
      <use
         fill="#000"
         filter="url(#text-x-vcard-a)"
         xlink:href="#text-x-vcard-b"
         id="use32" />
      <use
         fill="url(#text-x-vcard-c)"
         xlink:href="#text-x-vcard-b"
         id="use34" />
      <use
         fill="#000"
         filter="url(#text-x-vcard-d)"
         xlink:href="#text-x-vcard-e"
         id="use36" />
      <use
         fill="url(#text-x-vcard-f)"
         xlink:href="#text-x-vcard-e"
         id="use38" />
    </g>
  </g>
  <path
     inkscape:connector-curvature="0"
     d="m 304.10459,189.72968 c -0.86634,-0.0559 -1.71871,-0.0419 -2.55711,0.014 -5.60328,0.39125 -10.78737,3.49332 -13.8056,8.72631 -4.81379,8.35602 -1.92831,18.97572 6.44168,23.80348 8.35602,4.8138 18.99668,2.01914 23.81047,-6.36482 4.82777,-8.33506 2.06106,-19.15038 -6.29496,-23.97116 -2.3545,-1.35541 -5.00244,-2.04709 -7.59448,-2.20778 z m -45.86729,18.52158 c -12.07989,0 -23.38428,2.85055 -33.5149,7.88093 l 12.14278,21.92407 c 6.53949,-3.05316 13.70079,-4.85571 21.37212,-4.85571 26.70294,0 48.74579,20.43592 51.04439,46.55896 l 24.7886,-0.30741 c -1.23664,-19.25518 -9.66253,-36.57506 -22.59479,-49.29074 -6.65827,2.49423 -14.21782,2.10996 -20.85512,-1.73967 -6.63032,-3.83567 -10.82231,-10.2494 -11.9751,-17.29194 -6.46963,-1.7746 -13.37942,-2.87849 -20.40798,-2.87849 z m -42.08052,12.80651 c -15.30773,10.22145 -26.57718,25.90646 -31.31412,44.21844 5.54041,4.50638 8.87303,11.2415 8.87303,18.95475 0,7.66434 -3.32564,14.65098 -8.87303,19.17833 4.73694,18.30499 16.00639,33.92013 31.31412,44.14158 l 12.80651,-21.53981 c -13.13489,-9.23633 -21.68653,-24.50214 -21.68653,-41.7801 0,-17.29892 8.55164,-32.55075 21.68653,-41.78709 z m -46.94323,45.73454 c -9.66951,0 -17.43865,7.76914 -17.43865,17.43865 0,9.63458 7.76914,17.43865 17.43865,17.43865 9.6765,0 17.52249,-7.80407 17.52249,-17.43865 0,-9.66951 -7.84599,-17.43865 -17.52249,-17.43865 z m 140.06814,22.07079 c -2.2986,26.08113 -24.34145,46.55897 -51.04439,46.55897 -7.67831,0 -14.83962,-1.7257 -21.37212,-4.77887 l -12.14278,21.7564 c 10.13062,5.05134 21.43501,7.81106 33.5149,7.81106 7.02856,0 13.93835,-0.93621 20.40798,-2.73177 1.14581,-7.03555 5.33779,-13.42832 11.9751,-17.27796 6.65128,-3.83567 14.19685,-4.20596 20.85511,-1.6768 12.93227,-12.72965 21.35816,-30.02158 22.5948,-49.29074 z m -7.66434,55.12459 c -2.52917,0.21658 -5.07929,1.05498 -7.43379,2.41737 -8.36999,4.79982 -11.25547,15.39856 -6.44168,23.73362 4.83476,8.38396 15.59418,11.19958 23.95719,6.38578 8.36999,-4.82776 11.12273,-15.46841 6.29496,-23.82444 -3.01823,-5.226 -8.27917,-8.32108 -13.88245,-8.71233 -0.8384,-0.0699 -1.64885,-0.0699 -2.49423,0 z"
     style="clip-rule:evenodd;fill:#ffffff;fill-opacity:1;fill-rule:nonzero;stroke-width:6.98663902;stroke-linejoin:round;stroke-miterlimit:2"
     id="path10" />
</svg>
