<?xml version="1.0" encoding="UTF-8" standalone="no"?>
<svg
   xmlns:dc="http://purl.org/dc/elements/1.1/"
   xmlns:cc="http://creativecommons.org/ns#"
   xmlns:rdf="http://www.w3.org/1999/02/22-rdf-syntax-ns#"
   xmlns:svg="http://www.w3.org/2000/svg"
   xmlns="http://www.w3.org/2000/svg"
   xmlns:xlink="http://www.w3.org/1999/xlink"
   xmlns:sodipodi="http://sodipodi.sourceforge.net/DTD/sodipodi-0.dtd"
   xmlns:inkscape="http://www.inkscape.org/namespaces/inkscape"
   width="512"
   height="512"
   viewBox="0 0 512 512"
   version="1.1"
   id="svg46"
   sodipodi:docname="application-x-rpm-opensuse.svg"
   inkscape:version="0.92.5 (2060ec1f9f, 2020-04-08)">
  <metadata
     id="metadata50">
    <rdf:RDF>
      <cc:Work
         rdf:about="">
        <dc:format>image/svg+xml</dc:format>
        <dc:type
           rdf:resource="http://purl.org/dc/dcmitype/StillImage" />
        <dc:title></dc:title>
      </cc:Work>
    </rdf:RDF>
  </metadata>
  <sodipodi:namedview
     pagecolor="#ffffff"
     bordercolor="#666666"
     borderopacity="1"
     objecttolerance="10"
     gridtolerance="10"
     guidetolerance="10"
     inkscape:pageopacity="0"
     inkscape:pageshadow="2"
     inkscape:window-width="1908"
     inkscape:window-height="1031"
     id="namedview48"
     showgrid="false"
     inkscape:zoom="0.4609375"
     inkscape:cx="-132.33898"
     inkscape:cy="256"
     inkscape:window-x="1924"
     inkscape:window-y="8"
     inkscape:window-maximized="0"
     inkscape:current-layer="svg46" />
  <defs
     id="defs30">
    <linearGradient
       id="application-vnd.nokia.xml.qt.resource-c"
       x1="50%"
       x2="50%"
       y1="0%"
       y2="98.501%">
      <stop
         offset="0%"
         stop-color="#7FCB10"
         id="stop2" />
      <stop
         offset="100%"
         stop-color="#50A100"
         id="stop4" />
    </linearGradient>
    <path
       id="application-vnd.nokia.xml.qt.resource-b"
       d="M232,0 L336,104 L336,380 C336,399.882251 319.882251,416 300,416 L36,416 C16.117749,416 2.4348735e-15,399.882251 0,380 L0,36 C-2.4348735e-15,16.117749 16.117749,3.65231026e-15 36,0 L232,0 Z" />
    <filter
       id="application-vnd.nokia.xml.qt.resource-a"
       width="127.4%"
       height="122.1%"
       x="-13.7%"
       y="-9.1%"
       filterUnits="objectBoundingBox">
      <feOffset
         dy="8"
         in="SourceAlpha"
         result="shadowOffsetOuter1"
         id="feOffset8" />
      <feGaussianBlur
         in="shadowOffsetOuter1"
         result="shadowBlurOuter1"
         stdDeviation="14"
         id="feGaussianBlur10" />
      <feColorMatrix
         in="shadowBlurOuter1"
         values="0 0 0 0 0.46370117   0 0 0 0 0.679376132   0 0 0 0 0  0 0 0 0.5 0"
         id="feColorMatrix12" />
    </filter>
    <linearGradient
       id="application-vnd.nokia.xml.qt.resource-f"
       x1="50%"
       x2="7.994%"
       y1="50%"
       y2="88.893%">
      <stop
         offset="0%"
         stop-color="#FFF"
         stop-opacity=".1"
         id="stop15" />
      <stop
         offset="100%"
         stop-color="#FFF"
         stop-opacity=".3"
         id="stop17" />
    </linearGradient>
    <path
       id="application-vnd.nokia.xml.qt.resource-e"
       d="M232,0 L336,104 L268,104 C248.117749,104 232,87.882251 232,68 L232,0 Z" />
    <filter
       id="application-vnd.nokia.xml.qt.resource-d"
       width="126.9%"
       height="126.9%"
       x="-13.5%"
       y="-9.6%"
       filterUnits="objectBoundingBox">
      <feOffset
         dy="4"
         in="SourceAlpha"
         result="shadowOffsetOuter1"
         id="feOffset21" />
      <feGaussianBlur
         in="shadowOffsetOuter1"
         result="shadowBlurOuter1"
         stdDeviation="4"
         id="feGaussianBlur23" />
      <feComposite
         in="shadowBlurOuter1"
         in2="SourceAlpha"
         operator="out"
         result="shadowBlurOuter1"
         id="feComposite25" />
      <feColorMatrix
         in="shadowBlurOuter1"
         values="0 0 0 0 0   0 0 0 0 0   0 0 0 0 0  0 0 0 0.05 0"
         id="feColorMatrix27" />
    </filter>
  </defs>
  <g
     fill="none"
     fill-rule="evenodd"
     id="g44">
    <g
       transform="translate(88 56)"
       id="g40">
      <use
         fill="#000"
         filter="url(#application-vnd.nokia.xml.qt.resource-a)"
         xlink:href="#application-vnd.nokia.xml.qt.resource-b"
         id="use32" />
      <use
         fill="url(#application-vnd.nokia.xml.qt.resource-c)"
         xlink:href="#application-vnd.nokia.xml.qt.resource-b"
         id="use34" />
      <use
         fill="#000"
         filter="url(#application-vnd.nokia.xml.qt.resource-d)"
         xlink:href="#application-vnd.nokia.xml.qt.resource-e"
         id="use36" />
      <use
         fill="url(#application-vnd.nokia.xml.qt.resource-f)"
         xlink:href="#application-vnd.nokia.xml.qt.resource-e"
         id="use38" />
    </g>
  </g>
  <path
     inkscape:connector-curvature="0"
     d="m 254.00343,193.31369 c -49.09086,0 -88.89314,39.79542 -88.89314,88.88628 0,49.0977 39.80228,88.89313 88.89314,88.89313 49.09085,0 88.88627,-39.79543 88.88627,-88.89313 0,-49.09086 -39.79542,-88.88628 -88.88627,-88.88628 z m 0.42532,12.30701 c 42.2925,0 76.61357,34.29363 76.61357,76.57927 0,42.29935 -34.32107,76.57925 -76.61357,76.57925 -22.83725,0 -43.33524,-10.00888 -57.36413,-25.86257 5.76934,-4.47963 15.4215,-3.38201 27.31004,-2.03058 5.69389,0.64486 12.19039,1.3926 18.8927,1.53666 18.72123,0.10977 38.86933,-3.30656 51.29981,-8.73977 8.04004,-3.52608 13.18511,-5.84479 16.40249,-8.77406 1.15936,-0.95355 1.76992,-2.53823 2.38733,-4.19151 l 0.42532,-1.11134 c 0.52136,-1.33086 1.26912,-4.19838 1.60526,-5.76248 0.15092,-0.68601 0.22639,-1.42004 -0.26069,-1.80421 l -1.7356,0.32929 c -5.45378,3.27227 -19.08479,9.50123 -31.85143,9.75506 -15.82625,0.33614 -47.71884,-15.92914 -51.04598,-17.64416 l -0.32242,-0.39104 c -0.80263,-1.90711 -5.5704,-13.23312 -6.5857,-15.62045 22.96076,15.11966 41.99066,23.48212 56.57522,24.78554 16.21728,1.44062 28.8673,-7.41577 34.27992,-11.19567 1.05644,-0.72032 1.85907,-1.28971 2.19522,-1.40632 l 0.35672,-0.58997 c -0.89867,-5.70761 -9.40519,-33.2852 -15.81939,-39.91205 -1.77676,-1.81793 -3.18308,-3.58097 -6.05745,-5.27542 -23.18713,-13.51438 -78.25312,-21.65732 -80.83252,-22.02776 l -0.42533,0.13028 -0.16465,0.35674 c 0,0 -0.20579,11.43577 -0.23323,12.70489 -1.88653,-0.62427 -7.74505,-2.5451 -16.13495,-4.84323 10.94871,-13.5487 27.72851,-25.56759 57.09658,-25.56759 z m 20.23042,40.53632 c 0.39103,-0.006 0.78892,-0.0136 1.17995,0 12.99302,0.46647 23.20085,11.40835 22.75493,24.38765 -0.23324,6.28384 -2.88123,12.08748 -7.46377,16.37503 -4.59628,4.30815 -10.57828,6.5514 -16.89642,6.35247 -12.9656,-0.48708 -23.17342,-11.42894 -22.75496,-24.39451 0.2264,-6.29072 2.88812,-12.12866 7.4981,-16.40249 4.30815,-4.0406 9.82365,-6.22898 15.68217,-6.31815 z m -0.6174,6.94242 c -3.78678,0.22637 -7.35402,1.76303 -10.15295,4.3836 -3.18308,2.991 -5.06274,7.03845 -5.20681,11.42891 -0.29499,9.0622 6.79836,16.69062 15.84684,17.02676 4.40417,0.13042 8.57511,-1.40631 11.78562,-4.39047 3.20367,-3.0047 5.06962,-7.09333 5.20683,-11.45634 0.3087,-9.07591 -6.81894,-16.67691 -15.87426,-16.99246 -0.54881,-0.0207 -1.06332,-0.0343 -1.60527,0 z m 4.32185,8.21839 c 4.02003,0 7.26486,2.18152 7.26486,4.87753 0,2.67543 -3.24483,4.87753 -7.26486,4.87753 -4.04059,0 -7.30599,-2.20896 -7.30599,-4.87753 0,-2.69601 3.2654,-4.87753 7.30599,-4.87753 z"
     style="clip-rule:evenodd;fill:#ffffff;fill-opacity:1;fill-rule:nonzero;stroke-width:6.86009645;stroke-linejoin:round;stroke-miterlimit:2"
     id="path10" />
</svg>
