<?xml version="1.0" encoding="UTF-8" standalone="no"?>
<svg
   xmlns:dc="http://purl.org/dc/elements/1.1/"
   xmlns:cc="http://creativecommons.org/ns#"
   xmlns:rdf="http://www.w3.org/1999/02/22-rdf-syntax-ns#"
   xmlns:svg="http://www.w3.org/2000/svg"
   xmlns="http://www.w3.org/2000/svg"
   xmlns:xlink="http://www.w3.org/1999/xlink"
   xmlns:sodipodi="http://sodipodi.sourceforge.net/DTD/sodipodi-0.dtd"
   xmlns:inkscape="http://www.inkscape.org/namespaces/inkscape"
   width="512"
   height="512"
   viewBox="0 0 512 512"
   version="1.1"
   id="svg46"
   sodipodi:docname="application-rtf.svg"
   inkscape:version="0.92.5 (2060ec1f9f, 2020-04-08)">
  <metadata
     id="metadata50">
    <rdf:RDF>
      <cc:Work
         rdf:about="">
        <dc:format>image/svg+xml</dc:format>
        <dc:type
           rdf:resource="http://purl.org/dc/dcmitype/StillImage" />
        <dc:title></dc:title>
      </cc:Work>
    </rdf:RDF>
  </metadata>
  <sodipodi:namedview
     pagecolor="#ffffff"
     bordercolor="#666666"
     borderopacity="1"
     objecttolerance="10"
     gridtolerance="10"
     guidetolerance="10"
     inkscape:pageopacity="0"
     inkscape:pageshadow="2"
     inkscape:window-width="1908"
     inkscape:window-height="1031"
     id="namedview48"
     showgrid="false"
     inkscape:zoom="0.4609375"
     inkscape:cx="-132.33898"
     inkscape:cy="256"
     inkscape:window-x="1924"
     inkscape:window-y="8"
     inkscape:window-maximized="0"
     inkscape:current-layer="svg46" />
  <defs
     id="defs30">
    <linearGradient
       id="text-x-markdown-c"
       x1="50%"
       x2="50%"
       y1="0%"
       y2="99.203%">
      <stop
         offset="0%"
         stop-color="#969BEB"
         id="stop2" />
      <stop
         offset="100%"
         stop-color="#6B7ABD"
         id="stop4" />
    </linearGradient>
    <path
       id="text-x-markdown-b"
       d="M232,0 L336,104 L336,380 C336,399.882251 319.882251,416 300,416 L36,416 C16.117749,416 2.4348735e-15,399.882251 0,380 L0,36 C-2.4348735e-15,16.117749 16.117749,3.65231026e-15 36,0 L232,0 Z" />
    <filter
       id="text-x-markdown-a"
       width="127.4%"
       height="122.1%"
       x="-13.7%"
       y="-9.1%"
       filterUnits="objectBoundingBox">
      <feOffset
         dy="8"
         in="SourceAlpha"
         result="shadowOffsetOuter1"
         id="feOffset8" />
      <feGaussianBlur
         in="shadowOffsetOuter1"
         result="shadowBlurOuter1"
         stdDeviation="14"
         id="feGaussianBlur10" />
      <feColorMatrix
         in="shadowBlurOuter1"
         values="0 0 0 0 0.412487457   0 0 0 0 0.432348264   0 0 0 0 0.759369339  0 0 0 0.5 0"
         id="feColorMatrix12" />
    </filter>
    <linearGradient
       id="text-x-markdown-f"
       x1="50%"
       x2="7.994%"
       y1="50%"
       y2="88.893%">
      <stop
         offset="0%"
         stop-color="#FFF"
         stop-opacity=".1"
         id="stop15" />
      <stop
         offset="100%"
         stop-color="#FFF"
         stop-opacity=".3"
         id="stop17" />
    </linearGradient>
    <path
       id="text-x-markdown-e"
       d="M232,0 L336,104 L268,104 C248.117749,104 232,87.882251 232,68 L232,0 Z" />
    <filter
       id="text-x-markdown-d"
       width="126.9%"
       height="126.9%"
       x="-13.5%"
       y="-9.6%"
       filterUnits="objectBoundingBox">
      <feOffset
         dy="4"
         in="SourceAlpha"
         result="shadowOffsetOuter1"
         id="feOffset21" />
      <feGaussianBlur
         in="shadowOffsetOuter1"
         result="shadowBlurOuter1"
         stdDeviation="4"
         id="feGaussianBlur23" />
      <feComposite
         in="shadowBlurOuter1"
         in2="SourceAlpha"
         operator="out"
         result="shadowBlurOuter1"
         id="feComposite25" />
      <feColorMatrix
         in="shadowBlurOuter1"
         values="0 0 0 0 0   0 0 0 0 0   0 0 0 0 0  0 0 0 0.05 0"
         id="feColorMatrix27" />
    </filter>
  </defs>
  <g
     fill="none"
     fill-rule="evenodd"
     id="g44">
    <g
       transform="translate(88 56)"
       id="g40">
      <use
         fill="#000"
         filter="url(#text-x-markdown-a)"
         xlink:href="#text-x-markdown-b"
         id="use32" />
      <use
         fill="url(#text-x-markdown-c)"
         xlink:href="#text-x-markdown-b"
         id="use34" />
      <use
         fill="#000"
         filter="url(#text-x-markdown-d)"
         xlink:href="#text-x-markdown-e"
         id="use36" />
      <use
         fill="url(#text-x-markdown-f)"
         xlink:href="#text-x-markdown-e"
         id="use38" />
    </g>
  </g>
  <path
     inkscape:connector-curvature="0"
     d="m 252.28826,214.53838 -58.92323,75.42346 c -11.04542,14.141 -7.957,39.33459 6.18401,50.38001 14.141,11.05258 39.33459,7.95699 50.38001,-6.18401 l 58.93039,-75.42345 7.36362,-9.42973 c 7.36361,-9.42256 5.30466,-26.2159 -4.12506,-33.58667 -9.42257,-7.36362 -26.22306,-5.30467 -33.58668,4.12506 l -7.36361,9.42972 -44.196,56.56401 -7.36362,9.42972 c -3.68181,4.71129 -2.65234,13.11153 2.05895,16.79334 4.71843,3.68181 13.11153,2.65234 16.79334,-2.05895 L 290,244 l 9.42972,7.37077 -51.55962,65.99373 c -7.36361,9.42973 -24.15695,11.48868 -33.58667,4.12506 -9.42973,-7.37077 -11.48868,-24.1641 -4.12506,-33.58667 l 7.36361,-9.42972 51.55962,-65.99374 c 11.05258,-14.14101 36.23902,-17.23659 50.38717,-6.18401 14.141,11.04542 17.22943,36.239 6.18401,50.38001 l -7.36363,9.42257 -58.93037,75.42346 c -14.73439,18.85944 -48.32107,22.9845 -67.17336,8.25011 -18.85944,-14.73438 -22.97734,-48.32106 -8.25011,-67.17335 l 58.93039,-75.42345 z"
     style="clip-rule:evenodd;fill:#ffffff;fill-opacity:1;fill-rule:nonzero;stroke-width:7.14914274;stroke-linejoin:round;stroke-miterlimit:2"
     id="path8" />
</svg>
