<?xml version="1.0" encoding="UTF-8" standalone="no"?>
<svg
   xmlns:dc="http://purl.org/dc/elements/1.1/"
   xmlns:cc="http://creativecommons.org/ns#"
   xmlns:rdf="http://www.w3.org/1999/02/22-rdf-syntax-ns#"
   xmlns:svg="http://www.w3.org/2000/svg"
   xmlns="http://www.w3.org/2000/svg"
   xmlns:xlink="http://www.w3.org/1999/xlink"
   xmlns:sodipodi="http://sodipodi.sourceforge.net/DTD/sodipodi-0.dtd"
   xmlns:inkscape="http://www.inkscape.org/namespaces/inkscape"
   width="512"
   height="512"
   viewBox="0 0 512 512"
   version="1.1"
   id="svg46"
   sodipodi:docname="application-web-template.svg"
   inkscape:version="0.92.5 (2060ec1f9f, 2020-04-08)">
  <metadata
     id="metadata50">
    <rdf:RDF>
      <cc:Work
         rdf:about="">
        <dc:format>image/svg+xml</dc:format>
        <dc:type
           rdf:resource="http://purl.org/dc/dcmitype/StillImage" />
        <dc:title></dc:title>
      </cc:Work>
    </rdf:RDF>
  </metadata>
  <sodipodi:namedview
     pagecolor="#ffffff"
     bordercolor="#666666"
     borderopacity="1"
     objecttolerance="10"
     gridtolerance="10"
     guidetolerance="10"
     inkscape:pageopacity="0"
     inkscape:pageshadow="2"
     inkscape:window-width="1908"
     inkscape:window-height="1031"
     id="namedview48"
     showgrid="false"
     inkscape:zoom="0.4609375"
     inkscape:cx="-520.67796"
     inkscape:cy="256"
     inkscape:window-x="1924"
     inkscape:window-y="8"
     inkscape:window-maximized="0"
     inkscape:current-layer="svg46" />
  <defs
     id="defs30">
    <linearGradient
       id="application-vnd.oasis.opendocument.formula-c"
       x1="50%"
       x2="50%"
       y1="0%"
       y2="100%">
      <stop
         offset="0%"
         stop-color="#9BAAC1"
         id="stop2" />
      <stop
         offset="100%"
         stop-color="#779DB2"
         id="stop4" />
    </linearGradient>
    <path
       id="application-vnd.oasis.opendocument.formula-b"
       d="M232,0 L336,104 L336,380 C336,399.882251 319.882251,416 300,416 L36,416 C16.117749,416 2.4348735e-15,399.882251 0,380 L0,36 C-2.4348735e-15,16.117749 16.117749,3.65231026e-15 36,0 L232,0 Z" />
    <filter
       id="application-vnd.oasis.opendocument.formula-a"
       width="127.4%"
       height="122.1%"
       x="-13.7%"
       y="-9.1%"
       filterUnits="objectBoundingBox">
      <feOffset
         dy="8"
         in="SourceAlpha"
         result="shadowOffsetOuter1"
         id="feOffset8" />
      <feGaussianBlur
         in="shadowOffsetOuter1"
         result="shadowBlurOuter1"
         stdDeviation="14"
         id="feGaussianBlur10" />
      <feColorMatrix
         in="shadowBlurOuter1"
         values="0 0 0 0 0.474509804   0 0 0 0 0.619607843   0 0 0 0 0.701960784  0 0 0 0.5 0"
         id="feColorMatrix12" />
    </filter>
    <linearGradient
       id="application-vnd.oasis.opendocument.formula-f"
       x1="50%"
       x2="7.994%"
       y1="50%"
       y2="88.893%">
      <stop
         offset="0%"
         stop-color="#FFF"
         stop-opacity=".1"
         id="stop15" />
      <stop
         offset="100%"
         stop-color="#FFF"
         stop-opacity=".3"
         id="stop17" />
    </linearGradient>
    <path
       id="application-vnd.oasis.opendocument.formula-e"
       d="M232,0 L336,104 L268,104 C248.117749,104 232,87.882251 232,68 L232,0 Z" />
    <filter
       id="application-vnd.oasis.opendocument.formula-d"
       width="126.9%"
       height="126.9%"
       x="-13.5%"
       y="-9.6%"
       filterUnits="objectBoundingBox">
      <feOffset
         dy="4"
         in="SourceAlpha"
         result="shadowOffsetOuter1"
         id="feOffset21" />
      <feGaussianBlur
         in="shadowOffsetOuter1"
         result="shadowBlurOuter1"
         stdDeviation="4"
         id="feGaussianBlur23" />
      <feComposite
         in="shadowBlurOuter1"
         in2="SourceAlpha"
         operator="out"
         result="shadowBlurOuter1"
         id="feComposite25" />
      <feColorMatrix
         in="shadowBlurOuter1"
         values="0 0 0 0 0   0 0 0 0 0   0 0 0 0 0  0 0 0 0.05 0"
         id="feColorMatrix27" />
    </filter>
  </defs>
  <g
     id="g44"
     fill-rule="evenodd"
     fill="none">
    <g
       transform="translate(88 56)"
       id="g40">
      <use
         xlink:href="#application-vnd.oasis.opendocument.formula-b"
         id="use32"
         filter="url(#application-vnd.oasis.opendocument.formula-a)"
         fill="#000" />
      <use
         xlink:href="#application-vnd.oasis.opendocument.formula-b"
         id="use34"
         fill="url(#application-vnd.oasis.opendocument.formula-c)" />
      <use
         xlink:href="#application-vnd.oasis.opendocument.formula-e"
         id="use36"
         filter="url(#application-vnd.oasis.opendocument.formula-d)"
         fill="#000" />
      <use
         xlink:href="#application-vnd.oasis.opendocument.formula-e"
         id="use38"
         fill="url(#application-vnd.oasis.opendocument.formula-f)" />
    </g>
  </g>
  <path
     inkscape:connector-curvature="0"
     d="m 254.90259,194.93319 c -51.1652,0 -92.35594,41.19074 -92.35594,92.35592 0,51.1652 41.19074,92.35594 92.35594,92.35594 51.16519,0 92.35592,-41.19074 92.35592,-92.35594 0,-51.16518 -41.19073,-92.35592 -92.35592,-92.35592 z m 0,8.39599 c 13.95413,0 27.05188,3.42556 38.60478,9.39512 0.0336,0.33584 0.0252,0.57932 0,0.94875 0.48697,0.21829 0.76402,1.12506 1.58683,1.57845 0.30225,0.16791 0.50377,0.24348 0.78923,0.3946 0.48696,0.26867 0.88997,0.70526 0.78922,1.17545 -0.13433,0.68847 -1.10827,0.66328 -1.57845,1.16704 0.0671,0.97394 -0.53733,0.94035 -0.78922,1.59523 0.15113,0.4198 0.72206,0.27707 0.78922,0.78083 -0.0839,0.53735 -0.99072,0.61291 -0.78922,1.16705 0.90677,0.70526 1.8975,0.11754 2.75389,0 1.8807,-0.2351 3.5515,0.11754 4.71016,-0.78922 -0.15114,-0.88998 1.28458,-1.15866 1.18383,-1.96467 -0.0839,-0.60451 -1.12507,-0.74725 -1.57845,-1.16704 -0.10075,-0.0924 -0.2267,-0.32745 -0.34424,-0.50376 1.38535,0.90677 2.71192,1.8975 4.03847,2.87982 -0.32744,0.26867 -0.59611,0.60451 -0.94035,0.75565 -0.35263,0.15112 -0.85639,0.1931 -1.17543,0.39461 -0.47018,0.31904 -0.64649,0.8144 -1.18383,1.16704 -0.38622,0.26868 -1.56166,1.17543 -1.96467,1.17543 -0.48697,0 -1.22581,-0.49536 -1.57845,-0.37782 -0.50377,0.15113 -0.21829,0.96555 -0.78923,1.16705 -1.10827,0.40301 -3.14849,-0.87318 -3.53471,0.78923 0.47018,0.95714 1.91429,0.66328 2.75389,1.17544 0.52055,0.33584 1.43571,1.79673 1.57005,2.36766 0.13434,0.47018 0.2015,2.25013 0,2.75389 -0.52054,1.34335 -1.99824,1.20902 -3.54311,1.17544 -0.4198,0 -0.78922,0.0335 -1.17543,0 -2.60276,-0.16791 -5.10477,-1.07469 -6.28021,0.78922 0.0839,1.42732 0.31905,2.3005 0,3.54311 -0.23509,0.90677 -1.23421,1.57005 -1.18384,2.35928 0.0167,0.403 0.68847,1.0243 0.78924,1.57845 0.0671,0.30225 -0.13434,0.91516 0,1.17543 0.43658,0.82282 1.58683,-0.12593 2.35926,0 0.73885,0.11755 1.58685,1.15026 1.58685,1.97307 0,0.58771 -0.4282,1.78833 -0.79762,2.35926 -0.73885,1.10828 -2.09061,0.97394 -3.14849,1.57846 -0.87319,0.50375 -1.05791,1.50287 -1.57846,2.37606 -0.55413,0.94035 -1.00751,1.41052 -0.78921,2.75388 -0.75565,1.49449 -1.59525,2.42644 -3.15691,3.1485 -0.45338,0.20151 -1.15864,0.48697 -1.57844,0.78923 -0.33585,0.23508 -0.71365,0.63809 -1.18384,1.17543 -0.58772,0.6549 -1.251,1.07469 -1.57005,1.57845 -0.23508,0.38621 -0.14273,1.04951 -0.39461,1.57005 -0.36942,0.70526 -1.09988,1.26779 -1.57006,1.97306 -0.21829,0.33584 -0.55412,0.73885 -0.78921,1.17544 -0.53735,0.97394 -1.28459,1.89749 -1.18385,2.75389 0.0839,0.82281 1.13347,0.85638 1.18385,1.57844 0.0503,0.403 -0.41141,0.73045 -0.39462,1.16704 0.0167,0.63811 0.34424,1.08309 0.39462,1.58685 0.11754,1.2426 -0.55414,1.50288 -0.78923,2.35927 -0.11754,0.40301 0.10075,0.86479 0,1.18384 -0.2015,0.6213 -1.16704,1.20902 -1.18383,1.94787 -0.0168,0.52054 0.73884,0.85639 0.78921,1.59524 0.0336,0.50376 -0.47856,1.09987 -0.37781,1.57004 0.18471,0.90678 2.04862,2.04862 2.75389,2.75389 0.95714,0.95714 1.94787,1.75477 2.36766,2.76229 0.35264,0.85638 0.52056,2.11579 1.17545,2.75388 0.48696,0.47018 1.35175,0.67169 1.97305,1.15865 0.58773,0.45338 1.32657,0.69686 1.94788,1.18383 1.02431,0.80601 2.30889,2.47682 3.93772,2.35928 0.85638,-0.0671 1.79674,-0.62131 2.75388,-0.78923 0.99073,-0.16791 2.14098,-0.47017 3.1485,-0.36942 0.77243,0.0839 1.57005,0.4198 2.37606,0.36942 0.83961,-0.0503 1.79675,-0.36103 2.7539,-0.78083 1.6624,-0.72204 4.25676,-1.93108 6.67481,-1.57844 1.84712,0.26868 1.87231,2.32569 3.16528,3.1485 1.4777,0.13434 2.7455,-0.28547 3.92094,0 0.88997,0.2183 1.88071,1.6708 1.96466,2.37607 0.0839,0.72205 -0.68008,1.50287 -0.78083,1.95626 -0.23508,0.97393 -0.22669,2.13259 -0.39461,2.75388 -0.13434,0.48697 -0.39462,1.09148 -0.37782,1.57005 0,0.4366 0.72206,1.40215 1.17543,1.97307 0.55415,0.70526 1.2846,1.19223 1.95627,1.96466 1.22583,1.41053 1.8975,3.25765 2.7539,5.12156 0.21828,0.47017 -0.20151,0.58772 0,1.17544 -0.36944,2.82105 -1.30139,4.75213 -3.1485,7.87544 -0.87319,1.00751 -1.98147,2.28371 -1.96467,3.54311 -0.0671,3.01416 1.70439,4.53384 1.57005,7.45564 -0.30225,3.92932 -0.0755,4.59261 -0.37782,6.6916 1.32657,0.67168 0.76404,2.5272 0.37782,3.92093 -0.57092,1.66242 -1.251,2.05702 -1.57005,3.16529 1.0327,0.45339 2.17457,0.33584 3.34161,0.0503 -15.2975,16.30503 -37.00954,26.51455 -61.23198,26.51455 -10.31029,0 -20.1336,-1.93107 -29.23486,-5.29787 -0.33584,-0.13433 -0.70526,-0.20989 -1.0327,-0.39461 -0.52056,-0.30226 -0.85639,-0.93197 -0.78923,-1.57005 0.87319,-0.36942 2.5272,0.8312 3.1653,-0.39462 0.31904,-0.58771 -0.4198,-1.77154 0,-2.35927 0.30225,-0.403 2.13257,-0.68847 2.75388,-0.78922 0.88997,-0.15112 1.85551,-0.0755 2.35927,-0.39461 0.55414,-0.35264 1.28459,-1.31818 1.18384,-2.35927 -0.0504,-0.48698 -0.403,-0.74725 -0.78922,-1.18384 -0.31905,-0.36943 -0.17631,-0.83121 -0.39462,-1.16704 -0.40301,-0.57933 -1.01591,-0.71366 -1.18384,-1.57005 1.20903,-0.2351 2.98058,1.27619 4.72695,0.78923 0.8228,-0.23509 1.97306,-1.98148 2.35928,-2.7539 0.11754,-0.23508 -0.13434,-0.89837 0,-1.18383 0.15113,-0.31905 0.75563,-0.6213 0.80601,-0.78923 0.11754,-0.45338 -0.10075,-0.50376 0,-0.78922 0.30226,-0.848 1.06629,-1.34335 1.57005,-1.96466 0.38621,-0.47018 0.8312,-1.08309 1.18384,-1.57006 0.403,-0.52055 0.52055,-0.73045 0.78922,-1.18382 0.25188,-1.52807 -0.76404,-2.57758 -0.39461,-3.92094 0.403,-1.51128 2.47682,-2.47682 3.93773,-3.16529 0.50375,-0.23508 1.15025,-0.63809 1.57004,-0.78922 1.00752,-0.34423 2.20815,-0.44499 3.1485,-0.78083 1.57845,-0.57093 1.98146,-2.09899 2.75388,-3.54311 0.36943,-0.67168 0.73884,-1.48609 0.80602,-1.97306 0.0671,-0.42819 -0.0839,-0.65488 0,-1.15864 0.084,-0.50376 0.24349,-1.04111 0.37782,-1.59524 0.18471,-0.72206 0.39461,-1.93108 0.39461,-2.7371 0,-0.67168 -0.37782,-0.98232 -0.39461,-1.58684 -0.11755,-2.18296 0.76403,-2.35088 1.57005,-3.54311 0.40301,-0.58772 0.50376,-1.53647 0.78923,-1.95627 1.36015,-2.00663 3.71102,-2.86303 3.54311,-5.91917 -0.0671,-1.00752 -0.4282,-3.22406 -1.16705,-3.54311 -0.4198,-0.17632 -1.34335,-0.13433 -1.96466,-0.36943 -1.98145,-0.73884 -3.44236,-2.99737 -5.50777,-3.16528 -0.4366,-0.0168 -0.69687,0.0167 -1.18385,0 -0.80601,-0.0168 -1.83031,-0.68847 -2.73708,-0.78923 -0.57093,-0.0671 -1.62883,0.16792 -1.96467,0 -0.52055,-0.25189 -0.36942,-1.29298 -0.78922,-1.57844 -0.33584,-0.23509 -1.07468,-0.2099 -1.59523,-0.38622 -0.82281,-0.31904 -1.40214,-0.72205 -2.35929,-0.78922 -0.30226,-0.0168 -0.83959,0.0503 -1.17543,0 -0.52055,-0.0839 -1.09147,-0.48697 -1.57845,-0.78923 -0.60451,-0.36942 -0.93196,-0.64649 -1.18383,-1.16703 0.55413,-1.81355 -1.20063,-2.1074 -1.57006,-3.1653 -0.16791,-0.48696 0.16793,-1.13345 0,-1.57005 -0.2183,-0.62131 -0.88997,-1.05789 -1.57844,-1.57844 -1.20903,-0.94035 -2.19975,-1.74638 -3.92933,-1.96467 -0.77243,-0.0839 -1.83872,0.0671 -2.75388,0 -0.97394,-0.0671 -2.02343,-0.73884 -2.76228,-1.57005 -0.70527,-0.82281 -0.94875,-1.58684 -1.57006,-1.97306 -0.58772,-0.36943 -1.56165,-0.403 -1.96465,-0.78922 -0.18472,-0.16793 -0.20991,-0.39461 -0.37783,-0.78083 -0.30225,-0.60451 -0.76404,-0.85638 -0.39461,-1.59524 -0.67169,-0.33584 -0.44498,0.52895 -1.16704,0.39462 -0.6549,-0.92356 -1.27618,-1.4693 -2.75389,-1.18384 -0.67168,0.13433 -1.17544,1.16705 -1.96466,1.18384 -0.65489,0.0167 -1.11666,-1.06629 -1.97307,-1.18384 -0.65488,-0.0839 -1.51127,0.49536 -1.96464,0.39461 -0.72207,-0.13433 -0.92358,-0.73885 -1.57846,-1.17544 -0.48696,-0.31905 -1.30138,-1.18383 -1.57004,-1.16704 -0.83961,0.0168 -1.59525,1.78835 -2.7539,1.16704 -0.57092,-0.72206 1.0495,-0.90676 0.37782,-1.57844 -0.50376,-0.50377 -0.76403,0.12593 -1.16704,0.39461 -0.47017,0.31904 -1.05789,0.60451 -1.57844,0.78922 -1.15866,0.43658 -1.84712,0.31904 -2.75389,0.78922 -0.8396,0.4366 -1.09988,1.10828 -1.58684,1.96466 -0.38622,0.70527 -0.99073,1.91429 -1.57845,1.94788 -0.70526,0.0503 -1.32657,-0.88998 -1.96466,-1.15865 -1.93107,-0.83959 -3.11492,0.36103 -4.71016,0.37782 -1.47769,0.0167 -3.60187,-2.14938 -3.53471,-3.54311 0.0503,-0.8564 0.68008,-2.0906 0.78083,-3.1485 0.0839,-0.83959 0.77243,-1.61204 0.78923,-2.38446 0.0167,-1.01591 -1.7044,-1.83034 -2.37607,-1.94787 -1.57845,-0.28546 -3.69424,0.70526 -5.49098,0 -0.33585,-0.57093 0.57932,-1.03272 0.78083,-1.58684 0.11753,-0.31906 -0.11755,-0.4366 0,-0.78923 0.2015,-0.53734 0.91516,-1.00752 1.16704,-1.57844 0.18471,-0.4366 0.2099,-1.03271 0.39461,-1.57006 0.2183,-0.60451 0.73885,-1.14185 0.78922,-1.57844 0.0671,-0.57093 -0.33584,-1.21742 -0.78922,-1.58685 -1.39374,0.0839 -2.35928,0.0252 -3.16529,0.39462 -1.81354,0.8228 -1.31817,3.36679 -3.1485,3.93772 -0.62131,0.2015 -1.65401,0.25188 -2.35928,0.36942 -0.31064,0.0671 -0.66328,0.11755 -1.00752,0.20151 1.17545,-6.09549 2.98898,-11.95589 5.39863,-17.49725 0.40301,0 0.82281,-0.0588 1.09987,0 0.6381,0.11754 1.03271,0.73885 1.58685,0.78922 1.54485,0.11754 1.8723,-1.30138 3.1485,-1.97306 1.30977,0.18471 1.97306,-0.13433 3.16528,0 0.80603,0.0839 1.72958,1.13346 2.36767,1.18384 0.53735,0.0168 0.67168,-0.47858 1.17544,-0.39463 0.50376,0.084 1.49449,0.97395 1.57845,1.57847 0.0839,0.75563 -0.61291,1.53646 -0.3946,2.37606 0.78921,0.80601 2.41804,1.09987 3.5431,1.57005 0.73885,-0.60452 0.11754,-1.88071 0,-2.75389 -0.0167,-0.38621 0.0504,-0.83119 0,-1.18384 -0.084,-0.5961 -0.37782,-1.0495 -0.37782,-1.57005 0,-2.40125 1.93108,-3.39197 3.5431,-4.33232 0.68848,-0.40301 1.36016,-1.2678 1.96467,-1.57006 0.85639,-0.4198 1.2594,-0.38622 1.96467,-0.78922 1.27619,-0.72206 2.55237,-1.55326 3.5431,-2.37607 0.45339,-1.09148 -0.0503,-2.46841 0,-3.54312 0.45339,-0.28546 0.68007,0.0504 1.16704,0 0.77244,-0.16791 1.15026,-1.13345 1.58685,-1.57004 0.25188,-0.25188 0.86479,-0.53735 1.16704,-0.78922 0.77243,-0.60451 0.90677,-1.30978 1.57845,-1.57845 0.23509,-0.0839 0.80601,-0.29386 1.17544,-0.3946 0.50376,-0.13435 1.16703,-0.49537 1.97306,-0.78084 0.52055,-0.18471 1.76316,-0.17631 1.96466,-0.37783 0.25188,-0.25186 -0.0671,-1.20901 0,-1.59523 0.403,-1.8975 3.41717,-2.099 5.11316,-2.73708 1.17544,-0.45339 2.23334,-1.42733 3.54311,-1.17545 -0.25188,0.89837 -1.39374,0.87319 -1.17544,1.96467 0.28547,1.52806 2.21655,-0.57093 2.75389,-0.78922 1.02431,-0.4366 2.98058,-0.69688 4.32393,-1.17545 1.17544,-0.4198 3.08133,-1.00752 1.97306,-2.36767 -0.92355,-0.0671 -1.16704,0.8312 -1.97306,1.16704 -0.55413,0.0839 -0.68846,-0.34424 -1.15865,-0.37781 -0.45338,-0.0167 -0.73045,0.46177 -1.18383,0.37781 -0.45338,-0.0839 -1.11667,-1.04111 -1.18384,-1.57844 -0.1847,-1.41052 1.40215,-1.71278 1.97307,-2.75389 -0.38622,-1.27619 -2.07382,-0.27706 -3.1485,-0.78082 0.11754,-0.75565 0.68007,-1.42733 1.57005,-1.57846 0.72205,-0.11753 2.31729,0.0252 2.75388,0.37782 0.25189,0.2183 -0.009,0.83121 0.37782,1.18384 0.4366,0.38622 1.02432,0.0839 1.59524,0 0.20151,-0.95714 -1.35175,-0.56253 -1.18384,-1.18384 1.14186,-0.73885 3.33322,-0.1931 4.72695,-0.37782 0.80601,-0.11753 1.63723,-0.79761 2.35927,-1.18383 0.67169,-0.38621 1.25941,-1.00751 1.96467,-0.36942 0.20151,0.68008 -0.403,1.21742 -0.78083,1.57005 -1.29298,1.14185 -2.53559,2.21654 -3.54311,3.54311 0.6213,0.60451 1.71278,0.26028 2.75389,0.37781 0.40301,0.0503 0.73885,0.32745 1.15864,0.39462 0.50377,0.0839 1.19223,-0.0839 1.59524,0 0.70526,0.16791 0.86479,1.17543 1.57005,1.17543 1.14187,0 1.03271,-1.19222 0.37783,-1.96465 0.2015,-0.78923 0.68007,-1.41053 0.3946,-1.96466 -0.52054,-1.04111 -2.65313,0.14272 -2.75388,-1.18384 -0.0671,-0.8396 0.88158,-0.94035 1.18383,-1.57845 -0.13433,-1.61203 1.32657,-1.68759 1.15866,-3.1485 -0.0839,-0.6045 -0.73886,-0.6045 -1.15866,-1.17545 -0.21829,-0.30225 -0.14272,-0.96552 -0.39461,-1.18382 -0.87318,-0.73885 -2.65313,-0.53735 -2.75389,-1.94788 -0.0503,-0.83959 0.11755,-1.4693 0,-2.37605 -0.11754,-0.85641 -0.83959,-3.3752 -1.57844,-3.54312 -0.94035,-0.20151 -1.62881,1.44412 -2.75388,1.96467 -0.60452,0.28546 -1.73797,0.51215 -2.35929,0.3946 -0.403,-0.0839 -1.13345,-0.41139 -1.18383,-1.18383 -0.0839,-0.88997 0.6213,-1.02432 0.78923,-1.96466 7.22895,-2.02343 14.83572,-3.18208 22.72796,-3.18208 z m -33.86105,7.11981 c -0.24348,3.45075 -3.32481,5.2391 -6.95188,5.14674 -0.77244,0.73884 -0.36942,2.12418 -0.78922,3.1485 -0.35264,0.85638 -1.50289,1.65401 -2.35928,1.58683 -0.6213,-0.0503 -1.57845,-0.99911 -1.57845,-1.58683 0,-0.72206 0.99913,-1.13346 0.37782,-1.94788 0.0252,-0.17631 0.25188,-0.35262 0.4282,-0.52894 3.46754,-2.18296 7.07782,-4.15603 10.87281,-5.81842 z m 70.08135,3.99649 c -0.30225,0.0588 -0.47856,0.2183 -0.74723,0.37782 -0.6381,0.38621 -0.69687,0.99912 -1.18384,1.18383 -0.68846,0.25188 -1.47769,0.16792 -1.57844,0.78922 -0.084,0.51216 0.4114,0.68848 0.39461,1.15865 -0.25188,0.62132 -0.6465,0.82281 -0.78083,1.57845 0.85639,1.39374 2.85463,-0.0755 3.91253,-0.37782 0.47018,-0.13433 0.93196,-0.0252 1.18384,-0.39461 0.28547,-0.45339 0.15952,-1.31818 0.37782,-1.95627 0.23509,-0.70526 0.87318,-0.55413 0.78922,-1.17544 -0.0671,-0.6213 -1.32657,-1.28458 -2.36768,-1.18383 z m -91.91093,10.02482 c 0.81441,0.41139 2.19975,2.3089 0.6213,2.98057 -0.16792,0.0839 -2.35088,0.46178 -2.75389,0.37783 -0.31904,-0.0504 -0.59611,-0.34424 -0.86478,-0.63811 0.96554,-0.94035 1.98984,-1.83032 2.99737,-2.72029 z m 2.97218,3.753 c 0.403,0.0168 0.70526,0.75565 1.17545,0.78923 0.45337,0.0335 0.91516,-0.47857 1.18382,-0.39462 0.70526,0.18471 1.0495,1.44412 0.37782,1.96467 -0.55413,0.0671 -0.76404,-0.46178 -1.16704,-0.37782 -1.14185,0.2015 -1.51967,2.42644 -2.37607,2.35927 -0.80601,-0.0839 -1.20063,-1.77155 -0.37782,-2.35927 0.0167,-0.50377 -0.42819,-0.67168 -0.39461,-1.17545 0.25188,-0.31903 0.90677,-0.83959 1.57845,-0.78922 z m -3.92093,0.39461 c 0.23509,0 0.29386,-0.10074 0.37782,0 -0.11754,0.88997 -0.47858,1.16705 -1.16704,1.58685 -1.19224,0.72205 -1.98985,1.60363 -2.37607,3.1485 -0.11754,0.45337 -1.37694,1.69599 -1.94787,1.57844 -1.32657,-0.28546 0.47857,-2.76228 0.78082,-3.1485 0.33585,-0.4198 0.78083,-0.71365 1.16705,-1.18383 0.38622,-0.47017 0.4198,-1.30138 0.78922,-1.57006 0.40301,-0.28546 1.6708,-0.42819 2.37607,-0.3946 z m 118.78652,2.24174 c 0.52895,0.58772 1.08309,1.15865 1.59523,1.75476 -0.52893,-0.62131 -1.39372,-0.85639 -1.59523,-1.75476 z m -5.12995,0.16791 c 1.32656,-0.0839 2.14936,1.55326 2.75388,2.35927 0.50376,0.65489 1.93108,1.51129 2.75389,1.96468 0.47017,0.25187 1.05789,0.55412 1.57845,0.78922 1.09147,0.48696 3.09812,2.07381 3.1485,3.1485 0.0167,0.53733 -0.46178,1.09147 -0.37783,1.59523 0.82281,0.13434 1.55326,-1.15025 1.57005,-1.97306 0,-0.1931 -0.0671,-0.31065 -0.14273,-0.43659 2.37607,3.32481 4.51705,6.80915 6.38935,10.4782 -0.73885,0.2099 -1.36855,0.57092 -1.48609,1.29299 -0.16791,0.94034 0.62131,2.19135 -0.78922,2.35927 -0.88997,0.11754 -1.93947,-0.90676 -3.16528,-1.17545 -0.50377,-0.11753 -1.16706,0.13434 -1.57006,0 -0.92356,-0.31904 -0.78923,-1.40211 -1.57844,-1.95626 -0.45339,-0.31904 -1.65402,-0.70525 -2.37608,-0.78922 -0.45338,-0.0504 -0.69686,0.0671 -1.16703,0 -0.57094,-0.0671 -1.4945,-0.10914 -1.96467,-0.39461 -0.45338,-0.28546 -1.4609,-0.78923 -1.57845,-1.17544 -0.1847,-0.6213 1.13346,-1.43572 1.16705,-1.95627 0.0336,-0.403 -0.29386,-0.57093 -0.37782,-1.17545 -0.0671,-0.36941 0.0839,-0.94874 0,-1.18381 -0.11755,-0.4366 -0.89838,-0.77245 -1.58685,-0.78924 -0.60451,0 -1.05789,0.39461 -1.57844,0.39461 -0.73885,0.0168 -2.22494,-0.47857 -3.1485,-0.39461 -0.55414,0.0503 -1.0663,0.36104 -1.58684,0.39461 -1.4609,0.11755 -2.40125,-0.0839 -3.54311,0 -0.82281,0.0503 -2.37607,0.4366 -3.1485,0.78923 -0.38621,0.18471 -0.68008,0.53735 -1.18384,0.78921 -0.23508,0.11756 -0.48696,0.24349 -0.78922,0.37783 -0.47018,0.21831 -1.11666,0.68008 -1.57006,0.79762 -0.65488,0.16793 -1.56165,-0.0503 -2.75387,0 -0.85639,0.0504 -2.35088,-0.15113 -2.36768,-1.17545 -0.009,-1.56164 2.85464,-0.91515 4.33234,-1.18381 0.55414,-0.11756 0.90676,-0.78083 1.57845,-1.16706 0.31904,-0.18471 0.47856,-0.18471 0.78082,-0.38621 0.50376,-0.35263 1.49449,-1.17543 1.57844,-1.57844 0.0671,-0.36944 -0.42819,-0.91517 -0.37781,-1.18384 0.0671,-0.34423 0.71366,-0.70527 1.16705,-1.15865 0.70526,-0.70526 1.09147,-1.51968 1.96466,-1.97305 0.58771,-0.31906 1.69598,-0.31066 1.96465,-0.78083 0.0671,-0.53735 -0.0167,-0.69687 0,-1.18385 0.36944,-0.33582 0.48697,-0.72204 0.78923,-0.78921 0.90677,-0.20151 1.69598,0.42819 2.75389,0.37782 0.45338,-0.0168 1.09148,-0.0588 1.57844,-0.37782 0.40301,-0.26868 0.77243,-0.57932 1.17544,-0.78083 0.4366,-0.23509 0.6465,-0.75564 1.18384,-0.78923 z m -105.06747,0.80602 h 0.0168 c 0.38622,-0.0168 0.76403,0 1.18384,0 0.4198,0 0.99912,-0.16792 1.16703,0 -0.26866,1.09988 -2.66991,0.77243 -3.54311,0.36943 0.0504,-0.41981 0.63811,-0.31905 1.17545,-0.36943 z m 111.79265,0.79762 c 0.47858,0.56253 0.97394,1.09987 1.44413,1.6708 -0.0839,-0.042 -0.19312,-0.0588 -0.26869,-0.10915 -0.46177,-0.36942 -0.71365,-0.99072 -1.17544,-1.56165 z m -115.72197,1.16705 c 0.28546,0 0.49536,-0.11754 0.79762,0 -0.77244,0.65488 -1.82194,1.15025 -3.16529,1.57005 -0.6381,0.2015 -1.45251,0.31065 -1.57006,-0.38622 -0.13433,-0.87319 0.60451,-0.70527 1.17544,-0.78923 0.73885,-0.0839 1.8891,-0.36102 2.74549,-0.37781 z m 109.3914,0.0168 c -0.55414,0.18472 -0.8228,1.41893 0,1.57005 0.38622,-0.23508 0.49536,-0.86478 0.39461,-1.57005 -0.21829,-0.23508 -0.22669,-0.0671 -0.39461,0 z m -0.37782,2.35927 c -0.26867,0.0839 -0.50376,0.0755 -0.78922,0.37782 0.0167,0.94036 0.18471,1.55326 0,2.37607 0.53734,1.04111 1.68759,0.31065 1.95627,-0.39461 0.31904,-1.74637 -0.36103,-2.57756 -1.16705,-2.35928 z m 7.46404,4.72695 c -0.73885,-0.0336 -1.51968,0.0168 -1.95626,0.37781 0.62129,0.99913 1.75476,1.31819 3.14849,1.57006 0.50376,-0.36942 0.55413,-1.30978 0.78923,-1.94787 -0.60452,0 -1.22582,0.0336 -1.96467,0 z m -147.5428,34.5831 c 0.94875,0.85639 1.61203,2.2921 2.74549,2.85463 0.4198,0.2183 1.03271,0.26868 1.57005,0.38623 0.43659,0.0839 0.76404,0.24347 1.18384,0.37781 0.88997,0.30225 2.04862,0.48698 2.75389,0.80601 1.07468,0.47018 1.83031,2.19976 2.75388,2.73711 0.0504,0.53734 -0.16792,1.19222 0,1.59523 0.4366,0.58772 1.25941,0.77243 1.96466,1.15865 0.85639,0.47017 1.15026,1.60363 1.95627,1.97305 0.28546,0.11755 0.73884,-0.13433 1.17543,0 1.10827,0.33584 1.42732,1.85552 2.38447,1.57006 0.6213,-0.18472 0.68008,-0.96554 0.78083,-1.57006 0.4198,-0.45337 0.92355,-1.18382 1.57844,-1.18382 1.0411,-0.0168 1.18383,1.35175 1.57005,2.37605 0.21829,0.57094 0.6381,0.97394 0.78923,1.57846 0.25187,1.04109 0.2183,4.09724 0,4.71854 -0.26868,0.77244 -1.32657,1.11667 -1.96467,1.95627 -0.30226,0.403 -0.55413,0.90676 -0.78922,1.17544 -0.40301,0.50377 -0.86479,0.73045 -1.16704,1.18383 -0.16793,0.25188 -0.24349,0.81442 -0.39461,1.16704 -0.50376,1.07469 -1.20063,1.87231 -0.78083,3.1653 0.16792,0.52055 0.78083,0.94874 0.78083,1.57005 0,0.73884 -1.45251,1.15864 -1.57006,1.96466 -0.0839,0.58772 0.60452,1.57844 0.78923,2.36767 0.13433,0.58772 1.21742,1.18384 1.57004,1.57005 0.58772,0.65489 1.0579,1.53647 1.59525,2.37606 1.05788,1.62883 1.69599,3.52633 2.7371,5.12156 0.55412,0.8228 1.59523,1.4861 1.96465,2.35928 0.18471,0.43658 -0.16792,1.17544 0,1.57845 0.60451,1.35176 3.3668,2.86304 4.72695,3.53471 0.63809,0.31904 1.37693,0.47017 1.96466,0.80602 0.88997,0.50375 2.69512,1.57005 3.1485,2.35926 0.40301,0.70527 0.58772,2.41806 0.78923,3.54312 0.25187,1.4777 -0.0671,2.7371 0,4.33233 0.0504,0.87318 0.3946,1.4861 0.3946,2.35928 0,0.30225 0.0168,0.88158 0,1.18383 -0.0168,1.0411 0.0839,2.0906 0,3.1485 -0.0503,0.57093 -0.0336,1.09987 0,1.58684 0.0503,0.52055 0.34424,0.71366 0.37782,1.16704 0.0336,0.48697 -0.42818,1.20063 -0.37782,1.58684 0.11754,1.0579 0.97394,1.77156 1.17544,2.73709 0.16793,0.77245 0.47857,2.61955 0.37783,3.54313 -0.0671,0.48695 -0.31066,1.05788 -0.37783,1.59523 -0.0504,0.4198 0.0671,0.77243 0,1.15864 -0.0504,0.37782 -0.14273,0.69688 -0.24348,1.02432 -23.35766,-14.87771 -38.84827,-40.93047 -38.84827,-70.79503 0,-4.02168 0.37783,-7.9426 0.91517,-11.80476 z m 32.66881,9.19361 c 0.80602,-0.36943 0.65489,1.08308 0,1.18384 -0.6213,0.0839 -0.6045,-0.89838 0,-1.18384 z"
     style="clip-rule:evenodd;fill:#ffffff;fill-opacity:1;fill-rule:nonzero;stroke-width:8.39599419;stroke-linejoin:round;stroke-miterlimit:2"
     id="path10" />
</svg>
