<?xml version="1.0" encoding="UTF-8" standalone="no"?>
<svg
   xmlns:dc="http://purl.org/dc/elements/1.1/"
   xmlns:cc="http://creativecommons.org/ns#"
   xmlns:rdf="http://www.w3.org/1999/02/22-rdf-syntax-ns#"
   xmlns:svg="http://www.w3.org/2000/svg"
   xmlns="http://www.w3.org/2000/svg"
   xmlns:xlink="http://www.w3.org/1999/xlink"
   xmlns:sodipodi="http://sodipodi.sourceforge.net/DTD/sodipodi-0.dtd"
   xmlns:inkscape="http://www.inkscape.org/namespaces/inkscape"
   width="512"
   height="512"
   viewBox="0 0 512 512"
   version="1.1"
   id="svg46"
   sodipodi:docname="application-x-desktop-kde.svg"
   inkscape:version="0.92.5 (2060ec1f9f, 2020-04-08)">
  <metadata
     id="metadata50">
    <rdf:RDF>
      <cc:Work
         rdf:about="">
        <dc:format>image/svg+xml</dc:format>
        <dc:type
           rdf:resource="http://purl.org/dc/dcmitype/StillImage" />
        <dc:title></dc:title>
      </cc:Work>
    </rdf:RDF>
  </metadata>
  <sodipodi:namedview
     pagecolor="#ffffff"
     bordercolor="#666666"
     borderopacity="1"
     objecttolerance="10"
     gridtolerance="10"
     guidetolerance="10"
     inkscape:pageopacity="0"
     inkscape:pageshadow="2"
     inkscape:window-width="1908"
     inkscape:window-height="1031"
     id="namedview48"
     showgrid="false"
     inkscape:zoom="0.4609375"
     inkscape:cx="-132.33898"
     inkscape:cy="256"
     inkscape:window-x="1924"
     inkscape:window-y="8"
     inkscape:window-maximized="0"
     inkscape:current-layer="svg46" />
  <defs
     id="defs30">
    <linearGradient
       id="text-x-vcard-c"
       x1="50%"
       x2="50%"
       y1="0%"
       y2="99.203%">
      <stop
         offset="0%"
         stop-color="#A2A7B0"
         id="stop2" />
      <stop
         offset="98.472%"
         stop-color="#7B8991"
         id="stop4" />
    </linearGradient>
    <path
       id="text-x-vcard-b"
       d="M232,0 L336,104 L336,380 C336,399.882251 319.882251,416 300,416 L36,416 C16.117749,416 2.4348735e-15,399.882251 0,380 L0,36 C-2.4348735e-15,16.117749 16.117749,3.65231026e-15 36,0 L232,0 Z" />
    <filter
       id="text-x-vcard-a"
       width="127.4%"
       height="122.1%"
       x="-13.7%"
       y="-9.1%"
       filterUnits="objectBoundingBox">
      <feOffset
         dy="8"
         in="SourceAlpha"
         result="shadowOffsetOuter1"
         id="feOffset8" />
      <feGaussianBlur
         in="shadowOffsetOuter1"
         result="shadowBlurOuter1"
         stdDeviation="14"
         id="feGaussianBlur10" />
      <feColorMatrix
         in="shadowBlurOuter1"
         values="0 0 0 0 0.361595344   0 0 0 0 0.418797512   0 0 0 0 0.450973732  0 0 0 0.5 0"
         id="feColorMatrix12" />
    </filter>
    <linearGradient
       id="text-x-vcard-f"
       x1="50%"
       x2="7.994%"
       y1="50%"
       y2="88.893%">
      <stop
         offset="0%"
         stop-color="#FFF"
         stop-opacity=".1"
         id="stop15" />
      <stop
         offset="100%"
         stop-color="#FFF"
         stop-opacity=".3"
         id="stop17" />
    </linearGradient>
    <path
       id="text-x-vcard-e"
       d="M232,0 L336,104 L268,104 C248.117749,104 232,87.882251 232,68 L232,0 Z" />
    <filter
       id="text-x-vcard-d"
       width="126.9%"
       height="126.9%"
       x="-13.5%"
       y="-9.6%"
       filterUnits="objectBoundingBox">
      <feOffset
         dy="4"
         in="SourceAlpha"
         result="shadowOffsetOuter1"
         id="feOffset21" />
      <feGaussianBlur
         in="shadowOffsetOuter1"
         result="shadowBlurOuter1"
         stdDeviation="4"
         id="feGaussianBlur23" />
      <feComposite
         in="shadowBlurOuter1"
         in2="SourceAlpha"
         operator="out"
         result="shadowBlurOuter1"
         id="feComposite25" />
      <feColorMatrix
         in="shadowBlurOuter1"
         values="0 0 0 0 0   0 0 0 0 0   0 0 0 0 0  0 0 0 0.05 0"
         id="feColorMatrix27" />
    </filter>
  </defs>
  <g
     fill="none"
     fill-rule="evenodd"
     id="g44">
    <g
       transform="translate(88 56)"
       id="g40">
      <use
         fill="#000"
         filter="url(#text-x-vcard-a)"
         xlink:href="#text-x-vcard-b"
         id="use32" />
      <use
         fill="url(#text-x-vcard-c)"
         xlink:href="#text-x-vcard-b"
         id="use34" />
      <use
         fill="#000"
         filter="url(#text-x-vcard-d)"
         xlink:href="#text-x-vcard-e"
         id="use36" />
      <use
         fill="url(#text-x-vcard-f)"
         xlink:href="#text-x-vcard-e"
         id="use38" />
    </g>
  </g>
  <path
     inkscape:connector-curvature="0"
     d="m 269.34374,199.27656 -28.33746,2.72387 v 116.74453 l 28.03095,-4.23905 V 264.7303 l 37.72352,55.22334 29.55191,-9.38606 -38.63147,-53.10092 38.9322,-50.07633 -30.15337,-6.89931 -37.42279,50.07055 z m -64.24506,28.4589 c -0.32386,0.0173 -0.66506,0.12145 -0.90795,0.36434 l -11.14414,11.13835 c -0.46266,0.46844 -0.52627,1.19133 -0.16771,1.75808 l 13.01788,21.49599 c -2.31327,3.88628 -4.18701,8.05015 -5.51135,12.47426 l -23.91913,4.96195 c -0.66506,0.14458 -1.14506,0.76916 -1.14506,1.45157 v 15.74753 c 0,0.66506 0.50313,1.23759 1.14506,1.38795 l 23.19045,5.6328 c 1.24338,5.11809 3.1576,10.01064 5.69641,14.47523 l -13.44583,20.4608 c -0.37591,0.57253 -0.30073,1.33591 0.17349,1.81591 l 11.13836,11.14414 c 0.46843,0.46843 1.19133,0.52627 1.75807,0.16771 l 21.06803,-12.77499 c 4.13496,2.38845 8.61112,4.29689 13.32439,5.56918 l 4.90412,23.6184 c 0.14458,0.66506 0.71132,1.15085 1.39374,1.15085 h 15.74174 c 0.65928,0 1.23181,-0.4453 1.39374,-1.09302 l 5.81207,-23.73406 c 4.85785,-1.31278 9.44389,-3.25592 13.68294,-5.75424 l 20.76731,13.62511 c 0.57253,0.37591 1.33013,0.30073 1.81591,-0.16771 l 11.08052,-11.14414 c 0.47422,-0.46843 0.58989,-1.18554 0.2429,-1.75229 l -7.57015,-12.47427 -2.48097,0.78651 c -0.35856,0.12145 -0.7576,-0.0521 -0.97157,-0.36434 0,0 -4.77689,-7.03231 -11.01691,-16.16391 -7.46027,14.60246 -22.68153,24.58419 -40.20449,24.58419 -24.90805,0 -45.1086,-20.20634 -45.1086,-45.10861 0,-18.32103 10.95329,-34.05699 26.63721,-41.11822 v -11.62414 c -2.8511,1.00048 -5.60966,2.20338 -8.23522,3.63182 0,0 0.006,-0.0463 0,-0.0694 l -21.2473,-13.92583 c -0.28916,-0.19085 -0.58989,-0.21976 -0.91374,-0.16772 z"
     style="clip-rule:evenodd;fill:#ffffff;fill-opacity:1;fill-rule:nonzero;stroke-width:5.78315401;stroke-linejoin:round;stroke-miterlimit:2"
     id="path18" />
</svg>
