<?xml version="1.0" encoding="UTF-8" standalone="no"?>
<svg
   xmlns:dc="http://purl.org/dc/elements/1.1/"
   xmlns:cc="http://creativecommons.org/ns#"
   xmlns:rdf="http://www.w3.org/1999/02/22-rdf-syntax-ns#"
   xmlns:svg="http://www.w3.org/2000/svg"
   xmlns="http://www.w3.org/2000/svg"
   xmlns:xlink="http://www.w3.org/1999/xlink"
   xmlns:sodipodi="http://sodipodi.sourceforge.net/DTD/sodipodi-0.dtd"
   xmlns:inkscape="http://www.inkscape.org/namespaces/inkscape"
   width="512"
   height="512"
   viewBox="0 0 512 512"
   version="1.1"
   id="svg46"
   sodipodi:docname="application-vnd.wolfram.nb.svg"
   inkscape:version="0.92.5 (2060ec1f9f, 2020-04-08)">
  <metadata
     id="metadata50">
    <rdf:RDF>
      <cc:Work
         rdf:about="">
        <dc:format>image/svg+xml</dc:format>
        <dc:type
           rdf:resource="http://purl.org/dc/dcmitype/StillImage" />
        <dc:title></dc:title>
      </cc:Work>
    </rdf:RDF>
  </metadata>
  <sodipodi:namedview
     pagecolor="#ffffff"
     bordercolor="#666666"
     borderopacity="1"
     objecttolerance="10"
     gridtolerance="10"
     guidetolerance="10"
     inkscape:pageopacity="0"
     inkscape:pageshadow="2"
     inkscape:window-width="1908"
     inkscape:window-height="1031"
     id="namedview48"
     showgrid="false"
     inkscape:zoom="0.4609375"
     inkscape:cx="-132.33898"
     inkscape:cy="256"
     inkscape:window-x="1924"
     inkscape:window-y="8"
     inkscape:window-maximized="0"
     inkscape:current-layer="svg46" />
  <defs
     id="defs30">
    <linearGradient
       id="text-x-cmake-c"
       x1="50%"
       x2="50%"
       y1="0%"
       y2="100%">
      <stop
         offset="0%"
         stop-color="#F33C3C"
         id="stop2" />
      <stop
         offset="99.628%"
         stop-color="#DC2121"
         id="stop4" />
    </linearGradient>
    <path
       id="text-x-cmake-b"
       d="M232,0 L336,104 L336,380 C336,399.882251 319.882251,416 300,416 L36,416 C16.117749,416 2.4348735e-15,399.882251 0,380 L0,36 C-2.4348735e-15,16.117749 16.117749,3.65231026e-15 36,0 L232,0 Z" />
    <filter
       id="text-x-cmake-a"
       width="127.4%"
       height="122.1%"
       x="-13.7%"
       y="-9.1%"
       filterUnits="objectBoundingBox">
      <feOffset
         dy="8"
         in="SourceAlpha"
         result="shadowOffsetOuter1"
         id="feOffset8" />
      <feGaussianBlur
         in="shadowOffsetOuter1"
         result="shadowBlurOuter1"
         stdDeviation="14"
         id="feGaussianBlur10" />
      <feColorMatrix
         in="shadowBlurOuter1"
         values="0 0 0 0 0.6622226   0 0 0 0 0   0 0 0 0 0  0 0 0 0.5 0"
         id="feColorMatrix12" />
    </filter>
    <linearGradient
       id="text-x-cmake-f"
       x1="50%"
       x2="7.994%"
       y1="50%"
       y2="88.893%">
      <stop
         offset="0%"
         stop-color="#FFF"
         stop-opacity=".1"
         id="stop15" />
      <stop
         offset="100%"
         stop-color="#FFF"
         stop-opacity=".3"
         id="stop17" />
    </linearGradient>
    <path
       id="text-x-cmake-e"
       d="M232,0 L336,104 L268,104 C248.117749,104 232,87.882251 232,68 L232,0 Z" />
    <filter
       id="text-x-cmake-d"
       width="126.9%"
       height="126.9%"
       x="-13.5%"
       y="-9.6%"
       filterUnits="objectBoundingBox">
      <feOffset
         dy="4"
         in="SourceAlpha"
         result="shadowOffsetOuter1"
         id="feOffset21" />
      <feGaussianBlur
         in="shadowOffsetOuter1"
         result="shadowBlurOuter1"
         stdDeviation="4"
         id="feGaussianBlur23" />
      <feComposite
         in="shadowBlurOuter1"
         in2="SourceAlpha"
         operator="out"
         result="shadowBlurOuter1"
         id="feComposite25" />
      <feColorMatrix
         in="shadowBlurOuter1"
         values="0 0 0 0 0   0 0 0 0 0   0 0 0 0 0  0 0 0 0.05 0"
         id="feColorMatrix27" />
    </filter>
  </defs>
  <g
     fill="none"
     fill-rule="evenodd"
     id="g44">
    <g
       transform="translate(88 56)"
       id="g40">
      <use
         fill="#000"
         filter="url(#text-x-cmake-a)"
         xlink:href="#text-x-cmake-b"
         id="use32" />
      <use
         fill="url(#text-x-cmake-c)"
         xlink:href="#text-x-cmake-b"
         id="use34" />
      <use
         fill="#000"
         filter="url(#text-x-cmake-d)"
         xlink:href="#text-x-cmake-e"
         id="use36" />
      <use
         fill="url(#text-x-cmake-f)"
         xlink:href="#text-x-cmake-e"
         id="use38" />
    </g>
  </g>
  <path
     inkscape:connector-curvature="0"
     d="m 191.04439,193.58987 c 0,0 12.25197,39.48492 4.7686,64.80615 -7.47625,25.31413 -45.46877,53.82627 -45.46877,53.82627 0,0 49.66885,2.70056 68.53007,14.75356 18.85412,12.05298 38.02804,58.49537 38.02804,58.49537 0,0 25.46337,-51.16836 36.11634,-58.49537 10.65297,-7.31992 70.52706,-14.82462 70.52706,-14.82462 0,0 -43.77737,-41.19762 -47.5013,-52.6892 -3.71682,-11.49156 6.81535,-65.84373 6.81535,-65.84373 0,0 -39.39963,26.62175 -67.06608,26.62175 -27.66646,0 -64.74931,-26.65018 -64.74931,-26.65018 z m 96.0757,49.71858 c -0.61117,7.34837 -2.09647,12.58602 1.89039,24.90194 4.42748,13.67333 8.94737,16.33124 14.30583,22.67755 0.65383,0.77464 1.46397,1.54215 2.13912,2.31678 -1.19392,0.27717 -2.48736,0.45483 -3.65286,0.73909 -8.19404,1.99701 -13.84389,2.01121 -24.88061,9.60118 -11.04385,7.58997 -13.12611,13.04082 -17.68863,19.87749 -0.58275,0.88123 -1.09442,1.87617 -1.67718,2.77873 -5.67827,-8.29353 -12.7068,-16.36677 -23.37399,-23.18211 -8.22958,-5.25896 -16.4023,-8.16561 -24.4471,-10.42556 5.35135,-7.46915 10.28342,-15.79111 13.33931,-26.1456 2.38075,-8.05192 2.70056,-15.56371 2.98482,-22.97602 8.96867,2.96349 18.76172,5.195 29.73451,5.195 11.49866,0 21.91,-2.21019 31.32639,-5.35847 z"
     style="clip-rule:evenodd;fill:#ffffff;fill-opacity:1;fill-rule:evenodd;stroke-width:7.10671663;stroke-linejoin:round;stroke-miterlimit:2"
     id="path4" />
</svg>
