<?xml version="1.0" encoding="UTF-8" standalone="no"?>
<svg
   xmlns:dc="http://purl.org/dc/elements/1.1/"
   xmlns:cc="http://creativecommons.org/ns#"
   xmlns:rdf="http://www.w3.org/1999/02/22-rdf-syntax-ns#"
   xmlns:svg="http://www.w3.org/2000/svg"
   xmlns="http://www.w3.org/2000/svg"
   xmlns:xlink="http://www.w3.org/1999/xlink"
   xmlns:sodipodi="http://sodipodi.sourceforge.net/DTD/sodipodi-0.dtd"
   xmlns:inkscape="http://www.inkscape.org/namespaces/inkscape"
   width="512"
   height="512"
   viewBox="0 0 512 512"
   version="1.1"
   id="svg46"
   sodipodi:docname="pgmodeler-dbm.svg"
   inkscape:version="0.92.5 (2060ec1f9f, 2020-04-08)">
  <metadata
     id="metadata50">
    <rdf:RDF>
      <cc:Work
         rdf:about="">
        <dc:format>image/svg+xml</dc:format>
        <dc:type
           rdf:resource="http://purl.org/dc/dcmitype/StillImage" />
        <dc:title></dc:title>
      </cc:Work>
    </rdf:RDF>
  </metadata>
  <sodipodi:namedview
     pagecolor="#ffffff"
     bordercolor="#666666"
     borderopacity="1"
     objecttolerance="10"
     gridtolerance="10"
     guidetolerance="10"
     inkscape:pageopacity="0"
     inkscape:pageshadow="2"
     inkscape:window-width="1908"
     inkscape:window-height="1031"
     id="namedview48"
     showgrid="false"
     inkscape:zoom="0.4609375"
     inkscape:cx="-132.33898"
     inkscape:cy="256"
     inkscape:window-x="1924"
     inkscape:window-y="8"
     inkscape:window-maximized="0"
     inkscape:current-layer="svg46" />
  <defs
     id="defs30">
    <linearGradient
       id="package-x-generic-c"
       x1="50%"
       x2="50%"
       y1="0%"
       y2="100%">
      <stop
         offset="0%"
         stop-color="#6F99D9"
         id="stop2" />
      <stop
         offset="100%"
         stop-color="#2A90C8"
         id="stop4" />
    </linearGradient>
    <path
       id="package-x-generic-b"
       d="M232,0 L336,104 L336,380 C336,399.882251 319.882251,416 300,416 L36,416 C16.117749,416 2.4348735e-15,399.882251 0,380 L0,36 C-2.4348735e-15,16.117749 16.117749,3.65231026e-15 36,0 L232,0 Z" />
    <filter
       id="package-x-generic-a"
       width="127.4%"
       height="122.1%"
       x="-13.7%"
       y="-9.1%"
       filterUnits="objectBoundingBox">
      <feOffset
         dy="8"
         in="SourceAlpha"
         result="shadowOffsetOuter1"
         id="feOffset8" />
      <feGaussianBlur
         in="shadowOffsetOuter1"
         result="shadowBlurOuter1"
         stdDeviation="14"
         id="feGaussianBlur10" />
      <feColorMatrix
         in="shadowBlurOuter1"
         values="0 0 0 0 0.474509804   0 0 0 0 0.619607843   0 0 0 0 0.701960784  0 0 0 0.5 0"
         id="feColorMatrix12" />
    </filter>
    <linearGradient
       id="package-x-generic-f"
       x1="50%"
       x2="7.994%"
       y1="50%"
       y2="88.893%">
      <stop
         offset="0%"
         stop-color="#FFF"
         stop-opacity=".1"
         id="stop15" />
      <stop
         offset="100%"
         stop-color="#FFF"
         stop-opacity=".3"
         id="stop17" />
    </linearGradient>
    <path
       id="package-x-generic-e"
       d="M232,0 L336,104 L268,104 C248.117749,104 232,87.882251 232,68 L232,0 Z" />
    <filter
       id="package-x-generic-d"
       width="126.9%"
       height="126.9%"
       x="-13.5%"
       y="-9.6%"
       filterUnits="objectBoundingBox">
      <feOffset
         dy="4"
         in="SourceAlpha"
         result="shadowOffsetOuter1"
         id="feOffset21" />
      <feGaussianBlur
         in="shadowOffsetOuter1"
         result="shadowBlurOuter1"
         stdDeviation="4"
         id="feGaussianBlur23" />
      <feComposite
         in="shadowBlurOuter1"
         in2="SourceAlpha"
         operator="out"
         result="shadowBlurOuter1"
         id="feComposite25" />
      <feColorMatrix
         in="shadowBlurOuter1"
         values="0 0 0 0 0   0 0 0 0 0   0 0 0 0 0  0 0 0 0.05 0"
         id="feColorMatrix27" />
    </filter>
  </defs>
  <g
     fill="none"
     fill-rule="evenodd"
     id="g44">
    <g
       transform="translate(88 56)"
       id="g40">
      <use
         fill="#000"
         filter="url(#package-x-generic-a)"
         xlink:href="#package-x-generic-b"
         id="use32" />
      <use
         fill="url(#package-x-generic-c)"
         xlink:href="#package-x-generic-b"
         id="use34" />
      <use
         fill="#000"
         filter="url(#package-x-generic-d)"
         xlink:href="#package-x-generic-e"
         id="use36" />
      <use
         fill="url(#package-x-generic-f)"
         xlink:href="#package-x-generic-e"
         id="use38" />
    </g>
  </g>
  <path
     inkscape:connector-curvature="0"
     d="m 237.82523,184.92463 c -3.90638,-0.11347 -7.76865,-0.0819 -11.54273,0.126 -5.04048,0.27093 -9.94237,0.83168 -14.52291,1.66967 -8.92167,2.91717 -16.35009,6.74165 -21.4599,16.02246 -5.50043,8.80825 -7.43471,17.55981 -7.60483,26.26096 -0.13227,6.77946 -1.36094,22.54359 11.63723,40.1034 4.76956,5.65165 11.80105,11.64354 20.20606,15.03957 19.60122,5.99188 25.69391,-7.2457 35.61738,-26.77761 -2.38163,10.39601 -3.51574,21.10075 -11.69394,30.02243 6.62825,10.38971 17.52201,19.54449 27.81091,28.69299 2.054,1.84608 5.29251,2.87939 2.29343,7.57963 -4.36633,7.27721 -7.19531,11.93967 -11.85146,17.71734 -3.05581,4.108 -5.0216,6.93697 -6.02969,10.18809 -0.9325,7.2079 -0.28352,13.54631 3.54095,20.45179 1.77047,3.72366 3.93787,7.23941 6.94328,10.66064 3.1188,3.79927 5.16019,4.73806 10.333,2.85418 4.34742,-1.54366 7.46622,-3.46534 10.90636,-6.96218 1.52475,-2.54545 1.90279,-8.0963 -2.48873,-10.41491 -1.59406,-1.027 -3.30153,-2.11701 -4.37893,-3.29522 -1.90279,-2.0792 -3.79298,-4.08281 -4.0387,-7.28352 -0.16381,-2.1422 2.87938,-5.73986 2.87938,-5.73986 11.44192,-10.45901 23.14215,-20.68491 29.00803,-27.26905 12.88475,-14.80645 19.18537,-39.33474 17.57241,-62.98095 0.32133,-17.82442 -7.2016,-37.53274 -19.71462,-52.81803 -7.77496,-8.75787 -16.39419,-15.27269 -28.84421,-18.4104 -10.82446,-3.29522 -22.86493,-5.08459 -34.57777,-5.43744 z m 48.72895,62.93053 c 5.22321,0 9.45092,4.23402 9.45092,9.45093 0,5.22321 -4.22771,9.45092 -9.45092,9.45092 -5.21692,0 -9.45092,-4.22771 -9.45092,-9.45092 0,-5.21691 4.234,-9.45093 9.45092,-9.45093 z m -6.08009,40.61376 c 0.91359,0.1008 1.82718,0.86948 3.44643,2.16111 l 25.6939,19.4689 c -3.50944,-0.0883 -8.13409,1.0774 -13.23759,0.66787 -11.10168,-0.89469 -24.34557,-3.73626 -25.42297,-7.40952 -0.61116,-5.09721 0.56075,-9.07919 6.00448,-13.11789 1.67596,-1.32312 2.60216,-1.87128 3.51575,-1.77047 z"
     style="clip-rule:evenodd;fill:#ffffff;fill-opacity:1;fill-rule:nonzero;stroke-width:6.30061388;stroke-linejoin:round;stroke-miterlimit:2"
     id="path4" />
</svg>
