<?xml version="1.0" encoding="UTF-8" standalone="no"?>
<svg
   xmlns:dc="http://purl.org/dc/elements/1.1/"
   xmlns:cc="http://creativecommons.org/ns#"
   xmlns:rdf="http://www.w3.org/1999/02/22-rdf-syntax-ns#"
   xmlns:svg="http://www.w3.org/2000/svg"
   xmlns="http://www.w3.org/2000/svg"
   xmlns:xlink="http://www.w3.org/1999/xlink"
   xmlns:sodipodi="http://sodipodi.sourceforge.net/DTD/sodipodi-0.dtd"
   xmlns:inkscape="http://www.inkscape.org/namespaces/inkscape"
   width="512"
   height="512"
   viewBox="0 0 512 512"
   version="1.1"
   id="svg46"
   sodipodi:docname="text-x-nim.svg"
   inkscape:version="0.92.5 (2060ec1f9f, 2020-04-08)">
  <metadata
     id="metadata50">
    <rdf:RDF>
      <cc:Work
         rdf:about="">
        <dc:format>image/svg+xml</dc:format>
        <dc:type
           rdf:resource="http://purl.org/dc/dcmitype/StillImage" />
        <dc:title></dc:title>
      </cc:Work>
    </rdf:RDF>
  </metadata>
  <sodipodi:namedview
     pagecolor="#ffffff"
     bordercolor="#666666"
     borderopacity="1"
     objecttolerance="10"
     gridtolerance="10"
     guidetolerance="10"
     inkscape:pageopacity="0"
     inkscape:pageshadow="2"
     inkscape:window-width="1908"
     inkscape:window-height="1031"
     id="namedview48"
     showgrid="false"
     inkscape:zoom="0.4609375"
     inkscape:cx="-132.33898"
     inkscape:cy="256"
     inkscape:window-x="1924"
     inkscape:window-y="8"
     inkscape:window-maximized="0"
     inkscape:current-layer="svg46" />
  <defs
     id="defs30">
    <linearGradient
       id="application-pgp-keys-c"
       x1="50%"
       x2="50%"
       y1="0%"
       y2="99.324%">
      <stop
         offset="0%"
         stop-color="#C5A981"
         id="stop2" />
      <stop
         offset="100%"
         stop-color="#BA853A"
         id="stop4" />
    </linearGradient>
    <path
       id="application-pgp-keys-b"
       d="M232,0 L336,104 L336,380 C336,399.882251 319.882251,416 300,416 L36,416 C16.117749,416 2.4348735e-15,399.882251 0,380 L0,36 C-2.4348735e-15,16.117749 16.117749,3.65231026e-15 36,0 L232,0 Z" />
    <filter
       id="application-pgp-keys-a"
       width="127.4%"
       height="122.1%"
       x="-13.7%"
       y="-9.1%"
       filterUnits="objectBoundingBox">
      <feOffset
         dy="8"
         in="SourceAlpha"
         result="shadowOffsetOuter1"
         id="feOffset8" />
      <feGaussianBlur
         in="shadowOffsetOuter1"
         result="shadowBlurOuter1"
         stdDeviation="14"
         id="feGaussianBlur10" />
      <feColorMatrix
         in="shadowBlurOuter1"
         values="0 0 0 0 0.733333333   0 0 0 0 0.537254902   0 0 0 0 0.258823529  0 0 0 0.5 0"
         id="feColorMatrix12" />
    </filter>
    <linearGradient
       id="application-pgp-keys-f"
       x1="50%"
       x2="7.994%"
       y1="50%"
       y2="88.893%">
      <stop
         offset="0%"
         stop-color="#FFF"
         stop-opacity=".1"
         id="stop15" />
      <stop
         offset="100%"
         stop-color="#FFF"
         stop-opacity=".3"
         id="stop17" />
    </linearGradient>
    <path
       id="application-pgp-keys-e"
       d="M232,0 L336,104 L268,104 C248.117749,104 232,87.882251 232,68 L232,0 Z" />
    <filter
       id="application-pgp-keys-d"
       width="126.9%"
       height="126.9%"
       x="-13.5%"
       y="-9.6%"
       filterUnits="objectBoundingBox">
      <feOffset
         dy="4"
         in="SourceAlpha"
         result="shadowOffsetOuter1"
         id="feOffset21" />
      <feGaussianBlur
         in="shadowOffsetOuter1"
         result="shadowBlurOuter1"
         stdDeviation="4"
         id="feGaussianBlur23" />
      <feComposite
         in="shadowBlurOuter1"
         in2="SourceAlpha"
         operator="out"
         result="shadowBlurOuter1"
         id="feComposite25" />
      <feColorMatrix
         in="shadowBlurOuter1"
         values="0 0 0 0 0   0 0 0 0 0   0 0 0 0 0  0 0 0 0.05 0"
         id="feColorMatrix27" />
    </filter>
  </defs>
  <g
     fill="none"
     fill-rule="evenodd"
     id="g44">
    <g
       transform="translate(88 56)"
       id="g40">
      <use
         fill="#000"
         filter="url(#application-pgp-keys-a)"
         xlink:href="#application-pgp-keys-b"
         id="use32" />
      <use
         fill="url(#application-pgp-keys-c)"
         xlink:href="#application-pgp-keys-b"
         id="use34" />
      <use
         fill="#000"
         filter="url(#application-pgp-keys-d)"
         xlink:href="#application-pgp-keys-e"
         id="use36" />
      <use
         fill="url(#application-pgp-keys-f)"
         xlink:href="#application-pgp-keys-e"
         id="use38" />
    </g>
  </g>
  <path
     inkscape:connector-curvature="0"
     d="m 255.02121,218.93356 c 0,0 -7.21055,5.7108 -14.56224,11.39218 -7.56342,-0.24113 -22.3962,1.45857 -30.43602,4.38749 -7.40462,-4.70508 -13.9094,-9.89832 -13.9094,-9.89832 0,0 -5.55789,9.59249 -9.05729,15.22095 -5.18148,2.77013 -10.38648,5.88135 -15.02687,9.99831 -5.39908,-2.15258 -11.65096,-4.76979 -11.85681,-4.858 7.14585,14.45637 11.95092,28.93626 25.01929,37.6348 20.80824,-32.95912 117.49185,-29.91846 138.72354,-0.18233 13.72709,-7.18114 19.06148,-22.63146 24.46056,-36.89375 -0.59402,0.1941 -7.93395,2.66425 -12.69785,4.48159 -2.84069,-3.09947 -9.53956,-7.87513 -13.35068,-10.18062 -3.61115,-6.63416 -8.86908,-15.59735 -8.86908,-15.59735 0,0 -6.22247,4.64627 -13.4389,9.716 -9.75129,-1.80558 -21.54341,-3.99932 -31.45937,-3.45824 -6.7518,-5.56376 -13.53888,-11.76859 -13.53888,-11.76859 z"
     style="clip-rule:evenodd;fill:#ffffff;fill-opacity:1;fill-rule:nonzero;stroke-width:5.88135576;stroke-linejoin:round;stroke-miterlimit:2"
     id="path4" />
  <path
     inkscape:connector-curvature="0"
     d="m 167.55956,275.90037 c 0,0 10.13358,24.60172 17.16768,41.69882 29.80671,39.44625 105.92322,42.18696 139.11171,0.75869 7.85161,-17.74993 18.44394,-42.69276 18.44394,-42.69276 -8.51033,12.64492 -22.3668,21.37873 -30.90065,26.0838 -6.06368,3.33473 -20.05542,5.34616 -20.05542,5.34616 l -36.72907,-19.09088 -36.9408,18.70859 c 0,0 -13.80354,-2.22315 -20.05542,-5.15207 -12.61551,-6.75768 -21.09642,-14.7328 -30.04197,-25.66035 z"
     style="clip-rule:evenodd;fill:#ffffff;fill-opacity:1;fill-rule:nonzero;stroke-width:5.88135576;stroke-linejoin:round;stroke-miterlimit:2"
     id="path6" />
</svg>
