<?xml version="1.0" encoding="UTF-8" standalone="no"?>
<svg
   xmlns:dc="http://purl.org/dc/elements/1.1/"
   xmlns:cc="http://creativecommons.org/ns#"
   xmlns:rdf="http://www.w3.org/1999/02/22-rdf-syntax-ns#"
   xmlns:svg="http://www.w3.org/2000/svg"
   xmlns="http://www.w3.org/2000/svg"
   xmlns:sodipodi="http://sodipodi.sourceforge.net/DTD/sodipodi-0.dtd"
   xmlns:inkscape="http://www.inkscape.org/namespaces/inkscape"
   version="1.1"
   id="Capa_1"
   x="0px"
   y="0px"
   viewBox="0 0 428.4 428.4"
   style="enable-background:new 0 0 428.4 428.4;"
   xml:space="preserve"
   sodipodi:docname="weather-clouds-night-symbolic.svg"
   inkscape:version="1.0 (4035a4fb49, 2020-05-01)"><metadata
   id="metadata57"><rdf:RDF><cc:Work
       rdf:about=""><dc:format>image/svg+xml</dc:format><dc:type
         rdf:resource="http://purl.org/dc/dcmitype/StillImage" /><dc:title></dc:title></cc:Work></rdf:RDF></metadata><defs
   id="defs55" /><sodipodi:namedview
   pagecolor="#ffffff"
   bordercolor="#666666"
   borderopacity="1"
   objecttolerance="10"
   gridtolerance="10"
   guidetolerance="10"
   inkscape:pageopacity="0"
   inkscape:pageshadow="2"
   inkscape:window-width="1908"
   inkscape:window-height="2079"
   id="namedview53"
   showgrid="false"
   inkscape:document-rotation="0"
   inkscape:zoom="2.3529412"
   inkscape:cx="214.2"
   inkscape:cy="214.2"
   inkscape:window-x="26"
   inkscape:window-y="23"
   inkscape:window-maximized="0"
   inkscape:current-layer="Capa_1" />
<g
   id="g20"
   style="fill:#dfdfdf;fill-opacity:1">
	<g
   id="g18"
   style="fill:#dfdfdf;fill-opacity:1">
		<g
   id="g16"
   style="fill:#dfdfdf;fill-opacity:1">
			
			
			
			
			
			<path
   d="M254.4,232.535c-9.2,0-18.4,2-26.4,5.6c-8.4,3.6-15.6,9.2-21.6,16c-3.6,4.4-10.4,4.8-14.4,0.8     c-4.4-3.6-4.8-10.4-0.8-14.4c8-9.2,18-16.4,28.8-21.2c2-0.8,4.4-2,6.4-2.8c-6.4-12.4-16-22.8-27.2-30.8     c-14.4-10-31.2-15.6-49.6-15.6c-21.6,0-41.2,8-56.4,20.8c-15.2,13.2-26,31.6-29.2,52.8c-0.4,3.2-2,5.6-4.8,7.2     c-1.6,1.2-3.6,1.6-5.6,1.6c-14.8,0-28.4,6-38,16c-9.6,9.6-15.6,23.2-15.6,38s6,28.4,16,38c9.6,9.6,23.2,16,38,16h201.2     c17.2,1.2,33.2-6,44.8-18c11.6-11.6,18.8-27.6,18.8-45.6s-7.2-34-18.8-45.6C288.4,239.735,272.4,232.535,254.4,232.535z"
   id="path12"
   style="fill:#dfdfdf;fill-opacity:1" />
			
		</g>
	</g>
</g>
<g
   id="g22"
   style="fill:#dfdfdf;fill-opacity:1">
</g>
<g
   id="g24"
   style="fill:#dfdfdf;fill-opacity:1">
</g>
<g
   id="g26"
   style="fill:#dfdfdf;fill-opacity:1">
</g>
<g
   id="g28"
   style="fill:#dfdfdf;fill-opacity:1">
</g>
<g
   id="g30"
   style="fill:#dfdfdf;fill-opacity:1">
</g>
<g
   id="g32"
   style="fill:#dfdfdf;fill-opacity:1">
</g>
<g
   id="g34"
   style="fill:#dfdfdf;fill-opacity:1">
</g>
<g
   id="g36"
   style="fill:#dfdfdf;fill-opacity:1">
</g>
<g
   id="g38"
   style="fill:#dfdfdf;fill-opacity:1">
</g>
<g
   id="g40"
   style="fill:#dfdfdf;fill-opacity:1">
</g>
<g
   id="g42"
   style="fill:#dfdfdf;fill-opacity:1">
</g>
<g
   id="g44"
   style="fill:#dfdfdf;fill-opacity:1">
</g>
<g
   id="g46"
   style="fill:#dfdfdf;fill-opacity:1">
</g>
<g
   id="g48"
   style="fill:#dfdfdf;fill-opacity:1">
</g>
<g
   id="g50"
   style="fill:#dfdfdf;fill-opacity:1">
</g>
<g
   transform="matrix(0.77005564,0,0,0.77005564,186.60459,311.9182)"
   style="fill:#dfdfdf;fill-opacity:1"
   id="g6"><g
     style="fill:#dfdfdf;fill-opacity:1"
     id="g4"><path
       sodipodi:nodetypes="cccsssccccccscccc"
       style="fill:#dfdfdf;fill-opacity:1"
       id="path2-3"
       d="m 305.2,-159.47894 c -3.2,-0.8 -6.4,0 -9.2,2 -10.4,8.8 -22.4,16 -35.6,20.8 -12.4,4.8 -26,7.2 -40.4,7.2 -32.4,0 -62,-13.2 -83.2,-34.4 -21.2,-21.2 -34.4,-50.8 -34.4,-83.2 0,-13.6 2.4,-26.8 6.4,-38.8 4.4,-12.8 10.8,-24.40001 19.2,-34.40001 3.6,-4.4 2.8,-10.8 -1.6,-14.4 -2.8,-2 -6,-2.8 -9.2,-2 -34,9.2 -63.6,29.60001 -84.8,56.80001 -20.4,26.8 -32.3266997,44.59616 -32.3266997,80.59616 69.5316157,28.86114 77.4535087,70.47033 77.4535087,70.47033 61.377551,-13.52749 123.876651,51.14069 118.256341,98.030012 24.12427,-2.78223 33.41685,-7.496506 60.61685,-28.696505 27.6,-21.6 47.6,-52.399997 56,-87.599997 1.6,-5.6 -1.6,-11.2 -7.2,-12.4 z" /></g></g></svg>
