<?xml version="1.0" encoding="UTF-8" standalone="no"?>
<svg
   xmlns:dc="http://purl.org/dc/elements/1.1/"
   xmlns:cc="http://creativecommons.org/ns#"
   xmlns:rdf="http://www.w3.org/1999/02/22-rdf-syntax-ns#"
   xmlns:svg="http://www.w3.org/2000/svg"
   xmlns="http://www.w3.org/2000/svg"
   xmlns:xlink="http://www.w3.org/1999/xlink"
   xmlns:sodipodi="http://sodipodi.sourceforge.net/DTD/sodipodi-0.dtd"
   xmlns:inkscape="http://www.inkscape.org/namespaces/inkscape"
   style="clip-rule:evenodd;fill-rule:evenodd;stroke-linejoin:round;stroke-miterlimit:1.41421"
   version="1.1"
   viewBox="0 0 48 48"
   id="svg20"
   sodipodi:docname="com.bitwarden.desktop.svg"
   inkscape:version="0.92.5 (2060ec1f9f, 2020-04-08)">
  <metadata
     id="metadata24">
    <rdf:RDF>
      <cc:Work
         rdf:about="">
        <dc:format>image/svg+xml</dc:format>
        <dc:type
           rdf:resource="http://purl.org/dc/dcmitype/StillImage" />
      </cc:Work>
    </rdf:RDF>
  </metadata>
  <sodipodi:namedview
     pagecolor="#ffffff"
     bordercolor="#666666"
     borderopacity="1"
     objecttolerance="10"
     gridtolerance="10"
     guidetolerance="10"
     inkscape:pageopacity="0"
     inkscape:pageshadow="2"
     inkscape:window-width="948"
     inkscape:window-height="999"
     id="namedview22"
     showgrid="false"
     inkscape:zoom="4.9166667"
     inkscape:cx="28.067797"
     inkscape:cy="24"
     inkscape:window-x="964"
     inkscape:window-y="36"
     inkscape:window-maximized="0"
     inkscape:current-layer="svg20" />
  <defs
     id="defs18">
    <linearGradient
       inkscape:collect="always"
       id="linearGradient835">
      <stop
         style="stop-color:#30bbff;stop-opacity:1"
         offset="0"
         id="stop831" />
      <stop
         style="stop-color:#007dc1;stop-opacity:1"
         offset="1"
         id="stop833" />
    </linearGradient>
    <linearGradient
       inkscape:collect="always"
       id="linearGradient862">
      <stop
         style="stop-color:#0f91d5;stop-opacity:1"
         offset="0"
         id="stop858" />
      <stop
         style="stop-color:#20a6ea;stop-opacity:1"
         offset="1"
         id="stop860" />
    </linearGradient>
    <linearGradient
       id="_Linear1"
       x2="1"
       gradientTransform="matrix(.281602 -47.5412 47.5412 .281602 23.9562 48.2879)"
       gradientUnits="userSpaceOnUse">
      <stop
         style="stop-color:#004391"
         offset="0"
         id="stop8" />
      <stop
         style="stop-color:#20d2fa"
         offset="1"
         id="stop10" />
    </linearGradient>
    <linearGradient
       id="_Linear2"
       x2="1"
       gradientTransform="matrix(-.400475 -19.1276 19.1276 -.400475 24.4975 34.7615)"
       gradientUnits="userSpaceOnUse">
      <stop
         style="stop-color:#0064b4"
         offset="0"
         id="stop13" />
      <stop
         style="stop-color:#1ec2f7"
         offset="1"
         id="stop15" />
    </linearGradient>
    <linearGradient
       id="b"
       x1="487.74164"
       x2="493.5094"
       y1="985.34576"
       y2="11.610633"
       gradientUnits="userSpaceOnUse"
       xlink:href="#_Linear2">
      <stop
         stop-color="#ff3069"
         offset="0"
         id="stop7"
         style="stop-color:#3056ff;stop-opacity:1" />
      <stop
         stop-color="#ffa548"
         offset="1"
         id="stop9"
         style="stop-color:#48c3ff;stop-opacity:1" />
    </linearGradient>
    <linearGradient
       inkscape:collect="always"
       xlink:href="#linearGradient862"
       id="linearGradient864"
       x1="490.3291"
       y1="551.43231"
       x2="490.3291"
       y2="533.07037"
       gradientUnits="userSpaceOnUse" />
    <linearGradient
       inkscape:collect="always"
       xlink:href="#linearGradient835"
       id="linearGradient837"
       x1="493.14236"
       y1="7.3906865"
       x2="496.44031"
       y2="969.69446"
       gradientUnits="userSpaceOnUse" />
  </defs>
  <g
     style="stroke-width:9.51243782"
     transform="matrix(0.94151989,0,0,0.9415199,-436.74028,-486.31845)"
     id="g18">
    <path
       style="fill:url(#linearGradient837);fill-opacity:1"
       inkscape:connector-curvature="0"
       transform="matrix(0.05185606,0,0,0.05185606,464.01918,516.71536)"
       d="m 946.23,206.651 c -0.3,-23 -18,-42 -40.899,-44.101 -190.3,-17.8 -345.601,-119.5 -396.8,-156.7 -10.7,-7.8 -25.2,-7.8 -35.9,0 -51.1,37.2 -206.4,138.9 -396.7,156.7 -22.9,2.101 -40.5,21.101 -40.9,44.101 -2.3,150.1 21.8,659.699 444.1,773.1 7.5,2 15.4,2 22.9,0 422.3,-113.3 446.399,-623.001 444.199,-773.1 z"
       id="path12" />
    <path
       style="opacity:0.675;fill:#ffffff"
       inkscape:connector-curvature="0"
       transform="matrix(0.03985431,0,0,0.04023645,469.87887,522.85863)"
       d="m 946.23,206.651 c -0.3,-23 -18,-42 -40.899,-44.101 -190.3,-17.8 -345.601,-119.5 -396.8,-156.7 -10.7,-7.8 -25.2,-7.8 -35.9,0 -51.1,37.2 -206.4,138.9 -396.7,156.7 -22.9,2.101 -40.5,21.101 -40.9,44.101 -2.3,150.1 21.8,659.699 444.1,773.1 7.5,2 15.4,2 22.9,0 422.3,-113.3 446.399,-623.001 444.199,-773.1 z"
       id="path14" />
    <path
       style="fill:url(#linearGradient864);fill-opacity:1"
       inkscape:connector-curvature="0"
       d="m 494.95602,541.07091 v -2.27474 c 0,-3.08705 -2.51167,-5.59941 -5.599,-5.59941 -3.08733,0 -5.59902,2.51236 -5.59902,5.59941 v 2.27474 c -0.44123,0.0918 -0.77368,0.48473 -0.77368,0.95336 v 8.52389 c 0,0.53676 0.4369,0.97388 0.97392,0.97388 h 10.79751 c 0.53701,0 0.97392,-0.43712 0.97392,-0.97388 v -8.52389 c 0,-0.46863 -0.3324,-0.86046 -0.77365,-0.95336 z m -10.53045,9.39373 c -0.33838,0 -0.61274,-0.27435 -0.61274,-0.61274 0,-0.3384 0.2743,-0.61263 0.61274,-0.61263 0.33844,0 0.61275,0.27423 0.61275,0.61263 0,0.33818 -0.27436,0.61274 -0.61275,0.61274 z m 0,-7.13187 c -0.33838,0 -0.61274,-0.27414 -0.61274,-0.61254 0,-0.33849 0.2743,-0.61273 0.61274,-0.61273 0.33844,0 0.61275,0.27444 0.61275,0.61273 0,0.3384 -0.27436,0.61254 -0.61275,0.61254 z m 6.23951,5.00442 c 0.0199,0.10689 -0.0515,0.19142 -0.15864,0.19142 h -2.27298 c -0.10711,0 -0.17852,-0.0846 -0.15867,-0.19142 l 0.36193,-1.91798 c -0.27397,-0.24977 -0.44591,-0.60937 -0.44591,-1.00947 0,-0.7549 0.61166,-1.36663 1.36621,-1.36663 0.75453,0 1.36622,0.61173 1.36622,1.36663 0,0.38908 -0.16294,0.73972 -0.42401,0.98866 z m 2.34311,-7.2869 h -7.30234 v -2.25412 c 0,-2.01332 1.63788,-3.65113 3.65117,-3.65113 2.01328,0 3.65117,1.63791 3.65117,3.65113 z m 1.28027,9.41435 c -0.33838,0 -0.61274,-0.27435 -0.61274,-0.61274 0,-0.3384 0.27429,-0.61263 0.61274,-0.61263 0.33843,0 0.61274,0.27423 0.61274,0.61263 0,0.33818 -0.27434,0.61274 -0.61274,0.61274 z m 0,-7.13187 c -0.33838,0 -0.61274,-0.27414 -0.61274,-0.61254 0,-0.33849 0.27429,-0.61273 0.61274,-0.61273 0.33843,0 0.61274,0.27444 0.61274,0.61273 0,0.3384 -0.27434,0.61254 -0.61274,0.61254 z"
       id="path16" />
  </g>
</svg>
