<?xml version="1.0" encoding="UTF-8" standalone="no"?>
<svg
   xmlns:dc="http://purl.org/dc/elements/1.1/"
   xmlns:cc="http://creativecommons.org/ns#"
   xmlns:rdf="http://www.w3.org/1999/02/22-rdf-syntax-ns#"
   xmlns:svg="http://www.w3.org/2000/svg"
   xmlns="http://www.w3.org/2000/svg"
   xmlns:xlink="http://www.w3.org/1999/xlink"
   xmlns:sodipodi="http://sodipodi.sourceforge.net/DTD/sodipodi-0.dtd"
   xmlns:inkscape="http://www.inkscape.org/namespaces/inkscape"
   style="clip-rule:evenodd;fill-rule:evenodd;stroke-linejoin:round;stroke-miterlimit:2"
   version="1.1"
   viewBox="0 0 48 48"
   id="svg33"
   sodipodi:docname="google-maps.svg"
   inkscape:version="0.92.5 (2060ec1f9f, 2020-04-08)">
  <metadata
     id="metadata37">
    <rdf:RDF>
      <cc:Work
         rdf:about="">
        <dc:format>image/svg+xml</dc:format>
        <dc:type
           rdf:resource="http://purl.org/dc/dcmitype/StillImage" />
      </cc:Work>
    </rdf:RDF>
  </metadata>
  <sodipodi:namedview
     pagecolor="#ffffff"
     bordercolor="#666666"
     borderopacity="1"
     objecttolerance="10"
     gridtolerance="10"
     guidetolerance="10"
     inkscape:pageopacity="0"
     inkscape:pageshadow="2"
     inkscape:window-width="948"
     inkscape:window-height="1027"
     id="namedview35"
     showgrid="false"
     inkscape:zoom="4.9166667"
     inkscape:cx="36.20339"
     inkscape:cy="24"
     inkscape:window-x="964"
     inkscape:window-y="8"
     inkscape:window-maximized="0"
     inkscape:current-layer="svg33" />
  <path
     d="m45.668 8.56c0-3.438-2.79-6.228-6.228-6.228h-30.88c-3.438 0-6.228 2.79-6.228 6.228v30.88c0 3.438 2.79 6.228 6.228 6.228h30.88c3.438 0 6.228-2.79 6.228-6.228v-30.88z"
     style="fill:#43adf1"
     id="path2" />
  <path
     d="m8.56 2.332h30.88l1.299 0.136c2.815 0.598 4.929 3.099 4.929 6.092v12.027c0 2.075-43.336 17.061-43.336 13.915v-25.942c0-1.898 0.85-3.598 2.19-4.74 1.239-0.977 2.59-1.449 4.038-1.488z"
     style="fill:url(#_Linear1)"
     id="path4" />
  <path
     d="m33.278 2.332h-17.131l0.051 30.089 17.08-3.034v-27.055z"
     style="fill:#2dca6f"
     id="path6" />
  <path
     d="m16.013 45.668 0.185-13.247 17.111-3.495-0.01 16.742h-17.286z"
     style="fill:#3c9bd8"
     id="path8" />
  <path
     d="m2.332 39.047 13.866-6.626v-5.562l-13.866 6.409v5.779z"
     style="fill:#ffed3c"
     id="path10" />
  <path
     d="m2.848 6.076c1.112-2.286 2.758-3.39 4.783-3.657l8.533 10.128 0.034 9.264-13.35-15.735z"
     style="fill:#ffed3c"
     id="path12" />
  <path
     d="m16.198 26.859 2.007-0.28-2.007-4.768-0.034-9.264 7.034 13.305 10.109-0.828v6.128l-17.109 1.269v-5.562z"
     style="fill:#ddcd35"
     id="path14" />
  <path
     d="m33.309 31.245 12.359-7.245v-6.624l-12.444 7.759 0.085 6.11z"
     style="fill:#ffed3c"
     id="path16" />
  <path
     d="m25.499 12.22c-3.198 0-5.791 2.593-5.791 5.791 0 0.245 0.019 0.484 0.049 0.72 0.495 4.524 5.366 9.738 5.366 9.738 0.087 0.097 0.17 0.157 0.251 0.2l4e-3 2e-3 0.162 0.052 0.163-0.052 4e-3 -2e-3c0.08-0.043 0.164-0.106 0.251-0.2 0 0 4.8-5.223 5.284-9.748 0.029-0.234 0.048-0.47 0.048-0.711-1e-3 -3.197-2.593-5.79-5.791-5.79zm0 9.516c-2.054 0-3.725-1.671-3.725-3.725s1.671-3.725 3.725-3.725 3.724 1.671 3.724 3.725-1.67 3.725-3.724 3.725z"
     style="fill-rule:nonzero;fill:#fff"
     id="path18" />
  <path
     d="m23.103 33.812c0.342-0.431 1.004-0.413 1.326-0.099 0.323 0.314 0.307 0.925-0.041 1.526-0.244 0.452-0.852 0.895-1.356 1.186-0.487-0.319-1.071-0.793-1.29-1.257-0.314-0.619-0.298-1.23 0.041-1.526 0.34-0.297 1.001-0.279 1.32 0.17zm0.565 0.306c0.159 0.027 0.288 0.134 0.285 0.292-5e-3 0.156-0.139 0.274-0.301 0.275-0.188 1e-3 -0.289-0.135-0.285-0.29 4e-3 -0.158 0.109-0.309 0.301-0.277zm-1.153-0.029c0.185-0.026 0.29 0.136 0.285 0.293-4e-3 0.155-0.069 0.268-0.3 0.275-0.161 4e-3 -0.289-0.135-0.286-0.292 5e-3 -0.157 0.141-0.253 0.301-0.276z"
     style="fill:#dfdfdf"
     id="path20" />
  <path
     d="m20.466 30.548h-0.124c-0.117 0-0.21-0.096-0.21-0.212v-0.357c-0.503-0.126-0.647-0.425-0.647-1.038 0-0.904 0.734-1.638 1.639-1.638 0.904 0 1.638 0.734 1.638 1.638 0 0.604-0.153 0.902-0.645 1.032v0.361c0 0.118-0.095 0.213-0.212 0.213h-0.123c-0.117 0-0.212-0.095-0.212-0.213v-0.284c-0.056 5e-3 -0.112 6e-3 -0.172 9e-3v0.277c0 0.116-0.095 0.211-0.212 0.211h-0.123c-0.117 0-0.212-0.095-0.212-0.211v-0.276c-0.06-2e-3 -0.118-4e-3 -0.174-7e-3v0.283c0 0.116-0.095 0.212-0.211 0.212zm-0.022-2.273c0.279 0.109 0.504 0.218 0.504 0.488 0 0.269-0.182 0.321-0.504 0.487-0.246 0.128-0.503-0.218-0.503-0.487 0-0.27 0.244-0.589 0.503-0.488zm1.352 0c0.268-0.076 0.503 0.218 0.503 0.488 0 0.269-0.264 0.629-0.503 0.487-0.293-0.174-0.503-0.218-0.503-0.487 0-0.27 0.196-0.401 0.503-0.488z"
     style="fill:#ffa800"
     id="path22" />
  <path
     d="m8.529 21.342 0.493 0.521 0.78-0.739 0.624 0.658-0.78 0.738 0.494 0.522c0.168 0.177 0.166 0.452-4e-3 0.612-0.17 0.161-0.444 0.148-0.611-0.029l-0.494-0.521-0.783 0.74-0.623-0.657 0.783-0.703-0.494-0.56c-0.169-0.177-0.166-0.451 3e-3 -0.612 0.17-0.161 0.444-0.148 0.612 0.03z"
     style="fill:#fff"
     id="path24" />
  <defs
     id="defs31">
    <linearGradient
       id="_Linear1"
       x2="1"
       gradientTransform="matrix(-.238213 -29.3002 29.3002 -.238213 23.5431 31.754)"
       gradientUnits="userSpaceOnUse">
      <stop
         style="stop-color:#2fd174"
         offset="0"
         id="stop26" />
      <stop
         style="stop-color:#35e981"
         offset="1"
         id="stop28" />
    </linearGradient>
    <linearGradient
       inkscape:collect="always"
       xlink:href="#_Linear1-3"
       id="linearGradient4572"
       x1="23.687933"
       y1="60.610168"
       x2="23.295116"
       y2="17.084743"
       gradientUnits="userSpaceOnUse"
       gradientTransform="translate(0.40678,-15.050847)" />
    <linearGradient
       id="_Linear1-3"
       x2="1"
       gradientTransform="matrix(0,-36.5025,36.5025,0,509.58722,57.620347)"
       gradientUnits="userSpaceOnUse"
       x1="0"
       y1="0"
       y2="0"
       spreadMethod="pad">
      <stop
         style="stop-color:#1d1d58;stop-opacity:0.35294119"
         offset="0"
         id="stop10" />
      <stop
         style="stop-color:#cfdce1;stop-opacity:0"
         offset="1"
         id="stop12" />
    </linearGradient>
  </defs>
  <path
     inkscape:connector-curvature="0"
     d="m 39.44,2.332 c 3.438,0 6.228,2.79 6.228,6.228 v 30.88 c 0,3.438 -2.79,6.228 -6.228,6.228 H 8.560001 C 5.122001,45.668 2.332,42.878 2.332,39.44 V 8.56 c 0,-3.438 2.790001,-6.228 6.228001,-6.228 z"
     style="clip-rule:evenodd;fill:url(#linearGradient4572);fill-opacity:1;fill-rule:evenodd;stroke-linejoin:round;stroke-miterlimit:2"
     id="path2-6" />
</svg>
