<?xml version="1.0" encoding="UTF-8" standalone="no"?>
<svg
   xmlns:dc="http://purl.org/dc/elements/1.1/"
   xmlns:cc="http://creativecommons.org/ns#"
   xmlns:rdf="http://www.w3.org/1999/02/22-rdf-syntax-ns#"
   xmlns:svg="http://www.w3.org/2000/svg"
   xmlns="http://www.w3.org/2000/svg"
   xmlns:xlink="http://www.w3.org/1999/xlink"
   xmlns:sodipodi="http://sodipodi.sourceforge.net/DTD/sodipodi-0.dtd"
   xmlns:inkscape="http://www.inkscape.org/namespaces/inkscape"
   inkscape:version="1.0 (4035a4fb49, 2020-05-01)"
   sodipodi:docname="gpe.svg"
   viewBox="0 0 576 576"
   height="576"
   width="576"
   xml:space="preserve"
   id="svg2"
   version="1.1"><metadata
     id="metadata8"><rdf:RDF><cc:Work
         rdf:about=""><dc:format>image/svg+xml</dc:format><dc:type
           rdf:resource="http://purl.org/dc/dcmitype/StillImage" /></cc:Work></rdf:RDF></metadata><defs
     id="defs6"><linearGradient
       inkscape:collect="always"
       id="linearGradient1336"><stop
         style="stop-color:#5f85e6;stop-opacity:1"
         offset="0"
         id="stop1332" /><stop
         style="stop-color:#d555f1;stop-opacity:1"
         offset="1"
         id="stop1334" /></linearGradient><linearGradient
       id="linearGradient1326"
       inkscape:collect="always"><stop
         id="stop1322"
         offset="0"
         style="stop-color:#5f85e6;stop-opacity:1" /><stop
         id="stop1324"
         offset="1"
         style="stop-color:#d555f1;stop-opacity:1" /></linearGradient><linearGradient
       inkscape:collect="always"
       id="linearGradient1320"><stop
         style="stop-color:#f33b3b;stop-opacity:0.9921568"
         offset="0"
         id="stop1316" /><stop
         style="stop-color:#f5eecb;stop-opacity:1"
         offset="1"
         id="stop1318" /></linearGradient><linearGradient
       inkscape:collect="always"
       id="linearGradient1314"><stop
         style="stop-color:#f33b3b;stop-opacity:0.9921568"
         offset="0"
         id="stop1310" /><stop
         style="stop-color:#f5eecb;stop-opacity:1"
         offset="1"
         id="stop1312" /></linearGradient><linearGradient
       id="linearGradient1302"
       inkscape:collect="always"><stop
         id="stop1298"
         offset="0"
         style="stop-color:#f33b3b;stop-opacity:0.9921568" /><stop
         id="stop1300"
         offset="1"
         style="stop-color:#f5eecb;stop-opacity:1" /></linearGradient><linearGradient
       id="linearGradient1296"
       inkscape:collect="always"><stop
         id="stop1292"
         offset="0"
         style="stop-color:#bbee69;stop-opacity:1" /><stop
         id="stop1294"
         offset="1"
         style="stop-color:#0b9bff;stop-opacity:1" /></linearGradient><linearGradient
       id="linearGradient1290"
       inkscape:collect="always"><stop
         id="stop1286"
         offset="0"
         style="stop-color:#bbee69;stop-opacity:1" /><stop
         id="stop1288"
         offset="1"
         style="stop-color:#0b9bff;stop-opacity:1" /></linearGradient><linearGradient
       id="linearGradient1284"
       inkscape:collect="always"><stop
         id="stop1280"
         offset="0"
         style="stop-color:#bbee69;stop-opacity:1" /><stop
         id="stop1282"
         offset="1"
         style="stop-color:#0b9bff;stop-opacity:1" /></linearGradient><linearGradient
       id="linearGradient1278"
       inkscape:collect="always"><stop
         id="stop1274"
         offset="0"
         style="stop-color:#bbee69;stop-opacity:1" /><stop
         id="stop1276"
         offset="1"
         style="stop-color:#0b9bff;stop-opacity:1" /></linearGradient><linearGradient
       inkscape:collect="always"
       id="linearGradient1272"><stop
         style="stop-color:#bbee69;stop-opacity:1"
         offset="0"
         id="stop1268" /><stop
         style="stop-color:#0b9bff;stop-opacity:1"
         offset="1"
         id="stop1270" /></linearGradient><linearGradient
       id="linearGradient1209"
       inkscape:collect="always"><stop
         id="stop1205"
         offset="0"
         style="stop-color:#0d3472;stop-opacity:1" /><stop
         id="stop1207"
         offset="1"
         style="stop-color:#180088;stop-opacity:0" /></linearGradient><clipPath
       id="clipPath18"
       clipPathUnits="userSpaceOnUse"><path
         id="path16"
         d="M 0,432 H 432 V 0 H 0 Z" /></clipPath><clipPath
       id="clipPath90"
       clipPathUnits="userSpaceOnUse"><path
         id="path88"
         d="M 0,432 H 432 V 0 H 0 Z" /></clipPath><linearGradient
       y2="-385.97375"
       x2="339.32501"
       y1="289.20816"
       x1="81.077858"
       gradientUnits="userSpaceOnUse"
       id="linearGradient1213"
       xlink:href="#linearGradient1272"
       inkscape:collect="always" /><linearGradient
       y2="-385.97375"
       x2="9.3630972"
       y1="289.20816"
       x1="-248.88405"
       gradientUnits="userSpaceOnUse"
       id="linearGradient1215"
       xlink:href="#linearGradient1290"
       inkscape:collect="always" /><linearGradient
       y2="-525.90833"
       x2="311.73959"
       y1="149.27356"
       x1="53.492455"
       gradientUnits="userSpaceOnUse"
       id="linearGradient1217"
       xlink:href="#linearGradient1296"
       inkscape:collect="always" /><linearGradient
       y2="-385.97375"
       x2="171.325"
       y1="289.20816"
       x1="-86.922142"
       gradientUnits="userSpaceOnUse"
       id="linearGradient1219"
       xlink:href="#linearGradient1284"
       inkscape:collect="always" /><linearGradient
       y2="-356.97375"
       x2="142.325"
       y1="318.20816"
       x1="-115.92214"
       gradientUnits="userSpaceOnUse"
       id="linearGradient1221"
       xlink:href="#linearGradient1278"
       inkscape:collect="always" /><linearGradient
       y2="-164.58128"
       x2="45.044983"
       y1="217.79564"
       x1="-90.549667"
       gradientUnits="userSpaceOnUse"
       id="linearGradient1223"
       xlink:href="#linearGradient1209"
       inkscape:collect="always" /><linearGradient
       gradientUnits="userSpaceOnUse"
       y2="425.19839"
       x2="264.30853"
       y1="-41.017113"
       x1="83.965752"
       id="linearGradient1304"
       xlink:href="#linearGradient1314"
       inkscape:collect="always" /><linearGradient
       gradientUnits="userSpaceOnUse"
       y2="425.19839"
       x2="264.30853"
       y1="-41.017113"
       x1="83.965752"
       id="linearGradient1306"
       xlink:href="#linearGradient1320"
       inkscape:collect="always" /><linearGradient
       gradientUnits="userSpaceOnUse"
       y2="9.06882"
       x2="352.41138"
       y1="630.68945"
       x1="111.95433"
       id="linearGradient1308"
       xlink:href="#linearGradient1302"
       inkscape:collect="always" /><linearGradient
       gradientUnits="userSpaceOnUse"
       y2="-116.74229"
       x2="-144.6301"
       y1="185.19154"
       x1="19.301819"
       id="linearGradient1328"
       xlink:href="#linearGradient1336"
       inkscape:collect="always" /><linearGradient
       gradientUnits="userSpaceOnUse"
       y2="-215.50009"
       x2="-45.872303"
       y1="86.433746"
       x1="118.05962"
       id="linearGradient1330"
       xlink:href="#linearGradient1326"
       inkscape:collect="always" /></defs><sodipodi:namedview
     inkscape:current-layer="g10"
     inkscape:window-maximized="0"
     inkscape:window-y="8"
     inkscape:window-x="3848"
     inkscape:cy="272.67532"
     inkscape:cx="350.27889"
     inkscape:zoom="2.2246069"
     showgrid="false"
     id="namedview4"
     inkscape:window-height="2108"
     inkscape:window-width="3824"
     inkscape:pageshadow="2"
     inkscape:pageopacity="0"
     guidetolerance="10"
     gridtolerance="10"
     objecttolerance="10"
     borderopacity="1"
     bordercolor="#666666"
     pagecolor="#ffffff" /><g
     transform="matrix(1.3333333,0,0,-1.3333333,0,576)"
     inkscape:label="GOE"
     inkscape:groupmode="layer"
     id="g10"><g
       id="g12"><g
         clip-path="url(#clipPath18)"
         id="g14"><g
           transform="translate(216,36.0049)"
           id="g20" /><g
           transform="translate(216,396)"
           id="g24"><path
             id="path26"
             style="fill:#ed1c24;fill-opacity:1;fill-rule:nonzero;stroke:none"
             d="m 0,0 c -99.411,0 -180,-80.589 -180,-180 0,-99.411 80.589,-180 180,-180 99.411,0 180,80.589 180,180 C 180,-80.589 99.411,0 0,0 m 0,-0.01 c 12.212,0 24.417,-1.23 36.274,-3.657 11.557,-2.365 22.924,-5.893 33.787,-10.487 10.665,-4.512 20.951,-10.095 30.573,-16.596 9.531,-6.438 18.493,-13.833 26.638,-21.978 8.145,-8.145 15.54,-17.107 21.979,-26.638 6.5,-9.622 12.084,-19.908 16.595,-30.574 4.593,-10.862 8.123,-22.229 10.487,-33.786 2.427,-11.857 3.657,-24.062 3.657,-36.274 0,-12.212 -1.23,-24.417 -3.657,-36.274 -2.364,-11.557 -5.894,-22.924 -10.487,-33.787 -4.511,-10.665 -10.095,-20.951 -16.595,-30.573 -6.439,-9.531 -13.834,-18.493 -21.979,-26.638 -8.145,-8.145 -17.107,-15.54 -26.638,-21.979 -9.622,-6.5 -19.908,-12.084 -30.573,-16.595 -10.863,-4.593 -22.23,-8.123 -33.787,-10.487 C 24.417,-358.76 12.212,-359.99 0,-359.99 c -12.212,0 -24.417,1.23 -36.274,3.657 -11.557,2.364 -22.924,5.894 -33.786,10.487 -10.666,4.511 -20.952,10.095 -30.574,16.595 -9.531,6.439 -18.493,13.834 -26.638,21.979 -8.145,8.145 -15.54,17.107 -21.978,26.638 -6.501,9.622 -12.084,19.908 -16.596,30.573 -4.594,10.863 -8.122,22.23 -10.487,33.787 -2.427,11.857 -3.657,24.062 -3.657,36.274 0,12.212 1.23,24.417 3.657,36.274 2.365,11.557 5.893,22.924 10.487,33.786 4.512,10.666 10.095,20.952 16.596,30.574 6.438,9.531 13.833,18.493 21.978,26.638 8.145,8.145 17.107,15.54 26.638,21.978 9.622,6.501 19.908,12.084 30.574,16.596 10.862,4.594 22.229,8.122 33.786,10.487 C -24.417,-1.24 -12.212,-0.01 0,-0.01" /></g><g
           transform="translate(216,72.0049)"
           id="g28" /><g
           transform="translate(216,360)"
           id="g32"><path
             id="path34"
             style="fill:#ed1c24;fill-opacity:1;fill-rule:nonzero;stroke:none"
             d="m 0,0 c -79.529,0 -144,-64.471 -144,-144 0,-79.529 64.471,-144 144,-144 79.529,0 144,64.471 144,144 C 144,-64.471 79.529,0 0,0 m 0,-0.01 c 9.77,0 19.533,-0.984 29.019,-2.926 9.245,-1.891 18.338,-4.714 27.029,-8.389 8.531,-3.609 16.761,-8.076 24.458,-13.276 7.625,-5.151 14.795,-11.067 21.31,-17.583 6.516,-6.516 12.432,-13.685 17.582,-21.31 5.202,-7.697 9.667,-15.926 13.277,-24.459 3.675,-8.69 6.498,-17.783 8.389,-27.028 1.942,-9.486 2.926,-19.249 2.926,-29.019 0,-9.77 -0.984,-19.533 -2.926,-29.019 -1.891,-9.245 -4.714,-18.338 -8.389,-27.029 -3.61,-8.531 -8.075,-16.761 -13.277,-24.458 -5.15,-7.625 -11.066,-14.795 -17.582,-21.31 -6.515,-6.516 -13.685,-12.432 -21.31,-17.582 -7.697,-5.202 -15.927,-9.667 -24.458,-13.277 -8.691,-3.675 -17.784,-6.498 -27.029,-8.389 C 19.533,-287.006 9.77,-287.99 0,-287.99 c -9.77,0 -19.533,0.984 -29.019,2.926 -9.245,1.891 -18.338,4.714 -27.028,8.389 -8.533,3.61 -16.762,8.075 -24.459,13.277 -7.625,5.15 -14.794,11.066 -21.31,17.582 -6.516,6.515 -12.432,13.685 -17.583,21.31 -5.2,7.697 -9.667,15.927 -13.276,24.458 -3.675,8.691 -6.498,17.784 -8.389,27.029 -1.942,9.486 -2.926,19.249 -2.926,29.019 0,9.77 0.984,19.533 2.926,29.019 1.891,9.245 4.714,18.338 8.389,27.028 3.609,8.533 8.076,16.762 13.276,24.459 5.151,7.625 11.067,14.794 17.583,21.31 6.516,6.516 13.685,12.432 21.31,17.583 7.697,5.2 15.926,9.667 24.459,13.276 8.69,3.675 17.783,6.498 27.028,8.389 C -19.533,-0.994 -9.77,-0.01 0,-0.01" /></g><g
           transform="translate(216,108.0049)"
           id="g36" /><g
           transform="translate(216,324)"
           id="g40"><path
             id="path42"
             style="fill:#ed1c24;fill-opacity:1;fill-rule:nonzero;stroke:none"
             d="m 0,0 c -59.647,0 -108,-48.353 -108,-108 0,-59.646 48.353,-108 108,-108 59.646,0 108,48.354 108,108 C 108,-48.353 59.646,0 0,0 m 0,-0.01 c 7.327,0 14.649,-0.738 21.764,-2.194 6.933,-1.419 13.754,-3.536 20.27,-6.293 6.4,-2.706 12.571,-6.056 18.344,-9.956 5.719,-3.863 11.096,-8.3 15.982,-13.187 4.887,-4.886 9.324,-10.263 13.187,-15.982 3.9,-5.773 7.25,-11.944 9.957,-18.343 2.756,-6.517 4.873,-13.338 6.292,-20.271 1.456,-7.115 2.194,-14.437 2.194,-21.764 0,-7.327 -0.738,-14.649 -2.194,-21.764 -1.419,-6.933 -3.536,-13.754 -6.292,-20.27 -2.707,-6.4 -6.057,-12.571 -9.957,-18.344 -3.863,-5.719 -8.3,-11.096 -13.187,-15.982 -4.886,-4.887 -10.263,-9.324 -15.982,-13.187 -5.773,-3.9 -11.944,-7.25 -18.344,-9.957 -6.516,-2.756 -13.337,-4.873 -20.27,-6.292 -7.115,-1.456 -14.437,-2.194 -21.764,-2.194 -7.327,0 -14.649,0.738 -21.764,2.194 -6.933,1.419 -13.754,3.536 -20.271,6.292 -6.399,2.707 -12.57,6.057 -18.343,9.957 -5.719,3.863 -11.096,8.3 -15.982,13.187 -4.887,4.886 -9.324,10.263 -13.187,15.982 -3.9,5.773 -7.25,11.944 -9.956,18.344 -2.757,6.516 -4.874,13.337 -6.293,20.27 -1.456,7.115 -2.194,14.437 -2.194,21.764 0,7.327 0.738,14.649 2.194,21.764 1.419,6.933 3.536,13.754 6.293,20.271 2.706,6.399 6.056,12.57 9.956,18.343 3.863,5.719 8.3,11.096 13.187,15.982 4.886,4.887 10.263,9.324 15.982,13.187 5.773,3.9 11.944,7.25 18.343,9.956 6.517,2.757 13.338,4.874 20.271,6.293 7.115,1.456 14.437,2.194 21.764,2.194" /></g><g
           transform="translate(216,198)"
           id="g44"><path
             id="path46"
             style="fill:none;stroke:#ed1c24;stroke-width:0.01;stroke-linecap:butt;stroke-linejoin:miter;stroke-miterlimit:10;stroke-dasharray:none;stroke-opacity:1"
             d="M 0,0 V 36" /></g><g
           transform="translate(216,234)"
           id="g48"><path
             id="path50"
             style="fill:none;stroke:#ed1c24;stroke-width:0.01;stroke-linecap:butt;stroke-linejoin:miter;stroke-miterlimit:10;stroke-dasharray:none;stroke-opacity:1"
             d="M 0,0 H 107" /></g><g
           transform="translate(216,198)"
           id="g52"><path
             id="path54"
             style="fill:none;stroke:#ed1c24;stroke-width:0.01;stroke-linecap:butt;stroke-linejoin:miter;stroke-miterlimit:10;stroke-dasharray:none;stroke-opacity:1"
             d="M 0,0 H 224" /></g><g
           transform="translate(72.5,215.5)"
           id="g56"><path
             id="path58"
             style="fill:none;stroke:#ed1c24;stroke-width:0.01;stroke-linecap:butt;stroke-linejoin:miter;stroke-miterlimit:10;stroke-dasharray:none;stroke-opacity:1"
             d="M 0,0 V -180" /></g></g></g><g
       transform="translate(216,410)"
       id="g60"><path
         id="path62"
         style="fill:none;stroke:#0000ff;stroke-width:0.01;stroke-linecap:butt;stroke-linejoin:miter;stroke-miterlimit:10;stroke-dasharray:none;stroke-opacity:1"
         d="M 0,0 V -28.8" /></g><g
       transform="translate(216,374)"
       id="g64"><path
         id="path66"
         style="fill:none;stroke:#0000ff;stroke-width:0.01;stroke-linecap:butt;stroke-linejoin:miter;stroke-miterlimit:10;stroke-dasharray:none;stroke-opacity:1"
         d="M 0,0 V -28.8" /></g><g
       transform="translate(216,50)"
       id="g68"><path
         id="path70"
         style="fill:none;stroke:#0000ff;stroke-width:0.01;stroke-linecap:butt;stroke-linejoin:miter;stroke-miterlimit:10;stroke-dasharray:none;stroke-opacity:1"
         d="M 0,0 V -28.8" /></g><g
       transform="translate(216,338)"
       id="g72"><path
         id="path74"
         style="fill:none;stroke:#0000ff;stroke-width:0.01;stroke-linecap:butt;stroke-linejoin:miter;stroke-miterlimit:10;stroke-dasharray:none;stroke-opacity:1"
         d="M 0,0 V -28.8" /></g><g
       transform="translate(284,212)"
       id="g76"><path
         id="path78"
         style="fill:none;stroke:#0000ff;stroke-width:0.01;stroke-linecap:butt;stroke-linejoin:miter;stroke-miterlimit:10;stroke-dasharray:none;stroke-opacity:1"
         d="M 0,0 V -28.8" /></g><g
       transform="translate(284,248)"
       id="g80"><path
         id="path82"
         style="fill:none;stroke:#0000ff;stroke-width:0.01;stroke-linecap:butt;stroke-linejoin:miter;stroke-miterlimit:10;stroke-dasharray:none;stroke-opacity:1"
         d="M 0,0 V -28.8" /></g><g
       transform="translate(338.9277,176.7998)"
       id="g92"><path
         transform="matrix(0.75000002,0,0,-0.75000002,-338.9277,255.20021)"
         d="M 288,77.333984 C 171.65334,77.333984 77.332031,171.652 77.332031,288 c 0,116.348 94.321309,210.66602 210.667969,210.66602 98.30666,0 180.87895,-67.33444 204.12695,-158.39844 H 451.9043 C 429.7803,409.70224 364.768,460 288,460 193.008,460 116,382.99333 116,288 c 0,-94.99333 77.008,-172 172,-172 93.20933,0 169.09149,74.14202 171.91016,166.66602 h 38.6875 C 495.76832,168.78202 402.56533,77.333984 288,77.333984 Z"
         style="fill:url(#linearGradient1308);fill-opacity:1;fill-rule:nonzero;stroke:none;stroke-width:1.33333"
         id="path94" /></g><g
       transform="translate(281.7578,150.2422)"
       id="g96"><path
         id="path98"
         style="fill:url(#linearGradient1328);fill-opacity:1;fill-rule:nonzero;stroke:none"
         d="m 0,0 c -16.828,-16.831 -40.076,-27.242 -65.758,-27.242 -51.362,0 -93,41.638 -93,93 0,51.362 41.638,93 93,93 50.022,0 90.813,-39.494 92.909,-89 H 56.17 c -2.111,65.526 -55.889,118 -121.928,118 -67.379,0 -122,-54.621 -122,-122 0,-67.379 54.621,-122 122,-122 33.69,0 64.184,13.66 86.262,35.738 z" /></g><g
       transform="translate(51,213)"
       id="g100" /><g
       transform="translate(380.9619,213)"
       id="g104" /><g
       transform="translate(78.5854,352.9346)"
       id="g108" /><g
       transform="translate(330.7178,97.4121)"
       id="g112" /><g
       transform="translate(219,213)"
       id="g116" /><g
       transform="translate(183,249)"
       id="g120"><path
         id="path122"
         style="fill:url(#linearGradient1330);fill-opacity:1;fill-rule:nonzero;stroke:none"
         d="M 0,0 29,-29 H 140 V 0 Z" /></g><g
       transform="translate(104.5225,94.3398)"
       id="g124" /><g
       transform="translate(248.38454,184)"
       id="g1156"
       style="fill:url(#linearGradient1223);fill-opacity:1"><path
         id="path102"
         style="fill:url(#linearGradient1213);fill-opacity:1;fill-rule:nonzero;stroke:none"
         d="M 0,0 H 0.038 C 0.02,0.999 0,1.997 0,3 c 0,91.127 73.873,165 165,165 45.563,0 86.813,-18.468 116.673,-48.327 l 20.506,20.506 C 267.071,175.286 218.571,197 165,197 57.857,197 -29,110.143 -29,3 -29,-34.448 -18.378,-69.411 0,-99.061 Z"
         transform="translate(-197,28.999998)" /><path
         id="path106"
         style="fill:url(#linearGradient1215);fill-opacity:1;fill-rule:nonzero;stroke:none"
         d="m 0,0 c -1.602,-89.741 -74.838,-162 -164.962,-162 -48.234,0 -91.63,20.7 -121.8,53.697 v -39.687 c 33.298,-26.895 75.664,-43.01 121.8,-43.01 C -58.821,-191 27.395,-105.758 29,0 Z"
         transform="translate(132.9619,28.999998)" /><path
         id="path110"
         style="fill:url(#linearGradient1217);fill-opacity:1;fill-rule:nonzero;stroke:none"
         d="m 0,0 c -26.435,-26.524 -43.593,-58.786 -51.505,-92.76 l 69.928,70.164 0.027,-0.027 c 0.692,0.72 1.383,1.441 2.091,2.152"
         transform="translate(-169.4146,168.9346)" /><path
         id="path118"
         style="fill:url(#linearGradient1219);fill-opacity:1;fill-rule:nonzero;stroke:none"
         d="M 0,0 29,-29 H 174 V 0 Z"
         transform="translate(-29.000002,28.999998)" /><path
         id="path130"
         style="fill:url(#linearGradient1221);fill-opacity:1;fill-rule:nonzero;stroke:none"
         d="M 0,0 2,29 H -36 L -65,0 Z" /></g><path
       d="m 87.052271,40.196257 -29,29 V 214.19625 h 29 z"
       style="fill:url(#linearGradient1306);fill-opacity:1;fill-rule:nonzero;stroke:none;stroke-width:0.999998"
       id="path118-3" /><path
       d="m 87.052271,86.332064 -29,2 V 50.332061 l 29,-29 z"
       style="fill:url(#linearGradient1304);fill-opacity:1;fill-rule:nonzero;stroke:none;stroke-width:0.999998"
       id="path130-6" /></g></svg>
