<?xml version="1.0" encoding="UTF-8" standalone="no"?>
<svg
   xmlns:dc="http://purl.org/dc/elements/1.1/"
   xmlns:cc="http://creativecommons.org/ns#"
   xmlns:rdf="http://www.w3.org/1999/02/22-rdf-syntax-ns#"
   xmlns:svg="http://www.w3.org/2000/svg"
   xmlns="http://www.w3.org/2000/svg"
   xmlns:xlink="http://www.w3.org/1999/xlink"
   xmlns:sodipodi="http://sodipodi.sourceforge.net/DTD/sodipodi-0.dtd"
   xmlns:inkscape="http://www.inkscape.org/namespaces/inkscape"
   height="48"
   viewBox="0 0 48 48.000001"
   width="48"
   version="1.1"
   id="svg26"
   sodipodi:docname="matlab.svg"
   inkscape:version="0.92.5 (2060ec1f9f, 2020-04-08)">
  <metadata
     id="metadata32">
    <rdf:RDF>
      <cc:Work
         rdf:about="">
        <dc:format>image/svg+xml</dc:format>
        <dc:type
           rdf:resource="http://purl.org/dc/dcmitype/StillImage" />
      </cc:Work>
    </rdf:RDF>
  </metadata>
  <defs
     id="defs30">
    <linearGradient
       inkscape:collect="always"
       id="linearGradient843">
      <stop
         style="stop-color:#333333;stop-opacity:1"
         offset="0"
         id="stop839" />
      <stop
         style="stop-color:#707070;stop-opacity:1"
         offset="1"
         id="stop841" />
    </linearGradient>
    <linearGradient
       inkscape:collect="always"
       xlink:href="#linearGradient843"
       id="linearGradient845"
       x1="3.5214844"
       y1="25.255899"
       x2="41.430515"
       y2="33.57061"
       gradientUnits="userSpaceOnUse" />
  </defs>
  <sodipodi:namedview
     pagecolor="#ffffff"
     bordercolor="#666666"
     borderopacity="1"
     objecttolerance="10"
     gridtolerance="10"
     guidetolerance="10"
     inkscape:pageopacity="0"
     inkscape:pageshadow="2"
     inkscape:window-width="948"
     inkscape:window-height="1027"
     id="namedview28"
     showgrid="false"
     inkscape:zoom="5.7195815"
     inkscape:cx="27.884498"
     inkscape:cy="35.608208"
     inkscape:window-x="964"
     inkscape:window-y="8"
     inkscape:window-maximized="0"
     inkscape:current-layer="g24" />
  <linearGradient
     id="a"
     gradientUnits="userSpaceOnUse"
     x1="27.626675"
     x2="27.688299"
     y1="1050.1754"
     y2="1009.0776">
    <stop
       offset="0"
       stop-color="#f67e17"
       id="stop2"
       style="stop-color:#f5c529;stop-opacity:1" />
    <stop
       offset="1"
       stop-color="#ff7f2a"
       id="stop4"
       style="stop-color:#db5800;stop-opacity:1" />
  </linearGradient>
  <linearGradient
     id="b"
     gradientUnits="userSpaceOnUse"
     x1="4.0646944"
     x2="32.000687"
     y1="28.457527"
     y2="3.5306194">
    <stop
       offset="0"
       stop-opacity=".156863"
       id="stop7"
       style="stop-opacity:1;stop-color:#4fcce1" />
    <stop
       offset="1"
       stop-opacity="0"
       id="stop9"
       style="stop-color:#1377de;stop-opacity:0.73333335" />
  </linearGradient>
  <g
     transform="translate(0 -1004.3622)"
     id="g24">
    <path
       d="m32.000688 3.5306193c-3.09357.3261956-5.072536 3.0847957-6.179801 5.9309039-2.322812 5.9705448-5.350085 10.1092158-5.988856 10.1732428-4.403874 1.154031-15.8056254 5.131476-16.3105466 5.621093-.1775686.1685.010142.480791.4199218.712891.4097738.2391 2.7386365 1.832328 5.2109376 3.548828 2.4631942 1.7164 4.6052842 3.111994 4.7578122 3.121094.150249 0 1.281402-.604863 2.490235-1.351563 2.542873-1.5662 11.450823-6.41129 11.425781-7.33789-.01023-.464422-1.558997-1.730943-3.119141-2.759766 1.971564-3.918637 7.693003-17.6118548 7.293657-17.6588337z"
       fill="#62cbcb"
       transform="translate(0 1004.3622)"
       id="path12" />
    <path
       d="m 32,5.3925781 c -3.09357,0.3262 -5.072423,3.0835875 -6.179688,5.9296879 -2.322811,5.9706 -5.34951,8.24844 -5.988281,8.31254 -4.342059,2.204847 -15.8056254,5.131393 -16.3105466,5.621094 -0.1775686,0.168499 0.010142,2.342078 0.4199218,2.574178 0.4097738,0.2391 2.7386365,1.832328 5.2109376,3.548828 6.3353202,3.450213 6.9709162,5.211646 9.1718752,10.244141 1.843328,4.2982 2.319224,4.667969 2.671875,4.667969 0.166956,0 1.111218,-0.533879 2.164062,-1.205078 2.349306,-1.5248 4.546988,-3.573147 7.535156,-7.060547 4.664539,-5.4362 8.164675,-6.587597 12.476563,-4.091797 1.165283,0.6781 1.443087,0.856554 1.906696,0.667146 0.154503,-0.06312 0.219051,-1.665601 0.219051,-1.665601 C 42.749696,30.960611 41.334661,24.184016 39.685547,19.666016 38.582108,17.808281 35.133845,5.7920501 32.556641,5.4355469 h -0.0039 c -0.176997,-0.029013 -0.320963,-0.010217 -0.498046,0.080078 -0.0147,0.011732 -0.03884,0.045986 -0.05469,0.060547 0.02358,-0.1135492 0.02615,-0.1805158 -5e-6,-0.1835938 z"
       id="path14"
       transform="translate(0,1004.3622)"
       style="fill:url(#linearGradient845);fill-opacity:1"
       inkscape:connector-curvature="0"
       sodipodi:nodetypes="cccccccscccsccccccc" />
    <path
       d="m32.000688 1007.8928c-3.09357.3262-5.072536 3.0848-6.179801 5.9309-5.187934 12.9073-9.845014 10.3491-22.2994026 15.7944-.1775686.1685.010142.4808.4199218.7129.4097738.2391 2.7386365 1.8323 5.2109376 3.5488 2.4631942 1.7164 4.6052842 3.112 4.7578122 3.1211.150249 0 1.281402-.6049 2.490235-1.3516 2.542873-1.5662 11.450823-6.4113 11.425781-7.3379-.01023-.4644-1.558997-1.7309-3.119141-2.7597 1.971564-3.9187 7.693003-17.6119 7.293657-17.6589z"
       fill="#62cbcb"
       id="path16" />
    <path
       d="m32.000688 3.5306193c-3.09357.3261956-5.072536 3.0847957-6.179801 5.9309039-5.187934 12.9073238-9.845014 10.3490318-22.2994026 15.7943358-.1775686.1685.010142.480791.4199218.712891.4097738.2391 2.7386365 1.832328 5.2109376 3.548828 2.4631942 1.7164 4.6052842 3.111994 4.7578122 3.121094.150249 0 1.281402-.604863 2.490235-1.351563 2.542873-1.5662 11.450823-6.41129 11.425781-7.33789-.01023-.464422-1.558997-1.730943-3.119141-2.759766 1.971564-3.918637 7.693003-17.6118548 7.293657-17.6588337z"
       fill="url(#b)"
       transform="translate(0 1004.3622)"
       id="path18"
       style="fill:url(#b)" />
    <path
       d="m32.556622 1007.7987c-.178898-.03-.324104-.011-.502571.08-.725747.5792-2.862099 4.6321-4.998452 9.4636-.865444 1.9694-2.093761 4.5453-2.712179 5.7293-1.836514 3.5078-6.322172 9.8896-8.398897 11.9255l-2.022966 1.9985 1.530616 1.4956c.885888.9711 2.056282 2.9882 3.027351 5.2438 1.843328 4.2982 2.163611 4.9184 2.516262 4.9184.166956 0 1.112471-.5333 2.165315-1.2045 2.349306-1.5248 4.545285-3.5742 7.533453-7.0616 4.664539-5.4362 8.1655-6.5879 12.477388-4.0921 1.165283.6781 2.122723 1.104 2.122723.9455 0-.1669-.59627-1.8041-1.308388-3.6474-.712117-1.8434-2.652552-7.048-4.301666-11.566-1.103953-1.8586-4.553804-13.8829-7.131397-14.2287z"
       id="path20"
       style="fill:url(#a)"
       fill="url(#a)" />
    <path
       d="m32.556622 1007.7987c-.0036 30.5557-.0036 20.0953-.0036 30.5557 0 0 2.22446-2.4186 5.015392-3.1795 1.80691-.4927 3.909017.1395 5.60355 1.1203 1.165283.6781 2.122723 1.104 2.122723.9455 0-.1669-.59627-1.8041-1.308388-3.6474-.712117-1.8434-2.652552-7.048-4.301666-11.566-1.103953-1.8586-4.553804-13.8829-7.131397-14.2287z"
       fill-opacity=".156863"
       id="path22" />
  </g>
</svg>
