<?xml version="1.0" encoding="UTF-8" standalone="no"?>
<svg
   xmlns:dc="http://purl.org/dc/elements/1.1/"
   xmlns:cc="http://creativecommons.org/ns#"
   xmlns:rdf="http://www.w3.org/1999/02/22-rdf-syntax-ns#"
   xmlns:svg="http://www.w3.org/2000/svg"
   xmlns="http://www.w3.org/2000/svg"
   xmlns:sodipodi="http://sodipodi.sourceforge.net/DTD/sodipodi-0.dtd"
   xmlns:inkscape="http://www.inkscape.org/namespaces/inkscape"
   inkscape:version="1.0 (4035a4fb49, 2020-05-01)"
   sodipodi:docname="view-conceal-symbolic.svg"
   id="svg7"
   version="1.1"
   viewBox="0 0 16 16"
   height="16"
   width="16">
  <metadata
     id="metadata11">
    <rdf:RDF>
      <cc:Work
         rdf:about="">
        <dc:format>image/svg+xml</dc:format>
        <dc:type
           rdf:resource="http://purl.org/dc/dcmitype/StillImage" />
        <dc:title></dc:title>
      </cc:Work>
    </rdf:RDF>
  </metadata>
  <sodipodi:namedview
     inkscape:current-layer="svg7"
     inkscape:window-maximized="0"
     inkscape:window-y="23"
     inkscape:window-x="26"
     inkscape:cy="8"
     inkscape:cx="7.76"
     inkscape:zoom="50"
     showgrid="false"
     id="namedview9"
     inkscape:window-height="999"
     inkscape:window-width="1904"
     inkscape:pageshadow="2"
     inkscape:pageopacity="0"
     guidetolerance="10"
     gridtolerance="10"
     objecttolerance="10"
     borderopacity="1"
     bordercolor="#666666"
     pagecolor="#ffffff" />
  <defs
     id="defs3">
    <style
       type="text/css"
       id="current-color-scheme">
   .ColorScheme-Text { color:#dfdfdf; } .ColorScheme-Highlight { color:#5294e2; }
  </style>
  </defs>
  <path
     d="M 8 3.5039062 C 6.8876917 3.5027124 5.6099826 3.7366693 4.3867188 4.1992188 L 10.533203 10.347656 A 3.5239999 3.5239999 0 0 0 11.523438 7.8984375 A 3.5239999 3.5239999 0 0 0 10.832031 5.8105469 C 12.417486 6.1092763 13.864566 6.7398302 14.677734 7.8984375 C 13.610532 9.4353436 12.365532 10.356391 11.072266 10.884766 L 11.943359 11.757812 C 13.908211 10.876672 15.258106 9.4421895 16 7.8984375 C 14.888 5.0514375 11.037 3.5509064 8 3.5039062 z M 2.3984375 5.2109375 C 1.3720533 5.9079213 0.50982595 6.8234502 0.00390625 7.9707031 C 1.4799063 10.871703 5.117 12.749625 8 12.640625 C 8.5793877 12.61866 9.1222035 12.550888 9.6425781 12.457031 L 8.6367188 11.449219 C 8.4236304 11.464687 8.2110657 11.481508 8 11.482422 C 5.111 11.494422 2.5827813 9.6397031 1.4257812 7.9707031 C 1.9130469 7.1844685 2.6491095 6.6644395 3.5039062 6.3164062 L 2.3984375 5.2109375 z M 4.5234375 7.3378906 A 3.5239999 3.5239999 0 0 0 4.4765625 7.8984375 A 3.5239999 3.5239999 0 0 0 8 11.423828 A 3.5239999 3.5239999 0 0 0 8.5644531 11.376953 L 4.5234375 7.3378906 z "
     style="fill:#dfdfdf;fill-opacity:1"
     id="path5" />
  <path
     style="fill:#dfdfdf;fill-opacity:1"
     d="m 2.0152501,1.7445937 c 0.395,-0.395 1.037,-0.395 1.432,0 L 14.51525,12.812593 c 0.395,0.395 0.395,1.037 0,1.432 l -0.068,0.068 c -0.395,0.395 -1.037,0.395 -1.432,0 L 1.94725,3.2445937 c -0.3949999,-0.395 -0.3949999,-1.037 0,-1.432 z"
     fill-rule="nonzero"
     id="path4" />
</svg>
