<?xml version="1.0" encoding="UTF-8" standalone="no"?>
<svg
   xmlns:dc="http://purl.org/dc/elements/1.1/"
   xmlns:cc="http://creativecommons.org/ns#"
   xmlns:rdf="http://www.w3.org/1999/02/22-rdf-syntax-ns#"
   xmlns:svg="http://www.w3.org/2000/svg"
   xmlns="http://www.w3.org/2000/svg"
   xmlns:sodipodi="http://sodipodi.sourceforge.net/DTD/sodipodi-0.dtd"
   xmlns:inkscape="http://www.inkscape.org/namespaces/inkscape"
   inkscape:version="1.0 (4035a4fb49, 2020-05-01)"
   sodipodi:docname="weather-few-clouds.svg"
   xml:space="preserve"
   style="enable-background:new 0 0 428.4 428.4;"
   viewBox="0 0 428.4 428.4"
   y="0px"
   x="0px"
   id="Capa_1"
   version="1.1"><metadata
   id="metadata57"><rdf:RDF><cc:Work
       rdf:about=""><dc:format>image/svg+xml</dc:format><dc:type
         rdf:resource="http://purl.org/dc/dcmitype/StillImage" /><dc:title></dc:title></cc:Work></rdf:RDF></metadata><defs
   id="defs55" /><sodipodi:namedview
   inkscape:current-layer="Capa_1"
   inkscape:window-maximized="0"
   inkscape:window-y="23"
   inkscape:window-x="26"
   inkscape:cy="214.2"
   inkscape:cx="214.2"
   inkscape:zoom="2.3529412"
   inkscape:document-rotation="0"
   showgrid="false"
   id="namedview53"
   inkscape:window-height="486"
   inkscape:window-width="950"
   inkscape:pageshadow="2"
   inkscape:pageopacity="0"
   guidetolerance="10"
   gridtolerance="10"
   objecttolerance="10"
   borderopacity="1"
   bordercolor="#666666"
   pagecolor="#ffffff" />
<g
   style="fill:#dfdfdf;fill-opacity:1"
   id="g20">
	<g
   style="fill:#dfdfdf;fill-opacity:1"
   id="g18">
		<g
   style="fill:#dfdfdf;fill-opacity:1"
   id="g16">
			<path
   style="fill:#dfdfdf;fill-opacity:1"
   id="path2"
   d="M277.2,119.335c5.6-0.4,10.4-4.8,10.4-10.4v-30.8c0-5.6-4.8-10.4-10.4-10.4c-5.6,0-10.4,4.8-10.4,10.4v30.8     C266.8,114.535,271.6,119.335,277.2,119.335z" />
			<path
   style="fill:#dfdfdf;fill-opacity:1"
   id="path4"
   d="M362,148.135l22-22c4-4,4-10.4,0-14.4s-10.4-4-14.4,0l-22,22c-4,4-4,10.4,0,14.4S358,152.135,362,148.135z" />
			<path
   style="fill:#dfdfdf;fill-opacity:1"
   id="path6"
   d="M418,208.535h-30.8c-5.6,0-10.4,4.8-10.4,10.4c0,5.6,4.8,10.4,10.4,10.4H418c5.6,0,10.4-4.8,10.4-10.4     C428.4,212.935,423.6,208.535,418,208.535z" />
			<path
   style="fill:#dfdfdf;fill-opacity:1"
   id="path8"
   d="M362,289.335c-4-4-10.4-4-14.4,0s-4,10.4,0,14.4l22,22c4,4,10.4,4,14.4,0s4-10.4,0-14.4L362,289.335z" />
			<path
   style="fill:#dfdfdf;fill-opacity:1"
   id="path10"
   d="M192.4,148.135c4,4,10.4,4,14.4,0s4-10.4,0-14.4l-22-22c-4-4-10.4-4-14.4,0s-4,10.4,0,14.4L192.4,148.135z" />
			<path
   style="fill:#dfdfdf;fill-opacity:1"
   id="path12"
   d="M254.4,232.535c-9.2,0-18.4,2-26.4,5.6c-8.4,3.6-15.6,9.2-21.6,16c-3.6,4.4-10.4,4.8-14.4,0.8     c-4.4-3.6-4.8-10.4-0.8-14.4c8-9.2,18-16.4,28.8-21.2c2-0.8,4.4-2,6.4-2.8c-6.4-12.4-16-22.8-27.2-30.8     c-14.4-10-31.2-15.6-49.6-15.6c-21.6,0-41.2,8-56.4,20.8c-15.2,13.2-26,31.6-29.2,52.8c-0.4,3.2-2,5.6-4.8,7.2     c-1.6,1.2-3.6,1.6-5.6,1.6c-14.8,0-28.4,6-38,16c-9.6,9.6-15.6,23.2-15.6,38s6,28.4,16,38c9.6,9.6,23.2,16,38,16h201.2     c17.2,1.2,33.2-6,44.8-18c11.6-11.6,18.8-27.6,18.8-45.6s-7.2-34-18.8-45.6C288.4,239.735,272.4,232.535,254.4,232.535z" />
			<path
   style="fill:#dfdfdf;fill-opacity:1"
   id="path14"
   d="M352.8,218.935c0-20.8-8.4-40-22.4-53.6c-13.6-13.6-32.8-22.4-53.6-22.4c-14,0-27.6,4-39.2,10.8c-8.4,5.2-16,12-22,20     c5.6,4.4,10.4,9.2,14.8,14.4c6.4,7.2,11.6,15.6,16,24.8c2.4-0.4,5.2-0.4,7.6-0.4c23.6,0,44.8,9.6,60,24.8     c3.2,3.2,6.4,7.2,9.2,10.8c4.4,6,8,12.8,10.4,20c6-5.6,10.4-12.4,13.2-19.6C350.8,239.335,352.8,228.935,352.8,218.935z" />
		</g>
	</g>
</g>
<g
   style="fill:#dfdfdf;fill-opacity:1"
   id="g22">
</g>
<g
   style="fill:#dfdfdf;fill-opacity:1"
   id="g24">
</g>
<g
   style="fill:#dfdfdf;fill-opacity:1"
   id="g26">
</g>
<g
   style="fill:#dfdfdf;fill-opacity:1"
   id="g28">
</g>
<g
   style="fill:#dfdfdf;fill-opacity:1"
   id="g30">
</g>
<g
   style="fill:#dfdfdf;fill-opacity:1"
   id="g32">
</g>
<g
   style="fill:#dfdfdf;fill-opacity:1"
   id="g34">
</g>
<g
   style="fill:#dfdfdf;fill-opacity:1"
   id="g36">
</g>
<g
   style="fill:#dfdfdf;fill-opacity:1"
   id="g38">
</g>
<g
   style="fill:#dfdfdf;fill-opacity:1"
   id="g40">
</g>
<g
   style="fill:#dfdfdf;fill-opacity:1"
   id="g42">
</g>
<g
   style="fill:#dfdfdf;fill-opacity:1"
   id="g44">
</g>
<g
   style="fill:#dfdfdf;fill-opacity:1"
   id="g46">
</g>
<g
   style="fill:#dfdfdf;fill-opacity:1"
   id="g48">
</g>
<g
   style="fill:#dfdfdf;fill-opacity:1"
   id="g50">
</g>
</svg>
