<?xml version="1.0" encoding="UTF-8" standalone="no"?>
<svg
   xmlns:dc="http://purl.org/dc/elements/1.1/"
   xmlns:cc="http://creativecommons.org/ns#"
   xmlns:rdf="http://www.w3.org/1999/02/22-rdf-syntax-ns#"
   xmlns:svg="http://www.w3.org/2000/svg"
   xmlns="http://www.w3.org/2000/svg"
   xmlns:sodipodi="http://sodipodi.sourceforge.net/DTD/sodipodi-0.dtd"
   xmlns:inkscape="http://www.inkscape.org/namespaces/inkscape"
   style="clip-rule:evenodd;fill-rule:evenodd;stroke-linejoin:round;stroke-miterlimit:2"
   version="1.1"
   viewBox="0 0 48 48"
   id="svg39"
   sodipodi:docname="accessories-calculator.svg.svg"
   inkscape:version="0.92.5 (2060ec1f9f, 2020-04-08)">
  <metadata
     id="metadata43">
    <rdf:RDF>
      <cc:Work
         rdf:about="">
        <dc:format>image/svg+xml</dc:format>
        <dc:type
           rdf:resource="http://purl.org/dc/dcmitype/StillImage" />
        <dc:title></dc:title>
      </cc:Work>
    </rdf:RDF>
  </metadata>
  <sodipodi:namedview
     pagecolor="#ffffff"
     bordercolor="#666666"
     borderopacity="1"
     objecttolerance="10"
     gridtolerance="10"
     guidetolerance="10"
     inkscape:pageopacity="0"
     inkscape:pageshadow="2"
     inkscape:window-width="948"
     inkscape:window-height="491"
     id="namedview41"
     showgrid="false"
     inkscape:zoom="4.9166667"
     inkscape:cx="19.627119"
     inkscape:cy="24"
     inkscape:window-x="8"
     inkscape:window-y="8"
     inkscape:window-maximized="0"
     inkscape:current-layer="svg39" />
  <path
     d="m45.668 8.56c0-3.438-2.79-6.228-6.228-6.228h-30.88c-3.438 0-6.228 2.79-6.228 6.228v30.88c0 3.438 2.79 6.228 6.228 6.228h30.88c3.438 0 6.228-2.79 6.228-6.228v-30.88z"
     style="fill:url(#_Linear1)"
     id="path2" />
  <path
     d="m45.668 24v15.44c0 3.438-2.79 6.228-6.228 6.228h-30.88c-3.438 0-6.228-2.79-6.228-6.228v-15.44h43.336z"
     style="fill:#006c98;fill-opacity:1"
     id="path4" />
  <path
     d="m8.56 2.332h15.44v43.336h-15.44c-3.438 0-6.228-2.79-6.228-6.228v-30.88c0-3.438 2.79-6.228 6.228-6.228z"
     style="fill:url(#_Linear2)"
     id="path6" />
  <path
     id="path49"
     d="m35.671 7.833v4.047h4.032v1.823h-4.032v4.046h-1.838v-4.046h-4.031v-1.823h4.031v-4.047h1.838z"
     style="fill-rule:nonzero;fill:url(#_Linear3)" />
  <rect
     id="path51"
     x="8.458"
     y="11.795"
     width="9.669"
     height="1.992"
     style="fill-rule:nonzero;fill:url(#_Linear4)" />
  <path
     id="path53"
     d="m17.907 30.783l-3.352 3.352 3.352 3.336-1.298 1.297-3.351-3.336-3.352 3.336-1.298-1.297 3.352-3.336-3.352-3.352 1.298-1.298 3.352 3.352 3.351-3.352 1.298 1.298z"
     style="fill-rule:nonzero;fill:url(#_Linear5)" />
  <path
     id="path55"
     d="m29.777 31.708h9.901v1.814h-9.901v-1.814zm0 3.513h9.901v1.831h-9.901v-1.831z"
     style="fill-rule:nonzero;fill:#e5ecf1" />
  <defs
     id="defs37">
    <linearGradient
       id="_Linear1"
       x2="1"
       gradientTransform="matrix(2.65365e-15,-43.3373,43.3373,2.65365e-15,201.9,45.6687)"
       gradientUnits="userSpaceOnUse">
      <stop
         style="stop-color:#595959"
         offset="0"
         id="stop12" />
      <stop
         style="stop-color:#7a7a7a"
         offset="1"
         id="stop14" />
    </linearGradient>
    <linearGradient
       id="_Linear2"
       x2="1"
       gradientTransform="matrix(2.65365e-15,-43.3373,43.3373,2.65365e-15,201.9,45.6687)"
       gradientUnits="userSpaceOnUse">
      <stop
         style="stop-color:#414141"
         offset="0"
         id="stop17" />
      <stop
         style="stop-color:#4b4b4b"
         offset="1"
         id="stop19" />
    </linearGradient>
    <linearGradient
       id="_Linear3"
       x2="1"
       gradientTransform="matrix(9.90082,0,0,9.90082,29.8019,12.7913)"
       gradientUnits="userSpaceOnUse">
      <stop
         style="stop-color:#dfe9f0"
         offset="0"
         id="stop22" />
      <stop
         style="stop-color:#ecf0f3"
         offset="1"
         id="stop24" />
    </linearGradient>
    <linearGradient
       id="_Linear4"
       x2="1"
       gradientTransform="matrix(.261248 -7.29102 7.29102 .261248 12.9269 16.084)"
       gradientUnits="userSpaceOnUse">
      <stop
         style="stop-color:#dfe9f0"
         offset="0"
         id="stop27" />
      <stop
         style="stop-color:#ecf0f3"
         offset="1"
         id="stop29" />
    </linearGradient>
    <linearGradient
       id="_Linear5"
       x2="1"
       gradientTransform="matrix(9.29843,0,0,9.29843,8.60849,34.1268)"
       gradientUnits="userSpaceOnUse">
      <stop
         style="stop-color:#cdd7dc"
         offset="0"
         id="stop32" />
      <stop
         style="stop-color:#ecf0f3"
         offset="1"
         id="stop34" />
    </linearGradient>
  </defs>
</svg>
