<?xml version="1.0" encoding="UTF-8" standalone="no"?>
<svg
   xmlns:dc="http://purl.org/dc/elements/1.1/"
   xmlns:cc="http://creativecommons.org/ns#"
   xmlns:rdf="http://www.w3.org/1999/02/22-rdf-syntax-ns#"
   xmlns:svg="http://www.w3.org/2000/svg"
   xmlns="http://www.w3.org/2000/svg"
   xmlns:xlink="http://www.w3.org/1999/xlink"
   xmlns:sodipodi="http://sodipodi.sourceforge.net/DTD/sodipodi-0.dtd"
   xmlns:inkscape="http://www.inkscape.org/namespaces/inkscape"
   style="clip-rule:evenodd;fill-rule:evenodd;stroke-linejoin:round;stroke-miterlimit:2"
   version="1.1"
   viewBox="0 0 48 48"
   id="svg19"
   sodipodi:docname="audible.svg"
   inkscape:version="0.92.5 (2060ec1f9f, 2020-04-08)">
  <metadata
     id="metadata23">
    <rdf:RDF>
      <cc:Work
         rdf:about="">
        <dc:format>image/svg+xml</dc:format>
        <dc:type
           rdf:resource="http://purl.org/dc/dcmitype/StillImage" />
        <dc:title></dc:title>
      </cc:Work>
    </rdf:RDF>
  </metadata>
  <sodipodi:namedview
     pagecolor="#ffffff"
     bordercolor="#666666"
     borderopacity="1"
     objecttolerance="10"
     gridtolerance="10"
     guidetolerance="10"
     inkscape:pageopacity="0"
     inkscape:pageshadow="2"
     inkscape:window-width="1904"
     inkscape:window-height="1027"
     id="namedview21"
     showgrid="false"
     inkscape:zoom="4.9166667"
     inkscape:cx="36.20339"
     inkscape:cy="24"
     inkscape:window-x="8"
     inkscape:window-y="8"
     inkscape:window-maximized="0"
     inkscape:current-layer="svg19" />
  <path
     d="m45.668 8.56c0-3.438-2.79-6.228-6.228-6.228h-30.88c-3.438 0-6.228 2.79-6.228 6.228v30.88c0 3.438 2.79 6.228 6.228 6.228h30.88c3.438 0 6.228-2.79 6.228-6.228v-30.88z"
     style="fill:url(#linearGradient844);fill-opacity:1"
     id="path2" />
  <path
     d="m18.292 15.542c3.708-1.747 8.201-1.643 11.879 0.139 2.545 1.209 4.684 3.227 6.051 5.69-0.851 0.43-1.706 0.85-2.558 1.273-1.358-2.45-3.536-4.424-6.114-5.52-3.398-1.484-7.454-1.441-10.773 0.243-1.855 0.894-3.395 2.315-4.667 3.918 1.421-2.479 3.579-4.543 6.182-5.743z"
     style="fill-rule:nonzero;fill:#ffffff;fill-opacity:0.8509804"
     id="path4" />
  <path
     d="m24.019 18.766c-3.322-0.033-6.437 1.866-8.253 4.595l0.027 0.014c1.745-1.747 4.125-2.947 6.634-2.845 2.919 0.023 5.669 1.684 7.233 4.12 0.85-0.424 1.7-0.848 2.549-1.272-1.744-2.773-4.885-4.65-8.19-4.612z"
     style="fill-rule:nonzero;fill:#ffffff;fill-opacity:0.8509804"
     id="path6" />
  <path
     d="m8.25 22.153c5.247 2.632 10.499 5.253 15.75 7.877 5.249-2.623 10.501-5.245 15.75-7.873-4e-3 0.739-5e-3 1.479-2e-3 2.217-5.252 2.623-10.502 5.248-15.75 7.876-5.248-2.627-10.496-5.252-15.746-7.876 0-0.741 0-1.481-2e-3 -2.221z"
     style="fill-rule:nonzero;fill:#ffffff;fill-opacity:0.8509804"
     id="path8" />
  <path
     d="m19.513 25.133c0.966-1.336 2.373-2.491 4.085-2.594 2-0.208 3.878 1.019 4.897 2.679-0.845 0.428-1.696 0.845-2.541 1.271-0.789-1.197-2.041-2.173-3.514-2.259-1.061-0.122-2.057 0.347-2.927 0.903z"
     style="fill-rule:nonzero;fill:#ffffff;fill-opacity:0.8509804"
     id="path10" />
  <defs
     id="defs17">
    <linearGradient
       id="_Linear1"
       x2="1"
       gradientTransform="matrix(-0.645212,-42.6455,42.6455,-0.645212,195.227,42.6804)"
       gradientUnits="userSpaceOnUse"
       x1="0"
       y1="0"
       y2="0"
       spreadMethod="pad">
      <stop
         style="stop-color:#2a2a2a"
         offset="0"
         id="stop12" />
      <stop
         style="stop-color:#3f3f3f"
         offset="1"
         id="stop14" />
    </linearGradient>
    <linearGradient
       id="_Linear1-3"
       x2="1"
       gradientTransform="matrix(-0.652063,-42.6054,42.6054,-0.652063,34.596571,85.470556)"
       gradientUnits="userSpaceOnUse">
      <stop
         style="stop-color:#f15f19"
         offset="0"
         id="stop6" />
      <stop
         style="stop-color:#fbb521"
         offset="1"
         id="stop8" />
    </linearGradient>
    <linearGradient
       inkscape:collect="always"
       xlink:href="#_Linear1-3"
       id="linearGradient844"
       x1="23.484543"
       y1="46.372883"
       x2="24.515457"
       y2="2.6440678"
       gradientUnits="userSpaceOnUse" />
  </defs>
</svg>
