<?xml version="1.0" encoding="UTF-8" standalone="no"?>
<svg
   xmlns:dc="http://purl.org/dc/elements/1.1/"
   xmlns:cc="http://creativecommons.org/ns#"
   xmlns:rdf="http://www.w3.org/1999/02/22-rdf-syntax-ns#"
   xmlns:svg="http://www.w3.org/2000/svg"
   xmlns="http://www.w3.org/2000/svg"
   xmlns:sodipodi="http://sodipodi.sourceforge.net/DTD/sodipodi-0.dtd"
   xmlns:inkscape="http://www.inkscape.org/namespaces/inkscape"
   style="clip-rule:evenodd;fill-rule:evenodd;stroke-linejoin:round;stroke-miterlimit:2"
   version="1.1"
   viewBox="0 0 48 48"
   id="svg13"
   sodipodi:docname="audible.svg"
   inkscape:version="0.92.5 (2060ec1f9f, 2020-04-08)">
  <metadata
     id="metadata17">
    <rdf:RDF>
      <cc:Work
         rdf:about="">
        <dc:format>image/svg+xml</dc:format>
        <dc:type
           rdf:resource="http://purl.org/dc/dcmitype/StillImage" />
        <dc:title></dc:title>
      </cc:Work>
    </rdf:RDF>
  </metadata>
  <sodipodi:namedview
     pagecolor="#ffffff"
     bordercolor="#666666"
     borderopacity="1"
     objecttolerance="10"
     gridtolerance="10"
     guidetolerance="10"
     inkscape:pageopacity="0"
     inkscape:pageshadow="2"
     inkscape:window-width="773"
     inkscape:window-height="491"
     id="namedview15"
     showgrid="false"
     inkscape:zoom="4.9166667"
     inkscape:cx="24"
     inkscape:cy="15.864407"
     inkscape:window-x="964"
     inkscape:window-y="544"
     inkscape:window-maximized="0"
     inkscape:current-layer="svg13" />
  <circle
     cx="24"
     cy="24"
     r="22.764"
     style="fill:url(#_Linear1)"
     id="circle2" />
  <defs
     id="defs11">
    <linearGradient
       id="_Linear1"
       x2="1"
       gradientTransform="matrix(-.652063 -42.6054 42.6054 -.652063 24.0203 44.5892)"
       gradientUnits="userSpaceOnUse">
      <stop
         style="stop-color:#f15f19"
         offset="0"
         id="stop6" />
      <stop
         style="stop-color:#fbb521"
         offset="1"
         id="stop8" />
    </linearGradient>
  </defs>
  <path
     inkscape:connector-curvature="0"
     d="m 18.49539,17.69745 c 3.708,-1.747 8.201,-1.643 11.879,0.139 2.545,1.209 4.684,3.227 6.051,5.69 -0.851,0.43 -1.706,0.85 -2.558,1.273 -1.358,-2.45 -3.536,-4.424 -6.114,-5.52 -3.398,-1.484 -7.454,-1.441 -10.773,0.243 -1.855,0.894 -3.395,2.315 -4.667,3.918 1.421,-2.479 3.579,-4.543 6.182,-5.743 z"
     style="clip-rule:evenodd;fill:#ffffff;fill-opacity:0.85098039;fill-rule:nonzero;stroke-linejoin:round;stroke-miterlimit:2"
     id="path4-3" />
  <path
     inkscape:connector-curvature="0"
     d="m 24.22239,20.92145 c -3.322,-0.033 -6.437,1.866 -8.253,4.595 l 0.027,0.014 c 1.745,-1.747 4.125,-2.947 6.634,-2.845 2.919,0.023 5.669,1.684 7.233,4.120001 0.85,-0.424001 1.7,-0.848001 2.549,-1.272001 -1.744,-2.773 -4.885,-4.65 -8.19,-4.612 z"
     style="clip-rule:evenodd;fill:#ffffff;fill-opacity:0.85098039;fill-rule:nonzero;stroke-linejoin:round;stroke-miterlimit:2"
     id="path6" />
  <path
     inkscape:connector-curvature="0"
     d="m 8.4533898,24.30845 c 5.2470002,2.632001 10.4990002,5.253001 15.7500002,7.877001 5.249,-2.623 10.501,-5.245 15.75,-7.873001 -0.004,0.739 -0.005,1.479 -0.002,2.217001 -5.252,2.623 -10.502,5.248 -15.75,7.876 -5.248,-2.627 -10.496,-5.252 -15.7460002,-7.876 0,-0.741001 0,-1.481001 -0.002,-2.221001 z"
     style="clip-rule:evenodd;fill:#ffffff;fill-opacity:0.85098039;fill-rule:nonzero;stroke-linejoin:round;stroke-miterlimit:2"
     id="path8" />
  <path
     inkscape:connector-curvature="0"
     d="m 19.71639,27.288451 c 0.966,-1.336001 2.373,-2.491001 4.085,-2.594001 2,-0.208 3.878,1.019 4.897,2.679001 -0.845,0.428 -1.696,0.845 -2.541,1.271 -0.789,-1.197 -2.041,-2.173 -3.514,-2.259001 -1.061,-0.122 -2.057,0.347001 -2.927,0.903001 z"
     style="clip-rule:evenodd;fill:#ffffff;fill-opacity:0.85098039;fill-rule:nonzero;stroke-linejoin:round;stroke-miterlimit:2"
     id="path10" />
</svg>
