<?xml version="1.0" encoding="UTF-8" standalone="no"?>
<svg
   xmlns:dc="http://purl.org/dc/elements/1.1/"
   xmlns:cc="http://creativecommons.org/ns#"
   xmlns:rdf="http://www.w3.org/1999/02/22-rdf-syntax-ns#"
   xmlns:svg="http://www.w3.org/2000/svg"
   xmlns="http://www.w3.org/2000/svg"
   xmlns:sodipodi="http://sodipodi.sourceforge.net/DTD/sodipodi-0.dtd"
   xmlns:inkscape="http://www.inkscape.org/namespaces/inkscape"
   clip-rule="evenodd"
   fill-rule="evenodd"
   stroke-linejoin="round"
   stroke-miterlimit="2"
   viewBox="0 0 48 48"
   version="1.1"
   id="svg24"
   sodipodi:docname="gnome-calendar.svg"
   inkscape:version="0.92.5 (2060ec1f9f, 2020-04-08)">
  <metadata
     id="metadata30">
    <rdf:RDF>
      <cc:Work
         rdf:about="">
        <dc:format>image/svg+xml</dc:format>
        <dc:type
           rdf:resource="http://purl.org/dc/dcmitype/StillImage" />
      </cc:Work>
    </rdf:RDF>
  </metadata>
  <defs
     id="defs28" />
  <sodipodi:namedview
     pagecolor="#ffffff"
     bordercolor="#666666"
     borderopacity="1"
     objecttolerance="10"
     gridtolerance="10"
     guidetolerance="10"
     inkscape:pageopacity="0"
     inkscape:pageshadow="2"
     inkscape:window-width="948"
     inkscape:window-height="1027"
     id="namedview26"
     showgrid="false"
     inkscape:zoom="4.9166667"
     inkscape:cx="10.881357"
     inkscape:cy="24"
     inkscape:window-x="964"
     inkscape:window-y="8"
     inkscape:window-maximized="0"
     inkscape:current-layer="svg24" />
  <linearGradient
     id="a"
     x2="0.5946638"
     gradientTransform="matrix(0 -51.6834 51.6834 0 24 33.0175)"
     gradientUnits="userSpaceOnUse"
     x1="-0.24398878"
     y1="-0.011805908"
     y2="-0.0039353026">
    <stop
       stop-color="#006783"
       offset="0"
       id="stop2"
       style="stop-color:#007ea1;stop-opacity:1" />
    <stop
       stop-color="#20ccff"
       offset="1"
       id="stop4"
       style="stop-color:#00a0d1;stop-opacity:1" />
  </linearGradient>
  <linearGradient
     id="b"
     x2="1"
     gradientTransform="matrix(-.342855 -17.9143 17.9143 -.342855 1092.56 12.3431)"
     gradientUnits="userSpaceOnUse">
    <stop
       stop-color="#fefffe"
       offset="0"
       id="stop7" />
    <stop
       stop-color="#f1f1f0"
       offset="1"
       id="stop9" />
  </linearGradient>
  <path
     d="m39.44 45.668h-30.88c-3.438 0-6.228-2.79-6.228-6.228v-30.88c0-3.438 2.79-6.228 6.228-6.228h30.88c3.438 0 6.228 2.79 6.228 6.228v30.88c0 3.438-2.79 6.228-6.228 6.228z"
     fill="url(#a)"
     id="path12"
     style="fill:#0095be;fill-opacity:1" />
  <path
     d="m45.668 25 1.191 11.807c0 3.438-2.943 6.228-6.57 6.228h-32.578c-3.627 0-6.57-2.79-6.57-6.228l1.191-11.807z"
     fill="#005268"
     id="path14" />
  <path
     d="m45.668 24 1.191 11.807c0 3.438-2.943 6.228-6.57 6.228h-32.578c-3.627 0-6.57-2.79-6.57-6.228l1.191-11.807z"
     fill="#15a9d4"
     id="path16" />
  <g
     fill-rule="nonzero"
     id="g22">
    <path
       d="m13.797 19.837h-2.226c0-1.388.505-2.539 1.516-3.453 1.019-.923 2.31-1.384 3.874-1.384 1.653 0 2.948.437 3.887 1.311.938.875 1.407 2.09 1.407 3.646 0 .762-.248 1.5-.746 2.214-.489.714-1.159 1.247-2.009 1.6.963.305 1.705.811 2.226 1.516.529.706.794 1.569.794 2.587 0 1.573-.513 2.82-1.54 3.742-1.027.923-2.362 1.384-4.007 1.384-1.644 0-2.984-.445-4.018-1.336-1.027-.89-1.541-2.065-1.541-3.525h2.238c0 .922.301 1.66.903 2.214.601.553 1.408.83 2.418.83 1.075 0 1.897-.281 2.467-.842.569-.562.854-1.368.854-2.419 0-1.018-.313-1.8-.938-2.346-.626-.545-1.528-.826-2.708-.842h-1.672v-1.817h1.672c1.051-.016 1.877-.293 2.479-.83.602-.538.902-1.263.902-2.178 0-2.053-1.022-3.08-3.068-3.08-.962 0-1.732.277-2.31.83-.569.546-.854 1.271-.854 2.178zm22.789 5.45c0 2.607-.446 4.545-1.336 5.812s-2.282 1.901-4.175 1.901c-1.869 0-3.253-.618-4.151-1.853-.899-1.243-1.364-3.096-1.396-5.559v-2.972c0-2.575.445-4.488 1.336-5.739.89-1.251 2.286-1.877 4.187-1.877 1.885 0 3.273.606 4.163 1.817.89 1.203 1.347 3.064 1.372 5.583zm-2.226-3.044c0-1.885-.265-3.256-.794-4.115-.53-.866-1.368-1.299-2.515-1.299-1.139 0-1.969.429-2.491 1.287-.521.859-.79 2.178-.806 3.959v3.561c0 1.893.273 3.293.818 4.2.554.898 1.388 1.347 2.503 1.347 1.099 0 1.913-.425 2.442-1.275.538-.851.819-2.19.843-4.019z"
       fill="url(#b)"
       id="path20" />
  </g>
</svg>
