<?xml version="1.0" encoding="UTF-8" standalone="no"?>
<svg
   xmlns:dc="http://purl.org/dc/elements/1.1/"
   xmlns:cc="http://creativecommons.org/ns#"
   xmlns:rdf="http://www.w3.org/1999/02/22-rdf-syntax-ns#"
   xmlns:svg="http://www.w3.org/2000/svg"
   xmlns="http://www.w3.org/2000/svg"
   xmlns:xlink="http://www.w3.org/1999/xlink"
   xmlns:sodipodi="http://sodipodi.sourceforge.net/DTD/sodipodi-0.dtd"
   xmlns:inkscape="http://www.inkscape.org/namespaces/inkscape"
   width="512"
   height="512"
   viewBox="0 0 512 512"
   version="1.1"
   id="svg67"
   sodipodi:docname="gnome-calendar.svg"
   inkscape:version="0.92.5 (2060ec1f9f, 2020-04-08)">
  <metadata
     id="metadata71">
    <rdf:RDF>
      <cc:Work
         rdf:about="">
        <dc:format>image/svg+xml</dc:format>
        <dc:type
           rdf:resource="http://purl.org/dc/dcmitype/StillImage" />
        <dc:title></dc:title>
      </cc:Work>
    </rdf:RDF>
  </metadata>
  <sodipodi:namedview
     pagecolor="#ffffff"
     bordercolor="#666666"
     borderopacity="1"
     objecttolerance="10"
     gridtolerance="10"
     guidetolerance="10"
     inkscape:pageopacity="0"
     inkscape:pageshadow="2"
     inkscape:window-width="948"
     inkscape:window-height="491"
     id="namedview69"
     showgrid="false"
     inkscape:zoom="0.4609375"
     inkscape:cx="382.91525"
     inkscape:cy="256"
     inkscape:window-x="964"
     inkscape:window-y="8"
     inkscape:window-maximized="0"
     inkscape:current-layer="svg67" />
  <defs
     id="defs45">
    <filter
       id="dde-calendar512-a"
       width="126.3%"
       height="127.2%"
       x="-12.7%"
       y="-12.7%"
       filterUnits="objectBoundingBox">
      <feOffset
         dy="8"
         in="SourceAlpha"
         result="shadowOffsetOuter1"
         id="feOffset2" />
      <feGaussianBlur
         in="shadowOffsetOuter1"
         result="shadowBlurOuter1"
         stdDeviation="10"
         id="feGaussianBlur4" />
      <feComposite
         in="shadowBlurOuter1"
         in2="SourceAlpha"
         operator="out"
         result="shadowBlurOuter1"
         id="feComposite6" />
      <feColorMatrix
         in="shadowBlurOuter1"
         result="shadowMatrixOuter1"
         values="0 0 0 0 0   0 0 0 0 0   0 0 0 0 0  0 0 0 0.2 0"
         id="feColorMatrix8" />
      <feMerge
         id="feMerge14">
        <feMergeNode
           in="shadowMatrixOuter1"
           id="feMergeNode10" />
        <feMergeNode
           in="SourceGraphic"
           id="feMergeNode12" />
      </feMerge>
    </filter>
    <radialGradient
       id="dde-calendar512-b"
       cx="395.16065"
       cy="343.6651"
       r="79.094987"
       fx="395.16065"
       fy="343.6651"
       gradientTransform="scale(0.93933644,1.0645813)"
       gradientUnits="userSpaceOnUse">
      <stop
         offset="0%"
         id="stop17" />
      <stop
         offset="100%"
         stop-opacity=".148"
         id="stop19" />
    </radialGradient>
    <path
       id="dde-calendar512-d"
       d="M200,303 L200,280.536054 L139.004813,280.536054 L190.363418,217.336054 C196.787806,209.310658 200,200.138776 200,189.820408 C199.853991,176.922449 195.437224,166.281633 186.749699,157.897959 C178.208183,149.44263 167.07501,145.143311 153.350181,145 C141.085439,145.143311 130.755315,149.370975 122.359807,157.682993 C114.037304,166.209977 109.584035,176.994104 109,190.035374 L109,190.035374 L131.777377,190.035374 C132.580425,182.869841 135.13558,177.316553 139.44284,173.37551 C143.604091,169.434467 148.823907,167.463946 155.102286,167.463946 C162.183714,167.607256 167.659045,169.864399 171.528279,174.235374 C175.251504,178.606349 177.113117,183.729705 177.113117,189.605442 C177.113117,191.826757 176.821099,194.191383 176.237064,196.69932 C175.361011,199.350567 173.718412,202.21678 171.309266,205.297959 L171.309266,205.297959 L109,281.82585 L109,303 L200,303 Z M261.838554,303 L316,168.505487 L316,146 L225,146 L225,191.226337 L247.914458,191.226337 L247.914458,168.505487 L290.344578,168.505487 L236.292771,303 L261.838554,303 Z" />
    <filter
       id="dde-calendar512-c"
       width="133.8%"
       height="144.3%"
       x="-16.9%"
       y="-15.8%"
       filterUnits="objectBoundingBox">
      <feOffset
         dy="10"
         in="SourceAlpha"
         result="shadowOffsetOuter1"
         id="feOffset23" />
      <feGaussianBlur
         in="shadowOffsetOuter1"
         result="shadowBlurOuter1"
         stdDeviation="10"
         id="feGaussianBlur25" />
      <feColorMatrix
         in="shadowBlurOuter1"
         values="0 0 0 0 0   0 0 0 0 0.423732517   0 0 0 0 1  0 0 0 0.2 0"
         id="feColorMatrix27" />
    </filter>
    <linearGradient
       id="dde-calendar512-g"
       x1="414.93222"
       x2="398.55408"
       y1="361.46203"
       y2="344.01737"
       gradientTransform="scale(0.93685529,1.0674007)"
       gradientUnits="userSpaceOnUse">
      <stop
         offset="0%"
         stop-color="#C6C6C6"
         id="stop30" />
      <stop
         offset="53.052%"
         stop-color="#E7E7E7"
         id="stop32" />
      <stop
         offset="100%"
         stop-color="#F4F4F4"
         id="stop34" />
    </linearGradient>
    <path
       id="dde-calendar512-f"
       d="M426,287 C426,287 420.263395,322.815408 413,334.5 C401.5,353 393,346 377,365.5 C361,385 372,388.5 348,409 C335.138324,419.986015 304,426 304,426 C403.5,426 426,340.5 426,287 Z" />
    <filter
       id="dde-calendar512-e"
       width="113.1%"
       height="111.5%"
       x="-6.6%"
       y="-2.9%"
       filterUnits="objectBoundingBox">
      <feOffset
         dy="4"
         in="SourceAlpha"
         result="shadowOffsetOuter1"
         id="feOffset38" />
      <feGaussianBlur
         in="shadowOffsetOuter1"
         result="shadowBlurOuter1"
         stdDeviation="2"
         id="feGaussianBlur40" />
      <feColorMatrix
         in="shadowBlurOuter1"
         values="0 0 0 0 0   0 0 0 0 0   0 0 0 0 0  0 0 0 0.05 0"
         id="feColorMatrix42" />
    </filter>
  </defs>
  <g
     transform="rotate(-0.17921345,13886.822,-13673.817)"
     id="g65"
     style="fill:none;fill-rule:evenodd;filter:url(#dde-calendar512-a)">
    <path
       d="m 78,0 h 270 c 43.07821,0 78,34.92179 78,78 v 253.14024 0 V 348 c 0,43.07821 -34.92179,78 -78,78 h -17.78128 v 0 H 78 C 34.92179,426 0,391.07821 0,348 V 78 C 0,34.92179 34.92179,0 78,0 Z"
       id="path47"
       inkscape:connector-curvature="0"
       style="fill:#ffffff" />
    <path
       d="m 426,290 v 58 c 0,43.07821 -34.92179,78 -78,78 h -42 c 41,-5 69.83333,-20.83333 86.5,-47.5 16.66667,-26.66667 27.83333,-56.16667 33.5,-88.5 z"
       id="path49"
       style="fill:url(#dde-calendar512-b);fill-opacity:0.38999999"
       inkscape:connector-curvature="0" />
    <path
       d="M 110.07,107 V 81.52 c 0,-4.62 -0.63,-11.27 -0.98,-15.96 h 0.28 l 4.06,11.9 9.03,24.57 h 5.04 l 8.96,-24.57 4.13,-11.9 h 0.28 c -0.42,4.69 -1.05,11.34 -1.05,15.96 V 107 h 7.56 V 55.41 H 138 l -9.31,26.11 c -1.19,3.43 -2.17,6.93 -3.36,10.36 h -0.35 c -1.19,-3.43 -2.24,-6.93 -3.43,-10.36 L 112.1,55.41 h -9.31 V 107 Z m 52.29,0 4.41,-14.7 h 17.92 l 4.34,14.7 h 8.61 L 180.56,55.41 h -9.38 L 154.1,107 Z m 20.37,-21.07 h -14.07 l 2.1,-6.93 c 1.68,-5.6 3.29,-11.27 4.76,-17.15 h 0.35 c 1.54,5.81 3.08,11.55 4.83,17.15 z M 212.55,107 V 86.21 h 8.33 L 232.57,107 h 9.17 l -12.6,-21.84 c 6.51,-2.03 10.78,-6.79 10.78,-14.77 0,-11.13 -7.98,-14.98 -18.62,-14.98 H 204.43 V 107 Z m 7.77,-27.3 h -7.77 V 61.99 h 7.77 c 7.49,0 11.55,2.17 11.55,8.4 0,6.23 -4.06,9.31 -11.55,9.31 z m 50.12,28.21 c 6.65,0 11.9,-2.66 16.03,-7.42 l -4.34,-5.11 c -3.08,3.36 -6.65,5.46 -11.41,5.46 -9.1,0 -14.84,-7.49 -14.84,-19.74 0,-12.11 6.16,-19.53 15.05,-19.53 4.2,0 7.42,1.89 10.08,4.62 l 4.41,-5.18 c -3.15,-3.43 -8.19,-6.51 -14.63,-6.51 -13.02,0 -23.24,10.08 -23.24,26.88 0,16.87 9.94,26.53 22.89,26.53 z M 303.69,107 V 83.55 h 22.05 V 107 h 8.12 V 55.41 h -8.12 V 76.48 H 303.69 V 55.41 h -8.12 V 107 Z"
       id="path51"
       inkscape:connector-curvature="0"
       style="fill:#617ee0;fill-rule:nonzero;fill-opacity:1" />
    <g
       id="g57"
       style="fill-rule:nonzero">
      <use
         xlink:href="#dde-calendar512-d"
         id="use53"
         style="fill:#000000;filter:url(#dde-calendar512-c)"
         x="0"
         y="0"
         width="100%"
         height="100%" />
      <use
         xlink:href="#dde-calendar512-d"
         id="use55"
         style="fill:#2d394f"
         x="0"
         y="0"
         width="100%"
         height="100%" />
    </g>
    <path
       d="m 137.04,370 v -14.56 c 0,-2.64 -0.36,-6.44 -0.56,-9.12 h 0.16 l 2.32,6.8 5.16,14.04 H 147 l 5.12,-14.04 2.36,-6.8 h 0.16 c -0.24,2.68 -0.6,6.48 -0.6,9.12 V 370 h 4.32 V 340.52 H 153 l -5.32,14.92 c -0.68,1.96 -1.24,3.96 -1.92,5.92 h -0.2 c -0.68,-1.96 -1.28,-3.96 -1.96,-5.92 l -5.4,-14.92 h -5.32 V 370 Z m 40.24,0.52 c 7.56,0 12.84,-5.88 12.84,-15.36 0,-9.48 -5.28,-15.16 -12.84,-15.16 -7.56,0 -12.8,5.68 -12.8,15.16 0,9.48 5.24,15.36 12.8,15.36 z m 0,-4.04 c -4.88,0 -8.04,-4.44 -8.04,-11.32 0,-6.92 3.16,-11.12 8.04,-11.12 4.88,0 8.08,4.2 8.08,11.12 0,6.88 -3.2,11.32 -8.08,11.32 z m 23.36,3.52 v -13.88 c 0,-3.2 -0.36,-6.6 -0.6,-9.64 h 0.2 l 3.08,6.16 9.76,17.36 h 4.76 v -29.48 h -4.4 v 13.76 c 0,3.2 0.36,6.76 0.6,9.8 h -0.2 l -3.08,-6.24 -9.76,-17.32 h -4.76 V 370 Z m 32.84,0 c 8.8,0 13.96,-5.28 13.96,-14.84 0,-9.6 -5.16,-14.64 -14.2,-14.64 H 225.6 V 370 Z m -0.56,-3.8 h -2.68 v -21.88 h 2.68 c 6.32,0 9.72,3.48 9.72,10.84 0,7.32 -3.4,11.04 -9.72,11.04 z m 21.48,3.8 2.52,-8.4 h 10.24 l 2.48,8.4 h 4.92 l -9.76,-29.48 h -5.36 L 249.68,370 Z m 11.64,-12.04 H 258 l 1.2,-3.96 c 0.96,-3.2 1.88,-6.44 2.72,-9.8 h 0.2 c 0.88,3.32 1.76,6.6 2.76,9.8 z M 287.92,370 v -11.16 l 8.88,-18.32 h -4.84 l -3.44,7.84 c -0.88,2.2 -1.84,4.24 -2.8,6.48 h -0.16 c -1,-2.24 -1.84,-4.28 -2.76,-6.48 l -3.4,-7.84 h -4.96 l 8.84,18.32 V 370 Z"
       id="path59"
       inkscape:connector-curvature="0"
       style="fill:#2d394f;fill-rule:nonzero" />
    <use
       xlink:href="#dde-calendar512-f"
       id="use61"
       style="fill:#000000;filter:url(#dde-calendar512-e)"
       x="0"
       y="0"
       width="100%"
       height="100%" />
    <use
       xlink:href="#dde-calendar512-f"
       id="use63"
       style="fill:url(#dde-calendar512-g)"
       x="0"
       y="0"
       width="100%"
       height="100%" />
  </g>
</svg>
