<?xml version="1.0" encoding="UTF-8" standalone="no"?>
<svg
   xmlns:dc="http://purl.org/dc/elements/1.1/"
   xmlns:cc="http://creativecommons.org/ns#"
   xmlns:rdf="http://www.w3.org/1999/02/22-rdf-syntax-ns#"
   xmlns:svg="http://www.w3.org/2000/svg"
   xmlns="http://www.w3.org/2000/svg"
   xmlns:sodipodi="http://sodipodi.sourceforge.net/DTD/sodipodi-0.dtd"
   xmlns:inkscape="http://www.inkscape.org/namespaces/inkscape"
   style="clip-rule:evenodd;fill-rule:evenodd;stroke-linejoin:round;stroke-miterlimit:2"
   version="1.1"
   viewBox="0 0 48 48"
   id="svg17"
   sodipodi:docname="materials-project.svg"
   inkscape:version="0.92.5 (2060ec1f9f, 2020-04-08)">
  <metadata
     id="metadata21">
    <rdf:RDF>
      <cc:Work
         rdf:about="">
        <dc:format>image/svg+xml</dc:format>
        <dc:type
           rdf:resource="http://purl.org/dc/dcmitype/StillImage" />
        <dc:title />
      </cc:Work>
    </rdf:RDF>
  </metadata>
  <sodipodi:namedview
     pagecolor="#ffffff"
     bordercolor="#666666"
     borderopacity="1"
     objecttolerance="10"
     gridtolerance="10"
     guidetolerance="10"
     inkscape:pageopacity="0"
     inkscape:pageshadow="2"
     inkscape:window-width="1904"
     inkscape:window-height="1027"
     id="namedview19"
     showgrid="false"
     inkscape:zoom="9.041401"
     inkscape:cx="-0.1789554"
     inkscape:cy="26.72609"
     inkscape:window-x="8"
     inkscape:window-y="8"
     inkscape:window-maximized="0"
     inkscape:current-layer="svg17" />
  <path
     d="m39.44 2.332c3.438 0 6.228 2.79 6.228 6.228v30.88c0 3.438-2.79 6.228-6.228 6.228h-30.88c-3.438 0-6.228-2.79-6.228-6.228v-30.88c0-3.438 2.79-6.228 6.228-6.228h30.88z"
     style="fill:url(#_Linear1)"
     id="path2" />
  <defs
     id="defs15">
    <linearGradient
       id="_Linear1"
       x2="1"
       gradientTransform="matrix(2.21762e-15,-36.2165,36.2165,2.21762e-15,703.214,42.119)"
       gradientUnits="userSpaceOnUse">
      <stop
         style="stop-color:#022254"
         offset="0"
         id="stop10" />
      <stop
         style="stop-color:#132a6b"
         offset="1"
         id="stop12" />
    </linearGradient>
    <linearGradient
       id="_Linear1-5"
       x2="1"
       gradientTransform="matrix(0,-36.2165,-36.2165,0,-655.214,42.119)"
       gradientUnits="userSpaceOnUse">
      <stop
         style="stop-color:#022254"
         offset="0"
         id="stop10-3" />
      <stop
         style="stop-color:#132a6b"
         offset="1"
         id="stop12-5" />
    </linearGradient>
    <linearGradient
       id="_Linear1-2"
       x2="1"
       gradientTransform="matrix(0,36.2165,36.2165,0,703.21401,5.881)"
       gradientUnits="userSpaceOnUse">
      <stop
         style="stop-color:#022254"
         offset="0"
         id="stop10-7" />
      <stop
         style="stop-color:#132a6b"
         offset="1"
         id="stop12-0" />
    </linearGradient>
  </defs>
  <circle
     style="opacity:1;fill:none;fill-opacity:1;fill-rule:nonzero;stroke:#a8c9ff;stroke-opacity:1"
     id="path819"
     cx="24.007633"
     cy="24.020781"
     r="4.0047626" />
  <circle
     style="clip-rule:evenodd;opacity:1;fill:none;fill-opacity:1;fill-rule:nonzero;stroke:#a8c9ff;stroke-linejoin:round;stroke-miterlimit:2;stroke-opacity:1"
     id="path819-3-6"
     cx="10.995946"
     cy="24.060259"
     r="4.0047626" />
  <circle
     style="clip-rule:evenodd;opacity:1;fill:none;fill-opacity:1;fill-rule:nonzero;stroke:#a8c9ff;stroke-linejoin:round;stroke-miterlimit:2;stroke-opacity:1"
     id="path819-3-6-7"
     cx="17.474438"
     cy="15.986095"
     r="4.0047626" />
  <circle
     style="clip-rule:evenodd;opacity:1;fill:none;fill-opacity:1;fill-rule:nonzero;stroke:#a8c9ff;stroke-linejoin:round;stroke-miterlimit:2;stroke-opacity:1"
     id="path819-3-6-9"
     cx="-37.004055"
     cy="24.060257"
     r="4.0047626"
     transform="scale(-1,1)" />
  <circle
     style="clip-rule:evenodd;opacity:1;fill:none;fill-opacity:1;fill-rule:nonzero;stroke:#a8c9ff;stroke-linejoin:round;stroke-miterlimit:2;stroke-opacity:1"
     id="path819-3-6-7-1"
     cx="-30.525562"
     cy="15.986094"
     r="4.0047626"
     transform="scale(-1,1)" />
  <circle
     style="clip-rule:evenodd;opacity:1;fill:none;fill-opacity:1;fill-rule:nonzero;stroke:#a8c9ff;stroke-linejoin:round;stroke-miterlimit:2;stroke-opacity:1"
     id="path819-3-6-7-3"
     cx="17.474438"
     cy="-32.013901"
     r="4.0047626"
     transform="scale(1,-1)" />
  <circle
     style="clip-rule:evenodd;opacity:1;fill:none;fill-opacity:1;fill-rule:nonzero;stroke:#a8c9ff;stroke-linejoin:round;stroke-miterlimit:2;stroke-opacity:1"
     id="path819-3-6-7-1-6"
     cx="-30.525558"
     cy="-32.013901"
     r="4.0047626"
     transform="scale(-1)" />
  <path
     style="fill:#98e8c1;fill-opacity:1;stroke:none;stroke-width:1px;stroke-linecap:butt;stroke-linejoin:miter;stroke-opacity:1"
     d="m 18.015757,16.924625 c 3.332492,0 5.51376,7.058824 5.51376,7.058824 h 0.39384 v -1.545065 c 0,0 -0.575612,-1.484473 -2.090382,-3.99899 -1.514769,-2.514517 -1.757132,-2.575108 -2.453925,-3.120424 -0.696794,-0.545317 -1.362436,-0.488473 -1.362436,-0.488473 z"
     id="path931"
     inkscape:connector-curvature="0"
     sodipodi:nodetypes="ccccsscc" />
  <path
     style="clip-rule:evenodd;fill:#98e8c1;fill-opacity:1;fill-rule:evenodd;stroke:none;stroke-width:1px;stroke-linecap:butt;stroke-linejoin:miter;stroke-miterlimit:2;stroke-opacity:1"
     d="m 18.015757,31.042273 c 3.332492,0 5.51376,-7.058824 5.51376,-7.058824 h 0.39384 v 1.545065 c 0,0 -0.575612,1.484473 -2.090382,3.99899 -1.514769,2.514517 -1.757132,2.575108 -2.453925,3.120424 -0.696794,0.545317 -1.362436,0.488473 -1.362436,0.488473 z"
     id="path931-0"
     inkscape:connector-curvature="0"
     sodipodi:nodetypes="ccccsscc" />
  <path
     style="clip-rule:evenodd;fill:#98e8c1;fill-opacity:1;fill-rule:evenodd;stroke:none;stroke-width:1px;stroke-linecap:butt;stroke-linejoin:miter;stroke-miterlimit:2;stroke-opacity:1"
     d="m 29.830957,16.924625 c -3.332492,0 -5.51376,7.058824 -5.51376,7.058824 h -0.39384 v -1.545065 c 0,0 0.575612,-1.484473 2.090382,-3.99899 1.514769,-2.514517 1.757132,-2.575108 2.453925,-3.120424 0.696794,-0.545317 1.362436,-0.488473 1.362436,-0.488473 z"
     id="path931-6"
     inkscape:connector-curvature="0"
     sodipodi:nodetypes="ccccsscc" />
  <path
     style="clip-rule:evenodd;fill:#98e8c1;fill-opacity:1;fill-rule:evenodd;stroke:none;stroke-width:1px;stroke-linecap:butt;stroke-linejoin:miter;stroke-miterlimit:2;stroke-opacity:1"
     d="m 29.830957,31.042273 c -3.332492,0 -5.51376,-7.058824 -5.51376,-7.058824 h -0.39384 v 1.545065 c 0,0 0.575612,1.484473 2.090382,3.99899 1.514769,2.514517 1.757132,2.575108 2.453925,3.120424 0.696794,0.545317 1.362436,0.488473 1.362436,0.488473 z"
     id="path931-0-2"
     inkscape:connector-curvature="0"
     sodipodi:nodetypes="ccccsscc" />
  <path
     style="clip-rule:evenodd;fill:#98e8c1;fill-opacity:1;fill-rule:evenodd;stroke:none;stroke-width:1px;stroke-linecap:butt;stroke-linejoin:miter;stroke-miterlimit:2;stroke-opacity:1"
     d="m 18.015757,16.924625 c -3.332492,0 -5.51376,7.058824 -5.51376,7.058824 h -0.39384 v -1.545065 c 0,0 0.575612,-1.484473 2.090382,-3.99899 1.514769,-2.514517 1.757132,-2.575108 2.453925,-3.120424 0.696794,-0.545317 1.362436,-0.488473 1.362436,-0.488473 z"
     id="path931-6-6"
     inkscape:connector-curvature="0"
     sodipodi:nodetypes="ccccsscc" />
  <path
     style="clip-rule:evenodd;fill:#98e8c1;fill-opacity:1;fill-rule:evenodd;stroke:none;stroke-width:1px;stroke-linecap:butt;stroke-linejoin:miter;stroke-miterlimit:2;stroke-opacity:1"
     d="m 18.015757,31.042273 c -3.332492,0 -5.51376,-7.058824 -5.51376,-7.058824 h -0.39384 v 1.545065 c 0,0 0.575612,1.484473 2.090382,3.99899 1.514769,2.514517 1.757132,2.575108 2.453925,3.120424 0.696794,0.545317 1.362436,0.488473 1.362436,0.488473 z"
     id="path931-0-2-1"
     inkscape:connector-curvature="0"
     sodipodi:nodetypes="ccccsscc" />
  <path
     style="clip-rule:evenodd;fill:#98e8c1;fill-opacity:1;fill-rule:evenodd;stroke:none;stroke-width:1px;stroke-linecap:butt;stroke-linejoin:miter;stroke-miterlimit:2;stroke-opacity:1"
     d="m 29.830957,16.924625 c 3.332492,0 5.51376,7.058824 5.51376,7.058824 h 0.39384 v -1.545065 c 0,0 -0.575612,-1.484473 -2.090382,-3.99899 -1.514769,-2.514517 -1.757132,-2.575108 -2.453925,-3.120424 -0.696794,-0.545317 -1.362436,-0.488473 -1.362436,-0.488473 z"
     id="path931-8"
     inkscape:connector-curvature="0"
     sodipodi:nodetypes="ccccsscc" />
  <path
     style="clip-rule:evenodd;fill:#98e8c1;fill-opacity:1;fill-rule:evenodd;stroke:none;stroke-width:1px;stroke-linecap:butt;stroke-linejoin:miter;stroke-miterlimit:2;stroke-opacity:1"
     d="m 29.830957,31.042273 c 3.332492,0 5.51376,-7.058824 5.51376,-7.058824 h 0.39384 v 1.545065 c 0,0 -0.575612,1.484473 -2.090382,3.99899 -1.514769,2.514517 -1.757132,2.575108 -2.453925,3.120424 -0.696794,0.545317 -1.362436,0.488473 -1.362436,0.488473 z"
     id="path931-0-7"
     inkscape:connector-curvature="0"
     sodipodi:nodetypes="ccccsscc" />
  <path
     style="fill:#98e8c1;fill-opacity:1;stroke:none;stroke-width:1px;stroke-linecap:butt;stroke-linejoin:miter;stroke-opacity:1"
     d="m 12.108157,25.528514 c 0,0 0.621242,1.34489 0,0 -0.621242,-1.34489 0,-3.09013 0,-3.09013 l 0.431321,-0.959528 -0.03748,2.504593 z"
     id="path1011"
     inkscape:connector-curvature="0" />
  <path
     style="clip-rule:evenodd;fill:#98e8c1;fill-opacity:1;fill-rule:evenodd;stroke:none;stroke-width:1px;stroke-linecap:butt;stroke-linejoin:miter;stroke-miterlimit:2;stroke-opacity:1"
     d="m 12.108157,22.438384 c 0,0 0.621242,-1.34489 0,0 -0.621242,1.34489 0,3.09013 0,3.09013 l 0.431321,0.959528 -0.03748,-2.504593 z"
     id="path1011-9"
     inkscape:connector-curvature="0" />
  <path
     style="clip-rule:evenodd;fill:#98e8c1;fill-opacity:1;fill-rule:evenodd;stroke:none;stroke-width:1px;stroke-linecap:butt;stroke-linejoin:miter;stroke-miterlimit:2;stroke-opacity:1"
     d="m 35.738557,25.528514 c 0,0 -0.621242,1.34489 0,0 0.621242,-1.34489 0,-3.09013 0,-3.09013 l -0.431321,-0.959528 0.03748,2.504593 z"
     id="path1011-2"
     inkscape:connector-curvature="0" />
  <path
     style="clip-rule:evenodd;fill:#98e8c1;fill-opacity:1;fill-rule:evenodd;stroke:none;stroke-width:1px;stroke-linecap:butt;stroke-linejoin:miter;stroke-miterlimit:2;stroke-opacity:1"
     d="m 35.738557,22.438384 c 0,0 -0.621242,-1.34489 0,0 0.621242,1.34489 0,3.09013 0,3.09013 l -0.431321,0.959528 0.03748,-2.504593 z"
     id="path1011-9-8"
     inkscape:connector-curvature="0" />
  <ellipse
     style="opacity:1;fill:#98e8c1;fill-opacity:1;fill-rule:nonzero;stroke:none;stroke-width:1.00950682;stroke-opacity:1"
     id="path1074"
     cx="18.012806"
     cy="15.871565"
     rx="0.33391768"
     ry="1.0208906" />
  <ellipse
     style="clip-rule:evenodd;opacity:1;fill:#98e8c1;fill-opacity:1;fill-rule:nonzero;stroke:none;stroke-width:1.00950682;stroke-linejoin:round;stroke-miterlimit:2;stroke-opacity:1"
     id="path1074-9"
     cx="18.038322"
     cy="32.093796"
     rx="0.33391768"
     ry="1.0208906" />
  <ellipse
     style="clip-rule:evenodd;opacity:1;fill:#98e8c1;fill-opacity:1;fill-rule:nonzero;stroke:none;stroke-width:1.00950682;stroke-linejoin:round;stroke-miterlimit:2;stroke-opacity:1"
     id="path1074-7"
     cx="29.775995"
     cy="32.081036"
     rx="0.33391768"
     ry="1.0208906" />
  <ellipse
     style="clip-rule:evenodd;opacity:1;fill:#98e8c1;fill-opacity:1;fill-rule:nonzero;stroke:none;stroke-width:1.00950682;stroke-linejoin:round;stroke-miterlimit:2;stroke-opacity:1"
     id="path1074-3"
     cx="29.82703"
     cy="15.865187"
     rx="0.33391768"
     ry="1.0208906" />
  <ellipse
     style="clip-rule:evenodd;opacity:1;fill:#98e8c1;fill-opacity:1;fill-rule:nonzero;stroke:none;stroke-width:1.31826556;stroke-linejoin:round;stroke-miterlimit:2;stroke-opacity:1"
     id="path1074-6"
     cx="23.913538"
     cy="23.992247"
     rx="0.37963572"
     ry="1.5312241" />
</svg>
