<?xml version="1.0" encoding="UTF-8" standalone="no"?>
<!-- Created with Inkscape (http://www.inkscape.org/) -->

<svg
   xmlns:dc="http://purl.org/dc/elements/1.1/"
   xmlns:cc="http://creativecommons.org/ns#"
   xmlns:rdf="http://www.w3.org/1999/02/22-rdf-syntax-ns#"
   xmlns:svg="http://www.w3.org/2000/svg"
   xmlns="http://www.w3.org/2000/svg"
   xmlns:sodipodi="http://sodipodi.sourceforge.net/DTD/sodipodi-0.dtd"
   xmlns:inkscape="http://www.inkscape.org/namespaces/inkscape"
   width="64"
   height="64"
   version="1.1"
   viewBox="0 0 16.933 16.933"
   id="svg2176"
   sodipodi:docname="mathematica.svg"
   inkscape:version="0.92.5 (2060ec1f9f, 2020-04-08)">
  <sodipodi:namedview
     pagecolor="#ffffff"
     bordercolor="#666666"
     borderopacity="1"
     objecttolerance="10"
     gridtolerance="10"
     guidetolerance="10"
     inkscape:pageopacity="0"
     inkscape:pageshadow="2"
     inkscape:window-width="948"
     inkscape:window-height="999"
     id="namedview2178"
     showgrid="false"
     inkscape:zoom="3.6875"
     inkscape:cx="53.288136"
     inkscape:cy="32"
     inkscape:window-x="964"
     inkscape:window-y="36"
     inkscape:window-maximized="0"
     inkscape:current-layer="svg2176" />
  <defs
     id="defs594">
    <clipPath
       id="clipPath13429">
      <path
         d="m481 318h22v22h-22z"
         id="path2" />
    </clipPath>
    <clipPath
       id="clipPath13465">
      <path
         d="m507 318h22v22h-22z"
         id="path5" />
    </clipPath>
    <clipPath
       id="clipPath13501">
      <path
         d="m530 318h22v22h-22z"
         id="path8" />
    </clipPath>
    <clipPath
       id="clipPath13753">
      <path
         d="m672 1064c0-1.105 4.925-2 11-2s11 0.895 11 2-4.925 2-11 2-11-0.895-11-2"
         id="path11" />
    </clipPath>
    <clipPath
       id="clipPath13771">
      <path
         d="m660 1057h51v65.001h-51z"
         id="path14" />
    </clipPath>
    <clipPath
       id="clipPath14035">
      <path
         d="m659 517h53v18h-53z"
         id="path17" />
    </clipPath>
    <clipPath
       id="clipPath14127">
      <path
         d="m659 500h53v18h-53z"
         id="path20" />
    </clipPath>
    <clipPath
       id="clipPath14445">
      <path
         d="m648 112h73v60h-73z"
         id="path23" />
    </clipPath>
    <clipPath
       id="clipPath14609">
      <path
         d="m826 1056h59v60h-59z"
         id="path26" />
    </clipPath>
    <clipPath
       id="clipPath15305">
      <path
         d="m805 276h100v100h-100z"
         id="path29" />
    </clipPath>
    <clipPath
       id="clipPath15341">
      <path
         d="m145 1063.8h74.152v45.21h-74.152z"
         id="path32" />
    </clipPath>
    <clipPath
       id="clipPath15715">
      <path
         d="m151 667h57v57h-57z"
         id="path35" />
    </clipPath>
    <clipPath
       id="clipPath15807">
      <path
         d="m154 697h51v51h-51z"
         id="path38" />
    </clipPath>
    <clipPath
       id="clipPath16001">
      <path
         d="m500.04 864.45h36.012v67.52h-36.012z"
         id="path41" />
    </clipPath>
    <clipPath
       id="clipPath16093">
      <path
         d="m836 870.54h47v55.539h-47z"
         id="path44" />
    </clipPath>
    <clipPath
       id="clipPath16477">
      <path
         d="m318.03 702.35h62.848v37.991h-62.848z"
         id="path47" />
    </clipPath>
    <clipPath
       id="clipPath16579">
      <path
         d="m485.03 133.35h62.847v37.991h-62.847z"
         id="path50" />
    </clipPath>
    <clipPath
       id="clipPath16709">
      <path
         d="m493.37 677.93h45.643v68.067h-45.643z"
         id="path53" />
    </clipPath>
    <clipPath
       id="clipPath24218">
      <path
         d="m144.34 1018.2h71.467v78h-71.467z"
         id="path56" />
    </clipPath>
    <clipPath
       id="clipPath24382">
      <path
         d="m293.21 1068.6 66.323-38.292 36.047 62.435-66.323 38.292z"
         id="path59" />
    </clipPath>
    <clipPath
       id="clipPath24650">
      <path
         d="m488.86 1054.5h10v10.706h-10z"
         id="path62" />
    </clipPath>
    <clipPath
       id="clipPath24700">
      <path
         d="m508 1066.8h10.001v10.705h-10.001z"
         id="path65" />
    </clipPath>
    <clipPath
       id="clipPath24750">
      <path
         d="m525 1045.8h10v10.706h-10z"
         id="path68" />
    </clipPath>
    <clipPath
       id="clipPath24864">
      <path
         d="m836 1043.7h25.5v31.5h-25.5z"
         id="path71" />
    </clipPath>
    <clipPath
       id="clipPath24896">
      <path
         d="m838 1062.2h24v24h-24z"
         id="path74" />
    </clipPath>
    <clipPath
       id="clipPath25070">
      <path
         d="m134 489.24h7v6h-7z"
         id="path77" />
    </clipPath>
    <clipPath
       id="clipPath25100">
      <path
         d="m216 489.24h7v6h-7z"
         id="path80" />
    </clipPath>
    <clipPath
       id="clipPath25502">
      <path
         d="m838 477.24h22v22h-22z"
         id="path83" />
    </clipPath>
    <clipPath
       id="clipPath25686">
      <path
         d="m704 1061.2h25v25h-25z"
         id="path86" />
    </clipPath>
    <clipPath
       id="clipPath25788">
      <path
         d="m663.04 1078.6-1.808-3.514-21.07-47.453c13.336-18.439 48.336-26.938 73.836-3.439 0.842 0 6.476 6.246 6 7l-18.386 25.895c-0.483 0.765-1.453 0.946-2.177 0.431l-15.505-11.011c-0.359-0.255-0.847-0.153-1.07 0.238l-18.272 31.869c-0.218 0.384-0.502 0.578-0.782 0.578-0.282 0-0.561-0.197-0.766-0.594"
         id="path89" />
    </clipPath>
    <clipPath
       id="clipPath26420">
      <path
         d="m127 820.24h100v100h-100z"
         id="path92" />
    </clipPath>
    <clipPath
       id="clipPath26860">
      <path
         d="m809 680.24c0-22.092 17.908-40 40-40s40 17.908 40 40c0 22.091-17.908 40-40 40s-40-17.909-40-40"
         id="path95" />
    </clipPath>
    <clipPath
       id="clipPath27506">
      <path
         d="m658 469.24h44v45h-44z"
         id="path98" />
    </clipPath>
    <clipPath
       id="clipPath27772">
      <path
         d="m651 271.24h58v58h-58z"
         id="path101" />
    </clipPath>
    <clipPath
       id="clipPath27864">
      <path
         d="m662 307.24h38v8h-38z"
         id="path104" />
    </clipPath>
    <clipPath
       id="clipPath28028">
      <path
         d="m858.98 137.24c0.013-0.101 0.021-0.203 0.021-0.307v-6.693h15.75c1.237 0 2.25-1.013 2.25-2.25v-11.25l-27-4.5-27 4.5v-2.25l27-4.5 27 4.5v-27c0-1.237-1.013-2.25-2.25-2.25h-49.5c-1.237 0-2.25 1.013-2.25 2.25v-4.25h54v54zm-35.979 0v-9.25c0 1.237 1.013 2.25 2.25 2.25h15.75v6.693c0 0.104 7e-3 0.207 0.02 0.307zm22.5-7h9v4.5h-9zm1.125-9c-0.62 0-1.125-0.506-1.125-1.125v-2.25c0-0.619 0.505-1.125 1.125-1.125h6.75c0.619 0 1.125 0.506 1.125 1.125v2.25c0 0.619-0.506 1.125-1.125 1.125z"
         id="path107" />
    </clipPath>
    <clipPath
       id="clipPath28200">
      <path
         d="m531.27 136.24c6.325-2.29 10.727-8.277 10.727-15.484 0-11.316-10.2-20.563-25.65-34.575l-4.35-3.941-4.35 3.941c-15.45 14.012-25.65 23.259-25.65 34.575v-39.516h60v55zm-26.983 0c2.995-1.052 5.686-2.883 7.71-5.25 2.024 2.367 4.715 4.198 7.71 5.25zm-22.29 0v-15.484c0 7.207 4.402 13.194 10.727 15.484z"
         id="path110" />
    </clipPath>
    <clipPath
       id="clipPath28364">
      <path
         d="m648 79.241h64v64h-64z"
         id="path113" />
    </clipPath>
    <clipPath
       id="clipPath28984">
      <path
         d="m500 691.74c0-3.037 2.463-5.5 5.5-5.5s5.5 2.463 5.5 5.5-2.463 5.5-5.5 5.5-5.5-2.463-5.5-5.5"
         id="path116" />
    </clipPath>
    <clipPath
       id="clipPath29012">
      <path
         d="m500 669.74c0-3.037 2.463-5.5 5.5-5.5s5.5 2.463 5.5 5.5c0 3.038-2.463 5.5-5.5 5.5s-5.5-2.462-5.5-5.5"
         id="path119" />
    </clipPath>
    <clipPath
       id="clipPath29040">
      <path
         d="m494 680.74c0-3.037 2.462-5.5 5.5-5.5s5.5 2.463 5.5 5.5c0 3.038-2.462 5.5-5.5 5.5s-5.5-2.462-5.5-5.5"
         id="path122" />
    </clipPath>
    <clipPath
       id="clipPath29068">
      <path
         d="m513 691.74c0-3.037 2.463-5.5 5.5-5.5s5.5 2.463 5.5 5.5-2.463 5.5-5.5 5.5-5.5-2.463-5.5-5.5"
         id="path125" />
    </clipPath>
    <clipPath
       id="clipPath29096">
      <path
         d="m513 669.74c0-3.037 2.463-5.5 5.5-5.5s5.5 2.463 5.5 5.5c0 3.038-2.463 5.5-5.5 5.5s-5.5-2.462-5.5-5.5"
         id="path128" />
    </clipPath>
    <clipPath
       id="clipPath29124">
      <path
         d="m507 680.74c0-3.037 2.463-5.5 5.5-5.5s5.5 2.463 5.5 5.5c0 3.038-2.463 5.5-5.5 5.5s-5.5-2.462-5.5-5.5"
         id="path131" />
    </clipPath>
    <clipPath
       id="clipPath29152">
      <path
         d="m520 680.74c0-3.037 2.463-5.5 5.5-5.5s5.5 2.463 5.5 5.5c0 3.038-2.463 5.5-5.5 5.5s-5.5-2.462-5.5-5.5"
         id="path134" />
    </clipPath>
    <clipPath
       id="clipPath29252">
      <path
         d="m321 322.24c-4.97 0-9-4.029-9-9 0-4.97 4.03-9 9-9h45c4.971 0 9 4.03 9 9 0 4.971-4.029 9-9 9z"
         id="path137" />
    </clipPath>
    <clipPath
       id="clipPath29280">
      <path
         d="m322 297.24c-4.971 0-9-4.029-9-9 0-4.97 4.029-9 9-9h45c4.971 0 9 4.03 9 9 0 4.971-4.029 9-9 9z"
         id="path140" />
    </clipPath>
    <clipPath
       id="clipPath29400">
      <path
         d="m155 83.24h44v53h-44z"
         id="path143" />
    </clipPath>
    <clipPath
       id="clipPath13429-6">
      <path
         d="m481 318h22v22h-22z"
         id="path146" />
    </clipPath>
    <clipPath
       id="clipPath13465-0">
      <path
         d="m507 318h22v22h-22z"
         id="path149" />
    </clipPath>
    <clipPath
       id="clipPath13501-6">
      <path
         d="m530 318h22v22h-22z"
         id="path152" />
    </clipPath>
    <clipPath
       id="clipPath13753-2">
      <path
         d="m672 1064c0-1.105 4.925-2 11-2s11 0.895 11 2-4.925 2-11 2-11-0.895-11-2"
         id="path155" />
    </clipPath>
    <clipPath
       id="clipPath13771-6">
      <path
         d="m660 1057h51v65.001h-51z"
         id="path158" />
    </clipPath>
    <clipPath
       id="clipPath14035-1">
      <path
         d="m659 517h53v18h-53z"
         id="path161" />
    </clipPath>
    <clipPath
       id="clipPath14127-8">
      <path
         d="m659 500h53v18h-53z"
         id="path164" />
    </clipPath>
    <clipPath
       id="clipPath14445-7">
      <path
         d="m648 112h73v60h-73z"
         id="path167" />
    </clipPath>
    <clipPath
       id="clipPath14609-9">
      <path
         d="m826 1056h59v60h-59z"
         id="path170" />
    </clipPath>
    <clipPath
       id="clipPath15305-2">
      <path
         d="m805 276h100v100h-100z"
         id="path173" />
    </clipPath>
    <clipPath
       id="clipPath15341-0">
      <path
         d="m145 1063.8h74.152v45.21h-74.152z"
         id="path176" />
    </clipPath>
    <clipPath
       id="clipPath15715-2">
      <path
         d="m151 667h57v57h-57z"
         id="path179" />
    </clipPath>
    <clipPath
       id="clipPath15807-3">
      <path
         d="m154 697h51v51h-51z"
         id="path182" />
    </clipPath>
    <clipPath
       id="clipPath16001-7">
      <path
         d="m500.04 864.45h36.012v67.52h-36.012z"
         id="path185" />
    </clipPath>
    <clipPath
       id="clipPath16093-5">
      <path
         d="m836 870.54h47v55.539h-47z"
         id="path188" />
    </clipPath>
    <clipPath
       id="clipPath16477-9">
      <path
         d="m318.03 702.35h62.848v37.991h-62.848z"
         id="path191" />
    </clipPath>
    <clipPath
       id="clipPath16579-2">
      <path
         d="m485.03 133.35h62.847v37.991h-62.847z"
         id="path194" />
    </clipPath>
    <clipPath
       id="clipPath16709-2">
      <path
         d="m493.37 677.93h45.643v68.067h-45.643z"
         id="path197" />
    </clipPath>
    <clipPath
       id="clipPath24218-8">
      <path
         d="m144.34 1018.2h71.467v78h-71.467z"
         id="path200" />
    </clipPath>
    <clipPath
       id="clipPath24382-9">
      <path
         d="m293.21 1068.6 66.323-38.292 36.047 62.435-66.323 38.292z"
         id="path203" />
    </clipPath>
    <clipPath
       id="clipPath24650-7">
      <path
         d="m488.86 1054.5h10v10.706h-10z"
         id="path206" />
    </clipPath>
    <clipPath
       id="clipPath24700-3">
      <path
         d="m508 1066.8h10.001v10.705h-10.001z"
         id="path209" />
    </clipPath>
    <clipPath
       id="clipPath24750-6">
      <path
         d="m525 1045.8h10v10.706h-10z"
         id="path212" />
    </clipPath>
    <clipPath
       id="clipPath24864-1">
      <path
         d="m836 1043.7h25.5v31.5h-25.5z"
         id="path215" />
    </clipPath>
    <clipPath
       id="clipPath24896-2">
      <path
         d="m838 1062.2h24v24h-24z"
         id="path218" />
    </clipPath>
    <clipPath
       id="clipPath25070-9">
      <path
         d="m134 489.24h7v6h-7z"
         id="path221" />
    </clipPath>
    <clipPath
       id="clipPath25100-3">
      <path
         d="m216 489.24h7v6h-7z"
         id="path224" />
    </clipPath>
    <clipPath
       id="clipPath25502-1">
      <path
         d="m838 477.24h22v22h-22z"
         id="path227" />
    </clipPath>
    <clipPath
       id="clipPath25686-9">
      <path
         d="m704 1061.2h25v25h-25z"
         id="path230" />
    </clipPath>
    <clipPath
       id="clipPath25788-4">
      <path
         d="m663.04 1078.6-1.808-3.514-21.07-47.453c13.336-18.439 48.336-26.938 73.836-3.439 0.842 0 6.476 6.246 6 7l-18.386 25.895c-0.483 0.765-1.453 0.946-2.177 0.431l-15.505-11.011c-0.359-0.255-0.847-0.153-1.07 0.238l-18.272 31.869c-0.218 0.384-0.502 0.578-0.782 0.578-0.282 0-0.561-0.197-0.766-0.594"
         id="path233" />
    </clipPath>
    <clipPath
       id="clipPath26420-7">
      <path
         d="m127 820.24h100v100h-100z"
         id="path236" />
    </clipPath>
    <clipPath
       id="clipPath26860-8">
      <path
         d="m809 680.24c0-22.092 17.908-40 40-40s40 17.908 40 40c0 22.091-17.908 40-40 40s-40-17.909-40-40"
         id="path239" />
    </clipPath>
    <clipPath
       id="clipPath27506-4">
      <path
         d="m658 469.24h44v45h-44z"
         id="path242" />
    </clipPath>
    <clipPath
       id="clipPath27772-5">
      <path
         d="m651 271.24h58v58h-58z"
         id="path245" />
    </clipPath>
    <clipPath
       id="clipPath27864-0">
      <path
         d="m662 307.24h38v8h-38z"
         id="path248" />
    </clipPath>
    <clipPath
       id="clipPath28028-3">
      <path
         d="m858.98 137.24c0.013-0.101 0.021-0.203 0.021-0.307v-6.693h15.75c1.237 0 2.25-1.013 2.25-2.25v-11.25l-27-4.5-27 4.5v-2.25l27-4.5 27 4.5v-27c0-1.237-1.013-2.25-2.25-2.25h-49.5c-1.237 0-2.25 1.013-2.25 2.25v-4.25h54v54zm-35.979 0v-9.25c0 1.237 1.013 2.25 2.25 2.25h15.75v6.693c0 0.104 7e-3 0.207 0.02 0.307zm22.5-7h9v4.5h-9zm1.125-9c-0.62 0-1.125-0.506-1.125-1.125v-2.25c0-0.619 0.505-1.125 1.125-1.125h6.75c0.619 0 1.125 0.506 1.125 1.125v2.25c0 0.619-0.506 1.125-1.125 1.125z"
         id="path251" />
    </clipPath>
    <clipPath
       id="clipPath28200-6">
      <path
         d="m531.27 136.24c6.325-2.29 10.727-8.277 10.727-15.484 0-11.316-10.2-20.563-25.65-34.575l-4.35-3.941-4.35 3.941c-15.45 14.012-25.65 23.259-25.65 34.575v-39.516h60v55zm-26.983 0c2.995-1.052 5.686-2.883 7.71-5.25 2.024 2.367 4.715 4.198 7.71 5.25zm-22.29 0v-15.484c0 7.207 4.402 13.194 10.727 15.484z"
         id="path254" />
    </clipPath>
    <clipPath
       id="clipPath28364-1">
      <path
         d="m648 79.241h64v64h-64z"
         id="path257" />
    </clipPath>
    <clipPath
       id="clipPath28984-0">
      <path
         d="m500 691.74c0-3.037 2.463-5.5 5.5-5.5s5.5 2.463 5.5 5.5-2.463 5.5-5.5 5.5-5.5-2.463-5.5-5.5"
         id="path260" />
    </clipPath>
    <clipPath
       id="clipPath29012-6">
      <path
         d="m500 669.74c0-3.037 2.463-5.5 5.5-5.5s5.5 2.463 5.5 5.5c0 3.038-2.463 5.5-5.5 5.5s-5.5-2.462-5.5-5.5"
         id="path263" />
    </clipPath>
    <clipPath
       id="clipPath29040-3">
      <path
         d="m494 680.74c0-3.037 2.462-5.5 5.5-5.5s5.5 2.463 5.5 5.5c0 3.038-2.462 5.5-5.5 5.5s-5.5-2.462-5.5-5.5"
         id="path266" />
    </clipPath>
    <clipPath
       id="clipPath29068-2">
      <path
         d="m513 691.74c0-3.037 2.463-5.5 5.5-5.5s5.5 2.463 5.5 5.5-2.463 5.5-5.5 5.5-5.5-2.463-5.5-5.5"
         id="path269" />
    </clipPath>
    <clipPath
       id="clipPath29096-0">
      <path
         d="m513 669.74c0-3.037 2.463-5.5 5.5-5.5s5.5 2.463 5.5 5.5c0 3.038-2.463 5.5-5.5 5.5s-5.5-2.462-5.5-5.5"
         id="path272" />
    </clipPath>
    <clipPath
       id="clipPath29124-6">
      <path
         d="m507 680.74c0-3.037 2.463-5.5 5.5-5.5s5.5 2.463 5.5 5.5c0 3.038-2.463 5.5-5.5 5.5s-5.5-2.462-5.5-5.5"
         id="path275" />
    </clipPath>
    <clipPath
       id="clipPath29152-1">
      <path
         d="m520 680.74c0-3.037 2.463-5.5 5.5-5.5s5.5 2.463 5.5 5.5c0 3.038-2.463 5.5-5.5 5.5s-5.5-2.462-5.5-5.5"
         id="path278" />
    </clipPath>
    <clipPath
       id="clipPath29252-5">
      <path
         d="m321 322.24c-4.97 0-9-4.029-9-9 0-4.97 4.03-9 9-9h45c4.971 0 9 4.03 9 9 0 4.971-4.029 9-9 9z"
         id="path281" />
    </clipPath>
    <clipPath
       id="clipPath29280-5">
      <path
         d="m322 297.24c-4.971 0-9-4.029-9-9 0-4.97 4.029-9 9-9h45c4.971 0 9 4.03 9 9 0 4.971-4.029 9-9 9z"
         id="path284" />
    </clipPath>
    <clipPath
       id="clipPath29400-4">
      <path
         d="m155 83.24h44v53h-44z"
         id="path287" />
    </clipPath>
    <linearGradient
       id="linearGradient938-3"
       x1="80.368"
       x2="82.141"
       y1="13.177"
       y2="14.704"
       gradientTransform="matrix(.99325 .11114 -.11114 .99325 -65.736 -10.617)"
       gradientUnits="userSpaceOnUse">
      <stop
         stop-color="#fafafa"
         offset="0"
         id="stop290" />
      <stop
         stop-color="#90a0b3"
         offset="1"
         id="stop292" />
    </linearGradient>
    <clipPath
       id="clipPath13429-67">
      <path
         d="m481 318h22v22h-22z"
         id="path295" />
    </clipPath>
    <clipPath
       id="clipPath13465-5">
      <path
         d="m507 318h22v22h-22z"
         id="path298" />
    </clipPath>
    <clipPath
       id="clipPath13501-3">
      <path
         d="m530 318h22v22h-22z"
         id="path301" />
    </clipPath>
    <clipPath
       id="clipPath13753-5">
      <path
         d="m672 1064c0-1.105 4.925-2 11-2s11 0.895 11 2-4.925 2-11 2-11-0.895-11-2"
         id="path304" />
    </clipPath>
    <clipPath
       id="clipPath13771-62">
      <path
         d="m660 1057h51v65.001h-51z"
         id="path307" />
    </clipPath>
    <clipPath
       id="clipPath14035-9">
      <path
         d="m659 517h53v18h-53z"
         id="path310" />
    </clipPath>
    <clipPath
       id="clipPath14127-1">
      <path
         d="m659 500h53v18h-53z"
         id="path313" />
    </clipPath>
    <clipPath
       id="clipPath14445-2">
      <path
         d="m648 112h73v60h-73z"
         id="path316" />
    </clipPath>
    <clipPath
       id="clipPath14609-7">
      <path
         d="m826 1056h59v60h-59z"
         id="path319" />
    </clipPath>
    <clipPath
       id="clipPath15305-0">
      <path
         d="m805 276h100v100h-100z"
         id="path322" />
    </clipPath>
    <clipPath
       id="clipPath15341-9">
      <path
         d="m145 1063.8h74.152v45.21h-74.152z"
         id="path325" />
    </clipPath>
    <clipPath
       id="clipPath15715-3">
      <path
         d="m151 667h57v57h-57z"
         id="path328" />
    </clipPath>
    <clipPath
       id="clipPath15807-6">
      <path
         d="m154 697h51v51h-51z"
         id="path331" />
    </clipPath>
    <clipPath
       id="clipPath16001-0">
      <path
         d="m500.04 864.45h36.012v67.52h-36.012z"
         id="path334" />
    </clipPath>
    <clipPath
       id="clipPath16093-6">
      <path
         d="m836 870.54h47v55.539h-47z"
         id="path337" />
    </clipPath>
    <clipPath
       id="clipPath16477-2">
      <path
         d="m318.03 702.35h62.848v37.991h-62.848z"
         id="path340" />
    </clipPath>
    <clipPath
       id="clipPath16579-6">
      <path
         d="m485.03 133.35h62.847v37.991h-62.847z"
         id="path343" />
    </clipPath>
    <clipPath
       id="clipPath16709-1">
      <path
         d="m493.37 677.93h45.643v68.067h-45.643z"
         id="path346" />
    </clipPath>
    <clipPath
       id="clipPath24218-87">
      <path
         d="m144.34 1018.2h71.467v78h-71.467z"
         id="path349" />
    </clipPath>
    <clipPath
       id="clipPath24382-92">
      <path
         d="m293.21 1068.6 66.323-38.292 36.047 62.435-66.323 38.292z"
         id="path352" />
    </clipPath>
    <clipPath
       id="clipPath24650-0">
      <path
         d="m488.86 1054.5h10v10.706h-10z"
         id="path355" />
    </clipPath>
    <clipPath
       id="clipPath24700-2">
      <path
         d="m508 1066.8h10.001v10.705h-10.001z"
         id="path358" />
    </clipPath>
    <clipPath
       id="clipPath24750-3">
      <path
         d="m525 1045.8h10v10.706h-10z"
         id="path361" />
    </clipPath>
    <clipPath
       id="clipPath24864-7">
      <path
         d="m836 1043.7h25.5v31.5h-25.5z"
         id="path364" />
    </clipPath>
    <clipPath
       id="clipPath24896-5">
      <path
         d="m838 1062.2h24v24h-24z"
         id="path367" />
    </clipPath>
    <clipPath
       id="clipPath25070-92">
      <path
         d="m134 489.24h7v6h-7z"
         id="path370" />
    </clipPath>
    <clipPath
       id="clipPath25100-2">
      <path
         d="m216 489.24h7v6h-7z"
         id="path373" />
    </clipPath>
    <clipPath
       id="clipPath25502-8">
      <path
         d="m838 477.24h22v22h-22z"
         id="path376" />
    </clipPath>
    <clipPath
       id="clipPath25686-97">
      <path
         d="m704 1061.2h25v25h-25z"
         id="path379" />
    </clipPath>
    <clipPath
       id="clipPath25788-3">
      <path
         d="m663.04 1078.6-1.808-3.514-21.07-47.453c13.336-18.439 48.336-26.938 73.836-3.439 0.842 0 6.476 6.246 6 7l-18.386 25.895c-0.483 0.765-1.453 0.946-2.177 0.431l-15.505-11.011c-0.359-0.255-0.847-0.153-1.07 0.238l-18.272 31.869c-0.218 0.384-0.502 0.578-0.782 0.578-0.282 0-0.561-0.197-0.766-0.594"
         id="path382" />
    </clipPath>
    <clipPath
       id="clipPath26420-6">
      <path
         d="m127 820.24h100v100h-100z"
         id="path385" />
    </clipPath>
    <clipPath
       id="clipPath26860-1">
      <path
         d="m809 680.24c0-22.092 17.908-40 40-40s40 17.908 40 40c0 22.091-17.908 40-40 40s-40-17.909-40-40"
         id="path388" />
    </clipPath>
    <clipPath
       id="clipPath27506-2">
      <path
         d="m658 469.24h44v45h-44z"
         id="path391" />
    </clipPath>
    <clipPath
       id="clipPath27772-9">
      <path
         d="m651 271.24h58v58h-58z"
         id="path394" />
    </clipPath>
    <clipPath
       id="clipPath27864-3">
      <path
         d="m662 307.24h38v8h-38z"
         id="path397" />
    </clipPath>
    <clipPath
       id="clipPath28028-1">
      <path
         d="m858.98 137.24c0.013-0.101 0.021-0.203 0.021-0.307v-6.693h15.75c1.237 0 2.25-1.013 2.25-2.25v-11.25l-27-4.5-27 4.5v-2.25l27-4.5 27 4.5v-27c0-1.237-1.013-2.25-2.25-2.25h-49.5c-1.237 0-2.25 1.013-2.25 2.25v-4.25h54v54zm-35.979 0v-9.25c0 1.237 1.013 2.25 2.25 2.25h15.75v6.693c0 0.104 7e-3 0.207 0.02 0.307zm22.5-7h9v4.5h-9zm1.125-9c-0.62 0-1.125-0.506-1.125-1.125v-2.25c0-0.619 0.505-1.125 1.125-1.125h6.75c0.619 0 1.125 0.506 1.125 1.125v2.25c0 0.619-0.506 1.125-1.125 1.125z"
         id="path400" />
    </clipPath>
    <clipPath
       id="clipPath28200-9">
      <path
         d="m531.27 136.24c6.325-2.29 10.727-8.277 10.727-15.484 0-11.316-10.2-20.563-25.65-34.575l-4.35-3.941-4.35 3.941c-15.45 14.012-25.65 23.259-25.65 34.575v-39.516h60v55zm-26.983 0c2.995-1.052 5.686-2.883 7.71-5.25 2.024 2.367 4.715 4.198 7.71 5.25zm-22.29 0v-15.484c0 7.207 4.402 13.194 10.727 15.484z"
         id="path403" />
    </clipPath>
    <clipPath
       id="clipPath28364-4">
      <path
         d="m648 79.241h64v64h-64z"
         id="path406" />
    </clipPath>
    <clipPath
       id="clipPath28984-7">
      <path
         d="m500 691.74c0-3.037 2.463-5.5 5.5-5.5s5.5 2.463 5.5 5.5-2.463 5.5-5.5 5.5-5.5-2.463-5.5-5.5"
         id="path409" />
    </clipPath>
    <clipPath
       id="clipPath29012-8">
      <path
         d="m500 669.74c0-3.037 2.463-5.5 5.5-5.5s5.5 2.463 5.5 5.5c0 3.038-2.463 5.5-5.5 5.5s-5.5-2.462-5.5-5.5"
         id="path412" />
    </clipPath>
    <clipPath
       id="clipPath29040-4">
      <path
         d="m494 680.74c0-3.037 2.462-5.5 5.5-5.5s5.5 2.463 5.5 5.5c0 3.038-2.462 5.5-5.5 5.5s-5.5-2.462-5.5-5.5"
         id="path415" />
    </clipPath>
    <clipPath
       id="clipPath29068-5">
      <path
         d="m513 691.74c0-3.037 2.463-5.5 5.5-5.5s5.5 2.463 5.5 5.5-2.463 5.5-5.5 5.5-5.5-2.463-5.5-5.5"
         id="path418" />
    </clipPath>
    <clipPath
       id="clipPath29096-03">
      <path
         d="m513 669.74c0-3.037 2.463-5.5 5.5-5.5s5.5 2.463 5.5 5.5c0 3.038-2.463 5.5-5.5 5.5s-5.5-2.462-5.5-5.5"
         id="path421" />
    </clipPath>
    <clipPath
       id="clipPath29124-61">
      <path
         d="m507 680.74c0-3.037 2.463-5.5 5.5-5.5s5.5 2.463 5.5 5.5c0 3.038-2.463 5.5-5.5 5.5s-5.5-2.462-5.5-5.5"
         id="path424" />
    </clipPath>
    <clipPath
       id="clipPath29152-0">
      <path
         d="m520 680.74c0-3.037 2.463-5.5 5.5-5.5s5.5 2.463 5.5 5.5c0 3.038-2.463 5.5-5.5 5.5s-5.5-2.462-5.5-5.5"
         id="path427" />
    </clipPath>
    <clipPath
       id="clipPath29252-6">
      <path
         d="m321 322.24c-4.97 0-9-4.029-9-9 0-4.97 4.03-9 9-9h45c4.971 0 9 4.03 9 9 0 4.971-4.029 9-9 9z"
         id="path430" />
    </clipPath>
    <clipPath
       id="clipPath29280-3">
      <path
         d="m322 297.24c-4.971 0-9-4.029-9-9 0-4.97 4.029-9 9-9h45c4.971 0 9 4.03 9 9 0 4.971-4.029 9-9 9z"
         id="path433" />
    </clipPath>
    <clipPath
       id="clipPath29400-2">
      <path
         d="m155 83.24h44v53h-44z"
         id="path436" />
    </clipPath>
    <filter
       id="filter1066-1-0"
       x="-.063923"
       y="-.056531"
       width="1.1278"
       height="1.1131"
       color-interpolation-filters="sRGB">
      <feGaussianBlur
         stdDeviation="0.22705935"
         id="feGaussianBlur439" />
    </filter>
    <filter
       id="filter1100-2-6"
       x="-.12197"
       y="-.11848"
       width="1.2439"
       height="1.237"
       color-interpolation-filters="sRGB">
      <feGaussianBlur
         stdDeviation="0.47586465"
         id="feGaussianBlur442" />
    </filter>
    <linearGradient
       id="linearGradient2670-1"
       x1="115.54"
       x2="116.74"
       y1="32.849"
       y2="19.81"
       gradientTransform="translate(-114.96,-17.071)"
       gradientUnits="userSpaceOnUse">
      <stop
         stop-color="#afbec8"
         offset="0"
         id="stop445" />
      <stop
         stop-color="#d2dceb"
         offset="1"
         id="stop447" />
    </linearGradient>
    <clipPath
       id="clipPath13429-6-5">
      <path
         d="m481 318h22v22h-22z"
         id="path450" />
    </clipPath>
    <clipPath
       id="clipPath13465-0-5">
      <path
         d="m507 318h22v22h-22z"
         id="path453" />
    </clipPath>
    <clipPath
       id="clipPath13501-6-4">
      <path
         d="m530 318h22v22h-22z"
         id="path456" />
    </clipPath>
    <clipPath
       id="clipPath13753-2-7">
      <path
         d="m672 1064c0-1.105 4.925-2 11-2s11 0.895 11 2-4.925 2-11 2-11-0.895-11-2"
         id="path459" />
    </clipPath>
    <clipPath
       id="clipPath13771-6-6">
      <path
         d="m660 1057h51v65.001h-51z"
         id="path462" />
    </clipPath>
    <clipPath
       id="clipPath14035-1-5">
      <path
         d="m659 517h53v18h-53z"
         id="path465" />
    </clipPath>
    <clipPath
       id="clipPath14127-8-6">
      <path
         d="m659 500h53v18h-53z"
         id="path468" />
    </clipPath>
    <clipPath
       id="clipPath14445-7-9">
      <path
         d="m648 112h73v60h-73z"
         id="path471" />
    </clipPath>
    <clipPath
       id="clipPath14609-9-3">
      <path
         d="m826 1056h59v60h-59z"
         id="path474" />
    </clipPath>
    <clipPath
       id="clipPath15305-2-7">
      <path
         d="m805 276h100v100h-100z"
         id="path477" />
    </clipPath>
    <clipPath
       id="clipPath15341-0-4">
      <path
         d="m145 1063.8h74.152v45.21h-74.152z"
         id="path480" />
    </clipPath>
    <clipPath
       id="clipPath15715-2-5">
      <path
         d="m151 667h57v57h-57z"
         id="path483" />
    </clipPath>
    <clipPath
       id="clipPath15807-3-2">
      <path
         d="m154 697h51v51h-51z"
         id="path486" />
    </clipPath>
    <clipPath
       id="clipPath16001-7-5">
      <path
         d="m500.04 864.45h36.012v67.52h-36.012z"
         id="path489" />
    </clipPath>
    <clipPath
       id="clipPath16093-5-4">
      <path
         d="m836 870.54h47v55.539h-47z"
         id="path492" />
    </clipPath>
    <clipPath
       id="clipPath16477-9-7">
      <path
         d="m318.03 702.35h62.848v37.991h-62.848z"
         id="path495" />
    </clipPath>
    <clipPath
       id="clipPath16579-2-4">
      <path
         d="m485.03 133.35h62.847v37.991h-62.847z"
         id="path498" />
    </clipPath>
    <clipPath
       id="clipPath16709-2-4">
      <path
         d="m493.37 677.93h45.643v68.067h-45.643z"
         id="path501" />
    </clipPath>
    <clipPath
       id="clipPath24218-8-3">
      <path
         d="m144.34 1018.2h71.467v78h-71.467z"
         id="path504" />
    </clipPath>
    <clipPath
       id="clipPath24382-9-0">
      <path
         d="m293.21 1068.6 66.323-38.292 36.047 62.435-66.323 38.292z"
         id="path507" />
    </clipPath>
    <clipPath
       id="clipPath24650-7-7">
      <path
         d="m488.86 1054.5h10v10.706h-10z"
         id="path510" />
    </clipPath>
    <clipPath
       id="clipPath24700-3-8">
      <path
         d="m508 1066.8h10.001v10.705h-10.001z"
         id="path513" />
    </clipPath>
    <clipPath
       id="clipPath24750-6-6">
      <path
         d="m525 1045.8h10v10.706h-10z"
         id="path516" />
    </clipPath>
    <clipPath
       id="clipPath24864-1-8">
      <path
         d="m836 1043.7h25.5v31.5h-25.5z"
         id="path519" />
    </clipPath>
    <clipPath
       id="clipPath24896-2-8">
      <path
         d="m838 1062.2h24v24h-24z"
         id="path522" />
    </clipPath>
    <clipPath
       id="clipPath25070-9-4">
      <path
         d="m134 489.24h7v6h-7z"
         id="path525" />
    </clipPath>
    <clipPath
       id="clipPath25100-3-3">
      <path
         d="m216 489.24h7v6h-7z"
         id="path528" />
    </clipPath>
    <clipPath
       id="clipPath25502-1-1">
      <path
         d="m838 477.24h22v22h-22z"
         id="path531" />
    </clipPath>
    <clipPath
       id="clipPath25686-9-4">
      <path
         d="m704 1061.2h25v25h-25z"
         id="path534" />
    </clipPath>
    <clipPath
       id="clipPath25788-4-9">
      <path
         d="m663.04 1078.6-1.808-3.514-21.07-47.453c13.336-18.439 48.336-26.938 73.836-3.439 0.842 0 6.476 6.246 6 7l-18.386 25.895c-0.483 0.765-1.453 0.946-2.177 0.431l-15.505-11.011c-0.359-0.255-0.847-0.153-1.07 0.238l-18.272 31.869c-0.218 0.384-0.502 0.578-0.782 0.578-0.282 0-0.561-0.197-0.766-0.594"
         id="path537" />
    </clipPath>
    <clipPath
       id="clipPath26420-7-2">
      <path
         d="m127 820.24h100v100h-100z"
         id="path540" />
    </clipPath>
    <clipPath
       id="clipPath26860-8-0">
      <path
         d="m809 680.24c0-22.092 17.908-40 40-40s40 17.908 40 40c0 22.091-17.908 40-40 40s-40-17.909-40-40"
         id="path543" />
    </clipPath>
    <clipPath
       id="clipPath27506-4-6">
      <path
         d="m658 469.24h44v45h-44z"
         id="path546" />
    </clipPath>
    <clipPath
       id="clipPath27772-5-8">
      <path
         d="m651 271.24h58v58h-58z"
         id="path549" />
    </clipPath>
    <clipPath
       id="clipPath27864-0-9">
      <path
         d="m662 307.24h38v8h-38z"
         id="path552" />
    </clipPath>
    <clipPath
       id="clipPath28028-3-2">
      <path
         d="m858.98 137.24c0.013-0.101 0.021-0.203 0.021-0.307v-6.693h15.75c1.237 0 2.25-1.013 2.25-2.25v-11.25l-27-4.5-27 4.5v-2.25l27-4.5 27 4.5v-27c0-1.237-1.013-2.25-2.25-2.25h-49.5c-1.237 0-2.25 1.013-2.25 2.25v-4.25h54v54zm-35.979 0v-9.25c0 1.237 1.013 2.25 2.25 2.25h15.75v6.693c0 0.104 7e-3 0.207 0.02 0.307zm22.5-7h9v4.5h-9zm1.125-9c-0.62 0-1.125-0.506-1.125-1.125v-2.25c0-0.619 0.505-1.125 1.125-1.125h6.75c0.619 0 1.125 0.506 1.125 1.125v2.25c0 0.619-0.506 1.125-1.125 1.125z"
         id="path555" />
    </clipPath>
    <clipPath
       id="clipPath28200-6-6">
      <path
         d="m531.27 136.24c6.325-2.29 10.727-8.277 10.727-15.484 0-11.316-10.2-20.563-25.65-34.575l-4.35-3.941-4.35 3.941c-15.45 14.012-25.65 23.259-25.65 34.575v-39.516h60v55zm-26.983 0c2.995-1.052 5.686-2.883 7.71-5.25 2.024 2.367 4.715 4.198 7.71 5.25zm-22.29 0v-15.484c0 7.207 4.402 13.194 10.727 15.484z"
         id="path558" />
    </clipPath>
    <clipPath
       id="clipPath28364-1-6">
      <path
         d="m648 79.241h64v64h-64z"
         id="path561" />
    </clipPath>
    <clipPath
       id="clipPath28984-0-4">
      <path
         d="m500 691.74c0-3.037 2.463-5.5 5.5-5.5s5.5 2.463 5.5 5.5-2.463 5.5-5.5 5.5-5.5-2.463-5.5-5.5"
         id="path564" />
    </clipPath>
    <clipPath
       id="clipPath29012-6-9">
      <path
         d="m500 669.74c0-3.037 2.463-5.5 5.5-5.5s5.5 2.463 5.5 5.5c0 3.038-2.463 5.5-5.5 5.5s-5.5-2.462-5.5-5.5"
         id="path567" />
    </clipPath>
    <clipPath
       id="clipPath29040-3-5">
      <path
         d="m494 680.74c0-3.037 2.462-5.5 5.5-5.5s5.5 2.463 5.5 5.5c0 3.038-2.462 5.5-5.5 5.5s-5.5-2.462-5.5-5.5"
         id="path570" />
    </clipPath>
    <clipPath
       id="clipPath29068-2-0">
      <path
         d="m513 691.74c0-3.037 2.463-5.5 5.5-5.5s5.5 2.463 5.5 5.5-2.463 5.5-5.5 5.5-5.5-2.463-5.5-5.5"
         id="path573" />
    </clipPath>
    <clipPath
       id="clipPath29096-0-4">
      <path
         d="m513 669.74c0-3.037 2.463-5.5 5.5-5.5s5.5 2.463 5.5 5.5c0 3.038-2.463 5.5-5.5 5.5s-5.5-2.462-5.5-5.5"
         id="path576" />
    </clipPath>
    <clipPath
       id="clipPath29124-6-8">
      <path
         d="m507 680.74c0-3.037 2.463-5.5 5.5-5.5s5.5 2.463 5.5 5.5c0 3.038-2.463 5.5-5.5 5.5s-5.5-2.462-5.5-5.5"
         id="path579" />
    </clipPath>
    <clipPath
       id="clipPath29152-1-7">
      <path
         d="m520 680.74c0-3.037 2.463-5.5 5.5-5.5s5.5 2.463 5.5 5.5c0 3.038-2.463 5.5-5.5 5.5s-5.5-2.462-5.5-5.5"
         id="path582" />
    </clipPath>
    <clipPath
       id="clipPath29252-5-1">
      <path
         d="m321 322.24c-4.97 0-9-4.029-9-9 0-4.97 4.03-9 9-9h45c4.971 0 9 4.03 9 9 0 4.971-4.029 9-9 9z"
         id="path585" />
    </clipPath>
    <clipPath
       id="clipPath29280-5-7">
      <path
         d="m322 297.24c-4.971 0-9-4.029-9-9 0-4.97 4.029-9 9-9h45c4.971 0 9 4.03 9 9 0 4.971-4.029 9-9 9z"
         id="path588" />
    </clipPath>
    <clipPath
       id="clipPath29400-4-2">
      <path
         d="m155 83.24h44v53h-44z"
         id="path591" />
    </clipPath>
  </defs>
  <metadata
     id="metadata596">
    <rdf:RDF>
      <cc:Work
         rdf:about="">
        <dc:format>image/svg+xml</dc:format>
        <dc:type
           rdf:resource="http://purl.org/dc/dcmitype/StillImage" />
        <dc:title />
      </cc:Work>
    </rdf:RDF>
  </metadata>
  <g
     transform="matrix(1.719805,0,0,1.719805,-44.858307,-4.2847543)"
     id="g606"
     style="fill:#5e4aa6;stroke-width:0.26458001">
    <circle
       cx="-330.35001"
       cy="-328.38"
       r="0"
       id="circle598" />
    <circle
       cx="-312.10999"
       cy="-326.25"
       r="0"
       id="circle600" />
    <circle
       cx="-306.01999"
       cy="-333.07001"
       r="0"
       id="circle602" />
    <circle
       cx="-308.84"
       cy="-326.01001"
       r="0"
       id="circle604" />
  </g>
  <g
     style="fill-rule:evenodd"
     id="g42"
     transform="matrix(0.36863198,0,0,0.36863198,-141.98141,-184.50804)">
    <path
       style="fill:#eb989e"
       inkscape:connector-curvature="0"
       id="path2-3"
       d="m 409.05779,503.88075 -4.43371,6.94364 3.98052,5.62543 4.43371,-5.53764 -3.98052,-7.03143" />
    <path
       style="fill:#e93837"
       inkscape:connector-curvature="0"
       id="path4"
       d="m 413.03831,510.91218 -4.43371,5.53764 7.60083,-3.07675 4.88559,-5.5376 -8.05271,3.07671" />
    <path
       style="fill:#f58661"
       inkscape:connector-curvature="0"
       id="path6"
       d="m 416.20543,513.37307 -0.0918,8.26315 4.25424,-5.53761 0.72303,-8.26314 -4.88559,5.5376" />
    <path
       style="fill:#f7a498"
       inkscape:connector-curvature="0"
       id="path8-6"
       d="m 420.36799,516.09861 -4.25294,5.53761 6.60537,2.37308 5.60862,-6.41687 -7.96105,-1.49382" />
    <path
       style="fill:#f3736c"
       inkscape:connector-curvature="0"
       id="path10"
       d="m 422.72042,524.0093 -6.60668,-2.37308 4.79654,6.06566 7.6008,2.98766 -5.79066,-6.68024" />
    <path
       style="fill:#7a1b1c"
       inkscape:connector-curvature="0"
       id="path12"
       d="m 420.91028,527.70062 -7.60084,2.0219 6.96689,1.93408 8.23475,-0.96706 -7.6008,-2.98892" />
    <path
       style="fill:#d12b33"
       inkscape:connector-curvature="0"
       id="path14-7"
       d="m 420.27633,531.6566 -6.96689,-1.93408 -0.45189,6.41685 7.60082,3.95596 -0.18204,-8.43873" />
    <path
       style="fill:#f15759"
       inkscape:connector-curvature="0"
       id="path16"
       d="m 408.69498,536.22718 -0.0904,7.64728 4.25294,-7.73509 0.45191,-6.41685 -4.61446,6.50466" />
    <path
       style="fill:#f4806d"
       inkscape:connector-curvature="0"
       id="path18"
       d="m 404.62279,510.82439 -7.96104,-3.25231 4.61446,5.97659 7.32839,2.90115 -3.98181,-5.62543" />
    <path
       style="fill:#4c1317"
       inkscape:connector-curvature="0"
       id="path20-5"
       d="m 401.27621,513.54867 -4.61574,-5.97659 0.90506,8.61431 3.98182,4.92178 -0.27114,-7.5595" />
    <path
       style="fill:#dc505e"
       inkscape:connector-curvature="0"
       id="path22"
       d="m 397.56553,516.18639 -8.05272,1.40604 5.88106,5.88882 6.15348,-2.37308 -3.98182,-4.92178" />
    <path
       style="fill:#eb2537"
       inkscape:connector-curvature="0"
       id="path24"
       d="m 395.39387,523.48125 -6.8765,6.32907 7.96233,-2.46088 5.06765,-6.24127 -6.15348,2.37308" />
    <path
       style="fill:#5f1726"
       inkscape:connector-curvature="0"
       id="path26-3"
       d="m 396.4797,527.34944 -7.96233,2.46088 9.13983,1.40601 6.60406,-1.31821 -7.78156,-2.54868" />
    <path
       style="fill:#841921"
       inkscape:connector-curvature="0"
       id="path28"
       d="m 404.26126,529.89812 -6.60534,1.31948 -1.44736,8.96553 8.14309,-4.13156 -0.0903,-6.15345" />
    <path
       style="fill:#511119"
       inkscape:connector-curvature="0"
       id="path30"
       d="m 404.26126,529.89812 0.0904,6.15345 4.25296,7.82289 0.0904,-7.64728 -4.43372,-6.32906" />
    <path
       style="fill:#b02a3c"
       inkscape:connector-curvature="0"
       id="path32-5"
       d="m 408.69498,523.92148 7.41876,-2.28526 0.0918,-8.26315 -7.60082,3.07675 0.0904,7.47166" />
    <path
       style="fill:#e85e5c"
       inkscape:connector-curvature="0"
       id="path34"
       d="m 416.11374,521.63622 -7.41876,2.28526 4.61446,5.80104 7.60084,-2.0219 -4.79654,-6.0644" />
    <path
       style="fill:#f7a0a0"
       inkscape:connector-curvature="0"
       id="path36"
       d="m 408.69498,523.92148 -4.43372,5.97664 4.43372,6.32906 4.61446,-6.50466 -4.61446,-5.80104" />
    <path
       style="fill:#f58f8a"
       inkscape:connector-curvature="0"
       id="path38-6"
       d="m 396.4797,527.34944 7.78156,2.54868 4.43372,-5.97664 -7.14763,-2.81331 -5.06765,6.24127" />
    <path
       style="fill:#e53147"
       inkscape:connector-curvature="0"
       id="path40"
       d="m 408.69498,523.92148 -0.0904,-7.47166 -7.3297,-2.90115 0.27245,7.5595 7.14764,2.81331" />
  </g>
</svg>
