<?xml version="1.0" encoding="UTF-8" standalone="no"?>
<svg
   xmlns:dc="http://purl.org/dc/elements/1.1/"
   xmlns:cc="http://creativecommons.org/ns#"
   xmlns:rdf="http://www.w3.org/1999/02/22-rdf-syntax-ns#"
   xmlns:svg="http://www.w3.org/2000/svg"
   xmlns="http://www.w3.org/2000/svg"
   xmlns:xlink="http://www.w3.org/1999/xlink"
   xmlns:sodipodi="http://sodipodi.sourceforge.net/DTD/sodipodi-0.dtd"
   xmlns:inkscape="http://www.inkscape.org/namespaces/inkscape"
   style="clip-rule:evenodd;fill-rule:evenodd;stroke-linejoin:round;stroke-miterlimit:2"
   version="1.1"
   viewBox="0 0 64 64"
   id="svg8"
   sodipodi:docname="visual-studio-code-insiders.svg"
   inkscape:version="0.92.5 (2060ec1f9f, 2020-04-08)">
  <metadata
     id="metadata14">
    <rdf:RDF>
      <cc:Work
         rdf:about="">
        <dc:format>image/svg+xml</dc:format>
        <dc:type
           rdf:resource="http://purl.org/dc/dcmitype/StillImage" />
      </cc:Work>
    </rdf:RDF>
  </metadata>
  <defs
     id="defs12">
    <linearGradient
       inkscape:collect="always"
       id="linearGradient841">
      <stop
         style="stop-color:#00a388;stop-opacity:1;"
         offset="0"
         id="stop837" />
      <stop
         style="stop-color:#00b597;stop-opacity:1"
         offset="1"
         id="stop839" />
    </linearGradient>
    <linearGradient
       inkscape:collect="always"
       id="linearGradient833">
      <stop
         style="stop-color:#007c64;stop-opacity:1;"
         offset="0"
         id="stop829" />
      <stop
         style="stop-color:#00735d;stop-opacity:1"
         offset="1"
         id="stop831" />
    </linearGradient>
    <linearGradient
       inkscape:collect="always"
       id="linearGradient825">
      <stop
         style="stop-color:#24bfa5;stop-opacity:1;"
         offset="0"
         id="stop821" />
      <stop
         style="stop-color:#14705f;stop-opacity:1"
         offset="1"
         id="stop823" />
    </linearGradient>
    <linearGradient
       inkscape:collect="always"
       xlink:href="#linearGradient825"
       id="linearGradient827"
       x1="52.432991"
       y1="4.0023279"
       x2="52.533947"
       y2="60.095955"
       gradientUnits="userSpaceOnUse" />
    <linearGradient
       inkscape:collect="always"
       xlink:href="#linearGradient833"
       id="linearGradient835"
       x1="6.5546751"
       y1="43.136108"
       x2="46.443222"
       y2="9.2441616"
       gradientUnits="userSpaceOnUse" />
    <linearGradient
       inkscape:collect="always"
       xlink:href="#linearGradient841"
       id="linearGradient843"
       x1="5.867012"
       y1="17.573923"
       x2="48.40797"
       y2="55.198898"
       gradientUnits="userSpaceOnUse" />
  </defs>
  <sodipodi:namedview
     pagecolor="#ffffff"
     bordercolor="#666666"
     borderopacity="1"
     objecttolerance="10"
     gridtolerance="10"
     guidetolerance="10"
     inkscape:pageopacity="0"
     inkscape:pageshadow="2"
     inkscape:window-width="1908"
     inkscape:window-height="1031"
     id="namedview10"
     showgrid="false"
     inkscape:zoom="10.179409"
     inkscape:cx="32.40678"
     inkscape:cy="30.514931"
     inkscape:window-x="8"
     inkscape:window-y="8"
     inkscape:window-maximized="0"
     inkscape:current-layer="svg8" />
  <path
     d="m58.019 9.932l-11.531-5.584c-1.335-0.646-2.93-0.374-3.977 0.68l-37.75 33.997c-1.015 0.932-1.014 2.539 3e-3 3.469l3.083 2.819c0.831 0.761 2.083 0.816 2.978 0.134l45.459-34.066c1.525-1.164 3.716-0.069 3.716 1.856v-0.135c0-1.351-0.77-2.583-1.981-3.17z"
     style="fill-rule:nonzero;fill:url(#linearGradient835);fill-opacity:1"
     id="path2" />
  <path
     d="m58.019 54.068l-11.531 5.584c-1.335 0.647-2.93 0.374-3.977-0.679l-37.75-36.06c-1.015-0.931-1.014-2.539 3e-3 -3.469l3.083-2.819c0.831-0.76 2.083-0.816 2.978-0.133l45.459 36.127c1.525 1.164 3.716 0.07 3.716-1.856v0.135c0 1.352-0.77 2.584-1.981 3.17z"
     style="fill-rule:nonzero;fill:url(#linearGradient843);fill-opacity:1"
     id="path4" />
  <path
     d="m46.489 59.653c-1.335 0.646-2.931 0.373-3.978-0.68 1.29 1.298 3.498 0.378 3.498-1.458v-51.03c0-1.836-2.208-2.755-3.498-1.457 1.047-1.054 2.643-1.327 3.978-0.681l11.529 5.577c1.212 0.586 1.982 1.818 1.982 3.17v37.812c0 1.352-0.77 2.585-1.982 3.171l-11.529 5.576z"
     style="fill-rule:nonzero;fill:url(#linearGradient827);fill-opacity:1"
     id="path6" />
</svg>
