<?xml version="1.0" encoding="UTF-8" standalone="no"?>
<svg
   xmlns:dc="http://purl.org/dc/elements/1.1/"
   xmlns:cc="http://creativecommons.org/ns#"
   xmlns:rdf="http://www.w3.org/1999/02/22-rdf-syntax-ns#"
   xmlns:svg="http://www.w3.org/2000/svg"
   xmlns="http://www.w3.org/2000/svg"
   xmlns:sodipodi="http://sodipodi.sourceforge.net/DTD/sodipodi-0.dtd"
   xmlns:inkscape="http://www.inkscape.org/namespaces/inkscape"
   inkscape:version="1.0 (4035a4fb49, 2020-05-01)"
   sodipodi:docname="weather-overcast.svg"
   id="svg9"
   version="1.1"
   height="24"
   width="24">
  <metadata
     id="metadata13">
    <rdf:RDF>
      <cc:Work
         rdf:about="">
        <dc:format>image/svg+xml</dc:format>
        <dc:type
           rdf:resource="http://purl.org/dc/dcmitype/StillImage" />
      </cc:Work>
    </rdf:RDF>
  </metadata>
  <sodipodi:namedview
     inkscape:current-layer="svg9"
     inkscape:window-maximized="0"
     inkscape:window-y="23"
     inkscape:window-x="26"
     inkscape:cy="11.526176"
     inkscape:cx="11.296435"
     inkscape:zoom="32.739009"
     showgrid="false"
     id="namedview11"
     inkscape:window-height="1017"
     inkscape:window-width="950"
     inkscape:pageshadow="2"
     inkscape:pageopacity="0"
     guidetolerance="10"
     gridtolerance="10"
     objecttolerance="10"
     borderopacity="1"
     bordercolor="#666666"
     pagecolor="#ffffff" />
  <defs
     id="defs3">
    <style
       type="text/css"
       id="current-color-scheme">
   .ColorScheme-Text { color:#dfdfdf; } .ColorScheme-Highlight { color:#4285f4; }
  </style>
  </defs>
  <g
     id="g7"
     transform="translate(-80.000004,-704.29)">
    <path
       sodipodi:nodetypes="cscccccsccscsssscs"
       id="path5"
       transform="translate(81.000004,705.29)"
       d="M 4.0275852,13.781252 C 4.0275852,13.781252 4.79086,15 7,15 H 7.40625 C 7.86012,14.19875 8.64718,13.57265 9.53125,13.3125 10.15098,11.99047 11.50599,10.9742 13,11 c 1.90766,-0.0307 3.58166,1.48472 3.875,3.34375 0.14292,0.0452 0.26925,0.0908 0.40625,0.15625 C 18.31154,13.89085 19,12.7836 19,11.5 19,9.70346 17.511759,9.279123 15.768799,9.079073 15.281097,13.89599 4.6180864,6.8705919 4.0275852,13.781252 Z M 13,12 c -1.31168,0 -2.40482,0.85843 -2.8125,2.03125 C 8.95667,14.18722 8,15.22682 8,16.5 8,17.88071 9.11929,19 10.5,19 H 16 c 1.10457,0 2,-0.89543 2,-2 0,-1.10457 -0.89543,-2 -2,-2 0,-1.65685 -1.34315,-3 -3,-3 z"
       class="ColorScheme-Text"
       style="fill:currentColor" />
  </g>
  <g
     transform="matrix(0.06102356,0,0,0.06102356,-2.272659,20.924162)"
     id="g6">
    <g
       id="g4">
      <path
         sodipodi:nodetypes="sscccccccsccccssscsssss"
         style="fill:#dfdfdf;fill-opacity:1;stroke-width:0.787268"
         id="path2"
         d="m 352.66138,-177.81687 c -9.44722,-9.44722 -22.98824,-15.43046 -37.47398,-15.43046 -7.55777,0 -15.11555,1.57453 -21.7286,4.72361 -6.92797,3.14907 -12.91121,7.55777 -17.94972,13.22611 -2.83417,3.46398 -8.18759,3.77888 -11.33667,0.62981 -3.46398,-2.83417 -3.77889,-8.18759 -0.62981,-11.33666 6.61305,-7.55778 14.48574,-13.22611 23.30314,-17.31991 1.88945,-0.94472 3.77889,-1.57454 5.66833,-2.20435 -5.35342,-10.39194 -13.2261,-19.20935 -22.67333,-25.5075 -11.65157,-8.18759 -25.8224,-12.9112 -40.93795,-12.9112 -17.63482,0 -34.01,6.29815 -46.60629,17.31991 -12.5963,10.70685 -21.4137,26.13731 -23.93296,43.45721 -0.31491,2.20435 -1.57454,4.40871 -3.46398,5.66833 h -0.31491 c -0.94472,0.62982 -2.20435,0.94473 -3.46398,0.94473 -12.28139,0 -23.61805,5.03851 -31.49074,12.9112 -8.18759,8.18759 -12.9112,19.20935 -12.9112,31.49073 0,12.2814 5.03852,23.61806 12.9112,31.49075 6.92796,8.18759 20.01292,19.541648 30.54602,13.226108 l 86.98229,-52.153688 c 52.86043,-31.69457 106.05592,46.170448 115.50314,36.72323 9.44722,-9.44722 15.43046,-22.98825 15.43046,-37.47399 0,-14.80064 -5.98324,-28.02675 -15.43046,-37.47397 z" />
    </g>
  </g>
</svg>
