<?xml version="1.0" encoding="UTF-8" standalone="no"?>
<svg
   xmlns:dc="http://purl.org/dc/elements/1.1/"
   xmlns:cc="http://creativecommons.org/ns#"
   xmlns:rdf="http://www.w3.org/1999/02/22-rdf-syntax-ns#"
   xmlns:svg="http://www.w3.org/2000/svg"
   xmlns="http://www.w3.org/2000/svg"
   xmlns:sodipodi="http://sodipodi.sourceforge.net/DTD/sodipodi-0.dtd"
   xmlns:inkscape="http://www.inkscape.org/namespaces/inkscape"
   style="clip-rule:evenodd;fill-rule:evenodd;stroke-linejoin:round;stroke-miterlimit:2"
   version="1.1"
   viewBox="0 0 16 16"
   id="svg8"
   sodipodi:docname="mail-symbolic.svg"
   inkscape:version="0.92.5 (2060ec1f9f, 2020-04-08)">
  <metadata
     id="metadata14">
    <rdf:RDF>
      <cc:Work
         rdf:about="">
        <dc:format>image/svg+xml</dc:format>
        <dc:type
           rdf:resource="http://purl.org/dc/dcmitype/StillImage" />
      </cc:Work>
    </rdf:RDF>
  </metadata>
  <defs
     id="defs12" />
  <sodipodi:namedview
     pagecolor="#ffffff"
     bordercolor="#666666"
     borderopacity="1"
     objecttolerance="10"
     gridtolerance="10"
     guidetolerance="10"
     inkscape:pageopacity="0"
     inkscape:pageshadow="2"
     inkscape:window-width="1904"
     inkscape:window-height="999"
     id="namedview10"
     showgrid="false"
     inkscape:zoom="14.75"
     inkscape:cx="6.6440678"
     inkscape:cy="8"
     inkscape:window-x="8"
     inkscape:window-y="36"
     inkscape:window-maximized="0"
     inkscape:current-layer="svg8" />
  <g
     transform="matrix(.4 1.47911e-32 4.93038e-33 .4 -223.72 -151.017)"
     id="g6"
     style="fill:#dfdfdf;fill-opacity:1">
    <path
       d="m563.766 383.5c-2.466 0-4.466 2-4.466 4.466v17.068c0 2.466 2 4.466 4.466 4.466h31.068c2.466 0 4.466-2 4.466-4.466v-17.068c0-2.466-2-4.466-4.466-4.466h-31.068zm18.934 15.9c-0.9 0.9-2.1 1.4-3.4 1.4s-2.5-0.5-3.4-1.4l-13.9-13.9h34.5l-13.8 13.9zm-11.1-2.9-10.3 10.3v-20.6l10.3 10.3zm0.7 0.7 2.9 2.9c1.1 1.1 2.6 1.7 4.1 1.7 1.6 0 3-0.6 4.1-1.7l2.9-2.9 10.3 10.3h-34.6l10.3-10.3zm14.7-0.7 10.3-10.3v20.7l-10.3-10.4z"
       style="fill-rule:nonzero;fill:#dfdfdf;fill-opacity:1"
       id="path4" />
  </g>
</svg>
