<?xml version="1.0" encoding="UTF-8" standalone="no"?>
<svg
   xmlns:dc="http://purl.org/dc/elements/1.1/"
   xmlns:cc="http://creativecommons.org/ns#"
   xmlns:rdf="http://www.w3.org/1999/02/22-rdf-syntax-ns#"
   xmlns:svg="http://www.w3.org/2000/svg"
   xmlns="http://www.w3.org/2000/svg"
   xmlns:sodipodi="http://sodipodi.sourceforge.net/DTD/sodipodi-0.dtd"
   xmlns:inkscape="http://www.inkscape.org/namespaces/inkscape"
   clip-rule="evenodd"
   fill-rule="evenodd"
   stroke-linejoin="round"
   stroke-miterlimit="2"
   viewBox="0 0 16 16"
   version="1.1"
   id="svg12"
   sodipodi:docname="notification-new-symbolic.svg"
   inkscape:version="0.92.5 (2060ec1f9f, 2020-04-08)">
  <metadata
     id="metadata18">
    <rdf:RDF>
      <cc:Work
         rdf:about="">
        <dc:format>image/svg+xml</dc:format>
        <dc:type
           rdf:resource="http://purl.org/dc/dcmitype/StillImage" />
      </cc:Work>
    </rdf:RDF>
  </metadata>
  <defs
     id="defs16" />
  <sodipodi:namedview
     pagecolor="#ffffff"
     bordercolor="#666666"
     borderopacity="1"
     objecttolerance="10"
     gridtolerance="10"
     guidetolerance="10"
     inkscape:pageopacity="0"
     inkscape:pageshadow="2"
     inkscape:window-width="1908"
     inkscape:window-height="2079"
     id="namedview14"
     showgrid="false"
     inkscape:zoom="14.75"
     inkscape:cx="-4.1355932"
     inkscape:cy="8"
     inkscape:window-x="1924"
     inkscape:window-y="36"
     inkscape:window-maximized="0"
     inkscape:current-layer="svg12" />
  <g
     fill="#dfdfdf"
     id="g8">
    <path
       transform="matrix(.569853 .167665 -.167665 .569853 -249.375 -344.541)"
       d="m587 456.785c-.1 1.7-1.3 3-3 3s-3-1.3-3-3z"
       id="path2" />
    <path
       transform="matrix(.568698 .171541 -.171541 .568698 -246.95 -346.322)"
       d="m595.5 453.885c-.2-.1-.3-.2-.5-.2-.9-.4-1.6-1.4-2-2.2-.7-1.1-1-2.4-1-3.7l-.513-4c0-4.1-2.587-7.4-6.487-7.9v-1.1c0-.6-.4-1-1-1s-1 .4-1 1v1.1c-3.9.5-6.487 3.9-6.487 7.9l-.513 4c0 1.2-.3 2.4-.8 3.4-.4.8-.9 1.5-1.6 2.1-.3.3-.7.4-1 .6-.3.1-.5.4-.5.8 0 .6.4 1 1 1h22c.6 0 1-.4 1-1-.1-.2-.3-.6-.6-.8z"
       fill-opacity=".3"
       id="path4" />
    <path
       transform="matrix(0.568698,0.171541,-0.171541,0.568698,-246.95,-346.322)"
       d="m 595.5,453.885 c -0.2,-0.1 -0.3,-0.2 -0.5,-0.2 -0.9,-0.4 -1.6,-1.4 -2,-2.2 -0.7,-1.1 -1.513,-7.7 -1.513,-7.7 0,-4.1 -2.587,-7.4 -6.487,-7.9 v -1.1 c 0,-0.6 -0.4,-1 -1,-1 -0.6,0 -1,0.4 -1,1 v 1.1 c -3.9,0.5 -6.487,3.9 -6.487,7.9 0,0 -0.813,6.4 -1.313,7.4 -0.4,0.8 -0.9,1.5 -1.6,2.1 -0.3,0.3 -0.7,0.4 -1,0.6 -0.3,0.1 -0.5,0.4 -0.5,0.8 0,0.6 0.4,1 1,1 l 22,0 c 0.6,0 1,-0.4 1,-1 -0.1,-0.2 -0.3,-0.6 -0.6,-0.8 z"
       id="path6"
       inkscape:connector-curvature="0"
       sodipodi:nodetypes="cccccsssccsccssscc" />
  </g>
  <path
     transform="translate(-.808399 1.56824)"
     d="m16 3c0 1.097-.903 2-2 2s-2-.903-2-2 .903-2 2-2 2 .903 2 2z"
     fill="#0d68c3"
     fill-rule="nonzero"
     id="path10" />
</svg>
