<?xml version="1.0" encoding="UTF-8" standalone="no"?>
<svg
   xmlns:dc="http://purl.org/dc/elements/1.1/"
   xmlns:cc="http://creativecommons.org/ns#"
   xmlns:rdf="http://www.w3.org/1999/02/22-rdf-syntax-ns#"
   xmlns:svg="http://www.w3.org/2000/svg"
   xmlns="http://www.w3.org/2000/svg"
   xmlns:sodipodi="http://sodipodi.sourceforge.net/DTD/sodipodi-0.dtd"
   xmlns:inkscape="http://www.inkscape.org/namespaces/inkscape"
   clip-rule="evenodd"
   fill-rule="evenodd"
   stroke-linejoin="round"
   stroke-miterlimit="2"
   viewBox="0 0 16 16"
   version="1.1"
   id="svg10"
   sodipodi:docname="notifications-disabled-symbolic.svg"
   inkscape:version="0.92.5 (2060ec1f9f, 2020-04-08)">
  <metadata
     id="metadata16">
    <rdf:RDF>
      <cc:Work
         rdf:about="">
        <dc:format>image/svg+xml</dc:format>
        <dc:type
           rdf:resource="http://purl.org/dc/dcmitype/StillImage" />
      </cc:Work>
    </rdf:RDF>
  </metadata>
  <defs
     id="defs14" />
  <sodipodi:namedview
     pagecolor="#ffffff"
     bordercolor="#666666"
     borderopacity="1"
     objecttolerance="10"
     gridtolerance="10"
     guidetolerance="10"
     inkscape:pageopacity="0"
     inkscape:pageshadow="2"
     inkscape:window-width="1908"
     inkscape:window-height="2079"
     id="namedview12"
     showgrid="false"
     inkscape:zoom="14.75"
     inkscape:cx="12.135593"
     inkscape:cy="8"
     inkscape:window-x="8"
     inkscape:window-y="36"
     inkscape:window-maximized="0"
     inkscape:current-layer="svg10" />
  <g
     fill="#dfdfdf"
     id="g8">
    <path
       transform="matrix(.594006 0 0 .594006 -338.959 -257.393)"
       d="m587 456.785c-.1 1.7-1.3 3-3 3s-3-1.3-3-3z"
       fill-opacity=".5"
       id="path2" />
    <path
       d="m1.784 2.216c.395-.395 1.037-.395 1.432 0l11.068 11.068c.395.395.395 1.037 0 1.432l-.068.068c-.395.395-1.037.395-1.432 0l-11.068-11.068c-.395-.395-.395-1.037 0-1.432z"
       fill-rule="nonzero"
       id="path4" />
    <path
       transform="matrix(0.594006,0,0,0.594006,-338.959,-257.393)"
       d="m 595.5,453.885 c -0.2,-0.1 -0.3,-0.2 -0.5,-0.2 -0.9,-0.4 -1.6,-1.4 -2,-2.2 -0.7,-1.1 -1.513,-7.7 -1.513,-7.7 0,-4.1 -2.587,-7.4 -6.487,-7.9 v -1.1 c 0,-0.6 -0.4,-1 -1,-1 -0.6,0 -1,0.4 -1,1 v 1.1 c -3.9,0.5 -6.487,3.9 -6.487,7.9 0,0 -0.813,6.4 -1.313,7.4 -0.4,0.8 -0.9,1.5 -1.6,2.1 -0.3,0.3 -0.7,0.4 -1,0.6 -0.3,0.1 -0.5,0.4 -0.5,0.8 0,0.6 0.4,1 1,1 h 22 c 0.6,0 1,-0.4 1,-1 -0.1,-0.2 -0.3,-0.6 -0.6,-0.8 z"
       id="path6"
       inkscape:connector-curvature="0"
       style="fill-opacity:0.5"
       sodipodi:nodetypes="cccccsssccsccssscc" />
  </g>
</svg>
