<?xml version="1.0" encoding="UTF-8" standalone="no"?>
<svg
   xmlns:dc="http://purl.org/dc/elements/1.1/"
   xmlns:cc="http://creativecommons.org/ns#"
   xmlns:rdf="http://www.w3.org/1999/02/22-rdf-syntax-ns#"
   xmlns:svg="http://www.w3.org/2000/svg"
   xmlns="http://www.w3.org/2000/svg"
   xmlns:sodipodi="http://sodipodi.sourceforge.net/DTD/sodipodi-0.dtd"
   xmlns:inkscape="http://www.inkscape.org/namespaces/inkscape"
   width="16"
   height="16.015"
   version="1.1"
   id="svg10"
   sodipodi:docname="touch-symbolic.svg"
   inkscape:version="0.92.5 (2060ec1f9f, 2020-04-08)">
  <metadata
     id="metadata16">
    <rdf:RDF>
      <cc:Work
         rdf:about="">
        <dc:format>image/svg+xml</dc:format>
        <dc:type
           rdf:resource="http://purl.org/dc/dcmitype/StillImage" />
        <dc:title></dc:title>
      </cc:Work>
    </rdf:RDF>
  </metadata>
  <defs
     id="defs14" />
  <sodipodi:namedview
     pagecolor="#ffffff"
     bordercolor="#666666"
     borderopacity="1"
     objecttolerance="10"
     gridtolerance="10"
     guidetolerance="10"
     inkscape:pageopacity="0"
     inkscape:pageshadow="2"
     inkscape:window-width="1908"
     inkscape:window-height="2079"
     id="namedview12"
     showgrid="false"
     inkscape:zoom="55.738693"
     inkscape:cx="10.806958"
     inkscape:cy="9.3739816"
     inkscape:window-x="1924"
     inkscape:window-y="36"
     inkscape:window-maximized="0"
     inkscape:current-layer="svg10" />
  <g
     fill="#2e3436"
     id="g8"
     style="fill:#dfdfdf;fill-opacity:1">
    <path
       d="M 8.072,0 C 6.851516,-0.01234927 5.6490371,0.29482066 4.584,0.891 3.3931491,1.5332845 4.3874831,3.3139072 5.559,2.637 7.1070638,1.7701602 8.9986892,1.7891906 10.529,2.687 12.060162,3.583826 13.000724,5.2255275 13,7 v 1 c 0,1.3333328 2,1.3333328 2,0 V 7 C 14.999765,6.9544919 14.996424,6.909053 14.99,6.864 14.944879,4.4299744 13.638401,2.1941926 11.54,0.96 10.487533,0.34296244 9.29195,0.01200519 8.072,0 Z M 2.855,2.82 C 2.5720632,2.8370259 2.3096436,2.9733242 2.133,3.195 L 3.598,4.658 C 3.651,4.558 3.696,4.455 3.756,4.358 4.1715977,3.7083642 3.726507,2.8526765 2.956,2.82 2.922687,2.81833 2.889312,2.81833 2.856,2.82 Z M 8,3 C 5.7889161,3 3.9696107,4.6275047 3.9696107,6.973615 L 5.9774959,8.1597844 5.9772989,6.9197106 C 5.9772991,6.9197106 5.9205268,5 8,5 c 1.116,0 2,0.883 2,2 v 4.058 l 3.012,3.012 C 13.02875,13.778581 12.91734,13.494389 12.707,13.292 12.325,12.91 12.157,12.556 12.074,12.308 11.991,12.06 12,12 12,12 V 7 C 12.000674,6.9267469 11.993296,6.8536415 11.978,6.782 11.862,4.687 10.122,3 8,3 Z M 2.133,3.195 C 1.8740173,3.9048788 1.0345295,6.0766906 1.012,6.832 1.0032827,6.8875629 0.99926851,6.9437622 1,7 v 5.063 c 0,1.333333 2,1.333333 2,0 V 7 C 3,6.746 3.56,4.907 3.598,4.658 Z M 7.984,5.987 C 7.4328733,5.9957717 6.9927646,6.448851 7,7 v 1.06 l 2,1.999 V 7 C 9.0074014,6.4363192 8.5476565,5.9779317 7.984,5.987 Z m -3,4 C 4.4328733,9.9957717 3.9927646,10.448851 4,11 v 3 c 0,1.333333 2,1.333333 2,0 V 11 C 6.0074014,10.436319 5.5476565,9.9779317 4.984,9.987 Z M 14,10 c -0.552285,0 -1,0.447715 -1,1 0,0.552285 0.447715,1 1,1 0.552285,0 1,-0.447715 1,-1 0,-0.552285 -0.447715,-1 -1,-1 z M 7,8.06 V 12 c 0,0 0,0.595 0.145,1.32 0.145,0.726 0.412,1.652 1.148,2.387 0.9425213,0.975864 2.389864,-0.471479 1.414,-1.414 C 9.443,14.029 9.21,13.454 9.105,12.93 9.0550765,12.686696 9.0133222,10.307015 9,10.059 Z m 3,2.998 c 0.187,0.325 -0.037589,2.944669 1.293,3.649 0.139598,0.146138 1.392735,0.766759 1.719,-0.637 z"
       font-weight="400"
       overflow="visible"
       style="font-weight:400;font-family:sans-serif;font-variant-ligatures:normal;font-variant-position:normal;font-variant-caps:normal;font-variant-numeric:normal;font-variant-alternates:normal;font-feature-settings:normal;text-indent:0;text-decoration:none;text-decoration-line:none;text-decoration-style:solid;text-decoration-color:#000000;text-transform:none;text-orientation:mixed;white-space:normal;shape-padding:0;overflow:visible;isolation:auto;mix-blend-mode:normal;fill:#dfdfdf;fill-opacity:1"
       id="path2"
       inkscape:connector-curvature="0"
       sodipodi:nodetypes="cccccsscccccccccccsccssscccscccscccsssccccccccccssccssssscccccccccccc" />
  </g>
  <path
     d="m 3.9774959,8.1597844 c 0,0.552285 0.447715,1 1,1 0.552285,0 1,-0.447715 1,-1 L 3.9696107,6.973615 Z"
     font-weight="400"
     overflow="visible"
     style="font-weight:400;font-family:sans-serif;font-variant-ligatures:normal;font-variant-position:normal;font-variant-caps:normal;font-variant-numeric:normal;font-variant-alternates:normal;font-feature-settings:normal;text-indent:0;text-decoration:none;text-decoration-line:none;text-decoration-style:solid;text-decoration-color:#000000;text-transform:none;text-orientation:mixed;white-space:normal;shape-padding:0;overflow:visible;isolation:auto;mix-blend-mode:normal;fill:#dfdfdf;fill-opacity:1"
     id="path2-7"
     inkscape:connector-curvature="0"
     sodipodi:nodetypes="csccc" />
</svg>
