<?xml version="1.0" encoding="UTF-8" standalone="no"?>
<svg
   xmlns:dc="http://purl.org/dc/elements/1.1/"
   xmlns:cc="http://creativecommons.org/ns#"
   xmlns:rdf="http://www.w3.org/1999/02/22-rdf-syntax-ns#"
   xmlns:svg="http://www.w3.org/2000/svg"
   xmlns="http://www.w3.org/2000/svg"
   xmlns:sodipodi="http://sodipodi.sourceforge.net/DTD/sodipodi-0.dtd"
   xmlns:inkscape="http://www.inkscape.org/namespaces/inkscape"
   inkscape:version="1.0 (4035a4fb49, 2020-05-01)"
   sodipodi:docname="weather-snow-scattered.svg.2020_08_24_15_54_12.0.svg"
   xml:space="preserve"
   style="enable-background:new 0 0 326 326;"
   viewBox="0 0 326 326"
   y="0px"
   x="0px"
   id="Capa_1"
   version="1.1"><metadata
   id="metadata51"><rdf:RDF><cc:Work
       rdf:about=""><dc:format>image/svg+xml</dc:format><dc:type
         rdf:resource="http://purl.org/dc/dcmitype/StillImage" /></cc:Work></rdf:RDF></metadata><defs
   id="defs49" /><sodipodi:namedview
   inkscape:current-layer="Capa_1"
   inkscape:window-maximized="0"
   inkscape:window-y="23"
   inkscape:window-x="26"
   inkscape:cy="214.58038"
   inkscape:cx="98.753217"
   inkscape:zoom="1.5460123"
   showgrid="false"
   id="namedview47"
   inkscape:window-height="1017"
   inkscape:window-width="950"
   inkscape:pageshadow="2"
   inkscape:pageopacity="0"
   guidetolerance="10"
   gridtolerance="10"
   objecttolerance="10"
   borderopacity="1"
   bordercolor="#666666"
   pagecolor="#ffffff"
   inkscape:document-rotation="0" />
<g
   transform="translate(0,14)"
   id="g14">
	<g
   id="g12">
		<g
   id="g10">
			
			
			<path
   sodipodi:nodetypes="cssscc"
   id="path6"
   d="m 127.6,246.2 c 0,9.6 4,18.4 10.4,24.8 6.4,6.4 15.2,10.4 24.8,10.4 10,0 18.8,-4 25.2,-10.4 6.4,-6.4 10.4,-15.2 10.4,-24.8 z"
   style="fill:#dfdfdf;fill-opacity:1" />
			<path
   id="path8"
   d="m 306.8,87 c -11.6,-11.6 -28,-18.8 -46,-18.8 -9.2,0 -18.4,2 -26.8,5.6 -8.4,3.6 -16,9.2 -22,16 -4.4,4.8 -11.6,5.2 -16.4,1.2 -4.8,-4.4 -5.2,-11.6 -1.2,-16.4 8.4,-9.6 18.4,-16.8 29.6,-22 2,-0.8 3.6,-1.6 5.6,-2.4 -6.8,-12 -16,-22.4 -26.8,-30 -14.4,-10 -31.6,-15.6 -50,-15.6 -21.6,0 -42,8 -57.2,21.2 C 80,39 69.2,57.8 66,79.4 c -0.4,3.2 -2.4,6.4 -5.2,8 -2,1.2 -4,2 -6.4,2 -14.8,0 -28.4,6 -38.4,16 -10,10 -16,23.2 -16,38.4 0,14.8 6,28.4 16,38.4 10.4,9.6 23.6,15.6 38.8,15.6 h 206.4 c 18,0 34,-7.2 46,-18.8 11.6,-11.6 18.8,-28 18.8,-46 0,-18 -7.2,-34 -19.2,-46 z"
   style="fill:#dfdfdf;fill-opacity:1" />
		</g>
	</g>
</g>
<g
   transform="translate(0,14)"
   id="g16">
</g>
<g
   transform="translate(0,14)"
   id="g18">
</g>
<g
   transform="translate(0,14)"
   id="g20">
</g>
<g
   transform="translate(0,14)"
   id="g22">
</g>
<g
   transform="translate(0,14)"
   id="g24">
</g>
<g
   transform="translate(0,14)"
   id="g26">
</g>
<g
   transform="translate(0,14)"
   id="g28">
</g>
<g
   transform="translate(0,14)"
   id="g30">
</g>
<g
   transform="translate(0,14)"
   id="g32">
</g>
<g
   transform="translate(0,14)"
   id="g34">
</g>
<g
   transform="translate(0,14)"
   id="g36">
</g>
<g
   transform="translate(0,14)"
   id="g38">
</g>
<g
   transform="translate(0,14)"
   id="g40">
</g>
<g
   transform="translate(0,14)"
   id="g42">
</g>
<g
   transform="translate(0,14)"
   id="g44">
</g>
<path
   d="m 198.4,260.2 c 0,-9.6 -4,-18.4 -10.4,-24.8 -6.4,-6.4 -15.2,-10.4 -24.8,-10.4 -10,0 -18.8,4 -25.2,10.4 -6.4,6.4 -10.4,15.2 -10.4,24.8 z"
   id="path6-3"
   sodipodi:nodetypes="cssscc"
   style="fill:#dfdfdf;fill-opacity:1" /><path
   d="m 31.658865,280.2 c 0,9.6 4,18.4 10.4,24.8 6.4,6.4 15.2,10.4 24.8,10.4 10,0 18.8,-4 25.2,-10.4 6.4,-6.4 10.400005,-15.2 10.400005,-24.8 z"
   id="path6-6"
   sodipodi:nodetypes="cssscc"
   style="fill:#dfdfdf;fill-opacity:1" /><path
   sodipodi:nodetypes="cssscc"
   id="path6-3-7"
   d="m 102.45887,280.2 c 0,-9.6 -4.000005,-18.4 -10.400005,-24.8 -6.4,-6.4 -15.2,-10.4 -24.8,-10.4 -10,0 -18.8,4 -25.2,10.4 -6.4,6.4 -10.4,15.2 -10.4,24.8 z"
   style="fill:#dfdfdf;fill-opacity:1" /><path
   d="m 223.76601,280.2 c 0,9.6 4,18.4 10.4,24.8 6.4,6.4 15.2,10.4 24.8,10.4 10,0 18.8,-4 25.2,-10.4 6.4,-6.4 10.4,-15.2 10.4,-24.8 z"
   id="path6-5"
   sodipodi:nodetypes="cssscc"
   style="fill:#dfdfdf;fill-opacity:1" /><path
   sodipodi:nodetypes="cssscc"
   id="path6-3-3"
   d="m 294.56601,280.2 c 0,-9.6 -4,-18.4 -10.4,-24.8 -6.4,-6.4 -15.2,-10.4 -24.8,-10.4 -10,0 -18.8,4 -25.2,10.4 -6.4,6.4 -10.4,15.2 -10.4,24.8 z"
   style="fill:#dfdfdf;fill-opacity:1" /></svg>
