<?xml version="1.0" encoding="UTF-8" standalone="no"?>
<svg
   xmlns:dc="http://purl.org/dc/elements/1.1/"
   xmlns:cc="http://creativecommons.org/ns#"
   xmlns:rdf="http://www.w3.org/1999/02/22-rdf-syntax-ns#"
   xmlns:svg="http://www.w3.org/2000/svg"
   xmlns="http://www.w3.org/2000/svg"
   xmlns:sodipodi="http://sodipodi.sourceforge.net/DTD/sodipodi-0.dtd"
   xmlns:inkscape="http://www.inkscape.org/namespaces/inkscape"
   width="64"
   height="64"
   version="1.1"
   viewBox="0 0 16.933 16.933"
   id="svg33"
   sodipodi:docname="audacious.svg"
   inkscape:version="0.92.5 (2060ec1f9f, 2020-04-08)">
  <sodipodi:namedview
     pagecolor="#ffffff"
     bordercolor="#666666"
     borderopacity="1"
     objecttolerance="10"
     gridtolerance="10"
     guidetolerance="10"
     inkscape:pageopacity="0"
     inkscape:pageshadow="2"
     inkscape:window-width="1908"
     inkscape:window-height="2107"
     id="namedview35"
     showgrid="false"
     inkscape:zoom="20.85965"
     inkscape:cx="11.829569"
     inkscape:cy="25.851593"
     inkscape:window-x="1924"
     inkscape:window-y="8"
     inkscape:window-maximized="0"
     inkscape:current-layer="svg33" />
  <metadata
     id="metadata2">
    <rdf:RDF>
      <cc:Work
         rdf:about="">
        <dc:format>image/svg+xml</dc:format>
        <dc:type
           rdf:resource="http://purl.org/dc/dcmitype/StillImage" />
        <dc:title />
      </cc:Work>
    </rdf:RDF>
  </metadata>
  <defs
     id="defs15">
    <clipPath
       id="a">
      <circle
         cx="8.467"
         cy="288.53"
         r="6.879"
         fill="#d86eb0"
         stroke-opacity=".039"
         stroke-width=".491"
         style="paint-order:stroke markers fill"
         id="circle4" />
    </clipPath>
    <linearGradient
       id="b"
       x1="9.2603"
       x2="9.2603"
       y1="-.26249"
       y2="15.612"
       gradientTransform="translate(-.79384 .79164)"
       gradientUnits="userSpaceOnUse">
      <stop
         stop-color="#36474f"
         offset="0"
         id="stop7" />
      <stop
         stop-color="#273238"
         stop-opacity=".98824"
         offset="1"
         id="stop9" />
    </linearGradient>
    <filter
       id="c"
       x="-.059738"
       y="-.060265"
       width="1.1195"
       height="1.1205"
       color-interpolation-filters="sRGB">
      <feGaussianBlur
         stdDeviation="0.15945"
         id="feGaussianBlur12" />
    </filter>
  </defs>
  <circle
     cx="8.4665"
     cy="8.4665"
     r="7.9373"
     fill="url(#b)"
     stroke-width=".96299"
     style="paint-order:stroke markers fill"
     id="circle17" />
  <g
     transform="matrix(1.1538 0 0 1.1538 -1.3032 -324.45)"
     font-size="11.082"
     font-weight="400"
     letter-spacing="0"
     stroke-width=".24008"
     word-spacing="0"
     id="g23">
    <path
       d="m11.67 285.5h-0.82v1.075c-0.61-0.842-1.342-1.219-2.394-1.219-1.818 0-3.192 1.375-3.192 3.192s1.385 3.158 3.258 3.158c1.03 0 1.673-0.332 2.327-1.208v1.064h0.82zm-3.192 0.61c1.34 0 2.371 1.042 2.371 2.394 0 1.385-1.02 2.449-2.327 2.449-1.374 0-2.427-1.075-2.427-2.46a2.379 2.379 0 0 1 2.383-2.383z"
       filter="url(#c)"
       opacity=".25"
       aria-label="a"
       id="path19" />
    <path
       d="m11.67 285.5h-0.82v1.075c-0.61-0.842-1.342-1.219-2.394-1.219-1.818 0-3.192 1.375-3.192 3.192s1.385 3.158 3.258 3.158c1.03 0 1.673-0.332 2.327-1.208v1.064h0.82zm-3.192 0.61c1.34 0 2.371 1.042 2.371 2.394 0 1.385-1.02 2.449-2.327 2.449-1.374 0-2.427-1.075-2.427-2.46a2.379 2.379 0 0 1 2.383-2.383z"
       fill="#fff"
       aria-label="a"
       id="path21" />
  </g>
</svg>
