<?xml version="1.0" encoding="UTF-8" standalone="no"?>
<svg
   xmlns:dc="http://purl.org/dc/elements/1.1/"
   xmlns:cc="http://creativecommons.org/ns#"
   xmlns:rdf="http://www.w3.org/1999/02/22-rdf-syntax-ns#"
   xmlns:svg="http://www.w3.org/2000/svg"
   xmlns="http://www.w3.org/2000/svg"
   xmlns:sodipodi="http://sodipodi.sourceforge.net/DTD/sodipodi-0.dtd"
   xmlns:inkscape="http://www.inkscape.org/namespaces/inkscape"
   width="64"
   height="64"
   version="1"
   id="svg37"
   sodipodi:docname="audacity.svg"
   inkscape:version="0.92.5 (2060ec1f9f, 2020-04-08)">
  <sodipodi:namedview
     pagecolor="#ffffff"
     bordercolor="#666666"
     borderopacity="1"
     objecttolerance="10"
     gridtolerance="10"
     guidetolerance="10"
     inkscape:pageopacity="0"
     inkscape:pageshadow="2"
     inkscape:window-width="1908"
     inkscape:window-height="2107"
     id="namedview39"
     showgrid="false"
     inkscape:zoom="16"
     inkscape:cx="34.183394"
     inkscape:cy="27.209515"
     inkscape:window-x="1924"
     inkscape:window-y="8"
     inkscape:window-maximized="0"
     inkscape:current-layer="svg37" />
  <metadata
     id="metadata2">
    <rdf:RDF>
      <cc:Work
         rdf:about="">
        <dc:format>image/svg+xml</dc:format>
        <dc:type
           rdf:resource="http://purl.org/dc/dcmitype/StillImage" />
        <dc:title />
      </cc:Work>
    </rdf:RDF>
  </metadata>
  <defs
     id="defs15">
    <clipPath
       id="a">
      <circle
         cx="8.467"
         cy="288.53"
         r="6.879"
         fill="#d86eb0"
         stroke-opacity=".039"
         stroke-width=".491"
         style="paint-order:stroke markers fill"
         id="circle4" />
    </clipPath>
    <linearGradient
       id="b"
       x1="32.001"
       x2="32.001"
       y1="5"
       y2="59"
       gradientUnits="userSpaceOnUse">
      <stop
         stop-color="#ffa355"
         offset="0"
         id="stop7" />
      <stop
         stop-color="#f55"
         offset="1"
         id="stop9" />
    </linearGradient>
    <filter
       id="c"
       x="-.035879"
       y="-.036122"
       width="1.0718"
       height="1.0722"
       color-interpolation-filters="sRGB">
      <feGaussianBlur
         stdDeviation="0.41859"
         id="feGaussianBlur12" />
    </filter>
  </defs>
  <g
     transform="matrix(1.1111 0 0 1.1111 -3.5569 -3.5556)"
     id="g35">
    <circle
       cx="32.001"
       cy="32"
       r="27"
       fill="url(#b)"
       stroke-width=".81"
       style="paint-order:stroke markers fill"
       id="circle17" />
    <g
       fill="#fff"
       stroke-width=".9"
       id="g25">
      <path
         d="m32 17c-7.732 0-14 6.268-14 14v9c0 3.57 2.542 4.541 4 4.807v-13.807c0-5.54 4.46-10 10-10s10 4.46 10 10v13.812c1.458-0.268 4-1.242 4-4.812v-9c0-7.732-6.268-14-14-14z"
         fill="#000"
         filter="url(#c)"
         opacity=".25"
         id="path19" />
      <path
         d="m32 17c-7.732 0-14 6.268-14 14v9c0 3.57 2.542 4.541 4 4.807v-13.807c0-5.54 4.46-10 10-10s10 4.46 10 10v13.812c1.458-0.268 4-1.242 4-4.812v-9c0-7.732-6.268-14-14-14z"
         id="path21" />
      <path
         d="m22 33v14h5v-14zm15 0v14h5v-14z"
         opacity=".75"
         id="path23" />
    </g>
    <g
       transform="matrix(3.9251,0,0,3.9251,-1.2322,-1101)"
       clip-path="url(#a)"
       fill="none"
       stroke="#fff"
       stroke-opacity=".937"
       stroke-width=".1143"
       id="g33" />
  </g>
</svg>
