<?xml version="1.0" encoding="UTF-8" standalone="no"?><!DOCTYPE svg PUBLIC "-//W3C//DTD SVG 1.1//EN" "http://www.w3.org/Graphics/SVG/1.1/DTD/svg11.dtd"><svg width="100%" height="100%" viewBox="0 0 64 64" version="1.1" xmlns="http://www.w3.org/2000/svg" xmlns:xlink="http://www.w3.org/1999/xlink" xml:space="preserve" xmlns:serif="http://www.serif.com/" style="fill-rule:evenodd;clip-rule:evenodd;stroke-linejoin:round;stroke-miterlimit:2;"><g id="folder_C"><path d="M61.122,10.878c0,-2.121 -0.843,-4.156 -2.344,-5.656c-1.5,-1.501 -3.535,-2.344 -5.656,-2.344l-42.244,0c-2.121,0 -4.156,0.843 -5.656,2.344c-1.501,1.5 -2.344,3.535 -2.344,5.656l0,42.244c0,2.121 0.843,4.156 2.344,5.656c1.5,1.501 3.535,2.344 5.656,2.344l42.244,0c2.121,0 4.156,-0.843 5.656,-2.344c1.501,-1.5 2.344,-3.535 2.344,-5.656l0,-42.244Z" style="fill:#0083d5;"/><path d="M61.122,19.581c0,-4.418 -3.582,-8 -8,-8c-7.059,0 -16.945,0 -21.709,0c-1.731,0 -3.338,-0.895 -4.25,-2.366c-0.764,-1.233 -1.696,-2.737 -2.46,-3.97c-0.912,-1.472 -2.52,-2.367 -4.251,-2.367c-3.522,0 -9.612,0 -13.633,0c-1.061,0 -2.079,0.422 -2.83,1.174c-0.75,0.751 -1.171,1.769 -1.17,2.831c0.011,9.514 0.037,33.621 0.051,46.247c0.005,4.415 3.585,7.992 8,7.992c11.116,0 31.131,0 42.252,0c4.418,0 8,-3.582 8,-8c0,-9.229 0,-24.312 0,-33.541Z" style="fill:url(#_Linear1);"/></g><path id="desktop" d="M45.963,20.934c0.94,0.004 1.697,0.763 1.697,1.697l0,23.913c0,0.937 -0.76,1.697 -1.697,1.697l-27.989,0c-0.937,0 -1.698,-0.76 -1.698,-1.697l0,-23.913c0,-0.934 0.757,-1.693 1.698,-1.697l27.989,0Zm0.451,25.959l0,-21.091l-28.715,0l0,21.091l28.715,0Zm-27.284,-24.791c0.704,0 1.276,0.572 1.276,1.276c0,0.705 -0.572,1.277 -1.276,1.277c-0.705,0 -1.277,-0.572 -1.277,-1.277c0,-0.704 0.572,-1.276 1.277,-1.276Z" style="fill:url(#_Linear2);"/><defs><linearGradient id="_Linear1" x1="0" y1="0" x2="1" y2="0" gradientUnits="userSpaceOnUse" gradientTransform="matrix(2.32138e-15,-57.3919,37.911,3.51424e-15,33.3273,60.5649)"><stop offset="0" style="stop-color:#1075f6;stop-opacity:1"/><stop offset="1" style="stop-color:#12c5ff;stop-opacity:1"/></linearGradient><linearGradient id="_Linear2" x1="0" y1="0" x2="1" y2="0" gradientUnits="userSpaceOnUse" gradientTransform="matrix(0.0846145,27.3075,-27.3075,0.0846145,31.8556,20.9337)"><stop offset="0" style="stop-color:#137098;stop-opacity:1"/><stop offset="0.5" style="stop-color:#137098;stop-opacity:1"/><stop offset="1" style="stop-color:#0b4e94;stop-opacity:1"/></linearGradient></defs></svg>