<?xml version="1.0" encoding="utf-8"?>
<!-- Generator: Adobe Illustrator 24.1.3, SVG Export Plug-In . SVG Version: 6.00 Build 0)  -->
<svg version="1.1"
	 id="svg2" inkscape:version="0.91 r13725" sodipodi:docname="inkscape.svg" xmlns:cc="http://creativecommons.org/ns#" xmlns:dc="http://purl.org/dc/elements/1.1/" xmlns:inkscape="http://www.inkscape.org/namespaces/inkscape" xmlns:rdf="http://www.w3.org/1999/02/22-rdf-syntax-ns#" xmlns:sodipodi="http://sodipodi.sourceforge.net/DTD/sodipodi-0.dtd" xmlns:svg="http://www.w3.org/2000/svg"
	 xmlns="http://www.w3.org/2000/svg" xmlns:xlink="http://www.w3.org/1999/xlink" x="0px" y="0px" viewBox="0 0 128 128"
	 style="enable-background:new 0 0 128 128;" xml:space="preserve">
<style type="text/css">
	.st0{fill:none;stroke:#000000;stroke-width:1.6224;stroke-linecap:round;stroke-linejoin:round;stroke-opacity:0.0644;}
	.st1{fill:none;stroke:#000000;stroke-width:1.0816;stroke-linecap:round;stroke-linejoin:round;stroke-opacity:0.0644;}
	.st2{fill:url(#rect5083_1_);stroke:#C9C9C9;stroke-width:0.5408;stroke-linecap:round;stroke-linejoin:round;}
	.st3{fill:#9760EF;}
	.st4{fill:url(#SVGID_1_);}
	.st5{fill:url(#SVGID_2_);}
	.st6{fill:url(#SVGID_3_);}
	.st7{fill:url(#SVGID_4_);}
	.st8{fill:url(#path5004_1_);stroke:#1D0F0C;stroke-width:0.2704;stroke-miterlimit:1.0816;}
	.st9{fill:#2F1919;}
	.st10{fill:#CC9F9F;fill-opacity:0.0947;}
	.st11{fill:url(#path5030_1_);}
	.st12{fill:#161111;fill-opacity:0.3788;}
	.st13{fill:url(#path4983_1_);}
	.st14{fill:url(#rect4971_1_);}
</style>
<path id="rect5099" class="st0" d="M9.35,19.11L99.7,4.54c4-0.64,7.76,2.07,8.41,6.07l14.43,89.48c0.64,4-2.07,7.76-6.07,8.41
	l-90.35,14.57c-4,0.64-7.76-2.07-8.41-6.07L3.28,27.51C2.64,23.51,5.36,19.75,9.35,19.11z"/>
<path id="rect5097" class="st1" d="M9.35,19.11L99.7,4.54c4-0.64,7.76,2.07,8.41,6.07l14.43,89.48c0.64,4-2.07,7.76-6.07,8.41
	l-90.35,14.57c-4,0.64-7.76-2.07-8.41-6.07L3.28,27.51C2.64,23.51,5.36,19.75,9.35,19.11z"/>
<linearGradient id="rect5083_1_" gradientUnits="userSpaceOnUse" x1="971.4304" y1="-1008.8484" x2="1189.2947" y2="-1347.2891" gradientTransform="matrix(0.267 -0.043 -0.043 -0.267 -274.8221 -202.6484)">
	<stop  offset="0" style="stop-color:#F6F6F6"/>
	<stop  offset="1" style="stop-color:#E6E6E6"/>
</linearGradient>
<path id="rect5083" class="st2" d="M9.35,19.11L99.7,4.54c4-0.64,7.76,2.07,8.41,6.07l14.43,89.48c0.64,4-2.07,7.76-6.07,8.41
	l-90.35,14.57c-4,0.64-7.76-2.07-8.41-6.07L3.28,27.51C2.64,23.51,5.36,19.75,9.35,19.11z"/>
<g transform="translate(-112.81355 3.471186)">
	<path class="st3" d="M192.91,24.46c-0.4,5.98-7.64,11.51-12.55,15.12c-1.21-3.43-2.82-6.78-4.94-9.83
		c-1.18,3.26-1.71,6.71-3.25,9.83c-1.14,2.31-2.48,4.57-4.33,6.5c-0.14,0.08-0.28,0.15-0.42,0.23c-1.03,0.61-1.99,1.27-2.83,1.99
		c-3.83,3.27-6.33,7.19-8.02,11.54c-2.28,5.84,1.26,12.13-6.75,18.82c-0.11,0.2-0.27,0.4-0.44,0.59c0.01-0.01,0.02-0.02,0.03-0.03
		c0.01,0,0.02,0.01,0.02,0.01c-1.9,1.99-6.22,2.85-3.74,5.9c1.28,1.34,2.27,2.43,3.71,3.38c-0.02,0.02-0.04,0.04-0.06,0.07
		c3.79,2.51,8.81,3.75,13.9,3.23c2.53-0.2,6-0.99,7.47-1.27c12.5-2.4,23.31-10.47,28.91-20.06c0.41-0.75,2.04-3.6,1.99-4.05
		c2.29-5.91,4.92-12.01,4-18.11l0,0c-3.37,1.74-6.91,3.64-10.68,4.73c0.04-0.01,0.08-0.02,0.12-0.03c0.02,0,0.03-0.01,0.05-0.01
		c-0.98,0.2-2.76,0.93-3.29,0.54c3.32-5.51,6.35-11.42,6.12-17.5C197.7,31.86,196.15,27.56,192.91,24.46L192.91,24.46z
		 M204.46,31.72c-3.53,1.33,1.38,4.35,0.91,6.59C208.36,36.84,208.08,31.95,204.46,31.72z M207.5,39.5
		c-0.18,0.04-0.36,0.14-0.46,0.25c-1.96,2.09,0.27,5.31-0.86,7.66c1.09-0.14,2.1-0.7,2.98-1.26c2.89-1.6,0.96-5.57-1.37-6.62
		C207.71,39.48,207.61,39.48,207.5,39.5L207.5,39.5z M202.82,40.55c-1.1,0.2-0.18,3.01,1.03,2.83c1.03-0.15,0.81-1.89,0.24-2.56
		C203.85,40.53,203.1,40.5,202.82,40.55z M164.01,59.58c2.55-0.49,3.49,3.44,4.11,5.17c0.93,2.58,1.99,5.48-1.75,7.22
		c-0.25,0.16-1.15,1.02-1.01,0.14c0.75-2.16-2.12-6.7-4.65-3.69c-0.82-2.71-0.43-6.07,2.1-8.35
		C163.25,59.8,163.65,59.65,164.01,59.58L164.01,59.58z M201.5,66.4L201.5,66.4c0.01,0,0.02,0,0.03-0.01
		c-0.12,0.03-0.43,0.31-0.99,0.98c-0.03,0.02-0.05,0.03-0.08,0.05c0.02-0.02,0.04-0.03,0.06-0.05c0.09-0.11,0.17-0.2,0.25-0.29
		c0.03-0.03,0.05-0.06,0.08-0.09c0.05-0.05,0.09-0.1,0.13-0.15c0.03-0.03,0.05-0.05,0.07-0.07c0.04-0.04,0.08-0.08,0.11-0.11
		c0.03-0.03,0.06-0.06,0.08-0.08c0.01,0,0.01-0.01,0.02-0.01c0.04-0.03,0.07-0.06,0.1-0.08c0.01-0.01,0.02-0.02,0.03-0.03
		c0,0,0.01-0.01,0.02-0.01c0.01-0.01,0.03-0.02,0.04-0.03l0.01-0.01C201.48,66.41,201.49,66.41,201.5,66.4L201.5,66.4z
		 M149.31,79.32c-0.01,0.02-0.03,0.03-0.05,0.05C149.27,79.35,149.29,79.34,149.31,79.32z M175.83,75.55
		c0.03-0.01,0.05-0.01,0.08-0.01c0.6-0.11,1.17,0.29,1.27,0.88c0.04,0.23,0.01,0.46-0.09,0.67c-1.58,3.4-3.92,6.99-10.19,9.08
		c-0.57,0.19-1.2-0.12-1.39-0.69c-0.19-0.57,0.12-1.2,0.69-1.39c0,0,0,0,0,0c5.75-1.92,7.39-4.69,8.89-7.92
		C175.23,75.86,175.5,75.64,175.83,75.55L175.83,75.55z"/>
	
		<linearGradient id="SVGID_1_" gradientUnits="userSpaceOnUse" x1="201.9696" y1="52.2567" x2="168.2435" y2="61.367" gradientTransform="matrix(0.9825 -0.1863 0.1863 0.9825 -7.4438 33.8375)">
		<stop  offset="0" style="stop-color:#17C7E7"/>
		<stop  offset="1" style="stop-color:#C054F2;stop-opacity:0"/>
	</linearGradient>
	<path class="st4" d="M192.91,24.46c-0.4,5.98-7.64,11.51-12.55,15.12c-1.21-3.43-2.82-6.78-4.94-9.83
		c-1.18,3.26-1.71,6.71-3.25,9.83c-1.14,2.31-2.48,4.57-4.33,6.5c-0.14,0.08-0.28,0.15-0.42,0.23c-1.03,0.61-1.99,1.27-2.83,1.99
		c-3.83,3.27-6.33,7.19-8.02,11.54c-2.28,5.84,1.26,12.13-6.75,18.82c-0.11,0.2-0.27,0.4-0.44,0.59c0.01-0.01,0.02-0.02,0.03-0.03
		c0.01,0,0.02,0.01,0.02,0.01c-1.9,1.99-6.22,2.85-3.74,5.9c1.28,1.34,2.27,2.43,3.71,3.38c-0.02,0.02-0.04,0.04-0.06,0.07
		c3.79,2.51,8.81,3.75,13.9,3.23c2.53-0.2,6-0.99,7.47-1.27c12.5-2.4,23.31-10.47,28.91-20.06c0.41-0.75,2.04-3.6,1.99-4.05
		c2.29-5.91,4.92-12.01,4-18.11l0,0c-3.37,1.74-6.91,3.64-10.68,4.73c0.04-0.01,0.08-0.02,0.12-0.03c0.02,0,0.03-0.01,0.05-0.01
		c-0.98,0.2-2.76,0.93-3.29,0.54c3.32-5.51,6.35-11.42,6.12-17.5C197.7,31.86,196.15,27.56,192.91,24.46L192.91,24.46z
		 M204.46,31.72c-3.53,1.33,1.38,4.35,0.91,6.59C208.36,36.84,208.08,31.95,204.46,31.72z M207.5,39.5
		c-0.18,0.04-0.36,0.14-0.46,0.25c-1.96,2.09,0.27,5.31-0.86,7.66c1.09-0.14,2.1-0.7,2.98-1.26c2.89-1.6,0.96-5.57-1.37-6.62
		C207.71,39.48,207.61,39.48,207.5,39.5L207.5,39.5z M202.82,40.55c-1.1,0.2-0.18,3.01,1.03,2.83c1.03-0.15,0.81-1.89,0.24-2.56
		C203.85,40.53,203.1,40.5,202.82,40.55z M164.01,59.58c2.55-0.49,3.49,3.44,4.11,5.17c0.93,2.58,1.99,5.48-1.75,7.22
		c-0.25,0.16-1.15,1.02-1.01,0.14c0.75-2.16-2.12-6.7-4.65-3.69c-0.82-2.71-0.43-6.07,2.1-8.35
		C163.25,59.8,163.65,59.65,164.01,59.58L164.01,59.58z M201.5,66.4L201.5,66.4c0.01,0,0.02,0,0.03-0.01
		c-0.12,0.03-0.43,0.31-0.99,0.98c-0.03,0.02-0.05,0.03-0.08,0.05c0.02-0.02,0.04-0.03,0.06-0.05c0.09-0.11,0.17-0.2,0.25-0.29
		c0.03-0.03,0.05-0.06,0.08-0.09c0.05-0.05,0.09-0.1,0.13-0.15c0.03-0.03,0.05-0.05,0.07-0.07c0.04-0.04,0.08-0.08,0.11-0.11
		c0.03-0.03,0.06-0.06,0.08-0.08c0.01,0,0.01-0.01,0.02-0.01c0.04-0.03,0.07-0.06,0.1-0.08c0.01-0.01,0.02-0.02,0.03-0.03
		c0,0,0.01-0.01,0.02-0.01c0.01-0.01,0.03-0.02,0.04-0.03l0.01-0.01C201.48,66.41,201.49,66.41,201.5,66.4L201.5,66.4z
		 M149.31,79.32c-0.01,0.02-0.03,0.03-0.05,0.05C149.27,79.35,149.29,79.34,149.31,79.32z M175.83,75.55
		c0.03-0.01,0.05-0.01,0.08-0.01c0.6-0.11,1.17,0.29,1.27,0.88c0.04,0.23,0.01,0.46-0.09,0.67c-1.58,3.4-3.92,6.99-10.19,9.08
		c-0.57,0.19-1.2-0.12-1.39-0.69c-0.19-0.57,0.12-1.2,0.69-1.39c0,0,0,0,0,0c5.75-1.92,7.39-4.69,8.89-7.92
		C175.23,75.86,175.5,75.64,175.83,75.55L175.83,75.55z"/>
	
		<linearGradient id="SVGID_2_" gradientUnits="userSpaceOnUse" x1="164.0965" y1="46.8631" x2="179.7551" y2="63.6169" gradientTransform="matrix(0.9825 -0.1863 0.1863 0.9825 -7.4438 33.8375)">
		<stop  offset="0" style="stop-color:#9760EF"/>
		<stop  offset="1" style="stop-color:#C054F2;stop-opacity:0"/>
	</linearGradient>
	<path class="st5" d="M192.91,24.46c-0.4,5.98-7.64,11.51-12.55,15.12c-1.21-3.43-2.82-6.78-4.94-9.83
		c-1.18,3.26-1.71,6.71-3.25,9.83c-1.14,2.31-2.48,4.57-4.33,6.5c-0.14,0.08-0.28,0.15-0.42,0.23c-1.03,0.61-1.99,1.27-2.83,1.99
		c-3.83,3.27-6.33,7.19-8.02,11.54c-2.28,5.84,1.26,12.13-6.75,18.82c-0.11,0.2-0.27,0.4-0.44,0.59c0.01-0.01,0.02-0.02,0.03-0.03
		c0.01,0,0.02,0.01,0.02,0.01c-1.9,1.99-6.22,2.85-3.74,5.9c1.28,1.34,2.27,2.43,3.71,3.38c-0.02,0.02-0.04,0.04-0.06,0.07
		c3.79,2.51,8.81,3.75,13.9,3.23c2.53-0.2,6-0.99,7.47-1.27c12.5-2.4,23.31-10.47,28.91-20.06c0.41-0.75,2.04-3.6,1.99-4.05
		c2.29-5.91,4.92-12.01,4-18.11l0,0c-3.37,1.74-6.91,3.64-10.68,4.73c0.04-0.01,0.08-0.02,0.12-0.03c0.02,0,0.03-0.01,0.05-0.01
		c-0.98,0.2-2.76,0.93-3.29,0.54c3.32-5.51,6.35-11.42,6.12-17.5C197.7,31.86,196.15,27.56,192.91,24.46L192.91,24.46z
		 M204.46,31.72c-3.53,1.33,1.38,4.35,0.91,6.59C208.36,36.84,208.08,31.95,204.46,31.72z M207.5,39.5
		c-0.18,0.04-0.36,0.14-0.46,0.25c-1.96,2.09,0.27,5.31-0.86,7.66c1.09-0.14,2.1-0.7,2.98-1.26c2.89-1.6,0.96-5.57-1.37-6.62
		C207.71,39.48,207.61,39.48,207.5,39.5L207.5,39.5z M202.82,40.55c-1.1,0.2-0.18,3.01,1.03,2.83c1.03-0.15,0.81-1.89,0.24-2.56
		C203.85,40.53,203.1,40.5,202.82,40.55z M164.01,59.58c2.55-0.49,3.49,3.44,4.11,5.17c0.93,2.58,1.99,5.48-1.75,7.22
		c-0.25,0.16-1.15,1.02-1.01,0.14c0.75-2.16-2.12-6.7-4.65-3.69c-0.82-2.71-0.43-6.07,2.1-8.35
		C163.25,59.8,163.65,59.65,164.01,59.58L164.01,59.58z M201.5,66.4L201.5,66.4c0.01,0,0.02,0,0.03-0.01
		c-0.12,0.03-0.43,0.31-0.99,0.98c-0.03,0.02-0.05,0.03-0.08,0.05c0.02-0.02,0.04-0.03,0.06-0.05c0.09-0.11,0.17-0.2,0.25-0.29
		c0.03-0.03,0.05-0.06,0.08-0.09c0.05-0.05,0.09-0.1,0.13-0.15c0.03-0.03,0.05-0.05,0.07-0.07c0.04-0.04,0.08-0.08,0.11-0.11
		c0.03-0.03,0.06-0.06,0.08-0.08c0.01,0,0.01-0.01,0.02-0.01c0.04-0.03,0.07-0.06,0.1-0.08c0.01-0.01,0.02-0.02,0.03-0.03
		c0,0,0.01-0.01,0.02-0.01c0.01-0.01,0.03-0.02,0.04-0.03l0.01-0.01C201.48,66.41,201.49,66.41,201.5,66.4L201.5,66.4z
		 M149.31,79.32c-0.01,0.02-0.03,0.03-0.05,0.05C149.27,79.35,149.29,79.34,149.31,79.32z M175.83,75.55
		c0.03-0.01,0.05-0.01,0.08-0.01c0.6-0.11,1.17,0.29,1.27,0.88c0.04,0.23,0.01,0.46-0.09,0.67c-1.58,3.4-3.92,6.99-10.19,9.08
		c-0.57,0.19-1.2-0.12-1.39-0.69c-0.19-0.57,0.12-1.2,0.69-1.39c0,0,0,0,0,0c5.75-1.92,7.39-4.69,8.89-7.92
		C175.23,75.86,175.5,75.64,175.83,75.55L175.83,75.55z"/>
	
		<linearGradient id="SVGID_3_" gradientUnits="userSpaceOnUse" x1="168.6988" y1="76.4674" x2="180.617" y2="56.9826" gradientTransform="matrix(0.9825 -0.1863 0.1863 0.9825 -7.4438 33.8375)">
		<stop  offset="0" style="stop-color:#F66456"/>
		<stop  offset="1" style="stop-color:#D9493E;stop-opacity:0"/>
	</linearGradient>
	<path class="st6" d="M192.91,24.46c-0.4,5.98-7.64,11.51-12.55,15.12c-1.21-3.43-2.82-6.78-4.94-9.83
		c-1.18,3.26-1.71,6.71-3.25,9.83c-1.14,2.31-2.48,4.57-4.33,6.5c-0.14,0.08-0.28,0.15-0.42,0.23c-1.03,0.61-1.99,1.27-2.83,1.99
		c-3.83,3.27-6.33,7.19-8.02,11.54c-2.28,5.84,1.26,12.13-6.75,18.82c-0.11,0.2-0.27,0.4-0.44,0.59c0.01-0.01,0.02-0.02,0.03-0.03
		c0.01,0,0.02,0.01,0.02,0.01c-1.9,1.99-6.22,2.85-3.74,5.9c1.28,1.34,2.27,2.43,3.71,3.38c-0.02,0.02-0.04,0.04-0.06,0.07
		c3.79,2.51,8.81,3.75,13.9,3.23c2.53-0.2,6-0.99,7.47-1.27c12.5-2.4,23.31-10.47,28.91-20.06c0.41-0.75,2.04-3.6,1.99-4.05
		c2.29-5.91,4.92-12.01,4-18.11l0,0c-3.37,1.74-6.91,3.64-10.68,4.73c0.04-0.01,0.08-0.02,0.12-0.03c0.02,0,0.03-0.01,0.05-0.01
		c-0.98,0.2-2.76,0.93-3.29,0.54c3.32-5.51,6.35-11.42,6.12-17.5C197.7,31.86,196.15,27.56,192.91,24.46L192.91,24.46z
		 M204.46,31.72c-3.53,1.33,1.38,4.35,0.91,6.59C208.36,36.84,208.08,31.95,204.46,31.72z M207.5,39.5
		c-0.18,0.04-0.36,0.14-0.46,0.25c-1.96,2.09,0.27,5.31-0.86,7.66c1.09-0.14,2.1-0.7,2.98-1.26c2.89-1.6,0.96-5.57-1.37-6.62
		C207.71,39.48,207.61,39.48,207.5,39.5L207.5,39.5z M202.82,40.55c-1.1,0.2-0.18,3.01,1.03,2.83c1.03-0.15,0.81-1.89,0.24-2.56
		C203.85,40.53,203.1,40.5,202.82,40.55z M164.01,59.58c2.55-0.49,3.49,3.44,4.11,5.17c0.93,2.58,1.99,5.48-1.75,7.22
		c-0.25,0.16-1.15,1.02-1.01,0.14c0.75-2.16-2.12-6.7-4.65-3.69c-0.82-2.71-0.43-6.07,2.1-8.35
		C163.25,59.8,163.65,59.65,164.01,59.58L164.01,59.58z M201.5,66.4L201.5,66.4c0.01,0,0.02,0,0.03-0.01
		c-0.12,0.03-0.43,0.31-0.99,0.98c-0.03,0.02-0.05,0.03-0.08,0.05c0.02-0.02,0.04-0.03,0.06-0.05c0.09-0.11,0.17-0.2,0.25-0.29
		c0.03-0.03,0.05-0.06,0.08-0.09c0.05-0.05,0.09-0.1,0.13-0.15c0.03-0.03,0.05-0.05,0.07-0.07c0.04-0.04,0.08-0.08,0.11-0.11
		c0.03-0.03,0.06-0.06,0.08-0.08c0.01,0,0.01-0.01,0.02-0.01c0.04-0.03,0.07-0.06,0.1-0.08c0.01-0.01,0.02-0.02,0.03-0.03
		c0,0,0.01-0.01,0.02-0.01c0.01-0.01,0.03-0.02,0.04-0.03l0.01-0.01C201.48,66.41,201.49,66.41,201.5,66.4L201.5,66.4z
		 M149.31,79.32c-0.01,0.02-0.03,0.03-0.05,0.05C149.27,79.35,149.29,79.34,149.31,79.32z M175.83,75.55
		c0.03-0.01,0.05-0.01,0.08-0.01c0.6-0.11,1.17,0.29,1.27,0.88c0.04,0.23,0.01,0.46-0.09,0.67c-1.58,3.4-3.92,6.99-10.19,9.08
		c-0.57,0.19-1.2-0.12-1.39-0.69c-0.19-0.57,0.12-1.2,0.69-1.39c0,0,0,0,0,0c5.75-1.92,7.39-4.69,8.89-7.92
		C175.23,75.86,175.5,75.64,175.83,75.55L175.83,75.55z"/>
	
		<linearGradient id="SVGID_4_" gradientUnits="userSpaceOnUse" x1="196.9176" y1="81.4476" x2="181.1752" y2="65.0243" gradientTransform="matrix(0.9825 -0.1863 0.1863 0.9825 -7.4438 33.8375)">
		<stop  offset="0" style="stop-color:#9760EF"/>
		<stop  offset="1" style="stop-color:#C054F2;stop-opacity:0"/>
	</linearGradient>
	<path class="st7" d="M192.91,24.46c-0.4,5.98-7.64,11.51-12.55,15.12c-1.21-3.43-2.82-6.78-4.94-9.83
		c-1.18,3.26-1.71,6.71-3.25,9.83c-1.14,2.31-2.48,4.57-4.33,6.5c-0.14,0.08-0.28,0.15-0.42,0.23c-1.03,0.61-1.99,1.27-2.83,1.99
		c-3.83,3.27-6.33,7.19-8.02,11.54c-2.28,5.84,1.26,12.13-6.75,18.82c-0.11,0.2-0.27,0.4-0.44,0.59c0.01-0.01,0.02-0.02,0.03-0.03
		c0.01,0,0.02,0.01,0.02,0.01c-1.9,1.99-6.22,2.85-3.74,5.9c1.28,1.34,2.27,2.43,3.71,3.38c-0.02,0.02-0.04,0.04-0.06,0.07
		c3.79,2.51,8.81,3.75,13.9,3.23c2.53-0.2,6-0.99,7.47-1.27c12.5-2.4,23.31-10.47,28.91-20.06c0.41-0.75,2.04-3.6,1.99-4.05
		c2.29-5.91,4.92-12.01,4-18.11l0,0c-3.37,1.74-6.91,3.64-10.68,4.73c0.04-0.01,0.08-0.02,0.12-0.03c0.02,0,0.03-0.01,0.05-0.01
		c-0.98,0.2-2.76,0.93-3.29,0.54c3.32-5.51,6.35-11.42,6.12-17.5C197.7,31.86,196.15,27.56,192.91,24.46L192.91,24.46z
		 M204.46,31.72c-3.53,1.33,1.38,4.35,0.91,6.59C208.36,36.84,208.08,31.95,204.46,31.72z M207.5,39.5
		c-0.18,0.04-0.36,0.14-0.46,0.25c-1.96,2.09,0.27,5.31-0.86,7.66c1.09-0.14,2.1-0.7,2.98-1.26c2.89-1.6,0.96-5.57-1.37-6.62
		C207.71,39.48,207.61,39.48,207.5,39.5L207.5,39.5z M202.82,40.55c-1.1,0.2-0.18,3.01,1.03,2.83c1.03-0.15,0.81-1.89,0.24-2.56
		C203.85,40.53,203.1,40.5,202.82,40.55z M164.01,59.58c2.55-0.49,3.49,3.44,4.11,5.17c0.93,2.58,1.99,5.48-1.75,7.22
		c-0.25,0.16-1.15,1.02-1.01,0.14c0.75-2.16-2.12-6.7-4.65-3.69c-0.82-2.71-0.43-6.07,2.1-8.35
		C163.25,59.8,163.65,59.65,164.01,59.58L164.01,59.58z M201.5,66.4L201.5,66.4c0.01,0,0.02,0,0.03-0.01
		c-0.12,0.03-0.43,0.31-0.99,0.98c-0.03,0.02-0.05,0.03-0.08,0.05c0.02-0.02,0.04-0.03,0.06-0.05c0.09-0.11,0.17-0.2,0.25-0.29
		c0.03-0.03,0.05-0.06,0.08-0.09c0.05-0.05,0.09-0.1,0.13-0.15c0.03-0.03,0.05-0.05,0.07-0.07c0.04-0.04,0.08-0.08,0.11-0.11
		c0.03-0.03,0.06-0.06,0.08-0.08c0.01,0,0.01-0.01,0.02-0.01c0.04-0.03,0.07-0.06,0.1-0.08c0.01-0.01,0.02-0.02,0.03-0.03
		c0,0,0.01-0.01,0.02-0.01c0.01-0.01,0.03-0.02,0.04-0.03l0.01-0.01C201.48,66.41,201.49,66.41,201.5,66.4L201.5,66.4z
		 M149.31,79.32c-0.01,0.02-0.03,0.03-0.05,0.05C149.27,79.35,149.29,79.34,149.31,79.32z M175.83,75.55
		c0.03-0.01,0.05-0.01,0.08-0.01c0.6-0.11,1.17,0.29,1.27,0.88c0.04,0.23,0.01,0.46-0.09,0.67c-1.58,3.4-3.92,6.99-10.19,9.08
		c-0.57,0.19-1.2-0.12-1.39-0.69c-0.19-0.57,0.12-1.2,0.69-1.39c0,0,0,0,0,0c5.75-1.92,7.39-4.69,8.89-7.92
		C175.23,75.86,175.5,75.64,175.83,75.55L175.83,75.55z"/>
</g>
<g id="g5081" transform="matrix(0.27040169,0,0,0.27040169,-211.06463,5.0488032)">
	
		<linearGradient id="path5004_1_" gradientUnits="userSpaceOnUse" x1="4038.0569" y1="-3014.7219" x2="4030.5784" y2="-3038.6917" gradientTransform="matrix(0.2704 0 0 -0.2704 -14.041 -434.7009)">
		<stop  offset="0" style="stop-color:#25150F"/>
		<stop  offset="1" style="stop-color:#3D241B"/>
	</linearGradient>
	<path id="path5004" inkscape:connector-curvature="0" sodipodi:nodetypes="cccc" class="st8" d="M1066.95,378.21
		c-16.39,20.32-7.06,43.13-9.4,64.81c10.19-18.94,31.94-23.83,29.43-58.86C1080.89,376.7,1073.49,379.79,1066.95,378.21z"/>
	<path id="path5014" inkscape:connector-curvature="0" sodipodi:nodetypes="ccc" class="st9" d="M1067.37,425.97
		c6.23-10.3,13.23-20.3,14.07-33.98C1082.23,399.3,1067.21,426.25,1067.37,425.97z"/>
	<path id="path5016" inkscape:connector-curvature="0" sodipodi:nodetypes="ccc" class="st9" d="M1063.02,425.24
		c1.51-5.97,4.83-11.11,3.84-18.22C1066.67,409.1,1061.07,424.59,1063.02,425.24z"/>
	<path id="path5018" inkscape:connector-curvature="0" sodipodi:nodetypes="ccc" class="st9" d="M1059.38,427.11l2.88-26.08
		C1060.14,403.77,1057.11,426.86,1059.38,427.11z"/>
	<path id="path5026" inkscape:connector-curvature="0" sodipodi:nodetypes="ccc" class="st10" d="M1064.18,404.14
		c1.46-5.98,0.95-12.08,5.15-17.89C1068.52,388.17,1066.2,404.48,1064.18,404.14z"/>
	<path id="path5028" inkscape:connector-curvature="0" sodipodi:nodetypes="ccc" class="st10" d="M1064.45,409.7
		c1.46-5.98,0.95-12.08,5.15-17.89C1068.79,393.73,1066.47,410.04,1064.45,409.7z"/>
	
		<linearGradient id="path5030_1_" gradientUnits="userSpaceOnUse" x1="3955.0889" y1="-3198.0227" x2="3966.2446" y2="-3176.8701" gradientTransform="matrix(0.2704 0 0 -0.2704 -14.041 -434.7009)">
		<stop  offset="0" style="stop-color:#25150F"/>
		<stop  offset="1" style="stop-color:#25150F;stop-opacity:0"/>
	</linearGradient>
	<path id="path5030" inkscape:connector-curvature="0" sodipodi:nodetypes="cccc" class="st11" d="M1066.95,378.21
		c-16.39,20.32-7.06,43.13-9.4,64.81c10.19-18.94,31.46-24.04,28.96-59.06C1080.41,376.5,1073.49,379.79,1066.95,378.21z"/>
	<path id="path4999" inkscape:connector-curvature="0" class="st12" d="M1182.96,36.67c-33.06,83.26-59.04,168.35-83.4,253.87
		l-28.21,88.64c0.98,0.19,1.95,0.38,2.93,0.57c-0.79-0.08-1.57-0.19-2.35-0.38c-7.04,8.72-9.33,17.91-9.84,27.26l28.51-4.6
		c0.97-4.69,1.35-10.12,0.91-16.58c0.35,0.23,0.69,0.47,1.02,0.73l34.17-87.01c23.98-71.59,46.35-143.08,63.9-215.17L1182.96,36.67z
		"/>
	
		<linearGradient id="path4983_1_" gradientUnits="userSpaceOnUse" x1="4485.7114" y1="-2113.3047" x2="4513.1538" y2="-2122.509" gradientTransform="matrix(0.2704 0 0 -0.2704 -71.8887 -432.1308)">
		<stop  offset="0" style="stop-color:#E3E3E3"/>
		<stop  offset="0.1598" style="stop-color:#EBEBEB"/>
		<stop  offset="0.5087" style="stop-color:#C8C8C8"/>
		<stop  offset="1" style="stop-color:#9A9A9A"/>
	</linearGradient>
	<path id="path4983" inkscape:connector-curvature="0" sodipodi:nodetypes="ccsccc" class="st13" d="M1094.58,289.38
		c28.12-98.73,58.4-196.91,99.25-292.34c1.25-2.81,5.69-4.19,7.38-3.18c1.41,0.84,2.69,4.43,1.84,8.06
		c-18.52,99.72-48.42,197.81-81.34,296.09L1094.58,289.38z"/>
	
		<linearGradient id="rect4971_1_" gradientUnits="userSpaceOnUse" x1="4726.7505" y1="-1921.2578" x2="4752.2417" y2="-1921.2578" gradientTransform="matrix(0.2878 0.0916 0.082 -0.2577 -121.9811 -595.8033)">
		<stop  offset="0" style="stop-color:#69737A"/>
		<stop  offset="0.0383" style="stop-color:#6B7276"/>
		<stop  offset="0.1463" style="stop-color:#58595C"/>
		<stop  offset="0.3227" style="stop-color:#F2F3F4"/>
		<stop  offset="0.4803" style="stop-color:#F2F3F4"/>
		<stop  offset="0.6017" style="stop-color:#7F868B"/>
		<stop  offset="0.6985" style="stop-color:#525252"/>
		<stop  offset="0.801" style="stop-color:#5C5C5C"/>
		<stop  offset="0.8862" style="stop-color:#484848"/>
		<stop  offset="1" style="stop-color:#000000;stop-opacity:0"/>
	</linearGradient>
	<path id="rect4971" inkscape:connector-curvature="0" sodipodi:nodetypes="ccccc" class="st14" d="M1094.58,289.38
		c10.73-1.16,20.02,1.13,27.13,8.63l-34.17,87.01c-5.59-4.29-13.49-5.51-21.17-7.01L1094.58,289.38z"/>
</g>
</svg>
