<?xml version="1.0" encoding="UTF-8" standalone="no"?>
<svg
   xmlns:dc="http://purl.org/dc/elements/1.1/"
   xmlns:cc="http://creativecommons.org/ns#"
   xmlns:rdf="http://www.w3.org/1999/02/22-rdf-syntax-ns#"
   xmlns:svg="http://www.w3.org/2000/svg"
   xmlns="http://www.w3.org/2000/svg"
   xmlns:xlink="http://www.w3.org/1999/xlink"
   xmlns:sodipodi="http://sodipodi.sourceforge.net/DTD/sodipodi-0.dtd"
   xmlns:inkscape="http://www.inkscape.org/namespaces/inkscape"
   id="svg15"
   viewBox="0 0 48 48"
   version="1.1"
   style="clip-rule:evenodd;fill-rule:evenodd;stroke-linejoin:round;stroke-miterlimit:2"
   sodipodi:docname="mendeley-web.svg"
   inkscape:version="0.92.5 (2060ec1f9f, 2020-04-08)">
  <sodipodi:namedview
     pagecolor="#ffffff"
     bordercolor="#666666"
     borderopacity="1"
     objecttolerance="10"
     gridtolerance="10"
     guidetolerance="10"
     inkscape:pageopacity="0"
     inkscape:pageshadow="2"
     inkscape:window-width="1875"
     inkscape:window-height="2100"
     id="namedview15"
     showgrid="false"
     inkscape:zoom="3.4766084"
     inkscape:cx="-26.009287"
     inkscape:cy="62.981965"
     inkscape:window-x="30"
     inkscape:window-y="30"
     inkscape:window-maximized="0"
     inkscape:current-layer="svg15" />
  <metadata
     id="metadata19">
    <rdf:RDF>
      <cc:Work
         rdf:about="">
        <dc:format>image/svg+xml</dc:format>
        <dc:type
           rdf:resource="http://purl.org/dc/dcmitype/StillImage" />
        <dc:title></dc:title>
      </cc:Work>
    </rdf:RDF>
  </metadata>
  <path
     inkscape:connector-curvature="0"
     d="m 39.421706,2.3862481 c 3.438,0 6.228,2.79 6.228,6.228 V 39.494248 c 0,3.438 -2.79,6.228 -6.228,6.228 H 8.5417056 c -3.438,0 -6.228,-2.79 -6.228,-6.228 V 8.6142481 c 0,-3.438 2.79,-6.228 6.228,-6.228 z"
     style="clip-rule:evenodd;fill:url(#_Linear1-4);fill-rule:evenodd;stroke-linejoin:round;stroke-miterlimit:2"
     id="path2-4" />
  <g
     id="g6"
     transform="scale(.75)">
    <path
       id="path4"
       style="fill-rule:nonzero;fill:white"
       d="m20.697 18.005c-1.742 0.055-3.424 0.859-4.712 2.078-1.309 1.238-2.247 2.94-2.438 4.77-0.095 0.914-2e-3 1.85 0.29 2.717 0.292 0.868 0.785 1.668 1.441 2.286 0.773 0.728 1.741 1.188 2.629 1.758 0.444 0.284 0.87 0.602 1.238 0.988 0.368 0.384 0.675 0.842 0.844 1.356 0.15 0.456 0.184 0.948 0.118 1.424-0.068 0.478-0.238 0.94-0.485 1.348-0.496 0.816-1.295 1.41-2.172 1.728-1.017 0.368-2.137 0.386-3.117 0.85-0.776 0.368-1.429 1.008-1.836 1.786s-0.568 1.894-0.469 2.774c0.116 1.034 0.595 2.016 1.309 2.746 0.713 0.73 1.658 1.206 2.648 1.364 1.452 0.23 3.504-0.252 4.558-1.314 0.528-0.53 0.928-1.194 1.154-1.922 0.224-0.726 0.27-1.712 0.124-2.46-0.112-0.572-0.328-1.114-0.53-1.658-0.204-0.542-0.398-1.098-0.446-1.678-0.086-1.026-0.21-2.068 0.446-2.84 0.654-0.772 1.572-1.78 2.538-2.004 0.624-0.146 1.271-0.18 1.901-0.066 0.63 0.112 1.24 0.37 1.75 0.768 0.51 0.4 0.918 1.442 1.144 2.064 0.228 0.62 0.268 1.32 0.086 1.956-0.184 0.652-1.08 1.214-1.484 1.75-0.402 0.536-0.826 1.074-1.066 1.708-0.264 0.698-0.29 1.484-0.11 2.21 0.182 0.726 0.562 1.39 1.064 1.93 0.554 0.598 1.756 1.044 2.518 1.288 0.764 0.246 1.542 0.29 2.34 0.29s1.632-0.044 2.396-0.29c0.762-0.244 1.964-0.69 2.518-1.288 0.502-0.54 0.882-1.204 1.064-1.93 0.18-0.726 0.154-1.512-0.11-2.21-0.24-0.634-0.664-1.172-1.066-1.708-0.404-0.536-1.3-1.098-1.484-1.75-0.182-0.636-0.142-1.336 0.086-1.956 0.226-0.622 0.634-1.664 1.144-2.064 0.51-0.398 1.12-0.656 1.75-0.768 0.63-0.114 1.278-0.08 1.902 0.066 0.966 0.224 1.884 1.232 2.538 2.004 0.656 0.772 0.532 1.814 0.446 2.84-0.048 0.58-0.242 1.136-0.446 1.678-0.202 0.544-0.418 1.086-0.53 1.658-0.146 0.748-0.1 1.734 0.124 2.46 0.226 0.728 0.626 1.392 1.154 1.922 1.054 1.062 3.106 1.544 4.558 1.314 0.99-0.158 1.934-0.634 2.648-1.364s1.192-1.712 1.308-2.746c0.1-0.88-0.062-1.996-0.468-2.774-0.408-0.778-1.06-1.418-1.836-1.786-0.98-0.464-2.1-0.482-3.118-0.85-0.876-0.318-1.676-0.912-2.172-1.728-0.246-0.408-0.416-0.87-0.484-1.348-0.066-0.476-0.032-0.968 0.118-1.424 0.168-0.514 0.476-0.972 0.844-1.356 0.368-0.386 0.794-0.704 1.238-0.988 0.888-0.57 1.856-1.03 2.628-1.758 0.656-0.618 1.15-1.418 1.442-2.286 0.292-0.867 0.384-1.803 0.29-2.717-0.19-1.83-1.13-3.532-2.438-4.77-1.288-1.219-2.97-2.023-4.712-2.078-0.87-0.028-1.744 0.128-2.546 0.48s-1.532 0.9-2.086 1.598c-0.636 0.8-1.036 1.77-1.402 2.734-0.366 0.966-0.712 1.954-1.266 2.816-0.914 1.424-2.358 2.367-4.004 2.367s-3.09-0.943-4.004-2.367c-0.554-0.862-0.9-1.85-1.266-2.816-0.366-0.964-0.766-1.934-1.402-2.734-0.553-0.698-1.283-1.246-2.085-1.598s-1.676-0.508-2.546-0.48zm11.303 11.995c1.105 0 2 0.896 2 2 0 1.105-0.895 2-2 2-1.104 0-2-0.895-2-2 0-1.104 0.896-2 2-2z" />
  </g>
  <defs
     id="defs13">
    <linearGradient
       xlink:href="#_Linear1-2"
       gradientUnits="userSpaceOnUse"
       gradientTransform="matrix(0,-43.3373,43.3373,0,201.9,45.6687)"
       x2="1"
       id="_Linear1">
      <stop
         id="stop8"
         offset="0"
         style="stop-color:rgb(135,0,11)" />
      <stop
         id="stop10"
         offset="1"
         style="stop-color:rgb(190,33,46)" />
    </linearGradient>
    <linearGradient
       gradientUnits="userSpaceOnUse"
       gradientTransform="matrix(-0.310734,-61.9574,61.9574,-0.310734,92.849153,45.921456)"
       x2="1"
       id="_Linear1-2">
      <stop
         id="stop6"
         offset="0"
         style="stop-color:#be6e00" />
      <stop
         id="stop8-9"
         offset="1"
         style="stop-color:#ffd702" />
    </linearGradient>
    <linearGradient
       gradientUnits="userSpaceOnUse"
       y2="2.2372894"
       x2="22.07478"
       y1="45.559322"
       x1="22.060814"
       id="linearGradient862"
       xlink:href="#_Linear1-2" />
    <linearGradient
       id="_Linear1-4"
       x2="1"
       gradientTransform="matrix(-0.47414,-33.0943,33.0943,-0.47414,1238.8617,22.869149)"
       gradientUnits="userSpaceOnUse">
      <stop
         style="stop-color:#b6a20f"
         offset="0"
         id="stop8-7" />
      <stop
         style="stop-color:#ff9f2d"
         offset="1"
         id="stop10-4" />
    </linearGradient>
  </defs>
</svg>
