<?xml version="1.0" encoding="UTF-8" standalone="no"?>
<svg
   xmlns:dc="http://purl.org/dc/elements/1.1/"
   xmlns:cc="http://creativecommons.org/ns#"
   xmlns:rdf="http://www.w3.org/1999/02/22-rdf-syntax-ns#"
   xmlns:svg="http://www.w3.org/2000/svg"
   xmlns="http://www.w3.org/2000/svg"
   xmlns:sodipodi="http://sodipodi.sourceforge.net/DTD/sodipodi-0.dtd"
   xmlns:inkscape="http://www.inkscape.org/namespaces/inkscape"
   style="clip-rule:evenodd;fill-rule:evenodd;stroke-linejoin:round;stroke-miterlimit:2"
   version="1.1"
   viewBox="0 0 64 64"
   id="svg17"
   sodipodi:docname="pdfarranger.svg"
   inkscape:version="0.92.5 (2060ec1f9f, 2020-04-08)">
  <metadata
     id="metadata21">
    <rdf:RDF>
      <cc:Work
         rdf:about="">
        <dc:format>image/svg+xml</dc:format>
        <dc:type
           rdf:resource="http://purl.org/dc/dcmitype/StillImage" />
        <dc:title></dc:title>
      </cc:Work>
    </rdf:RDF>
  </metadata>
  <sodipodi:namedview
     pagecolor="#ffffff"
     bordercolor="#666666"
     borderopacity="1"
     objecttolerance="10"
     gridtolerance="10"
     guidetolerance="10"
     inkscape:pageopacity="0"
     inkscape:pageshadow="2"
     inkscape:window-width="1908"
     inkscape:window-height="2107"
     id="namedview19"
     showgrid="false"
     inkscape:zoom="3.6875"
     inkscape:cx="-16.542373"
     inkscape:cy="32"
     inkscape:window-x="1924"
     inkscape:window-y="8"
     inkscape:window-maximized="0"
     inkscape:current-layer="svg17" />
  <path
     d="m38.996 2.562c3.61 0 6.541 2.931 6.541 6.541v32.711c0 3.61-2.931 6.541-6.541 6.541h-27.896c-3.611 0-6.542-2.931-6.542-6.541v-32.711c0-3.61 2.931-6.541 6.542-6.541h27.896z"
     style="fill:#ec6c9c"
     id="path2" />
  <path
     d="m45.537 9.103c3.611 0 6.542 2.931 6.542 6.542v32.71c0 3.611-2.931 6.542-6.542 6.542h-27.896c-3.61 0-6.541-2.931-6.541-6.542v-32.71c0-3.611 2.931-6.542 6.541-6.542h27.896z"
     style="fill:#67d228"
     id="path4" />
  <path
     d="m52.9 15.645c3.611 0 6.542 2.931 6.542 6.541v32.711c0 3.61-2.931 6.541-6.542 6.541h-27.896c-3.61 0-6.541-2.931-6.541-6.541v-32.711c0-3.61 2.931-6.541 6.541-6.541h27.896z"
     style="fill:url(#_Linear1)"
     id="path6" />
  <defs
     id="defs15">
    <linearGradient
       id="_Linear1"
       x2="1"
       gradientTransform="matrix(-2.94789e-16,-45.7934,-40.9791,-2.94789e-16,38.9524,61.4383)"
       gradientUnits="userSpaceOnUse">
      <stop
         style="stop-color:#0058ff"
         offset="0"
         id="stop10" />
      <stop
         style="stop-color:#009dc5"
         offset="1"
         id="stop12" />
    </linearGradient>
  </defs>
  <path
     inkscape:connector-curvature="0"
     style="fill:#ffffff;fill-rule:nonzero;stroke-width:1.31242001"
     d="m 37.177829,26.164078 c 0,0 0.36879,0.0039 0.366165,0.0039 0,0 0.06693,0 0.063,0 0.435724,-0.0066 0.783515,0.202113 1.042062,0.500033 0.345166,0.397663 0.52103,0.955441 0.555153,1.245486 0.07743,0.727081 -0.251984,1.959443 -0.251984,1.959443 l -0.645711,-0.08662 c 0,-0.433098 0.02625,-1.132618 -0.245423,-1.735019 -0.188988,-0.414725 -0.370102,-0.731018 -0.545966,-0.930506 -0.01837,-0.02231 -0.03675,-0.042 -0.05381,-0.06037 -0.03675,0.07743 -0.06431,0.182426 -0.08137,0.32023 l -0.0039,0.01837 c -0.09712,0.532843 -0.127304,1.206114 -0.127304,1.551281 0,0.963316 0.146991,2.161555 0.435723,3.43854 0.2113,-0.820262 0.641773,-2.50541 0.641773,-2.50541 l 0.645711,0.09581 c 0,0 -0.166677,3.395231 -0.395038,4.424168 -0.042,0.185051 -0.08662,0.367478 -0.133867,0.553841 0.795326,2.177305 2.055249,4.118374 3.55797,5.521351 0.569591,0.53153 1.282235,0.964629 1.967318,1.359667 1.578841,-0.221799 3.034315,-0.32548 4.252241,-0.312356 1.015813,0.01312 1.870198,0.111556 2.498847,0.29267 0.469847,0.135179 0.822888,0.321543 1.047312,0.543342 0.296606,0.290044 0.425224,0.639148 0.461971,1.038124 l 0.0013,0.0053 c 0.0079,0.146991 -0.05775,0.493469 -0.07874,0.580089 l -0.475096,-0.104993 0.471158,0.229673 c 0,0 -0.177176,0.745455 -0.295294,0.933131 l -0.01444,0.01969 c -0.170614,0.230986 -0.505281,0.479033 -0.822887,0.563028 -0.556466,0.148304 -1.471223,0.111556 -2.568406,-0.115493 -1.548656,-0.32023 -3.48185,-1.010563 -5.269366,-2.017189 -3.225929,0.48297 -6.749776,1.353105 -9.601665,2.282298 -1.725832,3.012004 -3.207554,5.04363 -4.491101,6.008259 -0.975128,0.73233 -1.861011,0.879321 -2.665525,0.476408 l -0.66149,-0.332096 c -0.380601,-0.217862 -0.48822,-0.73233 -0.398975,-1.164117 0.213924,-1.048623 1.496159,-2.65765 4.135435,-4.232554 0.274296,-0.166677 1.497471,-0.812388 1.497471,-0.812388 l 0.255922,0.353041 c 0.812388,-1.341293 1.68646,-2.928009 2.619591,-4.754898 0.795326,-1.557842 1.699583,-3.31386 2.422726,-5.077753 l 0.245423,-0.597151 c -0.951504,-3.635403 -1.494846,-6.55685 -0.980378,-8.453297 0.171927,-0.615525 0.860948,-1.025 1.623464,-1.025 z M 30.80603,46.786133 c -0.229673,0.217862 -0.464596,0.437036 -0.559091,0.513157 -1.372791,1.124744 -2.496223,2.4516 -3.033002,3.414917 -0.09581,0.173239 -0.174552,0.329417 -0.228361,0.469846 0.528905,-0.245423 1.124744,-0.78089 1.803265,-1.578841 0.618149,-0.727081 1.291421,-1.668086 2.017189,-2.819079 z m 20.74936,-2.933258 -0.04462,-0.0092 c -0.0013,0.0066 -0.0026,0.03675 -0.0026,0.03675 0,0 -0.02625,-0.0525 -0.063,-0.09056 -0.141742,-0.149616 -0.434411,-0.322856 -1.009251,-0.506595 -0.81895,-0.261171 -2.21799,-0.296606 -3.929386,-0.170614 1.181178,0.502657 2.29936,0.858323 3.190493,1.03025 0.700832,0.136491 1.246799,0.171927 1.536844,0.03543 0.06956,-0.03412 0.141741,-0.114181 0.2008,-0.179802 0.05512,-0.06037 0.09843,-0.115493 0.120743,-0.145678 z M 37.508559,37.761934 c -0.497408,1.283546 -1.103746,2.672087 -2.015877,4.393982 -0.387164,0.731018 -0.769078,1.425288 -1.133931,2.080185 2.274424,-0.871446 4.66434,-1.484347 6.982074,-1.943694 -0.170615,-0.129929 -0.338604,-0.263796 -0.500032,-0.4016 -1.389853,-1.175928 -2.490973,-2.606466 -3.332234,-4.128873 z"
     id="path16" />
</svg>
