<?xml version="1.0" encoding="utf-8"?>
<!-- Generator: Adobe Illustrator 24.1.3, SVG Export Plug-In . SVG Version: 6.00 Build 0)  -->
<svg version="1.1" xmlns="http://www.w3.org/2000/svg" xmlns:xlink="http://www.w3.org/1999/xlink" x="0px" y="0px"
	 viewBox="0 0 512 512" style="enable-background:new 0 0 512 512;" xml:space="preserve">
<style type="text/css">
	.st0{fill:url(#SVGID_1_);}
	.st1{opacity:0.9;fill:#FFFFFF;}
</style>
<g id="Raster">
</g>
<g id="Vector">
	<linearGradient id="SVGID_1_" gradientUnits="userSpaceOnUse" x1="256.5006" y1="503.3455" x2="256.5006" y2="9.5008">
		<stop  offset="0" style="stop-color:#31B538"/>
		<stop  offset="1" style="stop-color:#6EE135"/>
	</linearGradient>
	<path class="st0" d="M252.87,433.47C138.53,431.55,46.22,339.1,44.52,224.71C42.73,103.84,143.38,5.34,264.18,9.64
		c113.52,4.04,204.02,97.35,204.32,211.86c0.47,177.8-156.87,272.43-204.7,281.74c-3.54,0.69-6.82-2.02-6.85-5.63l-0.43-60.48
		C256.51,435.12,254.88,433.5,252.87,433.47z"/>
	<path class="st1" d="M204.37,252.83c-0.25-0.97-0.74-1.83-1.75-1.83c-7.25,0-34.92,0-49.5,0c-5.04,0-9.12-4.09-9.12-9.13v-77.56
		c0-4.04,3.27-7.31,7.31-7.31h79.38c4.04,0,7.31,3.27,7.31,7.31V235c0,0,0-51,0,16c0,52.08-38.07,61.26-55.02,62.77
		c-4.29,0.38-7.98-2.98-7.98-7.28v-16.16c0-3.71,2.75-7.24,6.46-7.26C193,283,209,271,204.37,252.83z"/>
	<path class="st1" d="M335.37,252.83c-0.25-0.97-0.74-1.83-1.75-1.83c-7.25,0-34.92,0-49.5,0c-5.04,0-9.12-4.09-9.12-9.13v-77.56
		c0-4.04,3.27-7.31,7.31-7.31h79.38c4.04,0,7.31,3.27,7.31,7.31V235c0,0,0-51,0,16c0,52.08-38.07,61.26-55.02,62.77
		c-4.29,0.38-7.98-2.98-7.98-7.28v-16.16c0-3.71,2.75-7.24,6.46-7.26C324,283,340,271,335.37,252.83z"/>
</g>
</svg>
