<?xml version="1.0" encoding="UTF-8" standalone="no"?>
<svg
   xmlns:figma="http://www.figma.com/figma/ns"
   xmlns:dc="http://purl.org/dc/elements/1.1/"
   xmlns:cc="http://creativecommons.org/ns#"
   xmlns:rdf="http://www.w3.org/1999/02/22-rdf-syntax-ns#"
   xmlns:svg="http://www.w3.org/2000/svg"
   xmlns="http://www.w3.org/2000/svg"
   xmlns:xlink="http://www.w3.org/1999/xlink"
   xmlns:sodipodi="http://sodipodi.sourceforge.net/DTD/sodipodi-0.dtd"
   xmlns:inkscape="http://www.inkscape.org/namespaces/inkscape"
   style="clip-rule:evenodd;fill-rule:evenodd;stroke-linejoin:round;stroke-miterlimit:2"
   version="1.1"
   viewBox="0 0 48 48"
   id="svg23"
   sodipodi:docname="jupyter-notebook.svg"
   inkscape:version="0.92.5 (2060ec1f9f, 2020-04-08)">
  <metadata
     id="metadata27">
    <rdf:RDF>
      <cc:Work
         rdf:about="">
        <dc:format>image/svg+xml</dc:format>
        <dc:type
           rdf:resource="http://purl.org/dc/dcmitype/StillImage" />
      </cc:Work>
    </rdf:RDF>
  </metadata>
  <sodipodi:namedview
     pagecolor="#ffffff"
     bordercolor="#666666"
     borderopacity="1"
     objecttolerance="10"
     gridtolerance="10"
     guidetolerance="10"
     inkscape:pageopacity="0"
     inkscape:pageshadow="2"
     inkscape:window-width="1908"
     inkscape:window-height="2107"
     id="namedview25"
     showgrid="false"
     inkscape:zoom="9.4689655"
     inkscape:cx="19.5"
     inkscape:cy="19.672979"
     inkscape:window-x="1924"
     inkscape:window-y="8"
     inkscape:window-maximized="0"
     inkscape:current-layer="svg23" />
  <path
     d="m39.44 2.332c3.438 0 6.228 2.79 6.228 6.228v30.88c0 3.438-2.79 6.228-6.228 6.228h-30.88c-3.438 0-6.228-2.79-6.228-6.228v-30.88c0-3.438 2.79-6.228 6.228-6.228h30.88z"
     style="fill:url(#_Linear1)"
     id="path2" />
  <path
     d="m2.332 9.588v-1.028c0-3.438 2.79-6.228 6.228-6.228h30.88c3.438 0 6.228 2.79 6.228 6.228v1.028h-43.336z"
     style="fill-opacity:.1;fill:#ebebeb"
     id="path4" />
  <path
     d="m45.668 38.412v1.028c0 3.438-2.79 6.228-6.228 6.228h-30.88c-3.438 0-6.228-2.79-6.228-6.228v-1.028h43.336z"
     style="fill-opacity:.2"
     id="path6" />
  <path
     d="m33.317 7.335h-0.105c-0.099 0-0.178-0.081-0.178-0.18v-0.302c-0.426-0.107-0.548-0.36-0.548-0.879 0-0.766 0.622-1.389 1.388-1.389s1.388 0.623 1.388 1.389c0 0.511-0.129 0.763-0.546 0.874v0.306c0 0.1-0.081 0.18-0.18 0.18h-0.104c-0.099 0-0.18-0.08-0.18-0.18v-0.24c-0.047 3e-3 -0.095 5e-3 -0.146 6e-3v0.235c0 0.099-0.08 0.179-0.179 0.179h-0.104c-0.1 0-0.18-0.08-0.18-0.179v-0.234c-0.051-1e-3 -0.1-3e-3 -0.147-6e-3v0.24c0 0.099-0.08 0.18-0.179 0.18zm-0.018-1.926c0.235 0.092 0.426 0.185 0.426 0.414 0 0.227-0.154 0.271-0.426 0.412-0.209 0.109-0.427-0.185-0.427-0.412 0-0.229 0.207-0.499 0.427-0.414zm1.145 0c0.227-0.064 0.426 0.185 0.426 0.414 0 0.227-0.224 0.533-0.426 0.412-0.248-0.147-0.426-0.185-0.426-0.412 0-0.229 0.166-0.34 0.426-0.414z"
     style="fill-opacity:.5;fill:#ededed"
     id="path8" />
  <path
     d="m40.535 5.039 0.418 0.442 0.661-0.626 0.528 0.557-0.66 0.626 0.418 0.442c0.143 0.15 0.141 0.383-3e-3 0.518-0.144 0.137-0.376 0.126-0.517-0.024l-0.42-0.442-0.662 0.628-0.529-0.557 0.664-0.596-0.419-0.475c-0.143-0.15-0.14-0.382 3e-3 -0.518 0.144-0.136 0.376-0.125 0.518 0.025z"
     style="fill-opacity:.5;fill:#fff"
     id="path10" />
  <path
     d="m37.201 4.892 4e-3 -0.169 0.607 0.016-6e-3 0.169 0.328 9e-3c0.314 9e-3 0.563 0.272 0.554 0.586l-0.031 1.139c-8e-3 0.315-0.27 0.564-0.585 0.555l-1.26-0.034c-0.315-8e-3 -0.563-0.271-0.554-0.585l0.03-1.14c8e-3 -0.315 0.271-0.563 0.586-0.555l0.327 9e-3zm-0.182 0.496c0.163 4e-3 0.292 0.141 0.287 0.304-3e-3 0.163-0.14 0.292-0.303 0.288s-0.293-0.141-0.288-0.304c4e-3 -0.163 0.141-0.292 0.304-0.288zm1.009 0.027c0.163 5e-3 0.293 0.14 0.288 0.304-4e-3 0.164-0.14 0.293-0.304 0.288-0.163-4e-3 -0.292-0.14-0.288-0.304 5e-3 -0.163 0.141-0.292 0.304-0.288z"
     style="fill-opacity:.5;fill:#fff"
     id="path12" />
  <defs
     id="defs21">
    <linearGradient
       id="linearGradient1123"
       inkscape:collect="always">
      <stop
         id="stop1119"
         offset="0"
         style="stop-color:#a02d2d;stop-opacity:1" />
      <stop
         id="stop1121"
         offset="1"
         style="stop-color:#dc8533;stop-opacity:1" />
    </linearGradient>
    <linearGradient
       id="_Linear1"
       x2="1"
       gradientTransform="matrix(2.21762e-15,-36.2165,36.2165,2.21762e-15,275.714,42.119)"
       gradientUnits="userSpaceOnUse">
      <stop
         style="stop-color:#313738"
         offset="0"
         id="stop16" />
      <stop
         style="stop-color:#535552"
         offset="1"
         id="stop18" />
    </linearGradient>
    <linearGradient
       id="a"
       x2="1"
       gradientTransform="matrix(0,-36.2165,36.2165,0,360.171,42.119)"
       gradientUnits="userSpaceOnUse">
      <stop
         stop-color="#c6031e"
         offset="0"
         id="stop2" />
      <stop
         stop-color="#f05f1d"
         offset="1"
         id="stop4" />
    </linearGradient>
    <linearGradient
       inkscape:collect="always"
       xlink:href="#linearGradient940"
       id="linearGradient942"
       x1="1676.4523"
       y1="2459.7285"
       x2="1676.3555"
       y2="2453.5481"
       gradientUnits="userSpaceOnUse" />
    <linearGradient
       inkscape:collect="always"
       id="linearGradient940">
      <stop
         style="stop-color:#767677;stop-opacity:1;"
         offset="0"
         id="stop936" />
      <stop
         style="stop-color:#9a9a9b;stop-opacity:1"
         offset="1"
         id="stop938" />
    </linearGradient>
    <linearGradient
       inkscape:collect="always"
       xlink:href="#linearGradient919"
       id="linearGradient921"
       x1="3.6737287"
       y1="8.124444"
       x2="3.7133074"
       y2="0.34478277"
       gradientUnits="userSpaceOnUse"
       gradientTransform="translate(1643.28,2496.09)" />
    <linearGradient
       inkscape:collect="always"
       id="linearGradient919">
      <stop
         style="stop-color:#9e9e9e;stop-opacity:1;"
         offset="0"
         id="stop915" />
      <stop
         style="stop-color:#d7d7d7;stop-opacity:1"
         offset="1"
         id="stop917" />
    </linearGradient>
    <linearGradient
       inkscape:collect="always"
       xlink:href="#linearGradient948"
       id="linearGradient950"
       x1="1644.1206"
       y1="2462.8098"
       x2="1644.2206"
       y2="2458.2615"
       gradientUnits="userSpaceOnUse" />
    <linearGradient
       inkscape:collect="always"
       id="linearGradient948">
      <stop
         style="stop-color:#616262;stop-opacity:1;"
         offset="0"
         id="stop944" />
      <stop
         style="stop-color:#8e8e8e;stop-opacity:1"
         offset="1"
         id="stop946" />
    </linearGradient>
    <linearGradient
       id="_Linear1-3"
       x2="1"
       gradientTransform="matrix(0,-36.2165,36.2165,0,275.567,42.113)"
       gradientUnits="userSpaceOnUse">
      <stop
         style="stop-color:#313738"
         offset="0"
         id="stop28" />
      <stop
         style="stop-color:#535552"
         offset="1"
         id="stop30" />
    </linearGradient>
    <linearGradient
       id="_Linear2"
       x2="1"
       gradientTransform="matrix(-0.03334,-10.7989,10.7989,-0.03334,381.229,41.9599)"
       gradientUnits="userSpaceOnUse">
      <stop
         style="stop-color:#0f9d58"
         offset="0"
         id="stop33" />
      <stop
         style="stop-color:#00d455"
         offset="1"
         id="stop35" />
    </linearGradient>
    <linearGradient
       id="_Linear3"
       x2="1"
       gradientTransform="matrix(0,-11.6,11.6,0,430.671,44.2412)"
       gradientUnits="userSpaceOnUse">
      <stop
         style="stop-color:#ffcd40"
         offset="0"
         id="stop38" />
      <stop
         style="stop-color:#fee145"
         offset="1"
         id="stop40" />
    </linearGradient>
    <linearGradient
       id="_Linear4"
       x2="1"
       gradientTransform="matrix(0,-6.4,6.4,0,222.591,34.6412)"
       gradientUnits="userSpaceOnUse">
      <stop
         style="stop-color:#db4437"
         offset="0"
         id="stop43" />
      <stop
         style="stop-color:#fd5757"
         offset="1"
         id="stop45" />
    </linearGradient>
    <linearGradient
       id="_Linear5"
       x2="1"
       gradientTransform="matrix(0,-6.99807,6.99807,0,271.115,39.6177)"
       gradientUnits="userSpaceOnUse">
      <stop
         style="stop-color:#f2f6f7"
         offset="0"
         id="stop48" />
      <stop
         style="stop-color:#ecf0f1"
         offset="1"
         id="stop50" />
    </linearGradient>
    <linearGradient
       id="_Linear6"
       x2="1"
       gradientTransform="matrix(0,-5.7257,5.7257,0,233.211,39.1874)"
       gradientUnits="userSpaceOnUse">
      <stop
         style="stop-color:#2566d3"
         offset="0"
         id="stop53" />
      <stop
         style="stop-color:#429aff"
         offset="1"
         id="stop55" />
    </linearGradient>
    <linearGradient
       inkscape:collect="always"
       xlink:href="#linearGradient1123"
       id="linearGradient1025"
       x1="43.428085"
       y1="44.51466"
       x2="31.950497"
       y2="27.625031"
       gradientUnits="userSpaceOnUse" />
    <linearGradient
       inkscape:collect="always"
       xlink:href="#linearGradient919"
       id="linearGradient1069"
       gradientUnits="userSpaceOnUse"
       x1="36.457947"
       y1="44.62027"
       x2="36.38604"
       y2="28.15307" />
  </defs>
  <path
     inkscape:connector-curvature="0"
     style="fill:#ff8046;fill-opacity:1"
     d="m 33.317,7.335 h -0.105 c -0.099,0 -0.178,-0.081 -0.178,-0.18 V 6.853 c -0.426,-0.107 -0.548,-0.36 -0.548,-0.879 0,-0.766 0.622,-1.389 1.388,-1.389 0.766,0 1.388,0.623 1.388,1.389 0,0.511 -0.129,0.763 -0.546,0.874 v 0.306 c 0,0.1 -0.081,0.18 -0.18,0.18 h -0.104 c -0.099,0 -0.18,-0.08 -0.18,-0.18 V 6.914 C 34.205,6.917 34.157,6.919 34.106,6.92 v 0.235 c 0,0.099 -0.08,0.179 -0.179,0.179 h -0.104 c -0.1,0 -0.18,-0.08 -0.18,-0.179 V 6.921 C 33.592,6.92 33.543,6.918 33.496,6.915 v 0.24 c 0,0.099 -0.08,0.18 -0.179,0.18 z M 33.299,5.409 c 0.235,0.092 0.426,0.185 0.426,0.414 0,0.227 -0.154,0.271 -0.426,0.412 -0.209,0.109 -0.427,-0.185 -0.427,-0.412 0,-0.229 0.207,-0.499 0.427,-0.414 z m 1.145,0 c 0.227,-0.064 0.426,0.185 0.426,0.414 0,0.227 -0.224,0.533 -0.426,0.412 -0.248,-0.147 -0.426,-0.185 -0.426,-0.412 0,-0.229 0.166,-0.34 0.426,-0.414 z"
     id="path21" />
  <g
     style="fill:#ff8046;fill-opacity:1"
     id="g29">
    <path
       style="fill-opacity:1;fill:#ff8046"
       inkscape:connector-curvature="0"
       d="m 40.535,5.039 0.418,0.442 0.661,-0.626 0.528,0.557 -0.66,0.626 L 41.9,6.48 C 42.043,6.63 42.041,6.863 41.897,6.998 41.753,7.135 41.521,7.124 41.38,6.974 L 40.96,6.532 40.298,7.16 39.769,6.603 40.433,6.007 40.014,5.532 c -0.143,-0.15 -0.14,-0.382 0.003,-0.518 0.144,-0.136 0.376,-0.125 0.518,0.025 z"
       id="path23" />
    <path
       style="fill-opacity:1;fill:#ff8046"
       inkscape:connector-curvature="0"
       d="m 37.201,4.892 0.004,-0.169 0.607,0.016 -0.006,0.169 0.328,0.009 c 0.314,0.009 0.563,0.272 0.554,0.586 l -0.031,1.139 c -0.008,0.315 -0.27,0.564 -0.585,0.555 L 36.812,7.163 C 36.497,7.155 36.249,6.892 36.258,6.578 l 0.03,-1.14 c 0.008,-0.315 0.271,-0.563 0.586,-0.555 z m -0.182,0.496 c 0.163,0.004 0.292,0.141 0.287,0.304 C 37.303,5.855 37.166,5.984 37.003,5.98 36.84,5.976 36.71,5.839 36.715,5.676 36.719,5.513 36.856,5.384 37.019,5.388 Z m 1.009,0.027 c 0.163,0.005 0.293,0.14 0.288,0.304 -0.004,0.164 -0.14,0.293 -0.304,0.288 C 37.849,6.003 37.72,5.867 37.724,5.703 37.729,5.54 37.865,5.411 38.028,5.415 Z"
       id="path25" />
    <path
       style="fill-rule:nonzero;fill:#ff8046;fill-opacity:1"
       inkscape:connector-curvature="0"
       d="m 9,10 v 1 H 7.5 v 1 H 9 v 3 H 7.5 v 1 H 9 v 1 h 1 v -1 h 2 v 1 h 1 v -1 h 1.5 V 15 H 13 v -3 h 1.5 V 11 H 13 v -1 h -1 v 1 h -2 v -1 z m 1,2 h 2 v 3 h -2 z m 6,4 v 1 h 6 v -1 z"
       id="path27" />
  </g>
  <circle
     style="opacity:1;fill:url(#linearGradient1025);fill-opacity:1"
     id="path1015"
     cx="36.673676"
     cy="36.206898"
     r="8.1976452" />
  <g
     transform="matrix(0.41102795,0,0,0.42345624,-646.42628,-1012.8252)"
     id="g67"
     style="clip-rule:evenodd;mix-blend-mode:normal;fill-rule:evenodd;stroke-linejoin:round;stroke-miterlimit:2"
     figma:type="group">
    <g
       id="g45"
       style="mix-blend-mode:normal"
       figma:type="group">
      <g
         id="path16 fill"
         style="mix-blend-mode:normal"
         figma:type="vector">
        <path
           inkscape:connector-curvature="0"
           d="m 1679.5106,2456.5257 c 0.037,0.5981 -0.1057,1.1935 -0.4088,1.7105 -0.303,0.5169 -0.7531,0.9319 -1.2929,1.1922 -0.5397,0.2602 -1.1447,0.3539 -1.7379,0.2691 -0.5932,-0.085 -1.1477,-0.3442 -1.593,-0.7453 -0.4452,-0.4011 -0.7609,-0.9256 -0.907,-1.5067 -0.146,-0.5812 -0.1158,-1.1927 0.087,-1.7566 0.2027,-0.5639 0.5686,-1.0547 1.0513,-1.4099 0.4826,-0.3551 1.06,-0.5586 1.6586,-0.5845 0.3926,-0.022 0.7855,0.035 1.1562,0.1654 0.3707,0.1308 0.7119,0.3336 1.0039,0.5967 0.2921,0.2631 0.5293,0.5813 0.6979,0.9364 0.1687,0.3551 0.2654,0.74 0.2848,1.1327 z"
           id="use42"
           style="mix-blend-mode:normal;fill:url(#linearGradient942);fill-opacity:1" />
      </g>
    </g>
    <g
       id="g50"
       style="mix-blend-mode:normal"
       figma:type="group">
      <g
         id="path17 fill"
         style="mix-blend-mode:normal"
         figma:type="vector" />
    </g>
    <g
       id="g55"
       style="mix-blend-mode:normal"
       figma:type="group">
      <g
         id="path18 fill"
         style="mix-blend-mode:normal"
         figma:type="vector" />
    </g>
    <g
       id="g60"
       style="mix-blend-mode:normal"
       figma:type="group">
      <g
         id="path19 fill"
         style="mix-blend-mode:normal"
         figma:type="vector">
        <path
           inkscape:connector-curvature="0"
           d="m 1650.8758,2499.6566 c 0.047,0.7533 -0.1314,1.5036 -0.5123,2.1553 -0.381,0.6516 -0.9473,1.1751 -1.6268,1.5037 -0.6796,0.3286 -1.4415,0.4475 -2.1889,0.3416 -0.7473,-0.106 -1.4462,-0.4321 -2.0076,-0.9367 -0.5614,-0.5046 -0.9598,-1.1649 -1.1446,-1.8967 -0.1847,-0.7319 -0.1474,-1.5022 0.1072,-2.2128 0.2546,-0.7106 0.715,-1.3293 1.3224,-1.7773 0.6075,-0.448 1.3347,-0.705 2.0887,-0.7383 0.494,-0.026 0.9884,0.045 1.4549,0.2094 0.4665,0.1647 0.8959,0.4197 1.2638,0.7504 0.368,0.3307 0.6671,0.7306 0.8804,1.177 0.2133,0.4464 0.3366,0.9304 0.3628,1.4244 z"
           id="use57"
           style="mix-blend-mode:normal;fill:url(#linearGradient921);fill-opacity:1" />
      </g>
    </g>
    <g
       id="g65"
       style="mix-blend-mode:normal"
       figma:type="group">
      <g
         id="path20 fill"
         style="mix-blend-mode:normal"
         figma:type="vector">
        <path
           inkscape:connector-curvature="0"
           d="m 1644.1206,2462.8094 c -0.4317,0.012 -0.8574,-0.1041 -1.2234,-0.3334 -0.366,-0.2293 -0.656,-0.5618 -0.8336,-0.9555 -0.1775,-0.3937 -0.2347,-0.8312 -0.1643,-1.2573 0.07,-0.4261 0.2652,-0.822 0.5599,-1.1377 0.2948,-0.3157 0.6763,-0.5372 1.0966,-0.6366 0.4203,-0.099 0.8606,-0.072 1.2656,0.078 0.405,0.1501 0.7566,0.4166 1.0105,0.766 0.2539,0.3494 0.3988,0.7661 0.4165,1.1977 0.017,0.5835 -0.1971,1.1501 -0.5955,1.5768 -0.3984,0.4268 -0.949,0.6791 -1.5323,0.7023 z"
           id="use62"
           style="mix-blend-mode:normal;fill:url(#linearGradient950);fill-opacity:1" />
      </g>
    </g>
  </g>
  <circle
     style="clip-rule:evenodd;opacity:1;fill:url(#linearGradient1069);fill-opacity:1;fill-rule:evenodd;stroke-linejoin:round;stroke-miterlimit:2"
     id="path1015-1"
     cx="36.673676"
     cy="36.206898"
     r="0" />
</svg>
