<?xml version="1.0" encoding="UTF-8" standalone="no"?>
<svg
   xmlns:dc="http://purl.org/dc/elements/1.1/"
   xmlns:cc="http://creativecommons.org/ns#"
   xmlns:rdf="http://www.w3.org/1999/02/22-rdf-syntax-ns#"
   xmlns:svg="http://www.w3.org/2000/svg"
   xmlns="http://www.w3.org/2000/svg"
   xmlns:sodipodi="http://sodipodi.sourceforge.net/DTD/sodipodi-0.dtd"
   xmlns:inkscape="http://www.inkscape.org/namespaces/inkscape"
   width="16"
   height="16"
   version="1.1"
   id="svg4"
   sodipodi:docname="pin-symbolic.svg"
   inkscape:version="1.0.1 (3bc2e813f5, 2020-09-07)">
  <metadata
     id="metadata10">
    <rdf:RDF>
      <cc:Work
         rdf:about="">
        <dc:format>image/svg+xml</dc:format>
        <dc:type
           rdf:resource="http://purl.org/dc/dcmitype/StillImage" />
      </cc:Work>
    </rdf:RDF>
  </metadata>
  <defs
     id="defs8" />
  <sodipodi:namedview
     pagecolor="#ffffff"
     bordercolor="#666666"
     borderopacity="1"
     objecttolerance="10"
     gridtolerance="10"
     guidetolerance="10"
     inkscape:pageopacity="0"
     inkscape:pageshadow="2"
     inkscape:window-width="3824"
     inkscape:window-height="2108"
     id="namedview6"
     showgrid="false"
     inkscape:zoom="59.75"
     inkscape:cx="8.0334728"
     inkscape:cy="8"
     inkscape:window-x="8"
     inkscape:window-y="8"
     inkscape:window-maximized="0"
     inkscape:current-layer="svg4" />
  <path
     d="M9.559.078l-8.48 4.897 3.21 2.856c.11.1.225.234.07.532a6.474 6.474 0 0 0-.566 2.63c0 .604.085 1.205.252 1.786l.062.131 4.803-2.765c1.064 1.69 1.282 2.766 4.082 5.718-1.303-4.882-1.918-4.31-2.87-6.418 1.628-.94 3.26-1.88 4.885-2.827l-.134-.173c-1.112-1.124-2.397-1.803-4.085-1.853-.266.022-.332-.092-.343-.18z"
     style="isolation:auto;mix-blend-mode:normal;solid-color:#000;solid-opacity:1;marker:none;fill:#dfdfdf;fill-opacity:1"
     color="#000"
     overflow="visible"
     fill="#2e3436"
     id="path2" />
</svg>
