<?xml version="1.0" encoding="UTF-8" standalone="no"?>
<svg
   xmlns:dc="http://purl.org/dc/elements/1.1/"
   xmlns:cc="http://creativecommons.org/ns#"
   xmlns:rdf="http://www.w3.org/1999/02/22-rdf-syntax-ns#"
   xmlns:svg="http://www.w3.org/2000/svg"
   xmlns="http://www.w3.org/2000/svg"
   xmlns:sodipodi="http://sodipodi.sourceforge.net/DTD/sodipodi-0.dtd"
   xmlns:inkscape="http://www.inkscape.org/namespaces/inkscape"
   width="16"
   height="16"
   version="1.1"
   id="svg8"
   sodipodi:docname="selection-symbolic.svg"
   inkscape:version="1.0.1 (3bc2e813f5, 2020-09-07)">
  <metadata
     id="metadata14">
    <rdf:RDF>
      <cc:Work
         rdf:about="">
        <dc:format>image/svg+xml</dc:format>
        <dc:type
           rdf:resource="http://purl.org/dc/dcmitype/StillImage" />
      </cc:Work>
    </rdf:RDF>
  </metadata>
  <defs
     id="defs12" />
  <sodipodi:namedview
     pagecolor="#ffffff"
     bordercolor="#666666"
     borderopacity="1"
     objecttolerance="10"
     gridtolerance="10"
     guidetolerance="10"
     inkscape:pageopacity="0"
     inkscape:pageshadow="2"
     inkscape:window-width="3824"
     inkscape:window-height="2108"
     id="namedview10"
     showgrid="false"
     inkscape:zoom="59.75"
     inkscape:cx="8.0334728"
     inkscape:cy="8"
     inkscape:window-x="8"
     inkscape:window-y="8"
     inkscape:window-maximized="0"
     inkscape:current-layer="svg8" />
  <g
     fill="#2e3436"
     id="g6"
     style="fill:#dfdfdf;fill-opacity:1">
    <path
       d="M1.017 4.995h1v1h-1zM3.017 4.995h1v1h-1zM5.017 4.995h1v1h-1zM7.017 4.995h1v1h-1zM9.017 4.995h1v1h-1zM11.049 4.995h1v1h-1zM11.049 6.995h1v1h-1zM11.049 8.995h1v1h-1zM11.049 10.995h1v1h-1zM11.049 12.995h1v1h-1zM9.017 12.995h1v1h-1zM7.017 12.995h1v1h-1zM5.017 12.995h1v1h-1zM3.017 12.995h1v1h-1zM1.017 12.995h1v1h-1zM1.017 10.995h1v1h-1zM1.017 8.995h1v1h-1zM1.017 6.995h1v1h-1z"
       style="marker:none;fill:#dfdfdf;fill-opacity:1"
       id="path2" />
    <path
       d="M6.017 1.027a1 1 0 0 0-1 1v1.968h8v8h1a1 1 0 0 0 1-1V2.027a1 1 0 0 0-1-1zm-1 5.968v4a1 1 0 0 0 1 1h4v-2h-3v-3z"
       style="line-height:normal;font-variant-ligatures:normal;font-variant-position:normal;font-variant-caps:normal;font-variant-numeric:normal;font-variant-alternates:normal;font-feature-settings:normal;text-indent:0;text-align:start;text-decoration-line:none;text-decoration-style:solid;text-decoration-color:rgb(223, 223, 223);text-transform:none;text-orientation:mixed;white-space:normal;shape-padding:0;isolation:auto;mix-blend-mode:normal;solid-color:rgb(223, 223, 223);solid-opacity:1;marker:none;fill:#dfdfdf;fill-opacity:1"
       color="rgb(223,223,223)"
       font-weight="400"
       font-family="sans-serif"
       overflow="visible"
       id="path4" />
  </g>
</svg>
