<?xml version="1.0" encoding="UTF-8" standalone="no"?>
<svg
   xmlns:dc="http://purl.org/dc/elements/1.1/"
   xmlns:cc="http://creativecommons.org/ns#"
   xmlns:rdf="http://www.w3.org/1999/02/22-rdf-syntax-ns#"
   xmlns:svg="http://www.w3.org/2000/svg"
   xmlns="http://www.w3.org/2000/svg"
   xmlns:sodipodi="http://sodipodi.sourceforge.net/DTD/sodipodi-0.dtd"
   xmlns:inkscape="http://www.inkscape.org/namespaces/inkscape"
   width="16"
   height="16"
   version="1.1"
   id="svg6"
   sodipodi:docname="system-switch-user-symbolic.svg"
   inkscape:version="1.0.1 (3bc2e813f5, 2020-09-07)">
  <metadata
     id="metadata12">
    <rdf:RDF>
      <cc:Work
         rdf:about="">
        <dc:format>image/svg+xml</dc:format>
        <dc:type
           rdf:resource="http://purl.org/dc/dcmitype/StillImage" />
      </cc:Work>
    </rdf:RDF>
  </metadata>
  <defs
     id="defs10" />
  <sodipodi:namedview
     pagecolor="#ffffff"
     bordercolor="#666666"
     borderopacity="1"
     objecttolerance="10"
     gridtolerance="10"
     guidetolerance="10"
     inkscape:pageopacity="0"
     inkscape:pageshadow="2"
     inkscape:window-width="1908"
     inkscape:window-height="1032"
     id="namedview8"
     showgrid="false"
     inkscape:zoom="59.75"
     inkscape:cx="8.0334728"
     inkscape:cy="8"
     inkscape:window-x="8"
     inkscape:window-y="1084"
     inkscape:window-maximized="0"
     inkscape:current-layer="svg6" />
  <path
     style="fill:#dfdfdf;fill-opacity:1"
     d="M 10 2 C 8.34 2 7 3.34 7 5 C 7 6.65 8.34 8 10 8 C 11.66 8 13 6.65 13 5 C 13 3.34 11.66 2 10 2 z M 10 10 C 4.723 10 4 14 4 14 L 4 15 L 16 15 L 16 14 C 16 14 16 10 10 10 z"
     id="path2" />
  <path
     style="fill:#dfdfdf;opacity:0.3;fill-opacity:0.5"
     d="M 5 3.9492188 C 3.57 3.9492188 2.4101562 5.0807031 2.4101562 6.4707031 C 2.4101562 7.8707031 3.57 9 5 9 C 5.92 9 6.7196875 8.5300781 7.1796875 7.8300781 C 6.4496875 7.1000781 6 6.1 6 5 C 6 4.72 6.0300781 4.4494531 6.0800781 4.1894531 C 5.7499781 4.0394531 5.39 3.9492188 5 3.9492188 z M 5 10 C 0 10 0 13 0 13 L 0 14 L 3 14 C 3 14 3.00922 12.660391 3.9492188 11.400391 C 4.3192187 10.900391 4.8607813 10.419531 5.5507812 10.019531 C 5.3707813 10.009531 5.2 10 5 10 z"
     id="path4" />
</svg>
