<?xml version="1.0" encoding="UTF-8" standalone="no"?>
<svg
   xmlns:dc="http://purl.org/dc/elements/1.1/"
   xmlns:cc="http://creativecommons.org/ns#"
   xmlns:rdf="http://www.w3.org/1999/02/22-rdf-syntax-ns#"
   xmlns:svg="http://www.w3.org/2000/svg"
   xmlns="http://www.w3.org/2000/svg"
   xmlns:sodipodi="http://sodipodi.sourceforge.net/DTD/sodipodi-0.dtd"
   xmlns:inkscape="http://www.inkscape.org/namespaces/inkscape"
   width="16"
   height="16"
   version="1.1"
   id="svg6"
   sodipodi:docname="view-mirror-symbolic.svg"
   inkscape:version="1.0.1 (3bc2e813f5, 2020-09-07)">
  <metadata
     id="metadata12">
    <rdf:RDF>
      <cc:Work
         rdf:about="">
        <dc:format>image/svg+xml</dc:format>
        <dc:type
           rdf:resource="http://purl.org/dc/dcmitype/StillImage" />
      </cc:Work>
    </rdf:RDF>
  </metadata>
  <defs
     id="defs10" />
  <sodipodi:namedview
     pagecolor="#ffffff"
     bordercolor="#666666"
     borderopacity="1"
     objecttolerance="10"
     gridtolerance="10"
     guidetolerance="10"
     inkscape:pageopacity="0"
     inkscape:pageshadow="2"
     inkscape:window-width="3824"
     inkscape:window-height="2108"
     id="namedview8"
     showgrid="false"
     inkscape:zoom="59.75"
     inkscape:cx="8.0334728"
     inkscape:cy="8"
     inkscape:window-x="8"
     inkscape:window-y="8"
     inkscape:window-maximized="0"
     inkscape:current-layer="svg6" />
  <path
     style="fill:#dfdfdf;fill-opacity:1"
     d="M 1.8613,0 C 1.0809,0 0,0.69182 0,1.5762 V 14.387 C 0,15.271 1.0809,16 1.8613,16 L 5.752,13.053 C 6.3603,12.597 7,12.324 7,11.439 V 4.5254 C 7,3.6409 6.188,3.303 5.752,2.9121 Z M 2,1.3535 5.8516,4.2598 C 5.8516,4.2598 6,4.328 6,4.5254 V 11.439 C 6,11.699 5.8984,11.699 5.8984,11.699 L 2,14.641 Z"
     id="path2" />
  <path
     style="opacity:0.3;fill:#dfdfdf;fill-opacity:0.5"
     d="M 13.139,0 C 13.919,0 15,0.69182 15,1.5762 V 14.387 C 15,15.271 13.919,16 13.139,16 L 9.248,13.053 C 8.6397,12.597 8,12.324 8,11.439 V 4.5254 C 8,3.6409 8.812,3.303 9.248,2.9121 Z M 13,1.3535 9.1484,4.2598 C 9.1484,4.2598 9,4.328 9,4.5254 V 11.439 C 9,11.699 9.1016,11.699 9.1016,11.699 L 13,14.641 Z"
     id="path4" />
</svg>
