<?xml version="1.0" encoding="UTF-8" standalone="no"?>
<svg
   xmlns:dc="http://purl.org/dc/elements/1.1/"
   xmlns:cc="http://creativecommons.org/ns#"
   xmlns:rdf="http://www.w3.org/1999/02/22-rdf-syntax-ns#"
   xmlns:svg="http://www.w3.org/2000/svg"
   xmlns="http://www.w3.org/2000/svg"
   xmlns:sodipodi="http://sodipodi.sourceforge.net/DTD/sodipodi-0.dtd"
   xmlns:inkscape="http://www.inkscape.org/namespaces/inkscape"
   height="24"
   viewBox="0 0 24 24"
   width="24"
   version="1.1"
   id="svg6"
   sodipodi:docname="edit-clear-symbolic-rtl.svg"
   inkscape:version="1.0.1 (3bc2e813f5, 2020-09-07)">
  <metadata
     id="metadata12">
    <rdf:RDF>
      <cc:Work
         rdf:about="">
        <dc:format>image/svg+xml</dc:format>
        <dc:type
           rdf:resource="http://purl.org/dc/dcmitype/StillImage" />
      </cc:Work>
    </rdf:RDF>
  </metadata>
  <defs
     id="defs10" />
  <sodipodi:namedview
     pagecolor="#ffffff"
     bordercolor="#666666"
     borderopacity="1"
     objecttolerance="10"
     gridtolerance="10"
     guidetolerance="10"
     inkscape:pageopacity="0"
     inkscape:pageshadow="2"
     inkscape:window-width="1904"
     inkscape:window-height="1028"
     id="namedview8"
     showgrid="false"
     inkscape:zoom="36.833333"
     inkscape:cx="12.054299"
     inkscape:cy="12"
     inkscape:window-x="8"
     inkscape:window-y="8"
     inkscape:window-maximized="0"
     inkscape:current-layer="svg6" />
  <path
     d="M0 0h24v24H0V0z"
     fill="none"
     id="path2" />
  <path
     d="M 2.0800127,21 H 17.080013 c 0.69,0 1.23,-0.35 1.59,-0.88 l 5.04,-7.57 c 0.22,-0.34 0.22,-0.77 0,-1.11 l -5.04,-7.56 c -0.36,-0.52 -0.9,-0.88 -1.59,-0.88 H 2.0800127 c -1.1,0 -2,0.9 -2,2 v 14 c 0,1.1 0.9,2 2,2 z m 3.7,-13.3 c 0.39,-0.39 1.02,-0.39 1.41,0 l 2.8900003,2.89 2.89,-2.89 c 0.39,-0.39 1.02,-0.39 1.41,0 0.39,0.39 0.39,1.02 0,1.41 l -2.89,2.89 2.89,2.89 c 0.39,0.39 0.39,1.02 0,1.41 -0.39,0.39 -1.02,0.39 -1.41,0 l -2.89,-2.89 -2.8900003,2.89 c -0.39,0.39 -1.02,0.39 -1.41,0 -0.39,-0.39 -0.39,-1.02 0,-1.41 l 2.89,-2.89 -2.89,-2.89 c -0.38,-0.38 -0.38,-1.02 0,-1.41 z"
     id="path4" />
</svg>
