<?xml version="1.0" encoding="UTF-8" standalone="no"?>
<svg
   xmlns:dc="http://purl.org/dc/elements/1.1/"
   xmlns:cc="http://creativecommons.org/ns#"
   xmlns:rdf="http://www.w3.org/1999/02/22-rdf-syntax-ns#"
   xmlns:svg="http://www.w3.org/2000/svg"
   xmlns="http://www.w3.org/2000/svg"
   xmlns:xlink="http://www.w3.org/1999/xlink"
   xmlns:sodipodi="http://sodipodi.sourceforge.net/DTD/sodipodi-0.dtd"
   xmlns:inkscape="http://www.inkscape.org/namespaces/inkscape"
   width="512"
   height="512"
   viewBox="0 0 512 512"
   version="1.1"
   id="svg46"
   sodipodi:docname="application-x-desktop-gnome.svg"
   inkscape:version="0.92.5 (2060ec1f9f, 2020-04-08)">
  <metadata
     id="metadata50">
    <rdf:RDF>
      <cc:Work
         rdf:about="">
        <dc:format>image/svg+xml</dc:format>
        <dc:type
           rdf:resource="http://purl.org/dc/dcmitype/StillImage" />
        <dc:title></dc:title>
      </cc:Work>
    </rdf:RDF>
  </metadata>
  <sodipodi:namedview
     pagecolor="#ffffff"
     bordercolor="#666666"
     borderopacity="1"
     objecttolerance="10"
     gridtolerance="10"
     guidetolerance="10"
     inkscape:pageopacity="0"
     inkscape:pageshadow="2"
     inkscape:window-width="1908"
     inkscape:window-height="1031"
     id="namedview48"
     showgrid="false"
     inkscape:zoom="0.4609375"
     inkscape:cx="-132.33898"
     inkscape:cy="256"
     inkscape:window-x="1924"
     inkscape:window-y="8"
     inkscape:window-maximized="0"
     inkscape:current-layer="svg46" />
  <defs
     id="defs30">
    <linearGradient
       id="text-x-vcard-c"
       x1="50%"
       x2="50%"
       y1="0%"
       y2="99.203%">
      <stop
         offset="0%"
         stop-color="#A2A7B0"
         id="stop2" />
      <stop
         offset="98.472%"
         stop-color="#7B8991"
         id="stop4" />
    </linearGradient>
    <path
       id="text-x-vcard-b"
       d="M232,0 L336,104 L336,380 C336,399.882251 319.882251,416 300,416 L36,416 C16.117749,416 2.4348735e-15,399.882251 0,380 L0,36 C-2.4348735e-15,16.117749 16.117749,3.65231026e-15 36,0 L232,0 Z" />
    <filter
       id="text-x-vcard-a"
       width="127.4%"
       height="122.1%"
       x="-13.7%"
       y="-9.1%"
       filterUnits="objectBoundingBox">
      <feOffset
         dy="8"
         in="SourceAlpha"
         result="shadowOffsetOuter1"
         id="feOffset8" />
      <feGaussianBlur
         in="shadowOffsetOuter1"
         result="shadowBlurOuter1"
         stdDeviation="14"
         id="feGaussianBlur10" />
      <feColorMatrix
         in="shadowBlurOuter1"
         values="0 0 0 0 0.361595344   0 0 0 0 0.418797512   0 0 0 0 0.450973732  0 0 0 0.5 0"
         id="feColorMatrix12" />
    </filter>
    <linearGradient
       id="text-x-vcard-f"
       x1="50%"
       x2="7.994%"
       y1="50%"
       y2="88.893%">
      <stop
         offset="0%"
         stop-color="#FFF"
         stop-opacity=".1"
         id="stop15" />
      <stop
         offset="100%"
         stop-color="#FFF"
         stop-opacity=".3"
         id="stop17" />
    </linearGradient>
    <path
       id="text-x-vcard-e"
       d="M232,0 L336,104 L268,104 C248.117749,104 232,87.882251 232,68 L232,0 Z" />
    <filter
       id="text-x-vcard-d"
       width="126.9%"
       height="126.9%"
       x="-13.5%"
       y="-9.6%"
       filterUnits="objectBoundingBox">
      <feOffset
         dy="4"
         in="SourceAlpha"
         result="shadowOffsetOuter1"
         id="feOffset21" />
      <feGaussianBlur
         in="shadowOffsetOuter1"
         result="shadowBlurOuter1"
         stdDeviation="4"
         id="feGaussianBlur23" />
      <feComposite
         in="shadowBlurOuter1"
         in2="SourceAlpha"
         operator="out"
         result="shadowBlurOuter1"
         id="feComposite25" />
      <feColorMatrix
         in="shadowBlurOuter1"
         values="0 0 0 0 0   0 0 0 0 0   0 0 0 0 0  0 0 0 0.05 0"
         id="feColorMatrix27" />
    </filter>
  </defs>
  <g
     fill="none"
     fill-rule="evenodd"
     id="g44">
    <g
       transform="translate(88 56)"
       id="g40">
      <use
         fill="#000"
         filter="url(#text-x-vcard-a)"
         xlink:href="#text-x-vcard-b"
         id="use32" />
      <use
         fill="url(#text-x-vcard-c)"
         xlink:href="#text-x-vcard-b"
         id="use34" />
      <use
         fill="#000"
         filter="url(#text-x-vcard-d)"
         xlink:href="#text-x-vcard-e"
         id="use36" />
      <use
         fill="url(#text-x-vcard-f)"
         xlink:href="#text-x-vcard-e"
         id="use38" />
    </g>
  </g>
  <path
     inkscape:connector-curvature="0"
     d="m 269.03723,332.87879 c 1.70926,13.04348 -9.56688,19.49055 -20.619,11.077 -35.17259,-26.77565 58.23933,-40.13443 52.08267,-76.72589 -5.11119,-30.36841 -98.29077,-21.01726 -108.90312,26.50185 -7.17724,32.13575 29.56356,76.72587 67.90576,76.72587 18.86824,0 40.62398,-17.03452 44.68969,-38.60772 3.11152,-16.4537 -36.57485,-9.85728 -35.156,1.02889 z M 195.9622,262.70784 c 8.08994,-3.55957 1.03716,-38.39198 -12.71989,-28.89148 -13.74876,9.5005 4.62994,32.45106 12.71989,28.89148 z m 22.7929,-18.22935 c 9.62496,-1.96648 10.156,-41.4703 -7.01959,-34.38435 -17.17556,7.08597 -2.60537,36.35083 7.01959,34.38435 z m 92.39133,-56.56324 c 37.97713,0 -2.38134,54.09063 -23.73881,54.09063 -21.35746,0 -14.2383,-54.09063 23.73881,-54.09063 z m -63.06009,47.38634 c 11.37571,0.69699 23.85497,-43.4119 2.48091,-40.63227 -21.37405,2.77132 -13.85662,39.93529 -2.48091,40.63227 z"
     style="clip-rule:evenodd;fill:#ffffff;fill-opacity:1;fill-rule:nonzero;stroke-width:8.29738045;stroke-linejoin:round;stroke-miterlimit:2"
     id="path6-3" />
</svg>
