<?xml version="1.0" encoding="UTF-8" standalone="no"?>
<svg
   xmlns:dc="http://purl.org/dc/elements/1.1/"
   xmlns:cc="http://creativecommons.org/ns#"
   xmlns:rdf="http://www.w3.org/1999/02/22-rdf-syntax-ns#"
   xmlns:svg="http://www.w3.org/2000/svg"
   xmlns="http://www.w3.org/2000/svg"
   xmlns:xlink="http://www.w3.org/1999/xlink"
   xmlns:sodipodi="http://sodipodi.sourceforge.net/DTD/sodipodi-0.dtd"
   xmlns:inkscape="http://www.inkscape.org/namespaces/inkscape"
   width="512"
   height="512"
   viewBox="0 0 512 512"
   version="1.1"
   id="svg46"
   sodipodi:docname="application-executable.svg"
   inkscape:version="0.92.5 (2060ec1f9f, 2020-04-08)">
  <metadata
     id="metadata50">
    <rdf:RDF>
      <cc:Work
         rdf:about="">
        <dc:format>image/svg+xml</dc:format>
        <dc:type
           rdf:resource="http://purl.org/dc/dcmitype/StillImage" />
        <dc:title></dc:title>
      </cc:Work>
    </rdf:RDF>
  </metadata>
  <sodipodi:namedview
     pagecolor="#ffffff"
     bordercolor="#666666"
     borderopacity="1"
     objecttolerance="10"
     gridtolerance="10"
     guidetolerance="10"
     inkscape:pageopacity="0"
     inkscape:pageshadow="2"
     inkscape:window-width="1908"
     inkscape:window-height="1031"
     id="namedview48"
     showgrid="false"
     inkscape:zoom="0.4609375"
     inkscape:cx="-520.67796"
     inkscape:cy="256"
     inkscape:window-x="1924"
     inkscape:window-y="8"
     inkscape:window-maximized="0"
     inkscape:current-layer="svg46" />
  <defs
     id="defs30">
    <linearGradient
       id="application-vnd.oasis.opendocument.formula-c"
       x1="50%"
       x2="50%"
       y1="0%"
       y2="100%">
      <stop
         offset="0%"
         stop-color="#9BAAC1"
         id="stop2" />
      <stop
         offset="100%"
         stop-color="#779DB2"
         id="stop4" />
    </linearGradient>
    <path
       id="application-vnd.oasis.opendocument.formula-b"
       d="M232,0 L336,104 L336,380 C336,399.882251 319.882251,416 300,416 L36,416 C16.117749,416 2.4348735e-15,399.882251 0,380 L0,36 C-2.4348735e-15,16.117749 16.117749,3.65231026e-15 36,0 L232,0 Z" />
    <filter
       id="application-vnd.oasis.opendocument.formula-a"
       width="127.4%"
       height="122.1%"
       x="-13.7%"
       y="-9.1%"
       filterUnits="objectBoundingBox">
      <feOffset
         dy="8"
         in="SourceAlpha"
         result="shadowOffsetOuter1"
         id="feOffset8" />
      <feGaussianBlur
         in="shadowOffsetOuter1"
         result="shadowBlurOuter1"
         stdDeviation="14"
         id="feGaussianBlur10" />
      <feColorMatrix
         in="shadowBlurOuter1"
         values="0 0 0 0 0.474509804   0 0 0 0 0.619607843   0 0 0 0 0.701960784  0 0 0 0.5 0"
         id="feColorMatrix12" />
    </filter>
    <linearGradient
       id="application-vnd.oasis.opendocument.formula-f"
       x1="50%"
       x2="7.994%"
       y1="50%"
       y2="88.893%">
      <stop
         offset="0%"
         stop-color="#FFF"
         stop-opacity=".1"
         id="stop15" />
      <stop
         offset="100%"
         stop-color="#FFF"
         stop-opacity=".3"
         id="stop17" />
    </linearGradient>
    <path
       id="application-vnd.oasis.opendocument.formula-e"
       d="M232,0 L336,104 L268,104 C248.117749,104 232,87.882251 232,68 L232,0 Z" />
    <filter
       id="application-vnd.oasis.opendocument.formula-d"
       width="126.9%"
       height="126.9%"
       x="-13.5%"
       y="-9.6%"
       filterUnits="objectBoundingBox">
      <feOffset
         dy="4"
         in="SourceAlpha"
         result="shadowOffsetOuter1"
         id="feOffset21" />
      <feGaussianBlur
         in="shadowOffsetOuter1"
         result="shadowBlurOuter1"
         stdDeviation="4"
         id="feGaussianBlur23" />
      <feComposite
         in="shadowBlurOuter1"
         in2="SourceAlpha"
         operator="out"
         result="shadowBlurOuter1"
         id="feComposite25" />
      <feColorMatrix
         in="shadowBlurOuter1"
         values="0 0 0 0 0   0 0 0 0 0   0 0 0 0 0  0 0 0 0.05 0"
         id="feColorMatrix27" />
    </filter>
  </defs>
  <g
     id="g44"
     fill-rule="evenodd"
     fill="none">
    <g
       transform="translate(88 56)"
       id="g40">
      <use
         xlink:href="#application-vnd.oasis.opendocument.formula-b"
         id="use32"
         filter="url(#application-vnd.oasis.opendocument.formula-a)"
         fill="#000" />
      <use
         xlink:href="#application-vnd.oasis.opendocument.formula-b"
         id="use34"
         fill="url(#application-vnd.oasis.opendocument.formula-c)" />
      <use
         xlink:href="#application-vnd.oasis.opendocument.formula-e"
         id="use36"
         filter="url(#application-vnd.oasis.opendocument.formula-d)"
         fill="#000" />
      <use
         xlink:href="#application-vnd.oasis.opendocument.formula-e"
         id="use38"
         fill="url(#application-vnd.oasis.opendocument.formula-f)" />
    </g>
  </g>
  <path
     inkscape:connector-curvature="0"
     d="m 351.17393,230.73384 c 0,-6.15675 -2.4489,-12.06343 -6.80346,-16.40936 -4.34594,-4.35456 -10.25261,-6.80346 -16.40937,-6.80346 H 184.68314 c -6.15675,0 -12.06343,2.4489 -16.40936,6.80346 -4.35457,4.34593 -6.80347,10.25261 -6.80347,16.40936 v 96.72296 c 0,6.15675 2.4489,12.06343 6.80347,16.40936 4.34593,4.35456 10.25261,6.80346 16.40936,6.80346 H 327.9611 c 6.15676,0 12.06343,-2.4489 16.40937,-6.80346 4.35456,-4.34593 6.80346,-10.25261 6.80346,-16.40936 z"
     style="clip-rule:evenodd;fill:#ffffff;fill-opacity:1;fill-rule:evenodd;stroke-width:8.62289047;stroke-linejoin:round;stroke-miterlimit:2"
     id="path10-6" />
  <path
     inkscape:connector-curvature="0"
     d="m 279.5867,275.38317 -30.61126,-30.55953 c -1.12098,-1.18996 -2.53514,-1.78494 -4.22522,-1.78494 -1.69009,0 -3.09563,0.59498 -4.22521,1.78494 l -3.56126,3.52677 c -1.16409,1.15546 -1.74183,2.56099 -1.74183,4.21659 0,1.62971 0.57774,3.0525 1.74183,4.27696 l 22.80755,22.76442 -22.81618,22.81617 c -1.15546,1.15547 -1.7332,2.56962 -1.7332,4.22522 0,1.62973 0.57774,3.0525 1.7332,4.26832 l 3.56989,3.52677 c 1.15545,1.15547 2.56961,1.7332 4.22521,1.7332 1.66422,0 3.06974,-0.57773 4.22522,-1.7332 l 30.61126,-30.55953 c 1.15546,-1.22445 1.7332,-2.64722 1.7332,-4.27695 0,-1.65559 -0.57774,-3.06112 -1.7332,-4.22521 z"
     style="clip-rule:evenodd;fill:#87a3b9;fill-opacity:1;fill-rule:nonzero;stroke-width:8.62289047;stroke-linejoin:round;stroke-miterlimit:2"
     id="path12" />
</svg>
