<?xml version="1.0" encoding="UTF-8" standalone="no"?>
<svg
   xmlns:dc="http://purl.org/dc/elements/1.1/"
   xmlns:cc="http://creativecommons.org/ns#"
   xmlns:rdf="http://www.w3.org/1999/02/22-rdf-syntax-ns#"
   xmlns:svg="http://www.w3.org/2000/svg"
   xmlns="http://www.w3.org/2000/svg"
   xmlns:xlink="http://www.w3.org/1999/xlink"
   xmlns:sodipodi="http://sodipodi.sourceforge.net/DTD/sodipodi-0.dtd"
   xmlns:inkscape="http://www.inkscape.org/namespaces/inkscape"
   width="512"
   height="512"
   viewBox="0 0 512 512"
   version="1.1"
   id="svg46"
   sodipodi:docname="application-postscript.svg"
   inkscape:version="0.92.5 (2060ec1f9f, 2020-04-08)">
  <metadata
     id="metadata50">
    <rdf:RDF>
      <cc:Work
         rdf:about="">
        <dc:format>image/svg+xml</dc:format>
        <dc:type
           rdf:resource="http://purl.org/dc/dcmitype/StillImage" />
        <dc:title></dc:title>
      </cc:Work>
    </rdf:RDF>
  </metadata>
  <sodipodi:namedview
     pagecolor="#ffffff"
     bordercolor="#666666"
     borderopacity="1"
     objecttolerance="10"
     gridtolerance="10"
     guidetolerance="10"
     inkscape:pageopacity="0"
     inkscape:pageshadow="2"
     inkscape:window-width="950"
     inkscape:window-height="1031"
     id="namedview48"
     showgrid="false"
     inkscape:zoom="0.4609375"
     inkscape:cx="214.77966"
     inkscape:cy="256"
     inkscape:window-x="966"
     inkscape:window-y="1084"
     inkscape:window-maximized="0"
     inkscape:current-layer="svg46" />
  <defs
     id="defs30">
    <linearGradient
       id="text-x-chdr-c"
       x1="50%"
       x2="50%"
       y1="0%"
       y2="99.628%">
      <stop
         offset="0%"
         stop-color="#FF4BB4"
         id="stop2" />
      <stop
         offset="98.915%"
         stop-color="#F6237B"
         id="stop4" />
    </linearGradient>
    <path
       id="text-x-chdr-b"
       d="M232,0 L336,104 L336,380 C336,399.882251 319.882251,416 300,416 L36,416 C16.117749,416 2.4348735e-15,399.882251 0,380 L0,36 C-2.4348735e-15,16.117749 16.117749,3.65231026e-15 36,0 L232,0 Z" />
    <filter
       id="text-x-chdr-a"
       width="127.4%"
       height="122.1%"
       x="-13.7%"
       y="-9.1%"
       filterUnits="objectBoundingBox">
      <feOffset
         dy="8"
         in="SourceAlpha"
         result="shadowOffsetOuter1"
         id="feOffset8" />
      <feGaussianBlur
         in="shadowOffsetOuter1"
         result="shadowBlurOuter1"
         stdDeviation="14"
         id="feGaussianBlur10" />
      <feColorMatrix
         in="shadowBlurOuter1"
         values="0 0 0 0 0.920884284   0 0 0 0 0.0193547135   0 0 0 0 0.46292854  0 0 0 0.5 0"
         id="feColorMatrix12" />
    </filter>
    <linearGradient
       id="text-x-chdr-f"
       x1="50%"
       x2="7.994%"
       y1="50%"
       y2="88.893%">
      <stop
         offset="0%"
         stop-color="#FFF"
         stop-opacity=".1"
         id="stop15" />
      <stop
         offset="100%"
         stop-color="#FFF"
         stop-opacity=".3"
         id="stop17" />
    </linearGradient>
    <path
       id="text-x-chdr-e"
       d="M232,0 L336,104 L268,104 C248.117749,104 232,87.882251 232,68 L232,0 Z" />
    <filter
       id="text-x-chdr-d"
       width="126.9%"
       height="126.9%"
       x="-13.5%"
       y="-9.6%"
       filterUnits="objectBoundingBox">
      <feOffset
         dy="4"
         in="SourceAlpha"
         result="shadowOffsetOuter1"
         id="feOffset21" />
      <feGaussianBlur
         in="shadowOffsetOuter1"
         result="shadowBlurOuter1"
         stdDeviation="4"
         id="feGaussianBlur23" />
      <feComposite
         in="shadowBlurOuter1"
         in2="SourceAlpha"
         operator="out"
         result="shadowBlurOuter1"
         id="feComposite25" />
      <feColorMatrix
         in="shadowBlurOuter1"
         values="0 0 0 0 0   0 0 0 0 0   0 0 0 0 0  0 0 0 0.05 0"
         id="feColorMatrix27" />
    </filter>
  </defs>
  <g
     fill="none"
     fill-rule="evenodd"
     id="g44">
    <g
       transform="translate(88 56)"
       id="g40">
      <use
         fill="#000"
         filter="url(#text-x-chdr-a)"
         xlink:href="#text-x-chdr-b"
         id="use32" />
      <use
         fill="url(#text-x-chdr-c)"
         xlink:href="#text-x-chdr-b"
         id="use34" />
      <use
         fill="#000"
         filter="url(#text-x-chdr-d)"
         xlink:href="#text-x-chdr-e"
         id="use36" />
      <use
         fill="url(#text-x-chdr-f)"
         xlink:href="#text-x-chdr-e"
         id="use38" />
    </g>
  </g>
  <path
     inkscape:connector-curvature="0"
     d="m 209.88135,204.02966 h 90.18644 v 22.54661 h 11.27331 v -22.54661 c 0,-6.22287 -5.04224,-11.27331 -11.27331,-11.27331 h -90.18644 c -6.22285,0 -11.27329,5.05044 -11.27329,11.27331 v 22.54661 h 11.27329 z"
     style="clip-rule:evenodd;fill:#ffffff;fill-opacity:1;fill-rule:nonzero;stroke-width:8.19876766;stroke-linejoin:round;stroke-miterlimit:2"
     id="path4" />
  <path
     inkscape:connector-curvature="0"
     d="M 333.88771,237.84958 H 176.06144 c -6.22286,0 -11.2733,5.05044 -11.2733,11.27329 v 56.36653 c 0,6.23106 5.05044,11.27331 11.2733,11.27331 h 22.54662 v 45.09322 c 0,6.23106 5.05044,11.2733 11.27329,11.2733 h 90.18644 c 6.23107,0 11.27331,-5.04224 11.27331,-11.2733 v -45.09322 h 22.54661 c 6.23106,0 11.27331,-5.04225 11.27331,-11.27331 v -56.36653 c 0,-6.22285 -5.04225,-11.27329 -11.27331,-11.27329 z m -33.81992,124.00635 h -90.18644 v -78.91314 h 90.18644 z m 22.54662,-90.18644 c -6.23106,0 -11.27331,-5.04224 -11.27331,-11.27331 0,-6.22287 5.04225,-11.27331 11.27331,-11.27331 6.23107,0 11.2733,5.05044 11.2733,11.27331 0,6.23107 -5.04223,11.27331 -11.2733,11.27331 z"
     style="clip-rule:evenodd;fill:#ffffff;fill-opacity:1;fill-rule:nonzero;stroke-width:8.19876766;stroke-linejoin:round;stroke-miterlimit:2"
     id="path6" />
</svg>
