<?xml version="1.0" encoding="UTF-8" standalone="no"?>
<svg
   xmlns:dc="http://purl.org/dc/elements/1.1/"
   xmlns:cc="http://creativecommons.org/ns#"
   xmlns:rdf="http://www.w3.org/1999/02/22-rdf-syntax-ns#"
   xmlns:svg="http://www.w3.org/2000/svg"
   xmlns="http://www.w3.org/2000/svg"
   xmlns:xlink="http://www.w3.org/1999/xlink"
   xmlns:sodipodi="http://sodipodi.sourceforge.net/DTD/sodipodi-0.dtd"
   xmlns:inkscape="http://www.inkscape.org/namespaces/inkscape"
   width="512"
   height="512"
   viewBox="0 0 512 512"
   version="1.1"
   id="svg46"
   sodipodi:docname="application-certificate.svg"
   inkscape:version="0.92.5 (2060ec1f9f, 2020-04-08)">
  <metadata
     id="metadata50">
    <rdf:RDF>
      <cc:Work
         rdf:about="">
        <dc:format>image/svg+xml</dc:format>
        <dc:type
           rdf:resource="http://purl.org/dc/dcmitype/StillImage" />
        <dc:title></dc:title>
      </cc:Work>
    </rdf:RDF>
  </metadata>
  <sodipodi:namedview
     pagecolor="#ffffff"
     bordercolor="#666666"
     borderopacity="1"
     objecttolerance="10"
     gridtolerance="10"
     guidetolerance="10"
     inkscape:pageopacity="0"
     inkscape:pageshadow="2"
     inkscape:window-width="1908"
     inkscape:window-height="1031"
     id="namedview48"
     showgrid="false"
     inkscape:zoom="0.4609375"
     inkscape:cx="-132.33898"
     inkscape:cy="256"
     inkscape:window-x="1924"
     inkscape:window-y="8"
     inkscape:window-maximized="0"
     inkscape:current-layer="svg46" />
  <defs
     id="defs30">
    <linearGradient
       id="application-vnd.oasis.opendocument.formula-c"
       x1="50%"
       x2="50%"
       y1="0%"
       y2="100%">
      <stop
         offset="0%"
         stop-color="#9BAAC1"
         id="stop2" />
      <stop
         offset="100%"
         stop-color="#779DB2"
         id="stop4" />
    </linearGradient>
    <path
       id="application-vnd.oasis.opendocument.formula-b"
       d="M232,0 L336,104 L336,380 C336,399.882251 319.882251,416 300,416 L36,416 C16.117749,416 2.4348735e-15,399.882251 0,380 L0,36 C-2.4348735e-15,16.117749 16.117749,3.65231026e-15 36,0 L232,0 Z" />
    <filter
       id="application-vnd.oasis.opendocument.formula-a"
       width="127.4%"
       height="122.1%"
       x="-13.7%"
       y="-9.1%"
       filterUnits="objectBoundingBox">
      <feOffset
         dy="8"
         in="SourceAlpha"
         result="shadowOffsetOuter1"
         id="feOffset8" />
      <feGaussianBlur
         in="shadowOffsetOuter1"
         result="shadowBlurOuter1"
         stdDeviation="14"
         id="feGaussianBlur10" />
      <feColorMatrix
         in="shadowBlurOuter1"
         values="0 0 0 0 0.474509804   0 0 0 0 0.619607843   0 0 0 0 0.701960784  0 0 0 0.5 0"
         id="feColorMatrix12" />
    </filter>
    <linearGradient
       id="application-vnd.oasis.opendocument.formula-f"
       x1="50%"
       x2="7.994%"
       y1="50%"
       y2="88.893%">
      <stop
         offset="0%"
         stop-color="#FFF"
         stop-opacity=".1"
         id="stop15" />
      <stop
         offset="100%"
         stop-color="#FFF"
         stop-opacity=".3"
         id="stop17" />
    </linearGradient>
    <path
       id="application-vnd.oasis.opendocument.formula-e"
       d="M232,0 L336,104 L268,104 C248.117749,104 232,87.882251 232,68 L232,0 Z" />
    <filter
       id="application-vnd.oasis.opendocument.formula-d"
       width="126.9%"
       height="126.9%"
       x="-13.5%"
       y="-9.6%"
       filterUnits="objectBoundingBox">
      <feOffset
         dy="4"
         in="SourceAlpha"
         result="shadowOffsetOuter1"
         id="feOffset21" />
      <feGaussianBlur
         in="shadowOffsetOuter1"
         result="shadowBlurOuter1"
         stdDeviation="4"
         id="feGaussianBlur23" />
      <feComposite
         in="shadowBlurOuter1"
         in2="SourceAlpha"
         operator="out"
         result="shadowBlurOuter1"
         id="feComposite25" />
      <feColorMatrix
         in="shadowBlurOuter1"
         values="0 0 0 0 0   0 0 0 0 0   0 0 0 0 0  0 0 0 0.05 0"
         id="feColorMatrix27" />
    </filter>
  </defs>
  <g
     fill="none"
     fill-rule="evenodd"
     id="g44">
    <g
       transform="translate(88 56)"
       id="g40">
      <use
         fill="#000"
         filter="url(#application-vnd.oasis.opendocument.formula-a)"
         xlink:href="#application-vnd.oasis.opendocument.formula-b"
         id="use32" />
      <use
         fill="url(#application-vnd.oasis.opendocument.formula-c)"
         xlink:href="#application-vnd.oasis.opendocument.formula-b"
         id="use34" />
      <use
         fill="#000"
         filter="url(#application-vnd.oasis.opendocument.formula-d)"
         xlink:href="#application-vnd.oasis.opendocument.formula-e"
         id="use36" />
      <use
         fill="url(#application-vnd.oasis.opendocument.formula-f)"
         xlink:href="#application-vnd.oasis.opendocument.formula-e"
         id="use38" />
    </g>
  </g>
  <path
     inkscape:connector-curvature="0"
     d="m 266.43462,232.22533 c -1.40673,-1.40674 -3.66699,-1.46996 -5.13695,-0.14226 -7.60269,6.8282 -47.56029,41.51449 -87.92884,53.77996 l -0.44257,0.13435 c -1.0432,0.31612 -1.90463,1.07481 -2.33929,2.08639 -0.43467,1.00369 -0.41096,2.14962 0.0711,3.1375 l 0.20547,0.40305 c 0,0.008 0.008,0.0158 0.008,0.0158 0.13435,0.29241 5.95886,12.43933 6.71755,29.56514 0.46628,10.64535 -1.07481,20.87974 -4.57584,30.43448 -1.24867,0.0948 -2.47364,0.62434 -3.4299,1.5806 -2.12591,2.12591 -2.12591,5.57952 0,7.71333 2.13381,2.12591 5.58742,2.13381 7.71333,0 1.23287,-1.23287 1.74657,-2.9083 1.55689,-4.51261 l 39.11198,-39.11198 c 0.97997,-0.97997 1.33561,-2.41042 0.93255,-3.73022 -1.38302,-4.54423 -0.15016,-9.4599 3.22443,-12.83448 2.43412,-2.43413 5.66645,-3.76973 9.10426,-3.76973 3.44571,0 6.67804,1.3356 9.11217,3.76973 2.43412,2.43412 3.76973,5.66645 3.76973,9.11216 0,3.43781 -1.33561,6.67014 -3.76973,9.10427 -2.43413,2.43412 -5.66646,3.76973 -9.10427,3.76973 -1.27238,0 -2.53686,-0.18177 -3.73812,-0.55321 -1.3198,-0.39515 -2.75024,-0.0395 -3.72231,0.93256 l -39.11198,39.11988 c -1.60431,-0.19758 -3.27974,0.31612 -4.51261,1.54899 -2.13381,2.13381 -2.13381,5.58742 0,7.72123 2.12591,2.12591 5.58742,2.12591 7.71333,0 0.95626,-0.95626 1.47786,-2.18123 1.5806,-3.4299 8.42461,-3.09008 17.39452,-4.65487 26.66474,-4.65487 1.16174,0 2.3551,0.0237 3.54055,0.0711 17.17323,0.71127 29.7074,6.67804 29.81804,6.74127 l 0.40305,0.18967 c 0.5137,0.2529 1.08271,0.38725 1.64383,0.38725 0.50579,0 1.01158,-0.10274 1.48576,-0.30822 1.00368,-0.44257 1.77028,-1.29609 2.0864,-2.34719 l 0.13435,-0.43467 c 12.26546,-40.36855 46.95176,-80.32615 53.77995,-87.92884 1.31981,-1.47787 1.26448,-3.73022 -0.14225,-5.13696 z"
     style="clip-rule:evenodd;fill:#fbfbfc;fill-opacity:1;fill-rule:nonzero;stroke-width:7.90300608;stroke-linejoin:round;stroke-miterlimit:2"
     id="path12" />
  <path
     inkscape:connector-curvature="0"
     d="m 340.75449,243.70049 -43.3796,-43.3796 c -0.70337,-0.70337 -1.65173,-1.09061 -2.6396,-1.09061 -0.99578,0 -1.94414,0.38724 -2.63961,1.09061 l -18.56416,18.56416 c -1.46205,1.45416 -1.46205,3.81715 0,5.27921 l 43.38751,43.3796 c 0.69546,0.70337 1.64382,1.09852 2.6396,1.09852 0.98788,0 1.93624,-0.39515 2.6396,-1.09852 l 18.56416,-18.55626 c 1.45416,-1.46205 1.45416,-3.82505 -0.008,-5.28711 z"
     style="clip-rule:evenodd;fill:#fbfbfc;fill-opacity:1;fill-rule:nonzero;stroke-width:7.90300608;stroke-linejoin:round;stroke-miterlimit:2"
     id="path14" />
</svg>
