<?xml version="1.0" encoding="UTF-8" standalone="no"?>
<svg
   xmlns:dc="http://purl.org/dc/elements/1.1/"
   xmlns:cc="http://creativecommons.org/ns#"
   xmlns:rdf="http://www.w3.org/1999/02/22-rdf-syntax-ns#"
   xmlns:svg="http://www.w3.org/2000/svg"
   xmlns="http://www.w3.org/2000/svg"
   xmlns:xlink="http://www.w3.org/1999/xlink"
   xmlns:sodipodi="http://sodipodi.sourceforge.net/DTD/sodipodi-0.dtd"
   xmlns:inkscape="http://www.inkscape.org/namespaces/inkscape"
   width="512"
   height="512"
   viewBox="0 0 512 512"
   version="1.1"
   id="svg46"
   sodipodi:docname="application-x-desktop-xfce.svg"
   inkscape:version="0.92.5 (2060ec1f9f, 2020-04-08)">
  <metadata
     id="metadata50">
    <rdf:RDF>
      <cc:Work
         rdf:about="">
        <dc:format>image/svg+xml</dc:format>
        <dc:type
           rdf:resource="http://purl.org/dc/dcmitype/StillImage" />
        <dc:title></dc:title>
      </cc:Work>
    </rdf:RDF>
  </metadata>
  <sodipodi:namedview
     pagecolor="#ffffff"
     bordercolor="#666666"
     borderopacity="1"
     objecttolerance="10"
     gridtolerance="10"
     guidetolerance="10"
     inkscape:pageopacity="0"
     inkscape:pageshadow="2"
     inkscape:window-width="1908"
     inkscape:window-height="1031"
     id="namedview48"
     showgrid="false"
     inkscape:zoom="0.4609375"
     inkscape:cx="-132.33898"
     inkscape:cy="256"
     inkscape:window-x="1924"
     inkscape:window-y="8"
     inkscape:window-maximized="0"
     inkscape:current-layer="svg46" />
  <defs
     id="defs30">
    <linearGradient
       id="text-x-vcard-c"
       x1="50%"
       x2="50%"
       y1="0%"
       y2="99.203%">
      <stop
         offset="0%"
         stop-color="#A2A7B0"
         id="stop2" />
      <stop
         offset="98.472%"
         stop-color="#7B8991"
         id="stop4" />
    </linearGradient>
    <path
       id="text-x-vcard-b"
       d="M232,0 L336,104 L336,380 C336,399.882251 319.882251,416 300,416 L36,416 C16.117749,416 2.4348735e-15,399.882251 0,380 L0,36 C-2.4348735e-15,16.117749 16.117749,3.65231026e-15 36,0 L232,0 Z" />
    <filter
       id="text-x-vcard-a"
       width="127.4%"
       height="122.1%"
       x="-13.7%"
       y="-9.1%"
       filterUnits="objectBoundingBox">
      <feOffset
         dy="8"
         in="SourceAlpha"
         result="shadowOffsetOuter1"
         id="feOffset8" />
      <feGaussianBlur
         in="shadowOffsetOuter1"
         result="shadowBlurOuter1"
         stdDeviation="14"
         id="feGaussianBlur10" />
      <feColorMatrix
         in="shadowBlurOuter1"
         values="0 0 0 0 0.361595344   0 0 0 0 0.418797512   0 0 0 0 0.450973732  0 0 0 0.5 0"
         id="feColorMatrix12" />
    </filter>
    <linearGradient
       id="text-x-vcard-f"
       x1="50%"
       x2="7.994%"
       y1="50%"
       y2="88.893%">
      <stop
         offset="0%"
         stop-color="#FFF"
         stop-opacity=".1"
         id="stop15" />
      <stop
         offset="100%"
         stop-color="#FFF"
         stop-opacity=".3"
         id="stop17" />
    </linearGradient>
    <path
       id="text-x-vcard-e"
       d="M232,0 L336,104 L268,104 C248.117749,104 232,87.882251 232,68 L232,0 Z" />
    <filter
       id="text-x-vcard-d"
       width="126.9%"
       height="126.9%"
       x="-13.5%"
       y="-9.6%"
       filterUnits="objectBoundingBox">
      <feOffset
         dy="4"
         in="SourceAlpha"
         result="shadowOffsetOuter1"
         id="feOffset21" />
      <feGaussianBlur
         in="shadowOffsetOuter1"
         result="shadowBlurOuter1"
         stdDeviation="4"
         id="feGaussianBlur23" />
      <feComposite
         in="shadowBlurOuter1"
         in2="SourceAlpha"
         operator="out"
         result="shadowBlurOuter1"
         id="feComposite25" />
      <feColorMatrix
         in="shadowBlurOuter1"
         values="0 0 0 0 0   0 0 0 0 0   0 0 0 0 0  0 0 0 0.05 0"
         id="feColorMatrix27" />
    </filter>
    <filter
       id="application-x-archive-a"
       width="1.274"
       height="1.221"
       x="-0.13699999"
       y="-0.091000006"
       filterUnits="objectBoundingBox">
      <feOffset
         dy="8"
         in="SourceAlpha"
         result="shadowOffsetOuter1"
         id="feOffset8-6" />
      <feGaussianBlur
         in="shadowOffsetOuter1"
         result="shadowBlurOuter1"
         stdDeviation="14"
         id="feGaussianBlur10-7" />
      <feColorMatrix
         in="shadowBlurOuter1"
         values="0 0 0 0 0.00784313725   0 0 0 0 0.42745098   0 0 0 0 0.168627451  0 0 0 0.5 0"
         id="feColorMatrix12-5" />
    </filter>
    <linearGradient
       gradientUnits="userSpaceOnUse"
       id="application-x-archive-c"
       x1="0.5"
       x2="0.5"
       y1="0"
       y2="1">
      <stop
         offset="0%"
         stop-color="#19BD72"
         id="stop2-3" />
      <stop
         offset="100%"
         stop-color="#00914F"
         id="stop4-5" />
    </linearGradient>
    <filter
       id="application-x-archive-d"
       width="1.2690001"
       height="1.2690001"
       x="-0.13500001"
       y="-0.096000001"
       filterUnits="objectBoundingBox">
      <feOffset
         dy="4"
         in="SourceAlpha"
         result="shadowOffsetOuter1"
         id="feOffset21-6" />
      <feGaussianBlur
         in="shadowOffsetOuter1"
         result="shadowBlurOuter1"
         stdDeviation="4"
         id="feGaussianBlur23-2" />
      <feComposite
         in="shadowBlurOuter1"
         in2="SourceAlpha"
         operator="out"
         result="shadowBlurOuter1"
         id="feComposite25-9" />
      <feColorMatrix
         in="shadowBlurOuter1"
         values="0 0 0 0 0   0 0 0 0 0   0 0 0 0 0  0 0 0 0.05 0"
         id="feColorMatrix27-1" />
    </filter>
    <filter
       id="application-x-archive-a-6"
       width="1.274"
       height="1.221"
       x="-0.13699999"
       y="-0.091000006"
       filterUnits="objectBoundingBox">
      <feOffset
         dy="8"
         in="SourceAlpha"
         result="shadowOffsetOuter1"
         id="feOffset8-2" />
      <feGaussianBlur
         in="shadowOffsetOuter1"
         result="shadowBlurOuter1"
         stdDeviation="14"
         id="feGaussianBlur10-6" />
      <feColorMatrix
         in="shadowBlurOuter1"
         values="0 0 0 0 0.00784313725   0 0 0 0 0.42745098   0 0 0 0 0.168627451  0 0 0 0.5 0"
         id="feColorMatrix12-1" />
    </filter>
    <linearGradient
       gradientUnits="userSpaceOnUse"
       id="application-x-archive-c-8"
       x1="0.5"
       x2="0.5"
       y1="0"
       y2="1">
      <stop
         offset="0%"
         stop-color="#19BD72"
         id="stop2-7" />
      <stop
         offset="100%"
         stop-color="#00914F"
         id="stop4-9" />
    </linearGradient>
    <filter
       id="application-x-archive-d-2"
       width="1.2690001"
       height="1.2690001"
       x="-0.13500001"
       y="-0.096000001"
       filterUnits="objectBoundingBox">
      <feOffset
         dy="4"
         in="SourceAlpha"
         result="shadowOffsetOuter1"
         id="feOffset21-0" />
      <feGaussianBlur
         in="shadowOffsetOuter1"
         result="shadowBlurOuter1"
         stdDeviation="4"
         id="feGaussianBlur23-23" />
      <feComposite
         in="shadowBlurOuter1"
         in2="SourceAlpha"
         operator="out"
         result="shadowBlurOuter1"
         id="feComposite25-7" />
      <feColorMatrix
         in="shadowBlurOuter1"
         values="0 0 0 0 0   0 0 0 0 0   0 0 0 0 0  0 0 0 0.05 0"
         id="feColorMatrix27-5" />
    </filter>
    <filter
       id="application-x-troff-man-a"
       width="1.274"
       height="1.221"
       x="-0.13699999"
       y="-0.091000006"
       filterUnits="objectBoundingBox">
      <feOffset
         dy="8"
         in="SourceAlpha"
         result="shadowOffsetOuter1"
         id="feOffset8-61" />
      <feGaussianBlur
         in="shadowOffsetOuter1"
         result="shadowBlurOuter1"
         stdDeviation="14"
         id="feGaussianBlur10-2" />
      <feColorMatrix
         in="shadowBlurOuter1"
         values="0 0 0 0 0.941176471   0 0 0 0 0.309803922   0 0 0 0 0.0705882353  0 0 0 0.5 0"
         id="feColorMatrix12-9" />
    </filter>
    <linearGradient
       gradientUnits="userSpaceOnUse"
       id="application-x-troff-man-c"
       x1="0.5"
       x2="0.5"
       y1="0"
       y2="1">
      <stop
         offset="0%"
         stop-color="#FC7440"
         id="stop2-31" />
      <stop
         offset="100%"
         stop-color="#F04E11"
         id="stop4-94" />
    </linearGradient>
    <filter
       id="application-x-troff-man-d"
       width="1.2690001"
       height="1.2690001"
       x="-0.13500001"
       y="-0.096000001"
       filterUnits="objectBoundingBox">
      <feOffset
         dy="4"
         in="SourceAlpha"
         result="shadowOffsetOuter1"
         id="feOffset21-7" />
      <feGaussianBlur
         in="shadowOffsetOuter1"
         result="shadowBlurOuter1"
         stdDeviation="4"
         id="feGaussianBlur23-8" />
      <feComposite
         in="shadowBlurOuter1"
         in2="SourceAlpha"
         operator="out"
         result="shadowBlurOuter1"
         id="feComposite25-4" />
      <feColorMatrix
         in="shadowBlurOuter1"
         values="0 0 0 0 0   0 0 0 0 0   0 0 0 0 0  0 0 0 0.05 0"
         id="feColorMatrix27-50" />
    </filter>
  </defs>
  <g
     fill="none"
     fill-rule="evenodd"
     id="g44">
    <g
       transform="translate(88 56)"
       id="g40">
      <use
         fill="#000"
         filter="url(#text-x-vcard-a)"
         xlink:href="#text-x-vcard-b"
         id="use32" />
      <use
         fill="url(#text-x-vcard-c)"
         xlink:href="#text-x-vcard-b"
         id="use34" />
      <use
         fill="#000"
         filter="url(#text-x-vcard-d)"
         xlink:href="#text-x-vcard-e"
         id="use36" />
      <use
         fill="url(#text-x-vcard-f)"
         xlink:href="#text-x-vcard-e"
         id="use38" />
    </g>
  </g>
  <path
     inkscape:connector-curvature="0"
     d="m 303.03547,195.82999 c -0.41419,0.25489 -0.58624,0.47792 -0.48428,0.31225 -4.67724,7.91433 -4.72185,18.27562 -6.83743,27.57911 0.0128,0.1593 0.0128,0.32498 0,0.48428 -1.03868,10.18287 -4.365,20.55053 -1.69502,30.32556 0.10833,0.19755 0.19754,0.40145 0.26764,0.61811 0.49703,0.6436 1.12788,1.22985 1.49747,1.30631 0.27401,0.0509 0.68821,-0.0701 1.65679,-0.73918 1.03867,-0.72644 1.70776,-2.05824 2.01363,-3.96991 0.0892,-0.52253 0.28676,-1.01319 0.59262,-1.44014 4.17382,-16.56785 7.15604,-33.9641 6.04727,-50.99077 v -0.17205 c -0.14657,-0.78378 -0.38871,-1.25533 -1.14701,-2.16656 -0.51615,-0.62448 -0.83477,-0.95584 -0.96858,-1.05142 -0.13382,-0.0955 -0.0191,-0.10833 -0.49704,-0.0828 -0.14655,0.006 -0.29949,0.006 -0.44606,-0.0128 z"
     style="clip-rule:evenodd;fill:#ffffff;fill-opacity:1;fill-rule:nonzero;stroke-width:6.37225342;stroke-linejoin:round;stroke-miterlimit:2"
     id="path18" />
  <path
     inkscape:connector-curvature="0"
     d="m 341.43468,203.87814 c -0.12107,0.0191 -0.23578,0.0255 -0.35048,0.0255 -7.18153,3.49836 -10.87743,11.94159 -15.84142,18.72804 -0.0701,0.33136 -0.19754,0.65634 -0.36322,0.95584 -6.25755,11.08772 -14.22286,22.07349 -15.064,34.90084 0.0382,2.02637 1.19798,3.17975 2.39596,3.44102 1.13427,0.24214 3.20525,-0.49067 4.05276,-1.75874 0.0701,-0.1848 0.0128,-0.3696 0.12107,-0.52891 0.0255,-0.0382 0.0509,-0.0828 0.0764,-0.12106 11.34261,-15.58655 19.91966,-34.07245 26.961,-52.03583 0.006,-0.0191 0.0128,-0.0382 0.0128,-0.0509 0.49067,-1.17887 0.51616,-1.64405 0.0828,-2.53616 -0.12745,-0.26126 -1.39552,-1.10877 -2.08373,-1.01956 z"
     style="clip-rule:evenodd;fill:#ffffff;fill-opacity:1;fill-rule:nonzero;stroke-width:6.37225342;stroke-linejoin:round;stroke-miterlimit:2"
     id="path20" />
  <path
     inkscape:connector-curvature="0"
     d="m 229.87563,209.05879 c -1.15337,0.21666 -2.86751,1.24897 -4.09098,1.72687 -4.33314,1.64405 -6.72274,5.35271 -7.75504,9.69221 -1.05142,4.43509 -0.70095,9.37358 0,14.42678 0.70095,5.04045 1.70776,10.24021 2.8038,14.21012 0.93671,3.43465 1.61217,5.11055 1.93716,6.25119 v 0.86025 c 0,0.37596 -0.1848,0.34411 -0.43332,0.6436 -0.14019,0.0765 0.14019,0.43332 0,0.43332 -0.31223,0.23576 -0.6882,0.42694 -1.0769,0.42694 -0.76468,0.0509 -1.36367,-0.22941 -2.15382,-0.42694 -0.53527,-0.12745 -1.23623,-0.56077 -1.07692,-0.43332 -0.24852,-0.15294 -0.69457,-0.16568 -0.86024,-0.43331 0,0.10193 0.15292,0.10193 0,-0.21029 -0.17206,-0.32498 -0.3696,-1.147 -0.6436,-1.72688 -0.61812,-1.30631 -1.09604,-2.81654 -1.93717,-4.73459 -1.68228,-3.82335 -3.84248,-8.5197 -6.25119,-12.92293 -2.4087,-4.42234 -5.25073,-8.43049 -8.39863,-11.19604 -1.56756,-1.38278 -3.5111,-2.77193 -5.38455,-3.23073 -1.80334,-0.45243 -3.94442,-0.0701 -5.81149,0.86025 -4.8238,2.67634 -7.55112,7.06045 -8.61529,11.62936 -1.06416,4.639 -0.56076,9.98533 0.21666,14.64345 0.79015,4.65173 2.01363,8.48146 2.79741,11.62936 0.33774,1.32543 0.75193,2.56801 0.86026,3.23072 0,0.65634 -0.26764,2.37685 -0.42694,3.01407 -0.81565,2.82292 -2.79742,7.53839 -2.80379,7.53839 0,0 -37.57719,99.80861 43.07643,92.81824 0.66272,-0.0509 2.17294,-0.43331 2.79741,-0.43331 15.84143,-3.18612 30.82897,-7.97806 44.14698,-13.34988 2.619,-1.25532 6.05365,-2.49792 9.90886,-4.30763 7.71043,-3.61307 17.39625,-8.23933 26.69975,-13.34987 9.31623,-5.11692 17.95063,-10.5652 24.55228,-16.37032 6.6144,-5.8115 11.4382,-12.17738 10.55246,-18.51777 -1.40189,-10.2211 -8.18835,-17.8232 -17.2242,-23.69204 -9.07409,-5.88796 -20.38484,-9.95347 -31.65736,-12.91656 -11.27888,-2.96948 -22.22004,-5.37818 -30.58045,-6.67812 -4.18019,-0.64997 -8.09913,-0.84113 -10.55244,-1.29357 -0.73282,-0.12745 -1.11516,-0.30586 -1.51023,-0.43331 -0.21028,-0.0255 -0.22941,-0.0892 -0.43331,-0.21029 -0.24852,-0.15294 -0.70732,-0.17205 -0.86026,-0.43331 -0.13382,-0.24852 0,-0.57351 0,-0.86026 v -6.67811 c -0.13382,-5.15517 -0.43968,-11.96073 -1.50384,-18.30112 -1.0833,-6.37225 -2.74009,-12.46413 -6.24482,-16.58697 -2.08372,-2.44696 -5.03408,-4.05276 -8.61529,-4.30765 -1.07691,-0.12108 -2.28126,-0.21029 -3.44739,0 z"
     style="clip-rule:evenodd;fill:#ffffff;fill-opacity:1;fill-rule:nonzero;stroke-width:6.37225342;stroke-linejoin:round;stroke-miterlimit:2"
     id="path22" />
</svg>
