<?xml version="1.0" encoding="UTF-8" standalone="no"?>
<svg
   xmlns:dc="http://purl.org/dc/elements/1.1/"
   xmlns:cc="http://creativecommons.org/ns#"
   xmlns:rdf="http://www.w3.org/1999/02/22-rdf-syntax-ns#"
   xmlns:svg="http://www.w3.org/2000/svg"
   xmlns="http://www.w3.org/2000/svg"
   xmlns:xlink="http://www.w3.org/1999/xlink"
   xmlns:sodipodi="http://sodipodi.sourceforge.net/DTD/sodipodi-0.dtd"
   xmlns:inkscape="http://www.inkscape.org/namespaces/inkscape"
   width="512"
   height="512"
   viewBox="0 0 512 512"
   version="1.1"
   id="svg46"
   sodipodi:docname="application-x-desktop-lxde.svg"
   inkscape:version="0.92.5 (2060ec1f9f, 2020-04-08)">
  <metadata
     id="metadata50">
    <rdf:RDF>
      <cc:Work
         rdf:about="">
        <dc:format>image/svg+xml</dc:format>
        <dc:type
           rdf:resource="http://purl.org/dc/dcmitype/StillImage" />
        <dc:title></dc:title>
      </cc:Work>
    </rdf:RDF>
  </metadata>
  <sodipodi:namedview
     pagecolor="#ffffff"
     bordercolor="#666666"
     borderopacity="1"
     objecttolerance="10"
     gridtolerance="10"
     guidetolerance="10"
     inkscape:pageopacity="0"
     inkscape:pageshadow="2"
     inkscape:window-width="1908"
     inkscape:window-height="1031"
     id="namedview48"
     showgrid="false"
     inkscape:zoom="0.4609375"
     inkscape:cx="-132.33898"
     inkscape:cy="256"
     inkscape:window-x="1924"
     inkscape:window-y="8"
     inkscape:window-maximized="0"
     inkscape:current-layer="svg46" />
  <defs
     id="defs30">
    <linearGradient
       id="text-x-vcard-c"
       x1="50%"
       x2="50%"
       y1="0%"
       y2="99.203%">
      <stop
         offset="0%"
         stop-color="#A2A7B0"
         id="stop2" />
      <stop
         offset="98.472%"
         stop-color="#7B8991"
         id="stop4" />
    </linearGradient>
    <path
       id="text-x-vcard-b"
       d="M232,0 L336,104 L336,380 C336,399.882251 319.882251,416 300,416 L36,416 C16.117749,416 2.4348735e-15,399.882251 0,380 L0,36 C-2.4348735e-15,16.117749 16.117749,3.65231026e-15 36,0 L232,0 Z" />
    <filter
       id="text-x-vcard-a"
       width="127.4%"
       height="122.1%"
       x="-13.7%"
       y="-9.1%"
       filterUnits="objectBoundingBox">
      <feOffset
         dy="8"
         in="SourceAlpha"
         result="shadowOffsetOuter1"
         id="feOffset8" />
      <feGaussianBlur
         in="shadowOffsetOuter1"
         result="shadowBlurOuter1"
         stdDeviation="14"
         id="feGaussianBlur10" />
      <feColorMatrix
         in="shadowBlurOuter1"
         values="0 0 0 0 0.361595344   0 0 0 0 0.418797512   0 0 0 0 0.450973732  0 0 0 0.5 0"
         id="feColorMatrix12" />
    </filter>
    <linearGradient
       id="text-x-vcard-f"
       x1="50%"
       x2="7.994%"
       y1="50%"
       y2="88.893%">
      <stop
         offset="0%"
         stop-color="#FFF"
         stop-opacity=".1"
         id="stop15" />
      <stop
         offset="100%"
         stop-color="#FFF"
         stop-opacity=".3"
         id="stop17" />
    </linearGradient>
    <path
       id="text-x-vcard-e"
       d="M232,0 L336,104 L268,104 C248.117749,104 232,87.882251 232,68 L232,0 Z" />
    <filter
       id="text-x-vcard-d"
       width="126.9%"
       height="126.9%"
       x="-13.5%"
       y="-9.6%"
       filterUnits="objectBoundingBox">
      <feOffset
         dy="4"
         in="SourceAlpha"
         result="shadowOffsetOuter1"
         id="feOffset21" />
      <feGaussianBlur
         in="shadowOffsetOuter1"
         result="shadowBlurOuter1"
         stdDeviation="4"
         id="feGaussianBlur23" />
      <feComposite
         in="shadowBlurOuter1"
         in2="SourceAlpha"
         operator="out"
         result="shadowBlurOuter1"
         id="feComposite25" />
      <feColorMatrix
         in="shadowBlurOuter1"
         values="0 0 0 0 0   0 0 0 0 0   0 0 0 0 0  0 0 0 0.05 0"
         id="feColorMatrix27" />
    </filter>
    <filter
       id="application-x-archive-a"
       width="1.274"
       height="1.221"
       x="-0.13699999"
       y="-0.091000006"
       filterUnits="objectBoundingBox">
      <feOffset
         dy="8"
         in="SourceAlpha"
         result="shadowOffsetOuter1"
         id="feOffset8-6" />
      <feGaussianBlur
         in="shadowOffsetOuter1"
         result="shadowBlurOuter1"
         stdDeviation="14"
         id="feGaussianBlur10-7" />
      <feColorMatrix
         in="shadowBlurOuter1"
         values="0 0 0 0 0.00784313725   0 0 0 0 0.42745098   0 0 0 0 0.168627451  0 0 0 0.5 0"
         id="feColorMatrix12-5" />
    </filter>
    <linearGradient
       gradientUnits="userSpaceOnUse"
       id="application-x-archive-c"
       x1="0.5"
       x2="0.5"
       y1="0"
       y2="1">
      <stop
         offset="0%"
         stop-color="#19BD72"
         id="stop2-3" />
      <stop
         offset="100%"
         stop-color="#00914F"
         id="stop4-5" />
    </linearGradient>
    <filter
       id="application-x-archive-d"
       width="1.2690001"
       height="1.2690001"
       x="-0.13500001"
       y="-0.096000001"
       filterUnits="objectBoundingBox">
      <feOffset
         dy="4"
         in="SourceAlpha"
         result="shadowOffsetOuter1"
         id="feOffset21-6" />
      <feGaussianBlur
         in="shadowOffsetOuter1"
         result="shadowBlurOuter1"
         stdDeviation="4"
         id="feGaussianBlur23-2" />
      <feComposite
         in="shadowBlurOuter1"
         in2="SourceAlpha"
         operator="out"
         result="shadowBlurOuter1"
         id="feComposite25-9" />
      <feColorMatrix
         in="shadowBlurOuter1"
         values="0 0 0 0 0   0 0 0 0 0   0 0 0 0 0  0 0 0 0.05 0"
         id="feColorMatrix27-1" />
    </filter>
    <filter
       id="application-x-archive-a-6"
       width="1.274"
       height="1.221"
       x="-0.13699999"
       y="-0.091000006"
       filterUnits="objectBoundingBox">
      <feOffset
         dy="8"
         in="SourceAlpha"
         result="shadowOffsetOuter1"
         id="feOffset8-2" />
      <feGaussianBlur
         in="shadowOffsetOuter1"
         result="shadowBlurOuter1"
         stdDeviation="14"
         id="feGaussianBlur10-6" />
      <feColorMatrix
         in="shadowBlurOuter1"
         values="0 0 0 0 0.00784313725   0 0 0 0 0.42745098   0 0 0 0 0.168627451  0 0 0 0.5 0"
         id="feColorMatrix12-1" />
    </filter>
    <linearGradient
       gradientUnits="userSpaceOnUse"
       id="application-x-archive-c-8"
       x1="0.5"
       x2="0.5"
       y1="0"
       y2="1">
      <stop
         offset="0%"
         stop-color="#19BD72"
         id="stop2-7" />
      <stop
         offset="100%"
         stop-color="#00914F"
         id="stop4-9" />
    </linearGradient>
    <filter
       id="application-x-archive-d-2"
       width="1.2690001"
       height="1.2690001"
       x="-0.13500001"
       y="-0.096000001"
       filterUnits="objectBoundingBox">
      <feOffset
         dy="4"
         in="SourceAlpha"
         result="shadowOffsetOuter1"
         id="feOffset21-0" />
      <feGaussianBlur
         in="shadowOffsetOuter1"
         result="shadowBlurOuter1"
         stdDeviation="4"
         id="feGaussianBlur23-23" />
      <feComposite
         in="shadowBlurOuter1"
         in2="SourceAlpha"
         operator="out"
         result="shadowBlurOuter1"
         id="feComposite25-7" />
      <feColorMatrix
         in="shadowBlurOuter1"
         values="0 0 0 0 0   0 0 0 0 0   0 0 0 0 0  0 0 0 0.05 0"
         id="feColorMatrix27-5" />
    </filter>
  </defs>
  <g
     fill="none"
     fill-rule="evenodd"
     id="g44">
    <g
       transform="translate(88 56)"
       id="g40">
      <use
         fill="#000"
         filter="url(#text-x-vcard-a)"
         xlink:href="#text-x-vcard-b"
         id="use32" />
      <use
         fill="url(#text-x-vcard-c)"
         xlink:href="#text-x-vcard-b"
         id="use34" />
      <use
         fill="#000"
         filter="url(#text-x-vcard-d)"
         xlink:href="#text-x-vcard-e"
         id="use36" />
      <use
         fill="url(#text-x-vcard-f)"
         xlink:href="#text-x-vcard-e"
         id="use38" />
    </g>
  </g>
  <path
     inkscape:connector-curvature="0"
     d="m 255.47799,191.7237 c -45.91848,0 -83.24987,36.36946 -85.0116,81.86102 28.23633,-19.93025 76.2678,-52.62494 88.17839,-53.4896 3.95579,-5.00958 17.54165,-9.05723 20.0005,-8.96537 l -7.13338,8.96537 c 0,0 -0.11889,9.04644 -2.75608,10.80276 24.60475,16.43922 36.35863,75.45718 41.37902,111.28084 l -2.1184,1.69147 c 19.84919,-15.59617 32.65145,-39.75782 32.65145,-66.95656 0,-47.04793 -38.142,-85.18993 -85.1899,-85.18993 z m -1.21051,69.98825 c -6.6146,0.19455 -20.06536,19.97348 -35.40214,41.15208 -7.37116,10.17588 -16.92018,24.1022 -23.94008,33.74848 l -5.05822,-5.52297 c 14.4343,-23.62664 32.39747,-52.45741 31.52741,-53.51661 -0.18374,-0.0919 -0.42692,-0.27021 -0.69172,-0.22697 -4.88529,0.74036 -24.50751,25.19382 -38.54731,42.76789 14.82339,25.09655 42.07077,41.98431 73.32257,41.98431 18.97373,0 36.43969,-6.27954 50.59838,-16.76887 -10.48932,-32.04079 -30.73838,-83.27148 -51.11717,-83.39037 -0.19455,-0.0378 -0.47556,-0.22697 -0.69172,-0.22697 z m -49.42573,8.27365 c -6.05257,-0.0432 -21.52446,5.4257 -34.37536,10.38124 0.50798,12.70499 3.76664,24.67503 9.24638,35.3535 2.58315,-3.90715 7.05233,-10.31639 9.72194,-14.23976 10.21372,-15.00713 20.25991,-28.29036 17.93615,-31.03023 -0.41611,-0.45935 -1.33481,-0.45935 -2.52911,-0.46475 z m -34.47263,5.38246 c -0.0108,0.5188 -0.0757,1.02138 -0.0757,1.54557 0,0.71334 0.0919,1.40506 0.10808,2.113 z m 9.50578,40.69814 c 0.535,1.02677 1.09162,2.03193 1.66445,3.03169 z"
     style="clip-rule:evenodd;fill:#ffffff;fill-opacity:1;fill-rule:evenodd;stroke-width:5.40408087;stroke-linejoin:round;stroke-miterlimit:2"
     id="path18" />
</svg>
