<?xml version="1.0" encoding="UTF-8" standalone="no"?>
<svg
   xmlns:dc="http://purl.org/dc/elements/1.1/"
   xmlns:cc="http://creativecommons.org/ns#"
   xmlns:rdf="http://www.w3.org/1999/02/22-rdf-syntax-ns#"
   xmlns:svg="http://www.w3.org/2000/svg"
   xmlns="http://www.w3.org/2000/svg"
   xmlns:xlink="http://www.w3.org/1999/xlink"
   xmlns:sodipodi="http://sodipodi.sourceforge.net/DTD/sodipodi-0.dtd"
   xmlns:inkscape="http://www.inkscape.org/namespaces/inkscape"
   width="512"
   height="512"
   viewBox="0 0 512 512"
   version="1.1"
   id="svg46"
   sodipodi:docname="application-dicom.svg"
   inkscape:version="0.92.5 (2060ec1f9f, 2020-04-08)">
  <metadata
     id="metadata50">
    <rdf:RDF>
      <cc:Work
         rdf:about="">
        <dc:format>image/svg+xml</dc:format>
        <dc:type
           rdf:resource="http://purl.org/dc/dcmitype/StillImage" />
        <dc:title></dc:title>
      </cc:Work>
    </rdf:RDF>
  </metadata>
  <sodipodi:namedview
     pagecolor="#ffffff"
     bordercolor="#666666"
     borderopacity="1"
     objecttolerance="10"
     gridtolerance="10"
     guidetolerance="10"
     inkscape:pageopacity="0"
     inkscape:pageshadow="2"
     inkscape:window-width="1908"
     inkscape:window-height="1031"
     id="namedview48"
     showgrid="false"
     inkscape:zoom="0.4609375"
     inkscape:cx="-132.33898"
     inkscape:cy="256"
     inkscape:window-x="1924"
     inkscape:window-y="1084"
     inkscape:window-maximized="0"
     inkscape:current-layer="svg46" />
  <defs
     id="defs30">
    <linearGradient
       id="application-x-font-ttf-c"
       x1="50%"
       x2="50%"
       y1="0%"
       y2="99.372%">
      <stop
         offset="0%"
         stop-color="#D6D6D6"
         id="stop2" />
      <stop
         offset="98.276%"
         stop-color="#AAA"
         id="stop4" />
    </linearGradient>
    <path
       id="application-x-font-ttf-b"
       d="M232,0 L336,104 L336,380 C336,399.882251 319.882251,416 300,416 L36,416 C16.117749,416 2.4348735e-15,399.882251 0,380 L0,36 C-2.4348735e-15,16.117749 16.117749,3.65231026e-15 36,0 L232,0 Z" />
    <filter
       id="application-x-font-ttf-a"
       width="127.4%"
       height="122.1%"
       x="-13.7%"
       y="-9.1%"
       filterUnits="objectBoundingBox">
      <feOffset
         dy="8"
         in="SourceAlpha"
         result="shadowOffsetOuter1"
         id="feOffset8" />
      <feGaussianBlur
         in="shadowOffsetOuter1"
         result="shadowBlurOuter1"
         stdDeviation="14"
         id="feGaussianBlur10" />
      <feColorMatrix
         in="shadowBlurOuter1"
         values="0 0 0 0 0   0 0 0 0 0   0 0 0 0 0  0 0 0 0.2 0"
         id="feColorMatrix12" />
    </filter>
    <linearGradient
       id="application-x-font-ttf-f"
       x1="50%"
       x2="7.994%"
       y1="50%"
       y2="88.893%">
      <stop
         offset="0%"
         stop-color="#FFF"
         stop-opacity=".1"
         id="stop15" />
      <stop
         offset="100%"
         stop-color="#FFF"
         stop-opacity=".3"
         id="stop17" />
    </linearGradient>
    <path
       id="application-x-font-ttf-e"
       d="M232,0 L336,104 L268,104 C248.117749,104 232,87.882251 232,68 L232,0 Z" />
    <filter
       id="application-x-font-ttf-d"
       width="126.9%"
       height="126.9%"
       x="-13.5%"
       y="-9.6%"
       filterUnits="objectBoundingBox">
      <feOffset
         dy="4"
         in="SourceAlpha"
         result="shadowOffsetOuter1"
         id="feOffset21" />
      <feGaussianBlur
         in="shadowOffsetOuter1"
         result="shadowBlurOuter1"
         stdDeviation="4"
         id="feGaussianBlur23" />
      <feComposite
         in="shadowBlurOuter1"
         in2="SourceAlpha"
         operator="out"
         result="shadowBlurOuter1"
         id="feComposite25" />
      <feColorMatrix
         in="shadowBlurOuter1"
         values="0 0 0 0 0   0 0 0 0 0   0 0 0 0 0  0 0 0 0.05 0"
         id="feColorMatrix27" />
    </filter>
  </defs>
  <g
     fill="none"
     fill-rule="evenodd"
     id="g44">
    <g
       transform="translate(88 56)"
       id="g40">
      <use
         fill="#000"
         filter="url(#application-x-font-ttf-a)"
         xlink:href="#application-x-font-ttf-b"
         id="use32" />
      <use
         fill="url(#application-x-font-ttf-c)"
         xlink:href="#application-x-font-ttf-b"
         id="use34" />
      <use
         fill="#000"
         filter="url(#application-x-font-ttf-d)"
         xlink:href="#application-x-font-ttf-e"
         id="use36" />
      <use
         fill="url(#application-x-font-ttf-f)"
         xlink:href="#application-x-font-ttf-e"
         id="use38" />
    </g>
  </g>
  <path
     inkscape:connector-curvature="0"
     d="m 240.96505,198.44118 c -9.98277,0 -22.99858,5.51679 -34.89989,14.7831 -7.14078,3.0012 -12.15605,9.94296 -12.15605,18.01516 0,2.53151 0.4856,4.99934 1.42497,7.3 -12.33915,2.34046 -21.68506,12.96805 -21.68506,25.71319 0,2.65093 0.406,5.26205 1.21003,7.78561 -5.08691,4.91178 -7.96074,11.57492 -7.96074,18.62018 0,5.50883 1.75136,10.61963 4.73664,14.84678 -3.09673,4.37841 -4.73664,9.49716 -4.73664,14.87067 0,9.529 5.30981,18.25398 13.72432,22.85529 -0.14329,1.17819 -0.21494,2.36434 -0.21494,3.55049 0,12.84863 8.58168,24.20861 21.01636,28.07753 5.4133,9.05137 15.25278,14.63185 26.03162,14.63185 11.81375,0 22.05922,-6.67907 27.0108,-16.37525 4.95158,9.69618 15.19706,16.37525 27.0108,16.37525 10.77884,0 20.63424,-5.58048 26.04755,-14.63185 12.44264,-3.86892 21.00043,-15.2289 21.00043,-28.07753 0,-1.18615 -0.0716,-2.3723 -0.21494,-3.55049 8.41451,-4.60131 13.72432,-13.33425 13.72432,-22.85529 0,-5.38147 -1.62399,-10.49226 -4.72072,-14.87067 2.97732,-4.21919 4.72072,-9.33795 4.72072,-14.84678 0,-7.04526 -2.87382,-13.71636 -7.96074,-18.62018 0.80404,-2.52356 1.21003,-5.13468 1.21003,-7.78561 0,-12.73718 -9.34591,-23.37273 -21.68506,-25.71319 0.93937,-2.30066 1.42498,-4.76849 1.42498,-7.3 0,-8.0722 -5.01527,-15.01396 -12.15606,-18.01516 -11.90131,-9.26631 -24.90916,-14.7831 -34.89989,-14.7831 -5.54864,0 -10.47634,2.67481 -13.50938,6.76663 -3.03304,-4.09182 -7.95278,-6.76663 -13.50938,-6.76663 m 0,6.19346 c 5.69989,0 10.34101,4.53762 10.34101,10.11014 v 40.04253 c -2.84199,-2.20512 -6.43228,-3.53457 -10.34101,-3.53457 -1.75136,0 -3.16837,1.38517 -3.16837,3.09673 0,1.71156 1.41701,3.09673 3.16837,3.09673 5.69989,0 10.34101,4.53762 10.34101,10.11014 v 74.38518 c -3.93261,-4.96751 -9.48125,-8.70906 -16.0011,-10.42858 -1.68767,-0.4458 -3.43108,0.53337 -3.88484,2.18921 -0.45376,1.64787 0.54929,3.35147 2.23697,3.79727 10.39673,2.73054 17.64897,11.98092 17.64897,22.49706 0,12.8566 -10.69924,23.31701 -23.84243,23.31701 -8.87622,0 -16.95638,-4.79237 -21.09596,-12.4904 -0.41396,-0.76423 -1.13839,-1.32149 -1.99019,-1.54439 -10.38877,-2.73053 -17.63304,-11.97295 -17.63304,-22.48113 0,-1.56827 0.15921,-3.15246 0.47764,-4.68888 0.29455,-1.42497 -0.46172,-2.85791 -1.81505,-3.447 -7.39553,-3.21614 -12.17197,-10.38081 -12.17197,-18.27786 0,-3.5903 0.94733,-7.02138 2.76238,-10.06238 4.72868,4.0759 10.91417,6.55965 17.69673,6.55965 1.75136,0 3.16837,-1.38517 3.16837,-3.09673 0,-1.71156 -1.41701,-3.09673 -3.16837,-3.09673 -11.28834,0 -20.45911,-8.98768 -20.45911,-20.02126 0,-5.93872 2.68277,-11.54308 7.35572,-15.35628 1.05878,-0.85976 1.41702,-2.29269 0.89957,-3.53456 -1.00305,-2.40415 -1.50458,-4.93566 -1.50458,-7.51495 0,-11.03358 9.17077,-20.00534 20.45911,-20.00534 11.28833,0 20.47502,8.97176 20.47502,20.00534 0,1.71156 1.41702,3.09673 3.16838,3.09673 1.75136,0 3.16837,-1.38517 3.16837,-3.09673 0,-13.88353 -11.10523,-25.26739 -25.08429,-26.13511 -1.26576,-2.06979 -1.9265,-4.43413 -1.9265,-6.87808 0,-5.5168 3.42312,-10.25344 8.30305,-12.30731 0.19106,-0.0557 0.36619,-0.13533 0.54133,-0.23086 1.51254,-0.56521 3.14449,-0.86772 4.85605,-0.86772 5.30186,0 10.0385,2.89771 12.35508,7.55474 0.76423,1.53643 2.65092,2.17329 4.21919,1.42498 1.57623,-0.74831 2.22105,-2.58725 1.45681,-4.13163 -2.64296,-5.32574 -7.65027,-9.14689 -13.41385,-10.50022 8.08016,-4.81625 16.0011,-7.55474 22.38561,-7.55474 m 27.0108,0 c 6.35267,0 14.30545,2.73849 22.3856,7.55474 -5.76357,1.35333 -10.77088,5.18244 -13.41385,10.50022 -0.76423,1.53642 -0.11145,3.38332 1.45682,4.13163 1.57623,0.74831 3.47088,0.11145 4.23512,-1.42498 2.31657,-4.66499 7.04525,-7.55474 12.33915,-7.55474 1.71155,0 3.35147,0.30251 4.85605,0.86772 0.17513,0.0876 0.37415,0.17514 0.55725,0.23086 4.87993,2.05387 8.30305,6.79051 8.30305,12.30731 0,2.44395 -0.67666,4.80829 -1.94242,6.87808 -13.97906,0.86772 -25.06837,12.25158 -25.06837,26.13511 0,1.71156 1.41701,3.09673 3.16837,3.09673 1.75136,0 3.16838,-1.38517 3.16838,-3.09673 0,-11.03358 9.17077,-20.00534 20.4591,-20.00534 11.28834,0 20.47503,8.97176 20.47503,20.00534 0,2.57929 -0.50949,5.10284 -1.50458,7.51495 -0.51745,1.24983 -0.15125,2.6748 0.89957,3.53456 4.67295,3.82116 7.35572,9.41756 7.35572,15.35628 0,11.03358 -9.18669,20.02126 -20.47503,20.02126 -1.75136,0 -3.16837,1.38517 -3.16837,3.09673 0,1.71156 1.41701,3.09673 3.16837,3.09673 6.78256,0 12.96805,-2.48375 17.69673,-6.55965 1.81505,3.041 2.7783,6.47208 2.7783,10.06238 0,7.88909 -4.77644,15.06172 -12.17197,18.27786 -1.35333,0.58909 -2.1096,2.02203 -1.81505,3.447 0.31843,1.53642 0.47764,3.12061 0.47764,4.68888 0,10.50818 -7.26019,19.74264 -17.64896,22.48113 -0.8518,0.2229 -1.56031,0.78812 -1.97427,1.54439 -4.13958,7.69803 -12.23566,12.4904 -21.11188,12.4904 -13.15115,0 -23.84243,-10.46041 -23.84243,-23.31701 0,-0.86772 -0.0478,-1.7434 -0.12737,-2.5952 0.0796,-0.26271 0.12737,-0.53337 0.12737,-0.81996 V 254.35743 c 0,-5.57252 4.64112,-10.11014 10.34101,-10.11014 1.75136,0 3.16837,-1.38517 3.16837,-3.09673 0,-1.71156 -1.41701,-3.09673 -3.16837,-3.09673 -3.90077,0 -7.49106,1.32945 -10.34101,3.53457 v -26.85158 c 0,-5.57252 4.64112,-10.11014 10.34101,-10.11014 m 47.27088,53.22552 c -1.75136,0 -3.16837,1.38517 -3.16837,3.09673 0,11.03358 -9.17078,20.00534 -20.45911,20.00534 -5.54864,0 -10.73904,-2.11756 -14.62388,-5.99444 -1.22596,-1.21799 -3.24002,-1.24187 -4.48986,-0.0478 -1.24984,1.19411 -1.27372,3.15245 -0.0478,4.37045 4.38637,4.3784 10.06238,7.06117 16.20808,7.71395 1.45681,9.41756 9.79171,16.66184 19.82224,16.66184 1.75137,0 3.16838,-1.38517 3.16838,-3.09673 0,-1.71156 -1.41701,-3.09673 -3.16838,-3.09673 -6.55965,0 -12.05256,-4.52966 -13.39793,-10.54798 13.13523,-1.67972 23.31702,-12.6735 23.31702,-25.96794 0,-1.71156 -1.41701,-3.09673 -3.16838,-3.09673 m -114.7939,3.31167 c -1.75136,0 -3.16837,1.36924 -3.16837,3.0808 0,13.29444 10.18179,24.31211 23.31701,25.98387 -1.34537,6.01832 -6.83828,10.53206 -13.39793,10.53206 -1.75136,0 -3.16837,1.38517 -3.16837,3.09673 0,1.71156 1.41701,3.09672 3.16837,3.09672 10.03054,0 18.37339,-7.24427 19.82225,-16.66183 6.14569,-0.65278 11.81374,-3.31167 16.20807,-7.69804 1.22595,-1.21799 1.20207,-3.19225 -0.0478,-4.38637 -1.24984,-1.19411 -3.24799,-1.17818 -4.47394,0.0478 -3.88484,3.87688 -9.07525,6.01036 -14.62388,6.01036 -11.28834,0 -20.47503,-8.98768 -20.47503,-20.02127 0,-1.71156 -1.41702,-3.0808 -3.16838,-3.0808 m 67.53098,46.20414 c -1.75137,0 -3.16838,1.38517 -3.16838,3.09673 0,1.71156 1.41701,3.09673 3.16838,3.09673 11.28833,0 20.47502,8.98768 20.47502,20.02127 0,0.7085 -0.0478,1.40905 -0.12737,2.10959 -9.82355,3.89281 -16.76532,13.31832 -16.76532,24.29619 0,1.71156 1.41701,3.09673 3.16838,3.09673 1.75136,0 3.16837,-1.38517 3.16837,-3.09673 0,-11.03359 9.1867,-20.02127 20.47503,-20.02127 1.75136,0 3.16837,-1.38517 3.16837,-3.09673 0,-1.71156 -1.41701,-3.09673 -3.16837,-3.09673 -1.21799,0 -2.42803,0.0876 -3.59826,0.24679 0,-0.15126 0.0159,-0.29455 0.0159,-0.43784 0,-14.44875 -12.02869,-26.21473 -26.81178,-26.21473 m -37.1289,6.59946 c -14.77514,0 -26.81178,11.76597 -26.81178,26.21472 0,0.15126 0.0159,0.28659 0.0159,0.43784 -1.17819,-0.15125 -2.38026,-0.24678 -3.59826,-0.24678 -1.75136,0 -3.16837,1.38517 -3.16837,3.09673 0,1.71156 1.41701,3.09673 3.16837,3.09673 11.28833,0 20.47503,8.98767 20.47503,20.02126 0,1.71156 1.41701,3.09673 3.16838,3.09673 1.75136,0 3.16837,-1.38517 3.16837,-3.09673 0,-10.97786 -6.94177,-20.41134 -16.76532,-24.29618 -0.0716,-0.70055 -0.12737,-1.40109 -0.12737,-2.1096 0,-11.03359 9.18669,-20.02126 20.47503,-20.02126 1.75136,0 3.16837,-1.38517 3.16837,-3.09673 0,-1.71156 -1.41701,-3.09673 -3.16837,-3.09673"
     style="clip-rule:evenodd;fill:#fbfbfb;fill-opacity:0.75;fill-rule:nonzero;stroke-width:7.960742;stroke-linejoin:round;stroke-miterlimit:2"
     id="path4" />
</svg>
