<?xml version="1.0" encoding="UTF-8" standalone="no"?>
<svg
   xmlns:dc="http://purl.org/dc/elements/1.1/"
   xmlns:cc="http://creativecommons.org/ns#"
   xmlns:rdf="http://www.w3.org/1999/02/22-rdf-syntax-ns#"
   xmlns:svg="http://www.w3.org/2000/svg"
   xmlns="http://www.w3.org/2000/svg"
   xmlns:xlink="http://www.w3.org/1999/xlink"
   xmlns:sodipodi="http://sodipodi.sourceforge.net/DTD/sodipodi-0.dtd"
   xmlns:inkscape="http://www.inkscape.org/namespaces/inkscape"
   width="512"
   height="512"
   viewBox="0 0 512 512"
   version="1.1"
   id="svg46"
   sodipodi:docname="application-drawing-template.svg"
   inkscape:version="0.92.5 (2060ec1f9f, 2020-04-08)">
  <metadata
     id="metadata50">
    <rdf:RDF>
      <cc:Work
         rdf:about="">
        <dc:format>image/svg+xml</dc:format>
        <dc:type
           rdf:resource="http://purl.org/dc/dcmitype/StillImage" />
        <dc:title></dc:title>
      </cc:Work>
    </rdf:RDF>
  </metadata>
  <sodipodi:namedview
     pagecolor="#ffffff"
     bordercolor="#666666"
     borderopacity="1"
     objecttolerance="10"
     gridtolerance="10"
     guidetolerance="10"
     inkscape:pageopacity="0"
     inkscape:pageshadow="2"
     inkscape:window-width="1908"
     inkscape:window-height="1031"
     id="namedview48"
     showgrid="false"
     inkscape:zoom="0.4609375"
     inkscape:cx="-132.33898"
     inkscape:cy="256"
     inkscape:window-x="1924"
     inkscape:window-y="8"
     inkscape:window-maximized="0"
     inkscape:current-layer="svg46" />
  <defs
     id="defs30">
    <linearGradient
       id="application-vnd.oasis.opendocument.formula-c"
       x1="50%"
       x2="50%"
       y1="0%"
       y2="100%">
      <stop
         offset="0%"
         stop-color="#9BAAC1"
         id="stop2" />
      <stop
         offset="100%"
         stop-color="#779DB2"
         id="stop4" />
    </linearGradient>
    <path
       id="application-vnd.oasis.opendocument.formula-b"
       d="M232,0 L336,104 L336,380 C336,399.882251 319.882251,416 300,416 L36,416 C16.117749,416 2.4348735e-15,399.882251 0,380 L0,36 C-2.4348735e-15,16.117749 16.117749,3.65231026e-15 36,0 L232,0 Z" />
    <filter
       id="application-vnd.oasis.opendocument.formula-a"
       width="127.4%"
       height="122.1%"
       x="-13.7%"
       y="-9.1%"
       filterUnits="objectBoundingBox">
      <feOffset
         dy="8"
         in="SourceAlpha"
         result="shadowOffsetOuter1"
         id="feOffset8" />
      <feGaussianBlur
         in="shadowOffsetOuter1"
         result="shadowBlurOuter1"
         stdDeviation="14"
         id="feGaussianBlur10" />
      <feColorMatrix
         in="shadowBlurOuter1"
         values="0 0 0 0 0.474509804   0 0 0 0 0.619607843   0 0 0 0 0.701960784  0 0 0 0.5 0"
         id="feColorMatrix12" />
    </filter>
    <linearGradient
       id="application-vnd.oasis.opendocument.formula-f"
       x1="50%"
       x2="7.994%"
       y1="50%"
       y2="88.893%">
      <stop
         offset="0%"
         stop-color="#FFF"
         stop-opacity=".1"
         id="stop15" />
      <stop
         offset="100%"
         stop-color="#FFF"
         stop-opacity=".3"
         id="stop17" />
    </linearGradient>
    <path
       id="application-vnd.oasis.opendocument.formula-e"
       d="M232,0 L336,104 L268,104 C248.117749,104 232,87.882251 232,68 L232,0 Z" />
    <filter
       id="application-vnd.oasis.opendocument.formula-d"
       width="126.9%"
       height="126.9%"
       x="-13.5%"
       y="-9.6%"
       filterUnits="objectBoundingBox">
      <feOffset
         dy="4"
         in="SourceAlpha"
         result="shadowOffsetOuter1"
         id="feOffset21" />
      <feGaussianBlur
         in="shadowOffsetOuter1"
         result="shadowBlurOuter1"
         stdDeviation="4"
         id="feGaussianBlur23" />
      <feComposite
         in="shadowBlurOuter1"
         in2="SourceAlpha"
         operator="out"
         result="shadowBlurOuter1"
         id="feComposite25" />
      <feColorMatrix
         in="shadowBlurOuter1"
         values="0 0 0 0 0   0 0 0 0 0   0 0 0 0 0  0 0 0 0.05 0"
         id="feColorMatrix27" />
    </filter>
  </defs>
  <g
     fill="none"
     fill-rule="evenodd"
     id="g44">
    <g
       transform="translate(88 56)"
       id="g40">
      <use
         fill="#000"
         filter="url(#application-vnd.oasis.opendocument.formula-a)"
         xlink:href="#application-vnd.oasis.opendocument.formula-b"
         id="use32" />
      <use
         fill="url(#application-vnd.oasis.opendocument.formula-c)"
         xlink:href="#application-vnd.oasis.opendocument.formula-b"
         id="use34" />
      <use
         fill="#000"
         filter="url(#application-vnd.oasis.opendocument.formula-d)"
         xlink:href="#application-vnd.oasis.opendocument.formula-e"
         id="use36" />
      <use
         fill="url(#application-vnd.oasis.opendocument.formula-f)"
         xlink:href="#application-vnd.oasis.opendocument.formula-e"
         id="use38" />
    </g>
  </g>
  <path
     inkscape:connector-curvature="0"
     d="m 184.59896,371.85863 h 58.75818 v 7.63105 h 21.37188 v -7.63105 h 59.01447 v 8.63143 h 21.37188 v -21.37187 h -7.88735 v -59.75857 h 7.63104 v -21.37187 h -7.63104 v -55.47593 h 7.88735 v -21.37187 h -21.37188 v 4.34878 h -59.01447 v -7.63104 h -21.37188 v 7.63104 h -58.75818 v -5.34091 h -21.37188 v 21.37188 h 7.63104 v 56.46805 h -7.63104 v 21.37187 h 7.63104 v 58.76645 h -7.63104 v 21.36361 h 21.37188 z m -6.1098,0 v 1.52952 h -9.16056 v -9.16056 h 9.16056 z m 70.97777,-166.3699 v -1.52952 h 9.16055 v 9.16056 h -9.16055 v -1.52125 -2.91848 z m 9.16055,166.3699 v 1.52952 h -9.16055 v -1.52952 -3.1913 -2.91022 -1.52952 h 9.16055 z m 1.01692,-79.74974 c 0.58702,0.59527 0.58702,1.56259 0,2.15786 -0.3059,0.29763 -0.69447,0.44645 -1.08306,0.44645 -0.38857,0 -0.78542,-0.14882 -1.08306,-0.44645 l -3.43108,-3.43107 -3.43934,3.43107 c -0.29763,0.29763 -0.68621,0.44645 -1.07478,0.44645 -0.39685,0 -0.78543,-0.14882 -1.08307,-0.44645 -0.59527,-0.59527 -0.59527,-1.56259 0,-2.15786 l 3.43108,-3.43108 -3.43108,-3.43933 c -0.59527,-0.59528 -0.59527,-1.56259 0,-2.15787 0.59527,-0.59526 1.56258,-0.59526 2.15785,0 l 3.43934,3.43935 3.43108,-3.43935 c 0.59527,-0.59526 1.56259,-0.59526 2.15786,0 0.59527,0.59528 0.59527,1.56259 0,2.15787 l -3.43107,3.43933 z m 79.36944,82.27137 h -9.16055 v -2.52163 -6.10152 -0.52913 h 9.16055 z m -15.27035,-15.26207 v 6.63892 h -47.80355 c 26.64664,-7.55663 47.62993,-28.53992 55.18656,-55.19483 v 48.55591 z m 15.01405,-65.8601 h -1.52952 -3.1913 -2.91022 -1.52951 v -9.16056 h 9.16055 z m -8.90425,-86.00836 h 9.16055 v 9.16056 h -1.78582 -6.10152 -1.27321 v -4.81177 z m -6.1098,4.34879 v 10.9133 h 7.38301 v 44.27326 c -7.55663,-26.64663 -28.53992,-47.6382 -55.18656,-55.18656 z M 169.3286,206.24935 h 9.16056 v 9.16056 h -1.52124 -6.1098 -1.52952 z m 15.27036,15.27035 v -9.92118 h 47.55551 c -26.64663,7.54836 -47.63819,28.53993 -55.18655,55.18656 V 221.5197 Z m -15.27036,62.57783 h 9.16056 v 9.1523 h -1.52124 -2.91848 -3.19132 -1.52952 z m 7.63932,26.46475 c 7.54836,26.65491 28.53992,47.6382 55.18655,55.19483 h -47.55551 v -7.63104 h -7.63104 z"
     style="clip-rule:evenodd;fill:#fbfbfc;fill-opacity:1;fill-rule:nonzero;stroke-width:8.26764965;stroke-linejoin:round;stroke-miterlimit:2"
     id="path16" />
</svg>
