<?xml version="1.0" encoding="UTF-8" standalone="no"?>
<svg
   xmlns:dc="http://purl.org/dc/elements/1.1/"
   xmlns:cc="http://creativecommons.org/ns#"
   xmlns:rdf="http://www.w3.org/1999/02/22-rdf-syntax-ns#"
   xmlns:svg="http://www.w3.org/2000/svg"
   xmlns="http://www.w3.org/2000/svg"
   xmlns:xlink="http://www.w3.org/1999/xlink"
   xmlns:sodipodi="http://sodipodi.sourceforge.net/DTD/sodipodi-0.dtd"
   xmlns:inkscape="http://www.inkscape.org/namespaces/inkscape"
   width="512"
   height="512"
   viewBox="0 0 512 512"
   version="1.1"
   id="svg50"
   sodipodi:docname="application-ascii.svg"
   inkscape:version="0.92.5 (2060ec1f9f, 2020-04-08)">
  <metadata
     id="metadata54">
    <rdf:RDF>
      <cc:Work
         rdf:about="">
        <dc:format>image/svg+xml</dc:format>
        <dc:type
           rdf:resource="http://purl.org/dc/dcmitype/StillImage" />
        <dc:title></dc:title>
      </cc:Work>
    </rdf:RDF>
  </metadata>
  <sodipodi:namedview
     pagecolor="#ffffff"
     bordercolor="#666666"
     borderopacity="1"
     objecttolerance="10"
     gridtolerance="10"
     guidetolerance="10"
     inkscape:pageopacity="0"
     inkscape:pageshadow="2"
     inkscape:window-width="1908"
     inkscape:window-height="1031"
     id="namedview52"
     showgrid="false"
     inkscape:zoom="0.4609375"
     inkscape:cx="-132.33898"
     inkscape:cy="256"
     inkscape:window-x="1924"
     inkscape:window-y="1084"
     inkscape:window-maximized="0"
     inkscape:current-layer="svg50" />
  <defs
     id="defs30">
    <linearGradient
       id="application-x-sln-c"
       x1="50%"
       x2="50%"
       y1="0%"
       y2="100%">
      <stop
         offset="0%"
         stop-color="#808EA3"
         id="stop2" />
      <stop
         offset="100%"
         stop-color="#4A6C7F"
         id="stop4" />
    </linearGradient>
    <path
       id="application-x-sln-b"
       d="M232,0 L336,104 L336,380 C336,399.882251 319.882251,416 300,416 L36,416 C16.117749,416 2.4348735e-15,399.882251 0,380 L0,36 C-2.4348735e-15,16.117749 16.117749,3.65231026e-15 36,0 L232,0 Z" />
    <filter
       id="application-x-sln-a"
       width="127.4%"
       height="122.1%"
       x="-13.7%"
       y="-9.1%"
       filterUnits="objectBoundingBox">
      <feOffset
         dy="8"
         in="SourceAlpha"
         result="shadowOffsetOuter1"
         id="feOffset8" />
      <feGaussianBlur
         in="shadowOffsetOuter1"
         result="shadowBlurOuter1"
         stdDeviation="14"
         id="feGaussianBlur10" />
      <feColorMatrix
         in="shadowBlurOuter1"
         values="0 0 0 0 0.474509804   0 0 0 0 0.619607843   0 0 0 0 0.701960784  0 0 0 0.5 0"
         id="feColorMatrix12" />
    </filter>
    <linearGradient
       id="application-x-sln-f"
       x1="50%"
       x2="7.994%"
       y1="50%"
       y2="88.893%">
      <stop
         offset="0%"
         stop-color="#FFF"
         stop-opacity=".1"
         id="stop15" />
      <stop
         offset="100%"
         stop-color="#FFF"
         stop-opacity=".3"
         id="stop17" />
    </linearGradient>
    <path
       id="application-x-sln-e"
       d="M232,0 L336,104 L268,104 C248.117749,104 232,87.882251 232,68 L232,0 Z" />
    <filter
       id="application-x-sln-d"
       width="126.9%"
       height="126.9%"
       x="-13.5%"
       y="-9.6%"
       filterUnits="objectBoundingBox">
      <feOffset
         dy="4"
         in="SourceAlpha"
         result="shadowOffsetOuter1"
         id="feOffset21" />
      <feGaussianBlur
         in="shadowOffsetOuter1"
         result="shadowBlurOuter1"
         stdDeviation="4"
         id="feGaussianBlur23" />
      <feComposite
         in="shadowBlurOuter1"
         in2="SourceAlpha"
         operator="out"
         result="shadowBlurOuter1"
         id="feComposite25" />
      <feColorMatrix
         in="shadowBlurOuter1"
         values="0 0 0 0 0   0 0 0 0 0   0 0 0 0 0  0 0 0 0.05 0"
         id="feColorMatrix27" />
    </filter>
  </defs>
  <g
     fill="none"
     fill-rule="evenodd"
     id="g48">
    <g
       transform="translate(88 56)"
       id="g40">
      <use
         fill="#000"
         filter="url(#application-x-sln-a)"
         xlink:href="#application-x-sln-b"
         id="use32" />
      <use
         fill="url(#application-x-sln-c)"
         xlink:href="#application-x-sln-b"
         id="use34" />
      <use
         fill="#000"
         filter="url(#application-x-sln-d)"
         xlink:href="#application-x-sln-e"
         id="use36" />
      <use
         fill="url(#application-x-sln-f)"
         xlink:href="#application-x-sln-e"
         id="use38" />
    </g>
  </g>
  <path
     inkscape:connector-curvature="0"
     d="M 315.22573,310.33271 H 295.2359 v -39.97966 h 19.98983 c 22.07968,0 39.97966,-17.89998 39.97966,-39.97966 0,-22.07967 -17.89998,-39.97966 -39.97966,-39.97966 -22.07968,0 -39.97966,17.89999 -39.97966,39.97966 v 19.98983 h -39.97966 v -19.98983 c 0,-22.07967 -17.89998,-39.97966 -39.97966,-39.97966 -22.07967,0 -39.97966,17.89999 -39.97966,39.97966 0,22.07968 17.89999,39.97966 39.97966,39.97966 h 19.98983 v 39.97966 h -19.98983 c -22.07967,0 -39.97966,17.89999 -39.97966,39.97966 0,22.07968 17.89999,39.97966 39.97966,39.97966 22.07968,0 39.97966,-17.89998 39.97966,-39.97966 v -19.98983 h 39.97966 v 19.98983 c 0,22.07968 17.89998,39.97966 39.97966,39.97966 22.07968,0 39.97966,-17.89998 39.97966,-39.97966 0,-22.07967 -17.89998,-39.97057 -39.97966,-39.97966 z m 0,-99.94915 c 11.03984,0 19.98983,8.95 19.98983,19.98983 0,11.03984 -8.94999,19.98983 -19.98983,19.98983 H 295.2359 v -19.98983 c 0,-11.03983 8.94999,-19.98983 19.98983,-19.98983 z m -139.92881,19.98983 c 0,-11.03983 8.95,-19.98983 19.98983,-19.98983 11.03984,0 19.98983,8.95 19.98983,19.98983 v 19.98983 h -19.98983 c -11.03983,0 -19.98983,-8.94999 -19.98983,-19.98983 z m 19.98983,139.92882 c -11.03983,0 -19.98983,-8.95 -19.98983,-19.98984 0,-11.03983 8.95,-19.98983 19.98983,-19.98983 h 19.98983 v 19.98983 c 0,11.03984 -8.94999,19.98984 -19.98983,19.98984 z m 39.97966,-59.9695 v -39.97966 h 39.97966 v 39.97966 z m 79.95932,59.9695 c -11.03984,0 -19.98983,-8.95 -19.98983,-19.98984 v -19.98983 h 19.98983 c 11.03984,0 19.98983,8.95 19.98983,19.98983 0,11.03984 -8.94999,19.98984 -19.98983,19.98984 z"
     style="clip-rule:evenodd;fill:#ffffff;fill-opacity:1;fill-rule:nonzero;stroke-width:9.08628654;stroke-linejoin:round;stroke-miterlimit:2"
     id="path6" />
</svg>
