<?xml version="1.0" encoding="UTF-8" standalone="no"?>
<svg
   xmlns:dc="http://purl.org/dc/elements/1.1/"
   xmlns:cc="http://creativecommons.org/ns#"
   xmlns:rdf="http://www.w3.org/1999/02/22-rdf-syntax-ns#"
   xmlns:svg="http://www.w3.org/2000/svg"
   xmlns="http://www.w3.org/2000/svg"
   xmlns:xlink="http://www.w3.org/1999/xlink"
   xmlns:sodipodi="http://sodipodi.sourceforge.net/DTD/sodipodi-0.dtd"
   xmlns:inkscape="http://www.inkscape.org/namespaces/inkscape"
   width="512"
   height="512"
   viewBox="0 0 512 512"
   version="1.1"
   id="svg46"
   sodipodi:docname="text-x-sass.svg"
   inkscape:version="0.92.5 (2060ec1f9f, 2020-04-08)">
  <metadata
     id="metadata50">
    <rdf:RDF>
      <cc:Work
         rdf:about="">
        <dc:format>image/svg+xml</dc:format>
        <dc:type
           rdf:resource="http://purl.org/dc/dcmitype/StillImage" />
        <dc:title></dc:title>
      </cc:Work>
    </rdf:RDF>
  </metadata>
  <sodipodi:namedview
     pagecolor="#ffffff"
     bordercolor="#666666"
     borderopacity="1"
     objecttolerance="10"
     gridtolerance="10"
     guidetolerance="10"
     inkscape:pageopacity="0"
     inkscape:pageshadow="2"
     inkscape:window-width="1908"
     inkscape:window-height="1031"
     id="namedview48"
     showgrid="false"
     inkscape:zoom="0.4609375"
     inkscape:cx="-132.33898"
     inkscape:cy="256"
     inkscape:window-x="1924"
     inkscape:window-y="8"
     inkscape:window-maximized="0"
     inkscape:current-layer="svg46" />
  <defs
     id="defs30">
    <linearGradient
       id="text-x-chdr-c"
       x1="50%"
       x2="50%"
       y1="0%"
       y2="99.628%">
      <stop
         offset="0%"
         stop-color="#FF4BB4"
         id="stop2" />
      <stop
         offset="98.915%"
         stop-color="#F6237B"
         id="stop4" />
    </linearGradient>
    <path
       id="text-x-chdr-b"
       d="M232,0 L336,104 L336,380 C336,399.882251 319.882251,416 300,416 L36,416 C16.117749,416 2.4348735e-15,399.882251 0,380 L0,36 C-2.4348735e-15,16.117749 16.117749,3.65231026e-15 36,0 L232,0 Z" />
    <filter
       id="text-x-chdr-a"
       width="127.4%"
       height="122.1%"
       x="-13.7%"
       y="-9.1%"
       filterUnits="objectBoundingBox">
      <feOffset
         dy="8"
         in="SourceAlpha"
         result="shadowOffsetOuter1"
         id="feOffset8" />
      <feGaussianBlur
         in="shadowOffsetOuter1"
         result="shadowBlurOuter1"
         stdDeviation="14"
         id="feGaussianBlur10" />
      <feColorMatrix
         in="shadowBlurOuter1"
         values="0 0 0 0 0.920884284   0 0 0 0 0.0193547135   0 0 0 0 0.46292854  0 0 0 0.5 0"
         id="feColorMatrix12" />
    </filter>
    <linearGradient
       id="text-x-chdr-f"
       x1="50%"
       x2="7.994%"
       y1="50%"
       y2="88.893%">
      <stop
         offset="0%"
         stop-color="#FFF"
         stop-opacity=".1"
         id="stop15" />
      <stop
         offset="100%"
         stop-color="#FFF"
         stop-opacity=".3"
         id="stop17" />
    </linearGradient>
    <path
       id="text-x-chdr-e"
       d="M232,0 L336,104 L268,104 C248.117749,104 232,87.882251 232,68 L232,0 Z" />
    <filter
       id="text-x-chdr-d"
       width="126.9%"
       height="126.9%"
       x="-13.5%"
       y="-9.6%"
       filterUnits="objectBoundingBox">
      <feOffset
         dy="4"
         in="SourceAlpha"
         result="shadowOffsetOuter1"
         id="feOffset21" />
      <feGaussianBlur
         in="shadowOffsetOuter1"
         result="shadowBlurOuter1"
         stdDeviation="4"
         id="feGaussianBlur23" />
      <feComposite
         in="shadowBlurOuter1"
         in2="SourceAlpha"
         operator="out"
         result="shadowBlurOuter1"
         id="feComposite25" />
      <feColorMatrix
         in="shadowBlurOuter1"
         values="0 0 0 0 0   0 0 0 0 0   0 0 0 0 0  0 0 0 0.05 0"
         id="feColorMatrix27" />
    </filter>
  </defs>
  <g
     fill="none"
     fill-rule="evenodd"
     id="g44">
    <g
       transform="translate(88 56)"
       id="g40">
      <use
         fill="#000"
         filter="url(#text-x-chdr-a)"
         xlink:href="#text-x-chdr-b"
         id="use32" />
      <use
         fill="url(#text-x-chdr-c)"
         xlink:href="#text-x-chdr-b"
         id="use34" />
      <use
         fill="#000"
         filter="url(#text-x-chdr-d)"
         xlink:href="#text-x-chdr-e"
         id="use36" />
      <use
         fill="url(#text-x-chdr-f)"
         xlink:href="#text-x-chdr-e"
         id="use38" />
    </g>
  </g>
  <path
     inkscape:connector-curvature="0"
     d="m 233.59481,334.06913 c 1.80386,6.66237 1.60816,12.87376 -0.25526,18.49806 -0.20421,0.62965 -0.43395,1.25079 -0.6807,1.85491 -0.24676,0.61263 -0.51904,1.21675 -0.79983,1.81236 -1.43798,2.97807 -3.36096,5.76044 -5.71789,8.33859 -7.19841,7.84508 -17.24726,10.81464 -21.5612,8.31307 -4.6543,-2.69728 -2.3229,-13.76718 6.0242,-22.58226 8.96824,-9.47877 21.88454,-15.57955 21.88454,-15.57955 l -0.0255,-0.0426 c 0.36587,-0.1957 0.74877,-0.40842 1.13166,-0.61263 z M 335.87016,222.0002 c -5.60728,-21.98664 -42.06733,-29.21909 -76.57888,-16.95796 -20.54016,7.30052 -42.77356,18.7448 -58.75302,33.70321 -19.00858,17.77481 -22.0377,33.25225 -20.79542,39.71891 4.40754,22.812 35.66874,37.72786 48.51698,48.78925 v 0.0681 c -3.7864,1.86342 -31.51647,15.90288 -38.00865,30.24866 -6.84956,15.13709 1.08912,26.00278 6.34754,27.46629 16.27726,4.52666 32.98847,-3.61622 41.97373,-17.01753 8.66192,-12.92481 7.93868,-29.61901 4.1778,-37.91505 5.19035,-1.37842 11.24859,-1.99105 18.94902,-1.08912 21.71436,2.53561 25.97726,16.09858 25.16041,21.77393 -0.80833,5.67534 -5.36903,8.79806 -6.89209,9.73402 -1.52307,0.94447 -1.98255,1.27632 -1.85492,1.97403 0.17869,1.02106 0.88492,0.97851 2.18676,0.75728 1.78684,-0.2978 11.40174,-4.61175 11.81867,-15.09454 0.51903,-13.2992 -12.22709,-28.18103 -34.80084,-27.78963 -9.29157,0.16167 -15.1371,1.04658 -19.35744,2.6207 -0.31483,-0.35736 -0.62965,-0.71473 -0.96149,-1.06359 -13.95438,-14.89034 -39.74444,-25.41568 -38.65532,-45.42829 0.39991,-7.28351 2.92702,-26.43673 49.57206,-49.68268 38.20435,-19.0341 68.78485,-13.7927 74.06879,-2.18675 7.55579,16.59209 -16.34533,47.41934 -56.0217,51.86943 -15.11157,1.69324 -23.07577,-4.1693 -25.0498,-6.34754 -2.08465,-2.29737 -2.39947,-2.39947 -3.17377,-1.97403 -1.26781,0.70622 -0.46798,2.73131 0,3.93955 1.18272,3.08868 6.04122,8.55131 14.32876,11.27412 7.29201,2.39096 25.04129,3.70131 46.50039,-4.59474 24.04577,-9.30008 42.81611,-35.16672 37.30243,-56.78749"
     style="clip-rule:evenodd;fill:#ffffff;fill-rule:nonzero;stroke-width:8.50876427;stroke-linejoin:round;stroke-miterlimit:2"
     id="path12" />
</svg>
