<?xml version="1.0" encoding="UTF-8" standalone="no"?>
<svg
   xmlns:dc="http://purl.org/dc/elements/1.1/"
   xmlns:cc="http://creativecommons.org/ns#"
   xmlns:rdf="http://www.w3.org/1999/02/22-rdf-syntax-ns#"
   xmlns:svg="http://www.w3.org/2000/svg"
   xmlns="http://www.w3.org/2000/svg"
   xmlns:xlink="http://www.w3.org/1999/xlink"
   xmlns:sodipodi="http://sodipodi.sourceforge.net/DTD/sodipodi-0.dtd"
   xmlns:inkscape="http://www.inkscape.org/namespaces/inkscape"
   width="512"
   height="512"
   viewBox="0 0 512 512"
   version="1.1"
   id="svg50"
   sodipodi:docname="xoj.svg"
   inkscape:version="0.92.5 (2060ec1f9f, 2020-04-08)">
  <metadata
     id="metadata54">
    <rdf:RDF>
      <cc:Work
         rdf:about="">
        <dc:format>image/svg+xml</dc:format>
        <dc:type
           rdf:resource="http://purl.org/dc/dcmitype/StillImage" />
        <dc:title></dc:title>
      </cc:Work>
    </rdf:RDF>
  </metadata>
  <sodipodi:namedview
     pagecolor="#ffffff"
     bordercolor="#666666"
     borderopacity="1"
     objecttolerance="10"
     gridtolerance="10"
     guidetolerance="10"
     inkscape:pageopacity="0"
     inkscape:pageshadow="2"
     inkscape:window-width="1908"
     inkscape:window-height="1031"
     id="namedview52"
     showgrid="false"
     inkscape:zoom="1.2425352"
     inkscape:cx="73.846184"
     inkscape:cy="338.6604"
     inkscape:window-x="1924"
     inkscape:window-y="8"
     inkscape:window-maximized="0"
     inkscape:current-layer="svg50" />
  <defs
     id="defs34">
    <linearGradient
       id="text-x-changelog-c"
       x1="50%"
       x2="50%"
       y1="0%"
       y2="98.947%">
      <stop
         offset="0%"
         stop-color="#F7F7F7"
         id="stop2" />
      <stop
         offset="100%"
         stop-color="#F6F6F6"
         id="stop4" />
    </linearGradient>
    <path
       id="text-x-changelog-b"
       d="M232,0 L336,104 L336,380 C336,399.882251 319.882251,416 300,416 L36,416 C16.117749,416 2.4348735e-15,399.882251 0,380 L0,36 C-2.4348735e-15,16.117749 16.117749,3.65231026e-15 36,0 L232,0 Z" />
    <filter
       id="text-x-changelog-a"
       width="128.6%"
       height="123.1%"
       x="-14.3%"
       y="-9.6%"
       filterUnits="objectBoundingBox">
      <feMorphology
         in="SourceAlpha"
         operator="dilate"
         radius="2"
         result="shadowSpreadOuter1"
         id="feMorphology8" />
      <feOffset
         dy="8"
         in="shadowSpreadOuter1"
         result="shadowOffsetOuter1"
         id="feOffset10" />
      <feGaussianBlur
         in="shadowOffsetOuter1"
         result="shadowBlurOuter1"
         stdDeviation="14"
         id="feGaussianBlur12" />
      <feComposite
         in="shadowBlurOuter1"
         in2="SourceAlpha"
         operator="out"
         result="shadowBlurOuter1"
         id="feComposite14" />
      <feColorMatrix
         in="shadowBlurOuter1"
         values="0 0 0 0 0   0 0 0 0 0   0 0 0 0 0  0 0 0 0.1 0"
         id="feColorMatrix16" />
    </filter>
    <linearGradient
       id="text-x-changelog-f"
       x1="50%"
       x2="7.994%"
       y1="50%"
       y2="88.893%">
      <stop
         offset="0%"
         stop-color="#FFF"
         stop-opacity=".1"
         id="stop19" />
      <stop
         offset="100%"
         stop-color="#FFF"
         stop-opacity=".3"
         id="stop21" />
    </linearGradient>
    <path
       id="text-x-changelog-e"
       d="M232,0 L336,104 L268,104 C248.117749,104 232,87.882251 232,68 L232,0 Z" />
    <filter
       id="text-x-changelog-d"
       width="126.9%"
       height="126.9%"
       x="-13.5%"
       y="-9.6%"
       filterUnits="objectBoundingBox">
      <feOffset
         dy="4"
         in="SourceAlpha"
         result="shadowOffsetOuter1"
         id="feOffset25" />
      <feGaussianBlur
         in="shadowOffsetOuter1"
         result="shadowBlurOuter1"
         stdDeviation="4"
         id="feGaussianBlur27" />
      <feComposite
         in="shadowBlurOuter1"
         in2="SourceAlpha"
         operator="out"
         result="shadowBlurOuter1"
         id="feComposite29" />
      <feColorMatrix
         in="shadowBlurOuter1"
         values="0 0 0 0 0   0 0 0 0 0   0 0 0 0 0  0 0 0 0.05 0"
         id="feColorMatrix31" />
    </filter>
  </defs>
  <g
     fill="none"
     fill-rule="evenodd"
     id="g48">
    <g
       transform="translate(88 56)"
       id="g44">
      <use
         fill="#000"
         filter="url(#text-x-changelog-a)"
         xlink:href="#text-x-changelog-b"
         id="use36" />
      <path
         fill="url(#text-x-changelog-c)"
         stroke="#000"
         stroke-opacity=".1"
         stroke-width="2"
         d="M232.414214,-1 L337,103.585786 L337,380 C337,400.434536 320.434536,417 300,417 L36,417 C15.5654643,417 -1,400.434536 -1,380 L-1,36 C-1,15.5654643 15.5654643,-1 36,-1 L232.414214,-1 Z"
         id="path38" />
      <use
         fill="#000"
         filter="url(#text-x-changelog-d)"
         xlink:href="#text-x-changelog-e"
         id="use40" />
      <use
         fill="url(#text-x-changelog-f)"
         xlink:href="#text-x-changelog-e"
         id="use42" />
    </g>
  </g>
  <path
     d="m 257.24022,270.00428 c -3.31557,-3.21087 -8.36186,-2.62486 -11.64645,0.61769 0,0 25.39163,28.17048 6.60509,16.70787 l 72.57999,70.35286 c 3.17249,3.07514 8.25518,2.94631 11.31106,-0.24473 3.05588,-3.19105 2.92917,-8.23738 -0.24474,-11.31106 z"
     id="path46-3"
     inkscape:connector-curvature="0"
     style="fill:#7b83d6;fill-rule:nonzero"
     sodipodi:nodetypes="sccssss" />
  <path
     d="m 257.24022,290.62114 c -3.31557,3.21087 -8.36186,2.62486 -11.64645,-0.61769 0,0 25.39163,-28.17048 6.60509,-16.70787 l 72.57999,-70.35286 c 3.17249,-3.07514 8.25518,-2.94631 11.31106,0.24473 3.05588,3.19105 2.92917,8.23738 -0.24474,11.31106 z"
     id="path46-3-7"
     inkscape:connector-curvature="0"
     style="fill:#7b83d6;fill-rule:nonzero"
     sodipodi:nodetypes="sccssss" />
  <path
     d="m 257.24022,270.00428 c 3.31557,-3.21087 8.36186,-2.62486 11.64645,0.61769 0,0 -25.39163,28.17048 -6.60509,16.70787 l -72.57999,70.35285 c -3.17249,3.07514 -8.25518,2.94631 -11.31106,-0.24473 -3.05588,-3.19105 -2.92917,-8.23738 0.24474,-11.31106 z"
     id="path46-3-5"
     inkscape:connector-curvature="0"
     style="fill:#7b83d6;fill-rule:nonzero"
     sodipodi:nodetypes="sccssss" />
  <path
     d="m 257.24022,290.62114 c 3.31557,3.21087 8.36186,2.62486 11.64645,-0.61769 0,0 -25.39163,-28.17048 -6.60509,-16.70787 l -72.57999,-70.35286 c -3.17249,-3.07514 -8.25518,-2.94631 -11.31106,0.24473 -3.05588,3.19105 -2.92917,8.23738 0.24474,11.31106 z"
     id="path46-3-7-3"
     inkscape:connector-curvature="0"
     style="fill:#7b83d6;fill-rule:nonzero"
     sodipodi:nodetypes="sccssss" />
</svg>
